<svg xmlns="http://www.w3.org/2000/svg" viewBox="0 0 291.4 439.42"><defs><style>.cls-1{fill:#f9f6ed;stroke:#1d1d1b;stroke-miterlimit:10;}.cls-2{fill:#3caee4;}.cls-3{fill:#010101;}.cls-4{opacity:0.09;}.cls-5{font-size:78px;fill:#fff;font-family:Modern-Regular, "Modern No. 20";}.cls-6{fill:#adacac;}</style></defs><g id="Layer_1" data-name="Layer 1"><rect class="cls-1" x="0.5" y="0.5" width="290.4" height="438.42" rx="25.14"/></g><g id="Layer_2" data-name="Layer 2"><rect class="cls-2" x="10.67" y="28.18" width="266.67" height="156.5"/></g><g id="Layer_4" data-name="Layer 4"><path class="cls-3" d="M121.65,272.46c-4,28.65-29.38,46.06-67.45,47.87,24.29,21.76,50.76,50,76.87,78.33H95.54C72.33,374.72,49.12,349,20.11,322.51V300H38.24c31.91,0,49-10.87,51.86-27.56h-70V255.78H89c-5.08-13.41-20.67-21.39-46.42-21.39H20.11V211.54h136v16.69h-50c8,6.52,13.42,15.59,15.23,27.55h35.18v16.68Z" transform="translate(-3.36 -5.5)"/><g class="cls-4"><path class="cls-3" d="M27.43,45.11c.81,2.41-.51,4.76-3.43,6.39,2.76.76,5.94,2,9.09,3.15L30.3,56c-2.76-1-5.58-2.1-8.89-3l-.87-1.76L22,50.52c2.5-1.24,3.42-2.76,3-4.18l-5.5,2.73-.65-1.31,5.41-2.69c-.92-.85-2.45-.87-4.47.13L18,46.08l-.89-1.8L27.77,39l.65,1.31-3.93,2a3.73,3.73,0,0,1,2.27,1.57l2.76-1.37.65,1.31Z" transform="translate(-3.36 -5.5)"/></g><g class="cls-4"><path class="cls-3" d="M270.6,175.07c.8,2.41-.52,4.76-3.43,6.39,2.75.76,5.93,1.95,9.08,3.15L273.46,186c-2.75-1-5.58-2.1-8.89-3l-.87-1.77,1.42-.71c2.51-1.24,3.42-2.76,3-4.18L262.63,179l-.65-1.31,5.41-2.69c-.93-.85-2.46-.87-4.48.13l-1.77.88-.89-1.8L270.93,169l.65,1.31-3.93,2a3.73,3.73,0,0,1,2.27,1.57l2.76-1.37.65,1.31Z" transform="translate(-3.36 -5.5)"/></g><g class="cls-4"><path class="cls-3" d="M252,175.07c.8,2.41-.52,4.76-3.43,6.39,2.75.76,5.93,1.95,9.08,3.15L254.83,186c-2.75-1-5.58-2.1-8.89-3l-.87-1.77,1.42-.71c2.51-1.24,3.42-2.76,3-4.18L244,179l-.65-1.31,5.41-2.69c-.93-.85-2.46-.87-4.48.13l-1.77.88-.89-1.8L252.3,169l.65,1.31-3.93,2a3.73,3.73,0,0,1,2.27,1.57l2.76-1.37.65,1.31Z" transform="translate(-3.36 -5.5)"/></g><g class="cls-4"><path class="cls-3" d="M246.6,149.5c.81,2.41-.51,4.76-3.43,6.39,2.76.76,5.94,2,9.09,3.15l-2.79,1.39c-2.76-1-5.58-2.1-8.89-3.05l-.87-1.76,1.42-.71c2.5-1.24,3.42-2.76,3-4.18l-5.5,2.73-.65-1.31,5.41-2.69c-.92-.85-2.45-.87-4.47.13l-1.77.88-.89-1.8,10.68-5.29.65,1.31-3.93,1.95a3.73,3.73,0,0,1,2.27,1.57l2.76-1.37.65,1.31Z" transform="translate(-3.36 -5.5)"/></g><g class="cls-4"><path class="cls-3" d="M267.58,152.93c.8,2.41-.52,4.76-3.43,6.39,2.75.76,5.93,2,9.08,3.15l-2.79,1.39c-2.75-1-5.58-2.1-8.89-3.05l-.87-1.76,1.42-.71c2.51-1.24,3.42-2.76,3-4.18l-5.49,2.73-.65-1.31,5.41-2.69c-.93-.85-2.46-.87-4.48.13l-1.77.88-.89-1.8,10.68-5.29.65,1.31-3.93,1.95a3.73,3.73,0,0,1,2.27,1.57l2.76-1.37.65,1.31Z" transform="translate(-3.36 -5.5)"/></g><g class="cls-4"><path class="cls-3" d="M270.6,132.64c.8,2.4-.52,4.75-3.43,6.38,2.75.76,5.93,1.95,9.08,3.16l-2.79,1.38c-2.75-1-5.58-2.09-8.89-3l-.87-1.77,1.42-.7c2.51-1.25,3.42-2.76,3-4.19l-5.49,2.73-.65-1.31,5.41-2.68c-.93-.86-2.46-.88-4.48.12l-1.77.88-.89-1.79,10.68-5.3.65,1.31-3.93,2a3.73,3.73,0,0,1,2.27,1.57l2.76-1.37.65,1.31Z" transform="translate(-3.36 -5.5)"/></g><g class="cls-4"><path class="cls-3" d="M229.8,161.46c.81,2.4-.51,4.75-3.43,6.38,2.76.76,5.94,1.95,9.09,3.16l-2.79,1.38c-2.76-1-5.58-2.09-8.89-3l-.87-1.77,1.42-.7c2.5-1.25,3.42-2.76,3-4.19l-5.5,2.73-.65-1.31,5.41-2.68c-.92-.86-2.45-.88-4.48.12l-1.76.88-.89-1.79,10.68-5.3.65,1.31-3.93,2a3.73,3.73,0,0,1,2.27,1.57l2.76-1.37.65,1.31Z" transform="translate(-3.36 -5.5)"/></g><g class="cls-4"><path class="cls-3" d="M217.7,175.07c.81,2.41-.51,4.76-3.43,6.39,2.76.76,5.94,1.95,9.09,3.15L220.57,186c-2.76-1-5.58-2.1-8.89-3l-.87-1.77,1.42-.71c2.5-1.24,3.42-2.76,3-4.18l-5.5,2.73-.65-1.31,5.41-2.69c-.92-.85-2.45-.87-4.47.13l-1.77.88-.89-1.8L218,169l.65,1.31-3.93,2a3.73,3.73,0,0,1,2.27,1.57l2.76-1.37.65,1.31Z" transform="translate(-3.36 -5.5)"/></g><g class="cls-4"><path class="cls-3" d="M204.16,174.15c.8,2.41-.51,4.76-3.43,6.38,2.75.77,5.93,2,9.08,3.16L207,185.07c-2.75-1-5.57-2.09-8.88-3l-.88-1.76,1.43-.71c2.5-1.24,3.42-2.76,3-4.18l-5.49,2.72-.65-1.31,5.41-2.68c-.92-.85-2.46-.87-4.48.13l-1.76.87-.89-1.79L204.49,168l.65,1.31-3.93,1.95a3.68,3.68,0,0,1,2.27,1.57l2.76-1.37.65,1.31Z" transform="translate(-3.36 -5.5)"/></g><g class="cls-4"><path class="cls-3" d="M185.53,174.15c.8,2.41-.51,4.76-3.43,6.38,2.75.77,5.93,2,9.08,3.16l-2.79,1.38c-2.75-1-5.57-2.09-8.88-3l-.88-1.76,1.43-.71c2.5-1.24,3.42-2.76,3-4.18l-5.49,2.72-.65-1.31,5.41-2.68c-.92-.85-2.46-.87-4.48.13l-1.76.87-.89-1.79L185.86,168l.65,1.31-3.93,1.95a3.73,3.73,0,0,1,2.27,1.57l2.76-1.37.65,1.31Z" transform="translate(-3.36 -5.5)"/></g><g class="cls-4"><path class="cls-3" d="M180.17,148.58c.8,2.41-.52,4.76-3.43,6.38,2.75.77,5.93,2,9.08,3.16L183,159.5c-2.75-1-5.58-2.09-8.88-3l-.88-1.76,1.42-.71c2.51-1.24,3.42-2.76,3-4.18l-5.49,2.72-.65-1.31,5.41-2.68c-.92-.85-2.46-.87-4.48.13l-1.77.87-.88-1.79,10.67-5.29.65,1.31-3.93,1.95a3.73,3.73,0,0,1,2.27,1.57l2.76-1.37.65,1.31Z" transform="translate(-3.36 -5.5)"/></g><g class="cls-4"><path class="cls-3" d="M201.14,152c.8,2.4-.51,4.76-3.43,6.38,2.75.77,5.93,2,9.08,3.16L204,162.93c-2.75-1-5.57-2.09-8.88-3l-.88-1.76,1.43-.71c2.5-1.24,3.42-2.76,3-4.18L193.17,156l-.65-1.31,5.41-2.68c-.92-.85-2.46-.87-4.48.13l-1.76.87-.89-1.79,10.67-5.29.65,1.31-3.93,1.94a3.81,3.81,0,0,1,2.27,1.57l2.76-1.37.65,1.31Z" transform="translate(-3.36 -5.5)"/></g><g class="cls-4"><path class="cls-3" d="M204.16,131.71c.8,2.41-.51,4.76-3.43,6.39,2.75.76,5.93,2,9.08,3.15L207,142.64c-2.75-1-5.57-2.1-8.88-3l-.88-1.76,1.43-.71c2.5-1.24,3.42-2.76,3-4.18l-5.49,2.73-.65-1.31,5.41-2.69c-.92-.85-2.46-.87-4.48.13l-1.76.88-.89-1.8,10.67-5.29.65,1.31-3.93,1.95a3.68,3.68,0,0,1,2.27,1.57l2.76-1.37.65,1.31Z" transform="translate(-3.36 -5.5)"/></g><g class="cls-4"><path class="cls-3" d="M163.37,160.53c.8,2.41-.52,4.76-3.43,6.39,2.75.76,5.93,2,9.08,3.15l-2.79,1.39c-2.75-1-5.58-2.1-8.89-3.05l-.87-1.76,1.42-.71c2.51-1.24,3.42-2.76,3-4.18l-5.49,2.73-.65-1.31,5.41-2.69c-.93-.85-2.46-.87-4.48.13l-1.77.88-.89-1.8,10.68-5.29.65,1.31-3.93,1.95a3.73,3.73,0,0,1,2.27,1.57l2.76-1.37.65,1.31Z" transform="translate(-3.36 -5.5)"/></g><g class="cls-4"><path class="cls-3" d="M151.27,174.15c.8,2.41-.51,4.76-3.43,6.38,2.75.77,5.93,2,9.08,3.16l-2.79,1.38c-2.75-1-5.58-2.09-8.88-3l-.88-1.76,1.42-.71c2.51-1.24,3.42-2.76,3-4.18l-5.49,2.72-.65-1.31,5.41-2.68c-.92-.85-2.46-.87-4.48.13l-1.76.87-.89-1.79L151.6,168l.65,1.31-3.93,1.95a3.73,3.73,0,0,1,2.27,1.57l2.76-1.37.65,1.31Z" transform="translate(-3.36 -5.5)"/></g><g class="cls-4"><path class="cls-3" d="M43.43,45.11c.8,2.41-.51,4.76-3.43,6.39,2.75.76,5.93,2,9.08,3.15L46.29,56c-2.75-1-5.57-2.1-8.88-3l-.88-1.76L38,50.52c2.5-1.24,3.41-2.76,3-4.18l-5.49,2.73-.65-1.31,5.41-2.69c-.92-.85-2.46-.87-4.48.13L34,46.08l-.89-1.8L43.76,39l.65,1.31-3.93,2a3.73,3.73,0,0,1,2.27,1.57l2.76-1.37.65,1.31Z" transform="translate(-3.36 -5.5)"/></g><g class="cls-4"><path class="cls-3" d="M30.45,64.57C31.26,67,29.94,69.33,27,71c2.76.76,5.94,2,9.09,3.16l-2.79,1.38c-2.76-1-5.58-2.09-8.89-3l-.87-1.77L25,70c2.5-1.24,3.42-2.76,3-4.18l-5.5,2.72-.65-1.31,5.41-2.68c-.92-.86-2.45-.88-4.47.13L21,65.53l-.89-1.79,10.68-5.3.65,1.31-3.93,2a3.73,3.73,0,0,1,2.27,1.57l2.76-1.37.65,1.31Z" transform="translate(-3.36 -5.5)"/></g><g class="cls-4"><path class="cls-3" d="M27.43,81.61C28.24,84,26.92,86.37,24,88c2.76.76,5.94,2,9.09,3.15L30.3,92.54c-2.76-1-5.58-2.1-8.89-3l-.87-1.77L22,87c2.5-1.25,3.42-2.76,3-4.19l-5.5,2.73-.65-1.31,5.41-2.68c-.92-.86-2.45-.88-4.47.12L18,82.58l-.89-1.79,10.68-5.3.65,1.31-3.93,2a3.73,3.73,0,0,1,2.27,1.57L29.52,79l.65,1.31Z" transform="translate(-3.36 -5.5)"/></g><g class="cls-4"><path class="cls-3" d="M47.53,67.39c.8,2.41-.51,4.76-3.43,6.39,2.75.76,5.93,2,9.08,3.15l-2.79,1.39c-2.75-1-5.57-2.1-8.88-3l-.88-1.77,1.43-.7c2.5-1.25,3.42-2.76,3-4.19l-5.49,2.73L38.91,70l5.41-2.68c-.92-.86-2.46-.88-4.48.12l-1.76.88-.89-1.79,10.67-5.3.65,1.31-3.93,2a3.73,3.73,0,0,1,2.27,1.57l2.76-1.37L50.26,66Z" transform="translate(-3.36 -5.5)"/></g><g class="cls-4"><path class="cls-3" d="M67,62.16c.8,2.4-.51,4.76-3.43,6.38,2.75.77,5.93,2,9.08,3.16l-2.79,1.38c-2.75-1-5.57-2.09-8.88-3l-.88-1.76,1.43-.71c2.5-1.24,3.42-2.76,3-4.18L59,66.11l-.65-1.31,5.41-2.68c-.92-.85-2.46-.87-4.48.13l-1.76.87-.89-1.79L67.29,56l.65,1.31L64,59.29a3.76,3.76,0,0,1,2.27,1.57L69,59.5l.65,1.3Z" transform="translate(-3.36 -5.5)"/></g><g class="cls-4"><path class="cls-3" d="M63.53,45.11c.8,2.41-.52,4.76-3.43,6.39,2.75.76,5.93,2,9.08,3.15L66.39,56c-2.75-1-5.58-2.1-8.89-3l-.87-1.76,1.42-.71c2.51-1.24,3.42-2.76,3-4.18l-5.49,2.73-.65-1.31,5.4-2.69c-.92-.85-2.45-.87-4.47.13l-1.77.88-.89-1.8L63.86,39l.65,1.31-3.93,2a3.73,3.73,0,0,1,2.27,1.57l2.76-1.37.65,1.31Z" transform="translate(-3.36 -5.5)"/></g><g class="cls-4"><path class="cls-3" d="M79.52,43.91c.8,2.4-.51,4.76-3.43,6.38,2.76.76,5.93,2,9.09,3.16l-2.79,1.38c-2.76-1-5.58-2.09-8.89-3L72.62,50l1.43-.71c2.5-1.24,3.42-2.76,3-4.18l-5.5,2.72-.65-1.31,5.41-2.68c-.92-.86-2.45-.87-4.48.13l-1.76.87-.89-1.79,10.67-5.29.65,1.31L76.58,41a3.76,3.76,0,0,1,2.26,1.57l2.77-1.37.64,1.31Z" transform="translate(-3.36 -5.5)"/></g><g class="cls-4"><path class="cls-3" d="M95.52,43.91c.8,2.4-.52,4.76-3.43,6.38,2.75.76,5.93,2,9.08,3.16l-2.79,1.38c-2.75-1-5.58-2.09-8.88-3L88.62,50,90,49.32c2.51-1.24,3.42-2.76,3-4.18l-5.49,2.72-.65-1.31,5.41-2.68c-.92-.86-2.46-.87-4.48.13l-1.77.87-.88-1.79,10.67-5.29.65,1.31L92.57,41a3.81,3.81,0,0,1,2.27,1.57l2.76-1.37.65,1.31Z" transform="translate(-3.36 -5.5)"/></g><g class="cls-4"><path class="cls-3" d="M82.54,63.36c.8,2.41-.51,4.76-3.43,6.39,2.76.76,5.93,2,9.09,3.15l-2.79,1.39c-2.76-1-5.58-2.1-8.89-3l-.88-1.77,1.43-.71c2.5-1.24,3.42-2.76,3-4.18l-5.5,2.73L73.92,66l5.41-2.68c-.92-.86-2.45-.88-4.48.12l-1.76.88-.89-1.8,10.68-5.29.64,1.31-3.92,2a3.68,3.68,0,0,1,2.26,1.57l2.77-1.37L85.28,62Z" transform="translate(-3.36 -5.5)"/></g><g class="cls-4"><path class="cls-3" d="M79.52,80.41c.8,2.4-.51,4.76-3.43,6.38,2.76.77,5.93,2,9.09,3.16l-2.79,1.38c-2.76-1-5.58-2.09-8.89-3l-.88-1.76,1.43-.71c2.5-1.24,3.42-2.76,3-4.18l-5.5,2.72-.65-1.31,5.41-2.68c-.92-.85-2.45-.87-4.48.13l-1.76.87-.89-1.79,10.67-5.29.65,1.31-3.92,1.94a3.74,3.74,0,0,1,2.26,1.58l2.77-1.37.64,1.31Z" transform="translate(-3.36 -5.5)"/></g><g class="cls-4"><path class="cls-3" d="M99.62,66.19c.8,2.4-.51,4.76-3.43,6.38,2.75.77,5.93,2,9.08,3.16l-2.79,1.38c-2.75-1-5.58-2.09-8.88-3l-.88-1.76,1.42-.71c2.51-1.24,3.42-2.76,3-4.18l-5.49,2.72L91,68.83l5.41-2.68c-.92-.85-2.46-.87-4.48.13l-1.76.87-.89-1.79L100,60.07l.65,1.31-3.93,1.94a3.79,3.79,0,0,1,2.27,1.58l2.76-1.37.65,1.31Z" transform="translate(-3.36 -5.5)"/></g><g class="cls-4"><path class="cls-3" d="M86.25,105.86c.8,2.41-.52,4.76-3.44,6.39,2.76.76,5.94,2,9.09,3.15l-2.79,1.38c-2.75-1-5.58-2.09-8.89-3L79.35,112l1.42-.71c2.51-1.24,3.42-2.76,3-4.18l-5.5,2.72-.64-1.31,5.4-2.68c-.92-.85-2.45-.87-4.47.13l-1.77.88L75.9,105l10.68-5.29.65,1.31-3.93,2a3.73,3.73,0,0,1,2.27,1.57l2.76-1.37.65,1.31Z" transform="translate(-3.36 -5.5)"/></g><g class="cls-4"><path class="cls-3" d="M98.81,87.61c.8,2.4-.52,4.76-3.43,6.38,2.75.77,5.93,2,9.08,3.16l-2.79,1.38c-2.75-1-5.58-2.09-8.89-3l-.87-1.76L93.33,93c2.51-1.24,3.42-2.76,3-4.18l-5.49,2.72-.65-1.31,5.4-2.68c-.92-.85-2.45-.87-4.47.13l-1.77.87-.89-1.79,10.68-5.29.65,1.31-3.93,1.94a3.79,3.79,0,0,1,2.27,1.58L100.89,85l.65,1.31Z" transform="translate(-3.36 -5.5)"/></g><g class="cls-4"><path class="cls-3" d="M114.8,87.61c.8,2.4-.51,4.76-3.43,6.38,2.76.77,5.93,2,9.09,3.16l-2.79,1.38c-2.76-1-5.58-2.09-8.89-3l-.88-1.76,1.43-.71c2.5-1.24,3.42-2.76,3-4.18l-5.5,2.72-.65-1.31,5.41-2.68c-.92-.85-2.45-.87-4.48.13l-1.76.87-.89-1.79,10.67-5.29.65,1.31-3.92,1.94a3.74,3.74,0,0,1,2.26,1.58L116.89,85l.65,1.31Z" transform="translate(-3.36 -5.5)"/></g><g class="cls-4"><path class="cls-3" d="M101.83,107.07c.8,2.4-.52,4.75-3.43,6.38,2.75.76,5.93,2,9.08,3.16L104.69,118c-2.75-1-5.58-2.09-8.89-3l-.87-1.77,1.42-.7c2.51-1.25,3.42-2.76,3-4.19L93.86,111l-.65-1.31L98.62,107c-.93-.86-2.46-.88-4.48.12l-1.77.88-.89-1.79,10.68-5.3.65,1.31-3.93,2a3.73,3.73,0,0,1,2.27,1.57l2.76-1.37.65,1.31Z" transform="translate(-3.36 -5.5)"/></g><g class="cls-4"><path class="cls-3" d="M98.81,124.11c.8,2.41-.52,4.76-3.43,6.39,2.75.76,5.93,1.95,9.08,3.15L101.67,135c-2.75-1-5.58-2.1-8.89-3l-.87-1.76,1.42-.71c2.51-1.24,3.42-2.76,3-4.18l-5.49,2.73-.65-1.31,5.4-2.69c-.92-.85-2.45-.87-4.47.13l-1.77.88-.89-1.8L99.14,118l.65,1.31-3.93,2a3.73,3.73,0,0,1,2.27,1.57l2.76-1.37.65,1.31Z" transform="translate(-3.36 -5.5)"/></g><g class="cls-4"><path class="cls-3" d="M118.9,109.89c.81,2.41-.51,4.76-3.43,6.39,2.76.76,5.94,2,9.09,3.15l-2.79,1.39c-2.76-1-5.58-2.1-8.89-3L112,116l1.42-.71c2.5-1.24,3.42-2.76,3-4.18l-5.5,2.73-.65-1.31,5.41-2.69c-.92-.85-2.45-.87-4.48.13l-1.76.88-.89-1.8,10.68-5.29.65,1.31L116,107a3.73,3.73,0,0,1,2.27,1.57l2.76-1.37.65,1.31Z" transform="translate(-3.36 -5.5)"/></g><g class="cls-4"><path class="cls-3" d="M58.22,156.82c.8,2.41-.52,4.76-3.44,6.39,2.76.76,5.94,1.95,9.09,3.15l-2.79,1.39c-2.75-1-5.58-2.1-8.89-3.05l-.87-1.76,1.42-.71c2.51-1.24,3.42-2.76,3-4.18l-5.49,2.73-.65-1.31,5.4-2.69c-.92-.85-2.45-.87-4.47.13l-1.77.88-.89-1.8,10.68-5.29L59.2,152l-3.93,2a3.73,3.73,0,0,1,2.27,1.57l2.76-1.37.65,1.31Z" transform="translate(-3.36 -5.5)"/></g><g class="cls-4"><path class="cls-3" d="M70.78,138.57c.8,2.41-.52,4.76-3.43,6.39,2.75.76,5.93,1.95,9.08,3.15l-2.79,1.39c-2.75-1-5.58-2.1-8.89-3.05l-.87-1.76L65.3,144c2.51-1.24,3.42-2.76,3-4.18l-5.49,2.73-.65-1.31,5.41-2.69c-.93-.85-2.46-.87-4.48.13l-1.77.88-.89-1.8,10.68-5.29.65,1.31-3.93,2a3.73,3.73,0,0,1,2.27,1.57l2.76-1.37.65,1.31Z" transform="translate(-3.36 -5.5)"/></g><g class="cls-4"><path class="cls-3" d="M86.77,138.57c.8,2.41-.51,4.76-3.43,6.39,2.76.76,5.93,1.95,9.09,3.15l-2.79,1.39c-2.76-1-5.58-2.1-8.89-3.05l-.88-1.76L81.3,144c2.5-1.24,3.42-2.76,3-4.18l-5.5,2.73-.65-1.31,5.41-2.69c-.92-.85-2.45-.87-4.48.13l-1.76.88-.89-1.8,10.68-5.29.64,1.31-3.92,2a3.68,3.68,0,0,1,2.26,1.57l2.77-1.37.65,1.31Z" transform="translate(-3.36 -5.5)"/></g><g class="cls-4"><path class="cls-3" d="M73.8,158c.8,2.4-.52,4.76-3.43,6.38,2.75.76,5.93,2,9.08,3.16L76.66,169c-2.75-1-5.58-2.09-8.89-3l-.87-1.77,1.42-.7c2.51-1.24,3.42-2.76,3-4.18L65.83,162l-.65-1.31L70.59,158c-.93-.86-2.46-.88-4.48.13l-1.77.87-.89-1.79,10.68-5.3.65,1.31-3.93,1.95a3.73,3.73,0,0,1,2.27,1.57l2.76-1.37.65,1.31Z" transform="translate(-3.36 -5.5)"/></g><g class="cls-4"><path class="cls-3" d="M70.78,175.07c.8,2.41-.52,4.76-3.43,6.39,2.75.76,5.93,1.95,9.08,3.15L73.64,186c-2.75-1-5.58-2.1-8.89-3l-.87-1.77,1.42-.71c2.51-1.24,3.42-2.76,3-4.18L62.81,179l-.65-1.31L67.57,175c-.93-.85-2.46-.87-4.48.13l-1.77.88-.89-1.8L71.11,169l.65,1.31-3.93,2a3.73,3.73,0,0,1,2.27,1.57l2.76-1.37.65,1.31Z" transform="translate(-3.36 -5.5)"/></g><g class="cls-4"><path class="cls-3" d="M26.89,160.25c.81,2.41-.51,4.76-3.43,6.39,2.76.76,5.94,2,9.09,3.15l-2.79,1.38c-2.76-1-5.58-2.09-8.89-3L20,166.37l1.42-.71c2.5-1.24,3.42-2.76,3-4.18l-5.5,2.72-.65-1.31,5.41-2.68c-.92-.85-2.45-.87-4.47.13l-1.77.88-.89-1.8,10.68-5.29.65,1.31L24,157.39A3.73,3.73,0,0,1,26.22,159L29,157.59l.65,1.31Z" transform="translate(-3.36 -5.5)"/></g><g class="cls-4"><path class="cls-3" d="M42.47,161.46c.81,2.4-.51,4.75-3.43,6.38,2.76.76,5.94,1.95,9.09,3.16l-2.79,1.38c-2.76-1-5.58-2.09-8.89-3l-.87-1.77,1.42-.7c2.51-1.25,3.42-2.76,3-4.19l-5.5,2.73-.65-1.31,5.41-2.68c-.92-.86-2.45-.88-4.47.12l-1.77.88-.89-1.79,10.68-5.3.65,1.31-3.93,2a3.73,3.73,0,0,1,2.27,1.57l2.76-1.37.65,1.31Z" transform="translate(-3.36 -5.5)"/></g><g class="cls-4"><path class="cls-3" d="M39.45,178.5c.81,2.41-.51,4.76-3.43,6.39,2.76.76,5.94,2,9.09,3.15l-2.79,1.39c-2.76-1-5.58-2.1-8.89-3.05l-.87-1.76,1.42-.71c2.51-1.24,3.42-2.76,3-4.18l-5.5,2.73-.65-1.31,5.41-2.69c-.92-.85-2.45-.87-4.47.13l-1.77.88-.89-1.8,10.68-5.29.65,1.31-3.93,1.95a3.73,3.73,0,0,1,2.27,1.57l2.76-1.37.65,1.31Z" transform="translate(-3.36 -5.5)"/></g><g class="cls-4"><path class="cls-3" d="M90.87,160.85c.81,2.41-.51,4.76-3.43,6.39,2.76.76,5.94,1.95,9.09,3.15l-2.79,1.39c-2.76-1-5.58-2.1-8.89-3.05L84,167l1.42-.71c2.5-1.24,3.42-2.76,3-4.18l-5.5,2.73-.65-1.31,5.41-2.69c-.92-.85-2.45-.87-4.47.13l-1.77.88-.89-1.8,10.68-5.29.65,1.31-3.93,2a3.73,3.73,0,0,1,2.27,1.57L93,158.19l.65,1.31Z" transform="translate(-3.36 -5.5)"/></g><g class="cls-4"><path class="cls-3" d="M119.05,61c.8,2.4-.51,4.75-3.43,6.38,2.75.76,5.93,2,9.08,3.16l-2.79,1.38c-2.75-1-5.58-2.09-8.88-3l-.88-1.77,1.42-.7c2.51-1.25,3.42-2.76,3-4.19l-5.49,2.73-.65-1.31,5.41-2.68c-.92-.86-2.46-.88-4.48.12l-1.76.88-.89-1.79,10.67-5.3.65,1.31-3.93,2a3.73,3.73,0,0,1,2.27,1.57l2.76-1.37.65,1.31Z" transform="translate(-3.36 -5.5)"/></g><g class="cls-4"><path class="cls-3" d="M115.61,43.91c.81,2.4-.51,4.76-3.43,6.38,2.76.76,5.94,2,9.09,3.16l-2.79,1.38c-2.76-1-5.58-2.09-8.89-3L108.72,50l1.42-.71c2.51-1.24,3.42-2.76,3-4.18l-5.5,2.72L107,46.55l5.41-2.68c-.92-.86-2.45-.87-4.47.13l-1.77.87-.89-1.79L116,37.79l.65,1.31L112.67,41a3.81,3.81,0,0,1,2.27,1.57l2.76-1.37.65,1.31Z" transform="translate(-3.36 -5.5)"/></g><g class="cls-4"><path class="cls-3" d="M31.66,102.07c.81,2.4-.51,4.76-3.43,6.38,2.76.77,5.94,2,9.09,3.16L34.53,113c-2.76-1-5.58-2.09-8.89-3l-.87-1.76,1.42-.71c2.5-1.24,3.42-2.76,3-4.18L23.69,106,23,104.71,28.45,102c-.92-.85-2.45-.87-4.47.13l-1.77.87-.89-1.79L32,96l.65,1.31L28.72,99.2A3.79,3.79,0,0,1,31,100.78l2.76-1.37.65,1.31Z" transform="translate(-3.36 -5.5)"/></g><g class="cls-4"><path class="cls-3" d="M47.66,102.07c.8,2.4-.51,4.76-3.43,6.38,2.75.77,5.93,2,9.08,3.16L50.52,113c-2.75-1-5.57-2.09-8.88-3l-.88-1.76,1.43-.71c2.5-1.24,3.41-2.76,3-4.18L39.69,106,39,104.71,44.45,102c-.92-.85-2.46-.87-4.48.13l-1.76.87-.89-1.79L48,96l.65,1.31L44.71,99.2A3.79,3.79,0,0,1,47,100.78l2.76-1.37.65,1.31Z" transform="translate(-3.36 -5.5)"/></g><g class="cls-4"><path class="cls-3" d="M34.68,121.53c.81,2.4-.51,4.75-3.43,6.38,2.76.76,5.94,2,9.09,3.15l-2.79,1.39c-2.76-1-5.58-2.09-8.89-3l-.87-1.77,1.42-.7c2.5-1.25,3.42-2.76,3-4.19l-5.5,2.73-.65-1.31,5.41-2.68c-.92-.86-2.45-.88-4.47.12l-1.77.88-.89-1.79L35,115.4l.65,1.31-3.93,2A3.73,3.73,0,0,1,34,120.23l2.76-1.37.65,1.31Z" transform="translate(-3.36 -5.5)"/></g><g class="cls-4"><path class="cls-3" d="M31.66,138.57c.81,2.41-.51,4.76-3.43,6.39,2.76.76,5.94,1.95,9.09,3.15l-2.79,1.39c-2.76-1-5.58-2.1-8.89-3.05l-.87-1.76,1.42-.71c2.5-1.24,3.42-2.76,3-4.18l-5.5,2.73L23,141.22l5.41-2.69c-.92-.85-2.45-.87-4.47.13l-1.77.88-.89-1.8L32,132.45l.65,1.31-3.93,2A3.73,3.73,0,0,1,31,137.28l2.76-1.37.65,1.31Z" transform="translate(-3.36 -5.5)"/></g><g class="cls-4"><path class="cls-3" d="M51.76,124.35c.8,2.41-.51,4.76-3.43,6.39,2.75.76,5.93,1.95,9.08,3.15l-2.79,1.39c-2.75-1-5.57-2.1-8.88-3.05l-.88-1.76,1.43-.71c2.5-1.24,3.42-2.76,3-4.18l-5.49,2.72-.65-1.3,5.41-2.69c-.92-.85-2.46-.87-4.48.13l-1.76.88-.89-1.8,10.67-5.29.65,1.31-3.93,1.95a3.73,3.73,0,0,1,2.27,1.57l2.76-1.37.65,1.31Z" transform="translate(-3.36 -5.5)"/></g><g class="cls-4"><path class="cls-3" d="M71.19,119.12c.8,2.4-.51,4.76-3.43,6.38,2.75.76,5.93,2,9.08,3.16L74.05,130c-2.75-1-5.57-2.09-8.88-3l-.88-1.77,1.43-.7c2.5-1.24,3.42-2.76,3-4.18l-5.49,2.72-.65-1.31L68,119.08c-.92-.86-2.46-.88-4.48.13l-1.76.87-.89-1.79L71.52,113l.65,1.31-3.93,2a3.68,3.68,0,0,1,2.27,1.57l2.76-1.37.65,1.31Z" transform="translate(-3.36 -5.5)"/></g><g class="cls-4"><path class="cls-3" d="M67.76,102.07c.8,2.4-.52,4.76-3.44,6.38,2.76.77,5.94,2,9.09,3.16L70.62,113c-2.75-1-5.58-2.09-8.89-3l-.87-1.76,1.42-.71c2.51-1.24,3.42-2.76,3-4.18L59.79,106l-.65-1.31,5.4-2.68c-.92-.85-2.45-.87-4.47.13L58.3,103l-.89-1.79L68.09,96l.65,1.31L64.81,99.2a3.79,3.79,0,0,1,2.27,1.58l2.76-1.37.65,1.31Z" transform="translate(-3.36 -5.5)"/></g><g class="cls-4"><path class="cls-3" d="M137.39,42.81c.8,2.4-.51,4.76-3.43,6.38,2.76.76,5.93,2,9.09,3.16l-2.79,1.38c-2.76-1-5.58-2.09-8.89-3l-.88-1.77,1.43-.7c2.5-1.25,3.42-2.76,3-4.19l-5.5,2.73-.65-1.31,5.41-2.68c-.92-.86-2.45-.88-4.48.13l-1.76.87L127.05,42l10.67-5.3.65,1.31-3.92,1.95a3.68,3.68,0,0,1,2.26,1.57l2.77-1.37.65,1.31Z" transform="translate(-3.36 -5.5)"/></g><g class="cls-4"><path class="cls-3" d="M153.39,42.81c.8,2.4-.51,4.76-3.43,6.38,2.75.76,5.93,2,9.08,3.16l-2.79,1.38c-2.75-1-5.58-2.09-8.88-3l-.88-1.77,1.42-.7c2.51-1.25,3.42-2.76,3-4.19l-5.49,2.73-.65-1.31,5.41-2.68c-.92-.86-2.46-.88-4.48.13l-1.77.87L143.05,42l10.67-5.3.65,1.31-3.93,1.95a3.73,3.73,0,0,1,2.27,1.57l2.76-1.37.65,1.31Z" transform="translate(-3.36 -5.5)"/></g><g class="cls-4"><path class="cls-3" d="M140.41,62.26c.8,2.41-.51,4.76-3.43,6.39,2.76.76,5.94,1.95,9.09,3.15l-2.79,1.38c-2.76-1-5.58-2.09-8.89-3l-.88-1.76,1.43-.71c2.5-1.24,3.42-2.76,3-4.18l-5.5,2.72-.65-1.31,5.41-2.68c-.92-.85-2.45-.87-4.48.13l-1.76.88-.89-1.8,10.68-5.29.64,1.31-3.92,1.95A3.68,3.68,0,0,1,139.73,61l2.77-1.37.65,1.31Z" transform="translate(-3.36 -5.5)"/></g><g class="cls-4"><path class="cls-3" d="M181.15,60.4c.8,2.41-.51,4.76-3.43,6.39,2.75.76,5.93,1.95,9.08,3.15L184,71.33c-2.75-1-5.57-2.1-8.88-3l-.88-1.77,1.43-.7c2.5-1.25,3.41-2.76,3-4.19l-5.49,2.73-.65-1.31,5.41-2.68c-.92-.86-2.46-.88-4.48.12l-1.76.88-.89-1.79,10.67-5.3.65,1.31-3.93,1.95a3.73,3.73,0,0,1,2.27,1.57l2.76-1.37.65,1.31Z" transform="translate(-3.36 -5.5)"/></g><g class="cls-4"><path class="cls-3" d="M177.71,43.36c.81,2.4-.51,4.76-3.43,6.38,2.76.76,5.94,1.95,9.09,3.16l-2.79,1.38c-2.76-1-5.58-2.09-8.89-3l-.87-1.77,1.42-.7c2.51-1.24,3.42-2.76,3-4.18l-5.5,2.72L169.09,46l5.41-2.68c-.92-.86-2.45-.88-4.47.13l-1.77.87-.89-1.79,10.68-5.3.65,1.31-3.93,2A3.73,3.73,0,0,1,177,42.06l2.76-1.37.65,1.31Z" transform="translate(-3.36 -5.5)"/></g><g class="cls-4"><path class="cls-3" d="M193.71,42.15c.8,2.41-.51,4.76-3.43,6.39,2.75.76,5.93,2,9.08,3.15l-2.79,1.39c-2.75-1-5.57-2.1-8.88-3l-.88-1.77,1.43-.71c2.5-1.24,3.42-2.76,3-4.18l-5.49,2.73-.65-1.31,5.41-2.68c-.92-.86-2.46-.88-4.48.12l-1.76.88-.89-1.8L194,36l.65,1.31-3.93,1.95A3.73,3.73,0,0,1,193,40.86l2.76-1.37.65,1.31Z" transform="translate(-3.36 -5.5)"/></g><g class="cls-4"><path class="cls-3" d="M209.71,42.15c.8,2.41-.52,4.76-3.44,6.39,2.76.76,5.94,2,9.09,3.15l-2.79,1.39c-2.75-1-5.58-2.1-8.89-3l-.87-1.77,1.42-.71c2.51-1.24,3.42-2.76,3-4.18l-5.49,2.73-.65-1.31,5.4-2.68c-.92-.86-2.45-.88-4.47.12l-1.77.88-.89-1.8L210,36l.65,1.31-3.93,1.95A3.73,3.73,0,0,1,209,40.86l2.76-1.37.65,1.31Z" transform="translate(-3.36 -5.5)"/></g><g class="cls-4"><path class="cls-3" d="M196.73,61.61c.8,2.4-.51,4.76-3.43,6.38,2.75.76,5.93,2,9.08,3.16l-2.79,1.38c-2.75-1-5.57-2.09-8.88-3l-.88-1.76,1.43-.71c2.5-1.24,3.42-2.76,3-4.18l-5.49,2.72-.65-1.31,5.41-2.68c-.92-.86-2.46-.88-4.48.13l-1.76.87-.89-1.79,10.67-5.29.65,1.3-3.93,2a3.73,3.73,0,0,1,2.27,1.57l2.76-1.37.65,1.31Z" transform="translate(-3.36 -5.5)"/></g><g class="cls-4"><path class="cls-3" d="M233.24,59.2c.8,2.4-.52,4.76-3.43,6.38,2.75.77,5.93,2,9.08,3.16l-2.79,1.38c-2.75-1-5.58-2.09-8.88-3l-.88-1.76,1.42-.71c2.51-1.24,3.42-2.76,3-4.18l-5.49,2.72-.65-1.31L230,59.16c-.92-.85-2.46-.87-4.48.13l-1.77.87-.88-1.79,10.67-5.29.65,1.31-3.93,1.94a3.79,3.79,0,0,1,2.27,1.58l2.76-1.37.65,1.31Z" transform="translate(-3.36 -5.5)"/></g><g class="cls-4"><path class="cls-3" d="M229.8,42.15c.81,2.41-.51,4.76-3.43,6.39,2.76.76,5.94,2,9.09,3.15l-2.79,1.39c-2.76-1-5.58-2.1-8.89-3l-.87-1.77,1.42-.71c2.5-1.24,3.42-2.76,3-4.18l-5.5,2.73-.65-1.31,5.41-2.68c-.92-.86-2.45-.88-4.48.12l-1.76.88-.89-1.8L230.14,36l.65,1.31-3.93,1.95a3.73,3.73,0,0,1,2.27,1.57l2.76-1.37.65,1.31Z" transform="translate(-3.36 -5.5)"/></g><g class="cls-4"><path class="cls-3" d="M251.58,41.05c.8,2.41-.51,4.76-3.43,6.39,2.75.76,5.93,2,9.08,3.15L254.44,52c-2.75-1-5.57-2.09-8.88-3l-.88-1.76,1.43-.71c2.5-1.24,3.42-2.76,3-4.18L243.61,45,243,43.69,248.37,41c-.92-.85-2.46-.87-4.48.13l-1.76.88-.89-1.8,10.67-5.29.65,1.31-3.93,1.95a3.73,3.73,0,0,1,2.27,1.57l2.76-1.37.65,1.31Z" transform="translate(-3.36 -5.5)"/></g><g class="cls-4"><path class="cls-3" d="M267.58,41.05c.8,2.41-.52,4.76-3.43,6.39,2.75.76,5.93,2,9.08,3.15L270.44,52c-2.75-1-5.58-2.09-8.89-3l-.87-1.76,1.42-.71c2.51-1.24,3.42-2.76,3-4.18L259.61,45,259,43.69,264.37,41c-.93-.85-2.46-.87-4.48.13l-1.77.88-.89-1.8,10.68-5.29.65,1.31-3.93,1.95a3.73,3.73,0,0,1,2.27,1.57l2.76-1.37.65,1.31Z" transform="translate(-3.36 -5.5)"/></g><g class="cls-4"><path class="cls-3" d="M254.6,60.51c.8,2.4-.51,4.76-3.43,6.38,2.75.76,5.93,2,9.08,3.16l-2.79,1.38c-2.75-1-5.57-2.09-8.88-3l-.88-1.77,1.43-.7c2.5-1.25,3.42-2.76,3-4.19l-5.49,2.73L246,63.15l5.41-2.68c-.92-.86-2.46-.88-4.48.12l-1.76.88-.89-1.79,10.67-5.3.65,1.31-3.93,2a3.68,3.68,0,0,1,2.27,1.57l2.76-1.37.65,1.31Z" transform="translate(-3.36 -5.5)"/></g><g class="cls-4"><path class="cls-3" d="M198.23,100.32c.8,2.4-.51,4.75-3.43,6.38,2.75.76,5.93,2,9.08,3.15l-2.79,1.39c-2.75-1-5.58-2.09-8.88-3l-.88-1.77,1.43-.7c2.5-1.25,3.41-2.76,3-4.19l-5.49,2.73-.65-1.31,5.41-2.68c-.92-.86-2.46-.88-4.48.12l-1.76.88-.89-1.79,10.67-5.3.65,1.31-3.93,2A3.73,3.73,0,0,1,197.55,99l2.76-1.37L201,99Z" transform="translate(-3.36 -5.5)"/></g><g class="cls-4"><path class="cls-3" d="M194.79,83.27c.81,2.4-.51,4.76-3.43,6.38,2.76.76,5.94,1.95,9.09,3.16l-2.79,1.38c-2.76-1-5.58-2.09-8.89-3l-.87-1.76,1.42-.71c2.51-1.24,3.42-2.76,3-4.18l-5.5,2.72-.65-1.31,5.41-2.68c-.92-.86-2.45-.88-4.47.13l-1.77.87-.89-1.79,10.68-5.3.65,1.31-3.93,2A3.73,3.73,0,0,1,194.12,82l2.76-1.37.65,1.31Z" transform="translate(-3.36 -5.5)"/></g><g class="cls-4"><path class="cls-3" d="M210.79,82.06c.8,2.41-.51,4.76-3.43,6.39,2.75.76,5.93,2,9.08,3.15L213.65,93c-2.75-1-5.57-2.1-8.88-3l-.88-1.77,1.43-.7c2.5-1.25,3.42-2.76,3-4.19L202.82,86l-.65-1.31L207.58,82c-.92-.86-2.46-.88-4.48.12l-1.76.88-.89-1.79,10.67-5.3.65,1.31-3.93,2a3.73,3.73,0,0,1,2.27,1.57l2.76-1.37.65,1.31Z" transform="translate(-3.36 -5.5)"/></g><g class="cls-4"><path class="cls-3" d="M226.79,82.06c.8,2.41-.52,4.76-3.44,6.39,2.76.76,5.94,2,9.09,3.15L229.65,93c-2.75-1-5.58-2.1-8.89-3l-.87-1.77,1.42-.7c2.51-1.25,3.42-2.76,3-4.19L218.82,86l-.65-1.31,5.4-2.68c-.92-.86-2.45-.88-4.47.12l-1.77.88-.89-1.79,10.68-5.3.65,1.31-3.93,2a3.73,3.73,0,0,1,2.27,1.57l2.76-1.37.65,1.31Z" transform="translate(-3.36 -5.5)"/></g><g class="cls-4"><path class="cls-3" d="M213.81,101.52c.8,2.4-.51,4.76-3.43,6.38,2.75.77,5.93,1.95,9.08,3.16l-2.79,1.38c-2.75-1-5.57-2.09-8.88-3l-.88-1.76,1.43-.71c2.5-1.24,3.42-2.76,3-4.18l-5.49,2.72-.65-1.31,5.41-2.68c-.92-.86-2.46-.87-4.48.13l-1.76.87-.89-1.79,10.67-5.29.65,1.31-3.93,1.94a3.81,3.81,0,0,1,2.27,1.57l2.76-1.37.65,1.31Z" transform="translate(-3.36 -5.5)"/></g><g class="cls-4"><path class="cls-3" d="M250.32,99.11c.8,2.41-.52,4.76-3.43,6.38,2.75.77,5.93,2,9.08,3.16L253.18,110c-2.75-1-5.58-2.09-8.88-3l-.88-1.76,1.42-.71c2.51-1.24,3.42-2.76,3-4.18l-5.49,2.72-.65-1.31,5.41-2.68c-.92-.85-2.46-.87-4.48.13l-1.77.88-.88-1.8L250.65,93l.65,1.31-3.93,2a3.73,3.73,0,0,1,2.27,1.57l2.76-1.37.65,1.31Z" transform="translate(-3.36 -5.5)"/></g><g class="cls-4"><path class="cls-3" d="M246.88,82.06c.81,2.41-.51,4.76-3.43,6.39,2.76.76,5.94,2,9.09,3.15L249.75,93c-2.76-1-5.58-2.1-8.89-3L240,88.18l1.42-.7c2.5-1.25,3.42-2.76,3-4.19L238.91,86l-.65-1.31L243.67,82c-.92-.86-2.45-.88-4.48.12l-1.76.88-.89-1.79,10.68-5.3.64,1.31-3.92,2a3.68,3.68,0,0,1,2.26,1.57L249,79.4l.65,1.31Z" transform="translate(-3.36 -5.5)"/></g><g class="cls-4"><path class="cls-3" d="M268.66,81c.8,2.41-.51,4.76-3.43,6.39,2.75.76,5.93,2,9.08,3.15l-2.79,1.39c-2.75-1-5.57-2.1-8.88-3l-.88-1.76,1.43-.71c2.5-1.24,3.42-2.76,3-4.18l-5.49,2.72-.65-1.3,5.41-2.69c-.92-.85-2.46-.87-4.48.13l-1.76.88-.89-1.8L269,74.84l.65,1.31-3.93,1.95A3.73,3.73,0,0,1,268,79.67l2.76-1.37.65,1.31Z" transform="translate(-3.36 -5.5)"/></g><g class="cls-4"><path class="cls-3" d="M271.68,100.42c.8,2.4-.51,4.76-3.43,6.38,2.75.76,5.93,2,9.08,3.16l-2.79,1.38c-2.75-1-5.57-2.09-8.88-3l-.88-1.77,1.43-.7c2.5-1.24,3.42-2.76,3-4.18l-5.49,2.72-.65-1.31,5.41-2.68c-.92-.86-2.46-.88-4.48.13l-1.76.87-.89-1.79L272,94.29l.65,1.31-3.93,2A3.68,3.68,0,0,1,271,99.12l2.76-1.37.65,1.31Z" transform="translate(-3.36 -5.5)"/></g><g class="cls-4"><path class="cls-3" d="M224.27,130c.81,2.4-.51,4.76-3.43,6.38,2.76.76,5.94,1.95,9.09,3.16l-2.79,1.38c-2.76-1-5.58-2.09-8.89-3l-.87-1.77,1.42-.7c2.5-1.24,3.42-2.76,3-4.18l-5.5,2.72-.65-1.31,5.41-2.68c-.92-.86-2.45-.88-4.47.13l-1.77.87-.89-1.79,10.68-5.3.65,1.31-3.93,2a3.73,3.73,0,0,1,2.27,1.57l2.76-1.37.65,1.31Z" transform="translate(-3.36 -5.5)"/></g><g class="cls-4"><path class="cls-3" d="M220.84,112.9c.8,2.4-.51,4.76-3.43,6.38,2.75.77,5.93,2,9.08,3.16l-2.79,1.38c-2.75-1-5.58-2.09-8.88-3l-.88-1.76,1.42-.71c2.51-1.24,3.42-2.76,3-4.18l-5.49,2.72-.65-1.31,5.41-2.68c-.92-.85-2.46-.87-4.48.13l-1.76.87-.89-1.79,10.67-5.29.65,1.31L217.89,110a3.79,3.79,0,0,1,2.27,1.58l2.76-1.37.65,1.31Z" transform="translate(-3.36 -5.5)"/></g><g class="cls-4"><path class="cls-3" d="M242.62,111.8c.8,2.4-.52,4.76-3.43,6.38,2.75.76,5.93,1.95,9.08,3.16l-2.79,1.38c-2.75-1-5.58-2.09-8.89-3l-.87-1.77,1.42-.7c2.51-1.24,3.42-2.76,3-4.18l-5.49,2.72-.65-1.31,5.41-2.68c-.93-.86-2.46-.88-4.48.13l-1.77.87-.89-1.79,10.68-5.3.65,1.31-3.93,2a3.73,3.73,0,0,1,2.27,1.57l2.76-1.37.65,1.31Z" transform="translate(-3.36 -5.5)"/></g><g class="cls-4"><path class="cls-3" d="M245.64,131.25c.8,2.41-.52,4.76-3.43,6.39,2.75.76,5.93,2,9.08,3.15l-2.79,1.39c-2.75-1-5.58-2.1-8.89-3.05l-.87-1.76,1.42-.71c2.51-1.24,3.42-2.76,3-4.18l-5.49,2.73L237,133.9l5.41-2.69c-.93-.85-2.46-.87-4.48.13l-1.77.88-.89-1.8L246,125.13l.65,1.31-3.93,1.95A3.73,3.73,0,0,1,245,130l2.76-1.37.65,1.31Z" transform="translate(-3.36 -5.5)"/></g><g class="cls-4"><path class="cls-3" d="M137.39,79.31c.8,2.4-.51,4.76-3.43,6.38,2.76.76,5.93,2,9.09,3.16l-2.79,1.38c-2.76-1-5.58-2.09-8.89-3l-.88-1.77,1.43-.7c2.5-1.24,3.42-2.76,3-4.18l-5.5,2.72L128.77,82l5.41-2.68c-.92-.86-2.45-.88-4.48.13l-1.76.87-.89-1.79,10.67-5.3.65,1.31-3.92,2A3.68,3.68,0,0,1,136.71,78l2.77-1.37.65,1.31Z" transform="translate(-3.36 -5.5)"/></g><g class="cls-4"><path class="cls-3" d="M157.49,65.09c.8,2.4-.51,4.76-3.43,6.38,2.75.76,5.93,2,9.08,3.16L160.35,76c-2.75-1-5.58-2.09-8.88-3l-.88-1.77,1.42-.7c2.51-1.24,3.42-2.76,3-4.18L149.52,69l-.65-1.31,5.41-2.68c-.92-.86-2.46-.88-4.48.13l-1.76.87-.89-1.79L157.82,59l.65,1.31-3.93,1.95a3.73,3.73,0,0,1,2.27,1.57l2.76-1.37.65,1.31Z" transform="translate(-3.36 -5.5)"/></g><g class="cls-4"><path class="cls-3" d="M141.62,99.76c.8,2.41-.51,4.76-3.43,6.39,2.76.76,5.93,1.95,9.09,3.15l-2.79,1.39c-2.76-1-5.58-2.1-8.89-3l-.88-1.77,1.43-.71c2.5-1.24,3.42-2.76,3-4.18l-5.5,2.73-.65-1.31,5.41-2.68c-.92-.86-2.45-.88-4.48.12l-1.76.88-.89-1.8L142,93.64,142.6,95l-3.92,2a3.68,3.68,0,0,1,2.26,1.57l2.77-1.37.65,1.31Z" transform="translate(-3.36 -5.5)"/></g><g class="cls-4"><path class="cls-3" d="M157.62,99.76c.8,2.41-.51,4.76-3.43,6.39,2.75.76,5.93,1.95,9.08,3.15l-2.79,1.39c-2.75-1-5.58-2.1-8.88-3l-.88-1.77,1.42-.71c2.51-1.24,3.42-2.76,3-4.18l-5.49,2.73-.65-1.31,5.41-2.68c-.92-.86-2.46-.88-4.48.12l-1.77.88-.88-1.8L158,93.64,158.6,95l-3.93,2a3.73,3.73,0,0,1,2.27,1.57l2.76-1.37.65,1.31Z" transform="translate(-3.36 -5.5)"/></g><g class="cls-4"><path class="cls-3" d="M144.64,119.22c.8,2.4-.51,4.76-3.43,6.38,2.76.76,5.94,2,9.09,3.16l-2.79,1.38c-2.76-1-5.58-2.09-8.89-3l-.88-1.76,1.43-.71c2.5-1.24,3.42-2.76,3-4.18l-5.5,2.72-.65-1.31,5.41-2.68c-.92-.86-2.45-.87-4.48.13l-1.76.87-.89-1.79L145,113.1l.64,1.3-3.92,1.95a3.68,3.68,0,0,1,2.26,1.57l2.77-1.37.65,1.31Z" transform="translate(-3.36 -5.5)"/></g><g class="cls-4"><path class="cls-3" d="M141.62,136.27c.8,2.4-.51,4.75-3.43,6.38,2.76.76,5.93,1.95,9.09,3.16l-2.79,1.38c-2.76-1-5.58-2.09-8.89-3l-.88-1.77,1.43-.7c2.5-1.25,3.42-2.76,3-4.19l-5.5,2.73-.65-1.31,5.41-2.68c-.92-.86-2.45-.88-4.48.12l-1.76.88-.89-1.79,10.67-5.3.65,1.31-3.92,2a3.68,3.68,0,0,1,2.26,1.57l2.77-1.37.65,1.31Z" transform="translate(-3.36 -5.5)"/></g><g class="cls-4"><path class="cls-3" d="M129.92,162.15c.8,2.4-.51,4.76-3.43,6.38,2.75.76,5.93,1.95,9.09,3.16l-2.79,1.38c-2.76-1-5.58-2.09-8.89-3l-.88-1.77,1.43-.7c2.5-1.24,3.42-2.76,3-4.18L122,166.1l-.65-1.31,5.41-2.68c-.92-.86-2.46-.88-4.48.13l-1.76.87-.89-1.79,10.67-5.3.65,1.31L127,159.28a3.68,3.68,0,0,1,2.26,1.57l2.77-1.37.64,1.31Z" transform="translate(-3.36 -5.5)"/></g><g class="cls-4"><path class="cls-3" d="M117.82,175.77c.81,2.4-.51,4.75-3.43,6.38,2.76.76,5.94,1.95,9.09,3.16l-2.79,1.38c-2.76-1-5.58-2.09-8.89-3l-.87-1.77,1.42-.7c2.5-1.25,3.42-2.76,3-4.19l-5.5,2.73-.65-1.31,5.41-2.68c-.92-.86-2.45-.88-4.48.12l-1.76.88-.89-1.79,10.68-5.3.65,1.31-3.93,2a3.73,3.73,0,0,1,2.27,1.57l2.76-1.37.65,1.31Z" transform="translate(-3.36 -5.5)"/></g><g class="cls-4"><path class="cls-3" d="M108.18,137.88c.8,2.4-.52,4.76-3.43,6.38,2.75.77,5.93,2,9.08,3.16L111,148.8c-2.75-1-5.58-2.09-8.89-3l-.87-1.76,1.42-.71c2.51-1.24,3.42-2.76,3-4.18l-5.49,2.72-.65-1.31,5.41-2.68c-.93-.85-2.46-.87-4.48.13l-1.77.87-.89-1.79,10.68-5.29.65,1.31L105.23,135a3.81,3.81,0,0,1,2.27,1.57l2.76-1.36.65,1.3Z" transform="translate(-3.36 -5.5)"/></g><g class="cls-4"><path class="cls-3" d="M161.72,122.05c.8,2.4-.51,4.75-3.43,6.38,2.75.76,5.93,1.95,9.08,3.15L164.58,133c-2.75-1-5.58-2.09-8.88-3l-.88-1.77,1.42-.7c2.51-1.25,3.42-2.76,3-4.19L153.75,126l-.65-1.31,5.41-2.68c-.92-.86-2.46-.88-4.48.12l-1.76.88-.89-1.79,10.67-5.3.65,1.31-3.93,2a3.73,3.73,0,0,1,2.27,1.57l2.76-1.37.65,1.31Z" transform="translate(-3.36 -5.5)"/></g><g class="cls-4"><path class="cls-3" d="M181.15,116.81c.8,2.4-.51,4.76-3.43,6.38,2.75.77,5.93,2,9.08,3.16L184,127.73c-2.75-1-5.57-2.09-8.88-3l-.88-1.76,1.43-.71c2.5-1.24,3.41-2.76,3-4.18l-5.49,2.72-.65-1.31,5.41-2.68c-.92-.85-2.46-.87-4.48.13l-1.76.87-.89-1.79,10.67-5.29.65,1.31-3.93,1.94a3.79,3.79,0,0,1,2.27,1.58l2.76-1.37.65,1.31Z" transform="translate(-3.36 -5.5)"/></g><g class="cls-4"><path class="cls-3" d="M177.71,99.76c.81,2.41-.51,4.76-3.43,6.39,2.76.76,5.94,1.95,9.09,3.15l-2.79,1.39c-2.76-1-5.58-2.1-8.89-3l-.87-1.77,1.42-.71c2.51-1.24,3.42-2.76,3-4.18l-5.5,2.73-.65-1.31,5.41-2.68c-.92-.86-2.45-.88-4.47.12l-1.77.88-.89-1.8,10.68-5.29L178.7,95l-3.93,2A3.73,3.73,0,0,1,177,98.47l2.76-1.37.65,1.31Z" transform="translate(-3.36 -5.5)"/></g></g><g id="text"><text class="cls-5" transform="translate(22.33 127.78)">14 Days</text></g><g id="Layer_3" data-name="Layer 3"><rect class="cls-6" x="156.71" y="209.49" width="119.86" height="35.23" rx="12.15"/><rect class="cls-6" x="156.71" y="265.23" width="119.86" height="35.23" rx="12.15"/><rect class="cls-6" x="157.48" y="320.97" width="119.86" height="35.23" rx="12.15"/><rect class="cls-6" x="157.16" y="369.22" width="119.86" height="35.23" rx="12.15"/></g></svg>