<svg xmlns="http://www.w3.org/2000/svg" viewBox="0 0 500 500"><defs><style>.cls-1{fill:#f9f6ed;stroke:#1d1d1b;stroke-miterlimit:10;}.cls-2{fill:#3caee4;}.cls-3{fill:#010101;}.cls-4{opacity:0.09;}.cls-5{font-size:50.97px;}.cls-5,.cls-7,.cls-8{fill:#fff;font-family:Modern-Regular, "Modern No. 20";}.cls-6{fill:#adacac;}.cls-7{font-size:56.42px;}.cls-8{font-size:61.46px;}</style></defs><g id="_28" data-name="28"><rect class="cls-1" x="33.71" y="101.05" width="189.76" height="286.48" rx="25.14" transform="translate(-38.71 24.69) rotate(-9.54)"/><rect class="cls-2" x="28.1" y="120.34" width="174.25" height="102.26" transform="translate(-26.83 21.47) rotate(-9.54)"/><path class="cls-3" d="M116,277.71c.53,18.89-14,32.86-38.28,38.15,18,11.39,38.13,26.75,58,42.15l-22.9,3.84C95.33,348.94,77.59,334.87,56,321l-2.44-14.49,11.68-2c20.57-3.46,30.37-12.31,30.44-23.38l-45.1,7.58L48.8,278l44.4-7.46c-4.73-8.09-15.64-11.55-32.23-8.76l-14.49,2.44L44,249.45l87.63-14.73,1.8,10.75-32.24,5.42A27.82,27.82,0,0,1,114,267l22.67-3.81,1.81,10.75Z"/><g class="cls-4"><path class="cls-3" d="M30.7,141.4c.78,1.47.19,3.13-1.52,4.49,1.86.19,4,.62,6.2,1.05l-1.65,1.19c-1.88-.33-3.82-.74-6-1l-.76-1,.84-.61c1.48-1.07,1.91-2.14,1.48-3L26,144.82l-.57-.78,3.2-2.31c-.69-.45-1.68-.3-2.87.56l-1,.76L24,142l6.3-4.57.56.78-2.32,1.68a2.45,2.45,0,0,1,1.64.76l1.63-1.18.56.78Z"/></g><g class="cls-4"><path class="cls-3" d="M201.47,198.82c.78,1.46.19,3.12-1.52,4.48,1.86.2,4,.62,6.2,1l-1.65,1.2c-1.88-.33-3.82-.75-6.05-1l-.76-1,.84-.61c1.48-1.07,1.91-2.15,1.48-3l-3.25,2.35-.56-.78,3.2-2.31c-.69-.45-1.68-.3-2.87.57l-1,.75-.77-1.06,6.3-4.56.56.77-2.32,1.68a2.42,2.42,0,0,1,1.64.77l1.63-1.19.56.78Z"/></g><g class="cls-4"><path class="cls-3" d="M189.47,200.84c.77,1.46.18,3.12-1.52,4.48,1.85.19,4,.62,6.19,1.05l-1.64,1.19c-1.88-.33-3.83-.74-6.06-1l-.76-1,.85-.61c1.48-1.07,1.9-2.14,1.47-3l-3.24,2.36-.56-.78,3.19-2.31c-.68-.45-1.67-.3-2.87.56l-1,.76-.77-1.06,6.31-4.57.56.78-2.32,1.68a2.43,2.43,0,0,1,1.63.76l1.63-1.18.56.78Z"/></g><g class="cls-4"><path class="cls-3" d="M183.24,184.94c.78,1.46.19,3.12-1.52,4.48,1.86.2,4,.62,6.2,1.05l-1.65,1.2c-1.88-.33-3.82-.75-6.06-1l-.75-1,.84-.61c1.48-1.07,1.9-2.15,1.48-3l-3.25,2.35-.56-.77,3.2-2.32c-.69-.45-1.68-.3-2.87.57l-1.05.75-.76-1.06,6.3-4.56.56.77L181,183.41a2.42,2.42,0,0,1,1.63.77L184.3,183l.56.77Z"/></g><g class="cls-4"><path class="cls-3" d="M197.13,184.88c.78,1.46.18,3.12-1.52,4.48,1.86.19,4,.62,6.19,1l-1.64,1.2c-1.88-.33-3.82-.75-6.06-1l-.75-1,.84-.61c1.48-1.08,1.9-2.15,1.48-3l-3.25,2.35-.56-.78,3.19-2.31c-.68-.45-1.67-.3-2.87.57l-1,.75-.77-1.06,6.31-4.57.56.78-2.32,1.68a2.38,2.38,0,0,1,1.63.77l1.63-1.19.56.78Z"/></g><g class="cls-4"><path class="cls-3" d="M196.88,171.47c.77,1.46.18,3.12-1.52,4.49,1.85.19,4,.61,6.19,1l-1.65,1.19c-1.88-.33-3.82-.75-6.05-1l-.76-1,.84-.61c1.48-1.07,1.91-2.15,1.48-3l-3.24,2.35-.56-.77,3.19-2.32c-.68-.45-1.67-.29-2.87.57l-1,.76-.77-1.06,6.31-4.57.56.77-2.32,1.68a2.49,2.49,0,0,1,1.63.77l1.63-1.18.56.77Z"/></g><g class="cls-4"><path class="cls-3" d="M173.71,194.46c.78,1.46.18,3.12-1.52,4.49,1.86.19,4,.61,6.2,1.05l-1.65,1.19c-1.88-.33-3.82-.75-6.06-1l-.75-1,.84-.61c1.48-1.07,1.9-2.15,1.48-3L169,197.87l-.56-.77,3.2-2.32c-.69-.45-1.68-.3-2.87.57l-1.05.75-.76-1,6.3-4.57.56.77-2.32,1.68a2.42,2.42,0,0,1,1.63.77l1.63-1.18.56.77Z"/></g><g class="cls-4"><path class="cls-3" d="M167.39,204.55c.78,1.46.18,3.12-1.52,4.48,1.86.19,4,.62,6.19,1.05l-1.64,1.19c-1.88-.33-3.82-.74-6.06-1l-.75-1.05.84-.6c1.48-1.08,1.9-2.15,1.48-3L162.68,208l-.56-.78,3.19-2.31c-.68-.45-1.67-.3-2.87.57l-1,.75-.77-1.06,6.31-4.57.56.78L165.18,203a2.41,2.41,0,0,1,1.63.76l1.63-1.18.56.78Z"/></g><g class="cls-4"><path class="cls-3" d="M158.56,205.42c.78,1.46.19,3.12-1.52,4.48,1.86.2,4,.62,6.2,1l-1.65,1.2c-1.88-.33-3.82-.75-6.06-1l-.75-1,.84-.61c1.48-1.07,1.9-2.15,1.48-3l-3.25,2.35-.56-.78,3.2-2.31c-.69-.45-1.68-.3-2.87.57l-1.05.75-.76-1.06,6.3-4.56.56.77-2.32,1.68a2.38,2.38,0,0,1,1.63.77l1.64-1.18.56.77Z"/></g><g class="cls-4"><path class="cls-3" d="M146.56,207.44c.77,1.46.18,3.12-1.52,4.48,1.85.19,4,.62,6.19,1.05l-1.65,1.19c-1.88-.33-3.82-.74-6.05-1l-.76-1,.84-.6c1.48-1.08,1.91-2.15,1.48-3l-3.24,2.35-.56-.78,3.19-2.31c-.68-.45-1.67-.3-2.87.57l-1,.75L139.8,208l6.31-4.57.56.78-2.32,1.68a2.43,2.43,0,0,1,1.63.76l1.63-1.18.56.78Z"/></g><g class="cls-4"><path class="cls-3" d="M140.33,191.54c.78,1.46.19,3.12-1.52,4.48,1.86.2,4,.62,6.2,1l-1.65,1.2c-1.88-.33-3.82-.75-6.06-1l-.75-1,.84-.61c1.48-1.07,1.9-2.15,1.48-3L135.62,195l-.56-.77,3.2-2.32c-.69-.45-1.68-.3-2.87.57l-1,.75-.76-1.06,6.3-4.56.56.77L138.12,190a2.42,2.42,0,0,1,1.63.77l1.63-1.18.56.77Z"/></g><g class="cls-4"><path class="cls-3" d="M154.22,191.48c.77,1.46.18,3.12-1.52,4.48,1.85.2,4,.62,6.19,1l-1.64,1.2c-1.88-.33-3.83-.75-6.06-1l-.76-1,.85-.61c1.48-1.08,1.9-2.15,1.47-3l-3.24,2.35-.56-.78,3.19-2.31c-.68-.45-1.67-.3-2.87.57l-1,.75-.77-1.06,6.31-4.57.56.78L152,190a2.4,2.4,0,0,1,1.63.77l1.63-1.19.56.78Z"/></g><g class="cls-4"><path class="cls-3" d="M154,178.07c.77,1.46.18,3.12-1.52,4.49,1.85.19,4,.61,6.19,1.05L157,184.8c-1.88-.33-3.82-.75-6.05-1l-.76-1,.84-.61c1.48-1.07,1.91-2.15,1.48-3l-3.24,2.35-.56-.77,3.19-2.32c-.68-.45-1.68-.29-2.87.57l-1,.76-.77-1.06,6.31-4.57.56.77-2.32,1.68a2.49,2.49,0,0,1,1.63.77l1.63-1.18.56.77Z"/></g><g class="cls-4"><path class="cls-3" d="M130.8,201.06c.78,1.46.18,3.12-1.52,4.49,1.86.19,4,.61,6.19,1l-1.64,1.19c-1.88-.33-3.82-.75-6.06-1l-.75-1,.84-.61c1.48-1.07,1.9-2.15,1.48-3l-3.25,2.35-.56-.77,3.2-2.32c-.69-.45-1.68-.29-2.88.57l-1,.76-.77-1.06,6.31-4.57.56.77-2.32,1.68a2.42,2.42,0,0,1,1.63.77l1.63-1.18.56.77Z"/></g><g class="cls-4"><path class="cls-3" d="M124.48,211.15c.77,1.46.18,3.12-1.52,4.48,1.85.19,4,.62,6.19,1.05l-1.64,1.19c-1.88-.33-3.83-.74-6.06-1l-.76-1,.85-.6c1.48-1.08,1.9-2.15,1.47-3l-3.24,2.35-.56-.78,3.19-2.31c-.68-.45-1.67-.3-2.87.57l-1,.75-.77-1.06,6.31-4.57.56.78-2.32,1.68a2.43,2.43,0,0,1,1.63.76l1.63-1.18.56.78Z"/></g><g class="cls-4"><path class="cls-3" d="M41,139.67c.78,1.46.19,3.12-1.52,4.49,1.86.19,4,.61,6.2,1.05L44,146.4c-1.88-.33-3.82-.74-6.06-1l-.75-1,.84-.61c1.48-1.07,1.9-2.15,1.48-3l-3.25,2.35-.56-.77,3.2-2.31c-.69-.46-1.68-.3-2.87.56l-1,.76-.76-1.06,6.3-4.57.56.77-2.32,1.68a2.47,2.47,0,0,1,1.63.77l1.64-1.18.56.77Z"/></g><g class="cls-4"><path class="cls-3" d="M34.76,153.61c.77,1.47.18,3.13-1.52,4.49,1.85.19,4,.61,6.19,1.05l-1.65,1.19c-1.88-.33-3.82-.74-6.05-1l-.76-1,.84-.61c1.48-1.07,1.91-2.14,1.48-3L30.05,157l-.56-.77,3.19-2.31c-.68-.45-1.67-.3-2.87.56l-1,.76L28,154.2l6.31-4.57.56.78-2.32,1.68a2.43,2.43,0,0,1,1.63.76l1.63-1.18.56.78Z"/></g><g class="cls-4"><path class="cls-3" d="M34.66,164.93c.77,1.46.18,3.12-1.52,4.48,1.85.19,4,.62,6.19,1.05l-1.65,1.2c-1.88-.34-3.82-.75-6.05-1l-.76-1,.84-.6c1.48-1.08,1.91-2.15,1.48-3L30,168.34l-.56-.78,3.19-2.31c-.68-.45-1.67-.3-2.87.57l-1,.75-.77-1.06,6.31-4.57.56.78-2.32,1.68a2.4,2.4,0,0,1,1.63.77L35.71,163l.56.78Z"/></g><g class="cls-4"><path class="cls-3" d="M46.07,153.59c.77,1.46.18,3.12-1.52,4.48,1.85.19,4,.62,6.19,1.05l-1.65,1.2c-1.88-.33-3.82-.75-6.05-1l-.76-1,.84-.61c1.48-1.08,1.91-2.15,1.48-3L41.36,157l-.56-.78L44,153.91c-.68-.45-1.67-.3-2.87.57l-1,.75-.77-1.06,6.31-4.57.56.78-2.32,1.68a2.4,2.4,0,0,1,1.63.77l1.63-1.19.56.78Z"/></g><g class="cls-4"><path class="cls-3" d="M58,148.11c.78,1.46.19,3.12-1.52,4.48,1.86.2,4,.62,6.2,1l-1.65,1.2c-1.88-.33-3.82-.75-6.06-1l-.75-1,.84-.61c1.48-1.07,1.9-2.15,1.48-3l-3.25,2.35-.56-.77,3.2-2.32c-.69-.45-1.68-.3-2.87.57l-1,.75-.76-1.06,6.3-4.56.56.77-2.32,1.68a2.42,2.42,0,0,1,1.63.77l1.63-1.18.57.77Z"/></g><g class="cls-4"><path class="cls-3" d="M54,137.5c.78,1.46.19,3.12-1.52,4.48,1.86.19,4,.62,6.2,1.05L57,144.22c-1.88-.33-3.82-.74-6.06-1l-.75-1,.84-.6c1.48-1.08,1.9-2.15,1.48-3l-3.25,2.35-.56-.78,3.2-2.31c-.69-.45-1.68-.3-2.87.57l-1.05.75-.76-1.06,6.3-4.57.56.78L51.75,136a2.41,2.41,0,0,1,1.63.76L55,135.55l.56.78Z"/></g><g class="cls-4"><path class="cls-3" d="M64.14,135c.78,1.46.18,3.12-1.52,4.48,1.86.2,4,.62,6.19,1.05l-1.64,1.2c-1.88-.33-3.82-.75-6.06-1l-.75-1,.84-.61c1.48-1.07,1.9-2.15,1.48-3l-3.25,2.35-.56-.78,3.2-2.31c-.69-.45-1.68-.3-2.88.57l-1,.75-.77-1.06L63.69,131l.56.77-2.32,1.68a2.38,2.38,0,0,1,1.63.77l1.63-1.18.56.77Z"/></g><g class="cls-4"><path class="cls-3" d="M74.45,133.26c.77,1.46.18,3.12-1.52,4.48,1.85.19,4,.62,6.19,1L77.47,140c-1.88-.33-3.82-.74-6-1l-.76-1.05.84-.6c1.48-1.08,1.91-2.15,1.48-3l-3.24,2.35-.56-.78,3.19-2.31c-.68-.45-1.67-.3-2.87.57l-1,.75-.77-1.06L74,129.27l.56.78-2.32,1.68a2.43,2.43,0,0,1,1.63.76l1.63-1.18.56.78Z"/></g><g class="cls-4"><path class="cls-3" d="M68.19,147.2c.78,1.46.19,3.12-1.52,4.48,1.86.2,4,.62,6.2,1l-1.65,1.2c-1.88-.33-3.82-.75-6.06-1l-.75-1,.84-.61c1.48-1.07,1.9-2.15,1.48-3l-3.25,2.35-.56-.78,3.2-2.31c-.69-.45-1.68-.3-2.87.57l-1,.75-.76-1.06,6.3-4.56.56.77L66,145.67a2.38,2.38,0,0,1,1.63.77l1.64-1.19.56.78Z"/></g><g class="cls-4"><path class="cls-3" d="M68.09,158.51c.78,1.46.19,3.12-1.52,4.48,1.86.2,4,.62,6.2,1l-1.65,1.2c-1.88-.33-3.82-.75-6.06-1l-.75-1,.84-.61c1.48-1.07,1.9-2.15,1.48-3l-3.25,2.35-.56-.77,3.2-2.32c-.69-.45-1.68-.3-2.87.57l-1,.75-.76-1.05,6.3-4.57.56.77L65.88,157a2.42,2.42,0,0,1,1.63.77l1.64-1.18.56.77Z"/></g><g class="cls-4"><path class="cls-3" d="M79.5,147.17c.78,1.46.19,3.12-1.52,4.48,1.86.2,4,.62,6.2,1l-1.65,1.2c-1.88-.33-3.82-.75-6.06-1l-.75-1,.84-.61c1.48-1.07,1.91-2.15,1.48-3l-3.25,2.35-.56-.77,3.2-2.32c-.69-.45-1.68-.3-2.87.57l-1,.75-.76-1.05,6.3-4.57.56.77-2.32,1.68a2.42,2.42,0,0,1,1.63.77l1.64-1.18.56.77Z"/></g><g class="cls-4"><path class="cls-3" d="M75.18,174.18c.78,1.46.19,3.12-1.52,4.49,1.86.19,4,.61,6.2,1.05l-1.65,1.19c-1.88-.33-3.82-.74-6.06-1l-.75-1,.84-.61c1.48-1.07,1.9-2.15,1.48-3l-3.25,2.35-.56-.77,3.2-2.32c-.69-.45-1.68-.29-2.87.57l-1,.76-.76-1.06,6.3-4.57.56.77L73,172.65a2.47,2.47,0,0,1,1.63.77l1.63-1.18.56.77Z"/></g><g class="cls-4"><path class="cls-3" d="M81.3,161.06c.78,1.46.18,3.12-1.52,4.49,1.86.19,4,.61,6.19,1l-1.64,1.19c-1.88-.33-3.82-.75-6.06-1l-.75-1,.84-.61c1.48-1.07,1.9-2.15,1.48-3l-3.25,2.35L76,163.7l3.19-2.32c-.68-.45-1.67-.29-2.87.57l-1,.76-.77-1.06,6.31-4.57.56.77-2.32,1.68a2.47,2.47,0,0,1,1.63.77l1.63-1.18.56.77Z"/></g><g class="cls-4"><path class="cls-3" d="M91.61,159.33c.77,1.46.18,3.12-1.52,4.48,1.85.2,4,.62,6.19,1.05l-1.65,1.2c-1.88-.33-3.82-.75-6-1l-.76-1,.84-.61c1.48-1.07,1.91-2.15,1.48-3l-3.24,2.35-.56-.77,3.19-2.32c-.68-.45-1.67-.3-2.87.57l-1,.75-.77-1.06,6.31-4.56.56.77L89.4,157.8a2.44,2.44,0,0,1,1.63.77l1.63-1.18.56.77Z"/></g><g class="cls-4"><path class="cls-3" d="M85.35,173.27c.78,1.46.19,3.12-1.52,4.49,1.86.19,4,.61,6.2,1.05L88.38,180c-1.88-.33-3.82-.75-6.06-1l-.75-1,.84-.61c1.48-1.07,1.9-2.15,1.48-3l-3.25,2.35-.56-.77,3.2-2.32c-.69-.45-1.68-.29-2.87.57l-1,.76-.76-1.06,6.3-4.57.56.77-2.32,1.68a2.47,2.47,0,0,1,1.63.77l1.64-1.18.56.77Z"/></g><g class="cls-4"><path class="cls-3" d="M85.25,184.58c.78,1.46.19,3.12-1.52,4.49,1.86.19,4,.61,6.2,1.05l-1.65,1.19c-1.88-.33-3.82-.74-6.06-1l-.75-1,.84-.61c1.48-1.07,1.9-2.15,1.48-3L80.54,188l-.56-.77,3.2-2.31c-.69-.46-1.68-.3-2.87.56l-1,.76-.76-1.06,6.3-4.57.56.77L83,183.05a2.47,2.47,0,0,1,1.63.77l1.64-1.18.56.77Z"/></g><g class="cls-4"><path class="cls-3" d="M96.66,173.24c.78,1.46.19,3.12-1.52,4.49,1.86.19,4,.61,6.2,1.05L99.69,180c-1.88-.33-3.82-.74-6.06-1l-.75-1,.84-.61c1.48-1.07,1.9-2.15,1.48-3L92,176.65l-.56-.77,3.2-2.31c-.69-.46-1.68-.3-2.87.56l-1,.76-.76-1.06,6.3-4.57.56.77-2.32,1.68a2.47,2.47,0,0,1,1.63.77l1.64-1.18.56.77Z"/></g><g class="cls-4"><path class="cls-3" d="M62.64,210.06c.77,1.46.18,3.12-1.52,4.48,1.85.2,4,.62,6.19,1.05l-1.64,1.2c-1.88-.33-3.83-.75-6.06-1l-.76-1,.85-.61c1.48-1.08,1.9-2.15,1.47-3l-3.24,2.35-.56-.78,3.19-2.31c-.68-.45-1.67-.3-2.87.57l-1,.75-.77-1.06,6.31-4.56.56.77-2.32,1.68a2.4,2.4,0,0,1,1.63.77l1.63-1.19.56.78Z"/></g><g class="cls-4"><path class="cls-3" d="M68.75,196.94c.78,1.46.19,3.12-1.51,4.48,1.85.19,4,.62,6.19,1.05l-1.65,1.19c-1.88-.33-3.82-.74-6-1l-.76-1,.84-.6c1.48-1.08,1.91-2.15,1.48-3l-3.24,2.35-.56-.78,3.19-2.31c-.68-.45-1.68-.3-2.87.57l-1,.75L62,197.52,68.31,193l.56.78-2.32,1.68a2.43,2.43,0,0,1,1.63.76L69.81,195l.56.78Z"/></g><g class="cls-4"><path class="cls-3" d="M79.06,195.2c.78,1.47.19,3.13-1.52,4.49,1.86.19,4,.61,6.2,1.05l-1.65,1.19c-1.88-.33-3.82-.74-6-1l-.76-1,.84-.61c1.48-1.07,1.91-2.15,1.48-3l-3.25,2.35-.56-.77,3.2-2.31c-.69-.46-1.68-.3-2.87.56l-1,.76-.77-1.06,6.3-4.57.56.78-2.32,1.68a2.45,2.45,0,0,1,1.64.76l1.63-1.18.56.77Z"/></g><g class="cls-4"><path class="cls-3" d="M72.81,209.15c.78,1.46.18,3.12-1.52,4.48,1.86.19,4,.62,6.19,1.05l-1.64,1.19c-1.88-.33-3.82-.74-6.06-1l-.75-1,.84-.6c1.48-1.08,1.9-2.15,1.48-3l-3.25,2.35-.56-.78,3.19-2.31c-.68-.45-1.67-.3-2.87.57l-1,.75-.77-1.06,6.31-4.57.56.78-2.32,1.68a2.41,2.41,0,0,1,1.63.76l1.63-1.18.56.78Z"/></g><g class="cls-4"><path class="cls-3" d="M72.71,220.46c.78,1.46.18,3.12-1.52,4.48,1.86.2,4,.62,6.19,1.05l-1.64,1.2c-1.88-.33-3.83-.75-6.06-1l-.75-1,.84-.61c1.48-1.07,1.9-2.15,1.48-3L68,223.87l-.56-.78,3.19-2.31c-.68-.45-1.67-.3-2.87.57l-1,.75L66,221l6.31-4.56.56.77-2.32,1.68a2.4,2.4,0,0,1,1.63.77l1.63-1.19.56.78Z"/></g><g class="cls-4"><path class="cls-3" d="M42.82,215.66c.78,1.46.19,3.12-1.52,4.48,1.86.2,4,.62,6.2,1.05l-1.65,1.2c-1.88-.33-3.82-.75-6.05-1l-.76-1,.84-.61c1.48-1.07,1.91-2.15,1.48-3l-3.24,2.35-.56-.77L40.75,216c-.69-.45-1.68-.3-2.87.57l-1,.75-.77-1.06,6.31-4.56.56.77-2.32,1.68a2.46,2.46,0,0,1,1.63.77l1.63-1.18.56.77Z"/></g><g class="cls-4"><path class="cls-3" d="M53,214.75c.77,1.46.18,3.12-1.52,4.48,1.85.2,4,.62,6.19,1.05L56,221.48c-1.88-.33-3.82-.75-6.05-1l-.76-1,.84-.61c1.48-1.08,1.91-2.15,1.48-3l-3.24,2.35-.56-.78,3.19-2.31c-.68-.45-1.68-.3-2.87.57l-1,.75-.77-1.06,6.31-4.56.56.77-2.32,1.68a2.4,2.4,0,0,1,1.63.77l1.63-1.19.56.78Z"/></g><g class="cls-4"><path class="cls-3" d="M52.9,226.06c.77,1.46.18,3.12-1.52,4.48,1.85.2,4,.62,6.19,1.05l-1.65,1.2c-1.88-.33-3.82-.75-6.05-1l-.76-1,.84-.61c1.48-1.07,1.91-2.15,1.48-3l-3.24,2.35-.56-.77,3.19-2.32c-.68-.45-1.68-.3-2.87.57l-1,.75-.77-1.06,6.31-4.56.56.77-2.32,1.68a2.44,2.44,0,0,1,1.63.77L54,224.12l.56.77Z"/></g><g class="cls-4"><path class="cls-3" d="M84.12,209.12c.78,1.46.18,3.12-1.52,4.48,1.86.2,4,.62,6.19,1.05l-1.64,1.2c-1.88-.33-3.82-.75-6.06-1l-.75-1,.84-.61c1.48-1.07,1.9-2.15,1.48-3l-3.25,2.35-.56-.78L82,209.44c-.68-.45-1.67-.3-2.87.57l-1,.75-.77-1.06,6.31-4.56.56.77-2.32,1.68a2.38,2.38,0,0,1,1.63.77l1.63-1.19.56.78Z"/></g><g class="cls-4"><path class="cls-3" d="M91.46,141.69c.77,1.46.18,3.12-1.52,4.49,1.85.19,4,.61,6.19,1l-1.65,1.19c-1.88-.33-3.82-.74-6-1l-.76-1,.84-.61c1.48-1.07,1.91-2.15,1.48-3l-3.24,2.35-.56-.77L89.38,142c-.68-.45-1.67-.29-2.87.57l-1,.76-.77-1.06L91,137.71l.56.77-2.32,1.68a2.49,2.49,0,0,1,1.63.77l1.63-1.18.56.77Z"/></g><g class="cls-4"><path class="cls-3" d="M87.4,131.08c.77,1.46.18,3.12-1.52,4.48,1.85.2,4,.62,6.19,1.05l-1.65,1.2c-1.88-.33-3.82-.75-6-1l-.76-1,.84-.61c1.48-1.07,1.91-2.15,1.48-3l-3.24,2.35-.56-.77,3.19-2.32c-.68-.45-1.67-.3-2.87.57l-1,.75-.77-1.06L87,127.1l.56.77-2.32,1.68a2.44,2.44,0,0,1,1.63.77l1.63-1.18.56.77Z"/></g><g class="cls-4"><path class="cls-3" d="M39.6,177.65c.77,1.46.18,3.12-1.52,4.49,1.86.19,4,.61,6.19,1.05l-1.64,1.19c-1.88-.33-3.83-.75-6.06-1l-.76-1,.85-.61c1.48-1.07,1.9-2.15,1.47-3l-3.24,2.35-.56-.77L37.52,178c-.68-.45-1.67-.29-2.87.57l-1,.76-.77-1.06,6.31-4.57.56.77-2.32,1.68a2.44,2.44,0,0,1,1.63.77l1.63-1.18.56.77Z"/></g><g class="cls-4"><path class="cls-3" d="M49.91,175.92c.77,1.46.18,3.12-1.52,4.48,1.85.2,4,.62,6.19,1l-1.65,1.2c-1.88-.33-3.82-.75-6-1l-.76-1L47,180c1.48-1.07,1.91-2.15,1.48-3l-3.24,2.35-.56-.78,3.19-2.31c-.68-.45-1.68-.3-2.87.57l-1,.75-.77-1.06,6.31-4.56.56.77-2.32,1.68a2.4,2.4,0,0,1,1.63.77L51,174l.56.78Z"/></g><g class="cls-4"><path class="cls-3" d="M43.65,189.86c.78,1.46.19,3.12-1.52,4.48,1.86.2,4,.62,6.2,1l-1.65,1.2c-1.88-.33-3.82-.75-6.06-1l-.75-1,.84-.61c1.48-1.07,1.9-2.15,1.48-3l-3.25,2.35-.56-.77,3.2-2.32c-.69-.45-1.68-.3-2.87.57l-1.05.75-.76-1.05,6.3-4.57.56.77-2.32,1.68a2.42,2.42,0,0,1,1.63.77l1.63-1.18.57.77Z"/></g><g class="cls-4"><path class="cls-3" d="M43.55,201.17c.78,1.46.19,3.12-1.52,4.49,1.86.19,4,.61,6.2,1.05l-1.65,1.19c-1.88-.33-3.82-.74-6.06-1l-.75-1,.84-.61c1.48-1.07,1.9-2.15,1.48-3l-3.25,2.35-.56-.77,3.2-2.32c-.69-.45-1.68-.29-2.87.57l-1,.76-.76-1.06,6.3-4.57.56.77-2.32,1.68a2.47,2.47,0,0,1,1.63.77l1.63-1.18.56.77Z"/></g><g class="cls-4"><path class="cls-3" d="M55,189.83c.78,1.46.19,3.12-1.52,4.49,1.86.19,4,.61,6.2,1.05L58,196.56c-1.88-.33-3.82-.74-6.06-1l-.75-1,.84-.61c1.48-1.07,1.9-2.15,1.48-3l-3.25,2.35-.56-.77,3.2-2.32c-.69-.45-1.68-.29-2.87.57l-1.05.76-.76-1.06,6.3-4.57.56.77-2.32,1.68a2.47,2.47,0,0,1,1.63.77L56,187.89l.57.77Z"/></g><g class="cls-4"><path class="cls-3" d="M66.92,184.35c.77,1.47.18,3.13-1.52,4.49,1.85.19,4,.61,6.19,1l-1.65,1.19c-1.88-.33-3.82-.74-6-1L63.13,189l.84-.61c1.48-1.07,1.91-2.14,1.48-3l-3.24,2.35-.56-.77,3.19-2.31c-.68-.45-1.68-.3-2.87.56l-1,.76-.77-1.06,6.31-4.57.56.78-2.32,1.68a2.43,2.43,0,0,1,1.63.76L68,182.41l.56.78Z"/></g><g class="cls-4"><path class="cls-3" d="M62.86,173.74c.77,1.46.18,3.12-1.52,4.49,1.85.19,4,.61,6.19,1.05l-1.65,1.19c-1.88-.33-3.82-.74-6-1l-.76-1,.84-.61c1.48-1.07,1.91-2.15,1.48-3l-3.24,2.35-.56-.77,3.19-2.32c-.68-.45-1.68-.29-2.87.57l-1,.76-.77-1.06,6.31-4.57.56.77-2.32,1.68a2.49,2.49,0,0,1,1.63.77l1.63-1.18.56.77Z"/></g><g class="cls-4"><path class="cls-3" d="M101.31,128c.78,1.46.19,3.12-1.52,4.49,1.86.19,4,.61,6.2,1.05l-1.65,1.19c-1.88-.33-3.82-.75-6.06-1l-.75-1,.84-.61c1.48-1.07,1.9-2.15,1.48-3l-3.25,2.35-.56-.77,3.2-2.32c-.69-.45-1.68-.29-2.87.57l-1.05.76-.76-1.06,6.3-4.57.56.77-2.32,1.68a2.42,2.42,0,0,1,1.63.77l1.64-1.18.56.77Z"/></g><g class="cls-4"><path class="cls-3" d="M111.62,126.28c.78,1.46.18,3.12-1.52,4.48,1.86.2,4,.62,6.19,1.05l-1.64,1.2c-1.88-.33-3.82-.75-6.06-1l-.75-1,.84-.61c1.48-1.07,1.9-2.15,1.48-3l-3.25,2.35-.56-.78,3.2-2.31c-.69-.45-1.68-.3-2.88.57l-1,.75-.77-1.06,6.31-4.56.56.77-2.32,1.68a2.38,2.38,0,0,1,1.63.77l1.63-1.18.56.77Z"/></g><g class="cls-4"><path class="cls-3" d="M105.36,140.22c.78,1.46.19,3.12-1.52,4.49,1.86.19,4,.61,6.2,1l-1.65,1.2c-1.88-.33-3.82-.75-6-1l-.76-1,.84-.61c1.48-1.07,1.91-2.15,1.48-3l-3.24,2.35-.56-.77,3.19-2.32c-.69-.45-1.68-.3-2.87.57l-1,.75-.77-1.05,6.31-4.57.56.77-2.32,1.68a2.46,2.46,0,0,1,1.63.77l1.63-1.18.56.77Z"/></g><g class="cls-4"><path class="cls-3" d="M131.41,134.61c.78,1.46.19,3.12-1.52,4.49,1.86.19,4,.61,6.2,1.05l-1.65,1.19c-1.88-.33-3.82-.74-6.05-1l-.76-1,.84-.61c1.48-1.07,1.91-2.15,1.48-3L126.71,138l-.56-.77,3.19-2.32c-.69-.45-1.68-.29-2.87.57l-1,.76-.77-1.06,6.31-4.57.56.77-2.32,1.68a2.51,2.51,0,0,1,1.63.77l1.63-1.18.56.77Z"/></g><g class="cls-4"><path class="cls-3" d="M127.35,124c.78,1.46.19,3.12-1.52,4.48,1.86.2,4,.62,6.2,1.05l-1.65,1.2c-1.88-.33-3.82-.75-6-1l-.76-1,.84-.61c1.48-1.07,1.91-2.15,1.48-3l-3.24,2.35-.56-.77,3.19-2.32c-.69-.45-1.68-.3-2.87.57l-1,.75-.77-1.06,6.31-4.56.56.77-2.32,1.68a2.46,2.46,0,0,1,1.63.77l1.63-1.18.56.77Z"/></g><g class="cls-4"><path class="cls-3" d="M137.53,121.49c.78,1.46.19,3.12-1.52,4.49,1.86.19,4,.61,6.2,1l-1.65,1.19c-1.88-.33-3.82-.75-6.06-1l-.75-1,.84-.61c1.48-1.07,1.9-2.15,1.48-3l-3.25,2.35-.56-.77,3.2-2.32c-.69-.45-1.68-.29-2.87.57l-1.05.76-.76-1.06,6.3-4.57.56.77L135.32,120a2.47,2.47,0,0,1,1.63.77l1.64-1.18.56.77Z"/></g><g class="cls-4"><path class="cls-3" d="M147.84,119.76c.78,1.46.18,3.12-1.52,4.48,1.86.2,4,.62,6.2,1.05l-1.65,1.2c-1.88-.33-3.82-.75-6.06-1l-.75-1,.84-.61c1.48-1.07,1.9-2.15,1.48-3l-3.25,2.35-.56-.77,3.2-2.32c-.69-.45-1.68-.3-2.88.57l-1,.75-.76-1.06,6.3-4.56.56.77-2.32,1.68a2.42,2.42,0,0,1,1.63.77l1.63-1.18.56.77Z"/></g><g class="cls-4"><path class="cls-3" d="M141.59,133.7c.77,1.46.18,3.12-1.52,4.49,1.85.19,4,.61,6.19,1.05l-1.65,1.19c-1.88-.33-3.82-.75-6.05-1l-.76-1,.84-.61c1.48-1.07,1.91-2.15,1.48-3l-3.24,2.35-.56-.77,3.19-2.32c-.68-.45-1.68-.3-2.87.57l-1,.75-.77-1.05,6.31-4.57.56.77-2.32,1.68a2.44,2.44,0,0,1,1.63.77l1.63-1.18.56.77Z"/></g><g class="cls-4"><path class="cls-3" d="M164.85,128.19c.78,1.47.18,3.13-1.52,4.49,1.86.19,4,.62,6.2,1l-1.65,1.19c-1.88-.33-3.82-.74-6.06-1l-.75-1.05.84-.61c1.48-1.07,1.9-2.14,1.48-3l-3.25,2.36-.56-.78,3.2-2.31c-.69-.45-1.68-.3-2.88.56l-1,.76-.77-1.06,6.31-4.57.56.78-2.32,1.68a2.41,2.41,0,0,1,1.63.76l1.63-1.18.56.78Z"/></g><g class="cls-4"><path class="cls-3" d="M160.79,117.58c.78,1.46.18,3.12-1.52,4.49,1.86.19,4,.61,6.2,1.05l-1.65,1.19c-1.88-.33-3.82-.74-6.06-1l-.75-1,.84-.61c1.48-1.07,1.9-2.15,1.48-3L156.08,121l-.56-.77,3.2-2.32c-.69-.45-1.68-.29-2.87.57l-1,.76-.76-1.06,6.3-4.57.56.77-2.32,1.68a2.47,2.47,0,0,1,1.63.77l1.63-1.18.56.77Z"/></g><g class="cls-4"><path class="cls-3" d="M174.7,114.51c.78,1.47.19,3.12-1.52,4.49,1.86.19,4,.61,6.2,1l-1.65,1.19c-1.88-.33-3.82-.74-6-1l-.76-1,.84-.61c1.48-1.07,1.91-2.15,1.48-3L170,117.92l-.56-.77,3.19-2.31c-.69-.46-1.68-.3-2.87.56l-1,.76L168,115.1l6.31-4.57.56.77L172.5,113a2.45,2.45,0,0,1,1.63.76l1.63-1.18.56.77Z"/></g><g class="cls-4"><path class="cls-3" d="M185,112.78c.78,1.46.19,3.12-1.52,4.49,1.86.19,4,.61,6.2,1L188,119.51c-1.88-.33-3.82-.75-6.06-1l-.75-1,.84-.61c1.48-1.07,1.9-2.15,1.48-3l-3.25,2.35-.56-.77,3.2-2.32c-.69-.45-1.68-.29-2.87.57l-1,.76-.76-1.06,6.3-4.57.56.77-2.32,1.68a2.47,2.47,0,0,1,1.63.77l1.64-1.18.56.77Z"/></g><g class="cls-4"><path class="cls-3" d="M178.76,126.72c.77,1.46.18,3.12-1.52,4.49,1.86.19,4,.61,6.19,1l-1.64,1.19c-1.88-.33-3.83-.74-6.06-1l-.76-1,.85-.61c1.48-1.07,1.9-2.15,1.47-3l-3.24,2.35-.56-.77,3.19-2.31c-.68-.46-1.67-.3-2.87.56l-1,.76-.77-1.06,6.31-4.57.56.77-2.32,1.68a2.49,2.49,0,0,1,1.63.77l1.63-1.18.56.77Z"/></g><g class="cls-4"><path class="cls-3" d="M146.74,158.48c.78,1.46.19,3.12-1.52,4.49,1.86.19,4,.61,6.2,1.05l-1.65,1.19c-1.88-.33-3.82-.75-6.05-1l-.76-1,.84-.61c1.48-1.07,1.91-2.15,1.48-3L142,161.89l-.56-.77,3.2-2.32c-.69-.45-1.68-.29-2.87.57l-1,.76-.77-1.06,6.3-4.57.56.77L144.53,157a2.51,2.51,0,0,1,1.64.77l1.63-1.18.56.77Z"/></g><g class="cls-4"><path class="cls-3" d="M142.68,147.87c.78,1.46.19,3.12-1.52,4.48,1.86.2,4,.62,6.2,1.05l-1.65,1.2c-1.88-.33-3.82-.75-6.05-1l-.76-1,.84-.61c1.48-1.07,1.91-2.15,1.48-3L138,151.28l-.56-.78,3.2-2.31c-.69-.45-1.68-.3-2.87.57l-1,.75-.77-1.06,6.3-4.56.56.77-2.32,1.68a2.42,2.42,0,0,1,1.64.77l1.63-1.19.56.78Z"/></g><g class="cls-4"><path class="cls-3" d="M152.86,145.36c.78,1.46.19,3.12-1.52,4.48,1.86.2,4,.62,6.2,1l-1.65,1.2c-1.88-.33-3.82-.75-6.06-1l-.75-1,.84-.61c1.48-1.07,1.9-2.15,1.48-3l-3.25,2.35-.56-.77,3.2-2.32c-.69-.45-1.68-.3-2.87.57l-1,.75-.76-1.06,6.3-4.56.56.77-2.32,1.68a2.42,2.42,0,0,1,1.63.77l1.63-1.18.56.77Z"/></g><g class="cls-4"><path class="cls-3" d="M163.17,143.63c.78,1.46.18,3.12-1.52,4.48,1.86.19,4,.62,6.19,1l-1.64,1.2c-1.88-.33-3.82-.75-6.06-1l-.75-1,.84-.61c1.48-1.08,1.9-2.15,1.48-3L158.46,147l-.56-.78,3.19-2.31c-.68-.45-1.67-.3-2.87.57l-1,.75-.77-1.06,6.31-4.57.56.78L161,142.1a2.38,2.38,0,0,1,1.63.77l1.63-1.19.56.78Z"/></g><g class="cls-4"><path class="cls-3" d="M156.91,157.57c.78,1.46.19,3.12-1.52,4.48,1.86.2,4,.62,6.2,1l-1.65,1.2c-1.88-.33-3.82-.75-6.05-1l-.76-1,.84-.61c1.48-1.07,1.91-2.15,1.48-3L152.21,161l-.56-.77,3.19-2.32c-.69-.45-1.68-.3-2.87.57l-1,.75-.77-1.06,6.3-4.56.57.77L154.7,156a2.47,2.47,0,0,1,1.64.77l1.63-1.18.56.77Z"/></g><g class="cls-4"><path class="cls-3" d="M180.18,152.06c.78,1.47.18,3.13-1.52,4.49,1.86.19,4,.61,6.19,1l-1.64,1.19c-1.88-.33-3.82-.74-6.06-1l-.75-1,.84-.61c1.48-1.07,1.9-2.15,1.48-3l-3.25,2.35-.56-.77,3.19-2.31c-.68-.46-1.67-.3-2.87.56l-1,.76-.77-1.06,6.31-4.57.56.77L178,150.54a2.43,2.43,0,0,1,1.63.76l1.63-1.18.56.77Z"/></g><g class="cls-4"><path class="cls-3" d="M176.12,141.45c.78,1.46.18,3.12-1.52,4.49,1.86.19,4,.61,6.19,1.05l-1.64,1.19c-1.88-.33-3.82-.75-6.06-1l-.75-1,.84-.61c1.48-1.07,1.9-2.15,1.48-3l-3.25,2.35-.56-.77,3.19-2.32c-.68-.45-1.67-.29-2.87.57l-1,.76-.77-1.06,6.31-4.57.56.77-2.32,1.68a2.47,2.47,0,0,1,1.63.77l1.63-1.18.56.77Z"/></g><g class="cls-4"><path class="cls-3" d="M190,138.38c.78,1.46.19,3.12-1.52,4.49,1.86.19,4,.61,6.2,1l-1.65,1.19c-1.88-.33-3.82-.74-6.05-1l-.76-1,.84-.61c1.48-1.07,1.91-2.15,1.48-3l-3.25,2.35-.56-.77,3.2-2.32c-.69-.45-1.68-.29-2.87.57l-1,.76-.77-1.06,6.3-4.57.56.77-2.32,1.68a2.51,2.51,0,0,1,1.64.77l1.63-1.18.56.77Z"/></g><g class="cls-4"><path class="cls-3" d="M194.09,150.59c.77,1.46.18,3.12-1.52,4.49,1.85.19,4,.61,6.19,1l-1.65,1.19c-1.88-.33-3.82-.74-6.05-1l-.76-1,.84-.61c1.48-1.07,1.91-2.15,1.48-3L189.38,154l-.56-.77,3.19-2.32c-.68-.45-1.67-.29-2.87.57l-1,.76-.77-1.06,6.31-4.57.56.77-2.32,1.68a2.49,2.49,0,0,1,1.63.77l1.63-1.18.56.77Z"/></g><g class="cls-4"><path class="cls-3" d="M166.73,174.75c.78,1.47.19,3.13-1.52,4.49,1.86.19,4,.62,6.2,1l-1.65,1.19c-1.88-.33-3.82-.74-6-1l-.76-1.05.84-.61c1.48-1.07,1.91-2.14,1.48-3L162,178.17l-.56-.78,3.19-2.31c-.69-.45-1.68-.3-2.87.56l-1,.76-.77-1.06,6.31-4.57.56.78-2.32,1.68a2.45,2.45,0,0,1,1.63.76l1.63-1.18.56.78Z"/></g><g class="cls-4"><path class="cls-3" d="M162.68,164.14c.77,1.46.18,3.12-1.52,4.49,1.85.19,4,.61,6.19,1.05l-1.65,1.19c-1.88-.33-3.82-.74-6-1l-.76-1,.84-.61c1.48-1.07,1.91-2.15,1.48-3L158,167.55l-.56-.77,3.19-2.32c-.68-.45-1.68-.29-2.87.57l-1,.76-.77-1.06,6.31-4.57.56.77-2.32,1.68a2.49,2.49,0,0,1,1.63.77l1.63-1.18.56.77Z"/></g><g class="cls-4"><path class="cls-3" d="M176.59,161.07c.78,1.47.18,3.12-1.52,4.49,1.86.19,4,.61,6.2,1.05l-1.65,1.19c-1.88-.33-3.82-.74-6.06-1l-.75-1,.84-.61c1.48-1.07,1.9-2.15,1.48-3l-3.25,2.35-.56-.77,3.2-2.31c-.69-.46-1.68-.3-2.88.56l-1,.76-.77-1.06,6.31-4.57.56.77-2.32,1.69a2.41,2.41,0,0,1,1.63.76l1.63-1.18.56.77Z"/></g><g class="cls-4"><path class="cls-3" d="M180.64,173.28c.78,1.46.19,3.12-1.52,4.49,1.86.19,4,.61,6.2,1L183.67,180c-1.88-.33-3.82-.74-6-1l-.76-1,.84-.61c1.48-1.07,1.91-2.15,1.48-3l-3.25,2.35-.56-.77,3.2-2.31c-.69-.46-1.68-.3-2.87.56l-1,.76-.77-1.06,6.3-4.57.56.77-2.32,1.68a2.51,2.51,0,0,1,1.64.77l1.63-1.18.56.77Z"/></g><g class="cls-4"><path class="cls-3" d="M105.26,151.53c.78,1.46.19,3.12-1.52,4.49,1.86.19,4,.61,6.2,1l-1.65,1.19c-1.88-.33-3.82-.74-6.05-1l-.76-1,.84-.61c1.48-1.07,1.91-2.15,1.48-3l-3.24,2.35-.56-.77,3.19-2.32c-.69-.45-1.68-.29-2.87.57l-1,.76-.77-1.06,6.31-4.57.56.77L103.06,150a2.51,2.51,0,0,1,1.63.77l1.63-1.18.56.77Z"/></g><g class="cls-4"><path class="cls-3" d="M116.67,140.19c.78,1.46.19,3.12-1.52,4.49,1.86.19,4,.61,6.2,1l-1.65,1.19c-1.88-.33-3.82-.74-6-1l-.76-1,.84-.61c1.48-1.07,1.91-2.15,1.48-3L112,143.6l-.56-.77,3.19-2.32c-.69-.45-1.68-.29-2.87.57l-1,.76-.77-1.06,6.31-4.57.56.77-2.32,1.68a2.51,2.51,0,0,1,1.63.77l1.63-1.18.56.77Z"/></g><g class="cls-4"><path class="cls-3" d="M110.21,164.26c.77,1.46.18,3.12-1.52,4.48,1.85.19,4,.62,6.19,1L113.23,171c-1.88-.33-3.82-.74-6-1l-.76-1.05.84-.6c1.48-1.08,1.91-2.15,1.48-3l-3.24,2.35-.56-.78,3.19-2.31c-.68-.45-1.68-.3-2.87.57l-1,.75-.77-1.06,6.31-4.57.56.78L108,162.73a2.43,2.43,0,0,1,1.63.76l1.63-1.18.56.78Z"/></g><g class="cls-4"><path class="cls-3" d="M120.51,162.52c.78,1.47.19,3.13-1.52,4.49,1.86.19,4,.61,6.2,1.05l-1.65,1.19c-1.88-.33-3.82-.74-6.05-1l-.76-1,.84-.61c1.48-1.07,1.91-2.15,1.48-3l-3.25,2.35-.56-.77,3.2-2.31c-.69-.46-1.68-.3-2.87.56l-1,.76-.77-1.06,6.3-4.57.56.77L118.3,161a2.45,2.45,0,0,1,1.64.76l1.63-1.18.56.77Z"/></g><g class="cls-4"><path class="cls-3" d="M114.26,176.47c.78,1.46.18,3.12-1.52,4.48,1.86.19,4,.62,6.19,1.05l-1.64,1.19c-1.88-.33-3.82-.74-6.06-1l-.75-1,.84-.61c1.48-1.07,1.9-2.14,1.48-3l-3.25,2.36-.56-.78,3.19-2.31c-.68-.45-1.67-.3-2.87.56l-1,.76-.77-1.06,6.31-4.57.56.78-2.32,1.68a2.41,2.41,0,0,1,1.63.76l1.63-1.18.56.78Z"/></g><g class="cls-4"><path class="cls-3" d="M114.16,187.78c.78,1.46.18,3.12-1.52,4.48,1.86.2,4,.62,6.19,1.05l-1.64,1.2c-1.88-.33-3.82-.75-6.06-1l-.75-1,.84-.61c1.48-1.08,1.9-2.15,1.48-3l-3.25,2.35-.56-.78,3.19-2.31c-.68-.45-1.67-.3-2.87.57l-1,.75-.77-1.06,6.31-4.56.56.77L112,186.25a2.38,2.38,0,0,1,1.63.77l1.63-1.19.56.78Z"/></g><g class="cls-4"><path class="cls-3" d="M109.42,205.72c.78,1.47.19,3.12-1.52,4.49,1.86.19,4,.61,6.2,1l-1.65,1.19c-1.88-.33-3.82-.74-6.06-1l-.75-1,.84-.61c1.48-1.07,1.9-2.15,1.48-3l-3.25,2.35-.56-.77,3.2-2.31c-.69-.46-1.68-.3-2.87.56l-1,.76-.76-1.06,6.3-4.57.56.77-2.32,1.69a2.41,2.41,0,0,1,1.63.76l1.64-1.18.56.77Z"/></g><g class="cls-4"><path class="cls-3" d="M103.1,215.81c.78,1.46.18,3.12-1.52,4.48,1.86.2,4,.62,6.2,1.05l-1.65,1.2c-1.88-.33-3.82-.75-6.06-1l-.75-1,.84-.61c1.48-1.07,1.9-2.15,1.48-3l-3.25,2.35-.56-.77,3.2-2.32c-.69-.45-1.68-.3-2.88.57l-1,.75-.76-1.06,6.3-4.56.56.77-2.32,1.68a2.42,2.42,0,0,1,1.63.77l1.63-1.18.56.77Z"/></g><g class="cls-4"><path class="cls-3" d="M92.78,192.44c.78,1.46.19,3.12-1.52,4.48,1.86.2,4,.62,6.2,1.05l-1.65,1.2c-1.88-.33-3.82-.75-6.06-1l-.75-1,.84-.61c1.48-1.07,1.9-2.15,1.48-3l-3.25,2.35-.56-.77,3.2-2.32c-.69-.45-1.68-.3-2.87.57l-1,.75L86,193l6.3-4.57.56.77-2.32,1.68a2.42,2.42,0,0,1,1.63.77l1.63-1.18.57.77Z"/></g><g class="cls-4"><path class="cls-3" d="M125.57,176.44c.78,1.46.18,3.12-1.52,4.48,1.86.2,4,.62,6.19,1.05l-1.64,1.2c-1.88-.33-3.82-.75-6.06-1l-.75-1,.84-.61c1.48-1.08,1.9-2.15,1.48-3l-3.25,2.35-.56-.78,3.19-2.31c-.68-.45-1.67-.3-2.87.57l-1,.75-.77-1.06,6.31-4.56.56.77-2.32,1.68a2.38,2.38,0,0,1,1.63.77l1.63-1.19.56.78Z"/></g><g class="cls-4"><path class="cls-3" d="M137.52,171c.78,1.46.19,3.12-1.52,4.49,1.86.19,4,.61,6.2,1l-1.65,1.2c-1.88-.33-3.82-.75-6.05-1l-.76-1,.84-.61c1.48-1.07,1.91-2.15,1.48-3l-3.25,2.35-.56-.77,3.2-2.32c-.69-.45-1.68-.3-2.87.57l-1,.75-.77-1,6.3-4.57.56.77-2.32,1.68a2.47,2.47,0,0,1,1.64.77l1.63-1.18.56.77Z"/></g><g class="cls-4"><path class="cls-3" d="M133.46,160.35c.78,1.46.19,3.12-1.52,4.48,1.86.19,4,.62,6.2,1l-1.65,1.2c-1.88-.33-3.82-.75-6.05-1l-.76-1,.84-.61c1.48-1.08,1.91-2.15,1.48-3l-3.25,2.35-.56-.78,3.2-2.31c-.69-.45-1.68-.3-2.87.57l-1,.75-.77-1.06,6.3-4.57.56.78-2.32,1.68a2.42,2.42,0,0,1,1.64.77l1.63-1.19.56.78Z"/></g><text class="cls-5" transform="translate(39.13 198.41) rotate(-9.54)">28 Days</text><rect class="cls-6" x="135.94" y="229.86" width="78.32" height="23.02" rx="10.87" transform="matrix(0.99, -0.17, 0.17, 0.99, -37.58, 32.36)"/><rect class="cls-6" x="141.98" y="265.78" width="78.32" height="23.02" rx="10.87" transform="translate(-43.45 33.86) rotate(-9.54)"/><rect class="cls-6" x="148.51" y="301.62" width="78.32" height="23.02" rx="10.87" transform="translate(-49.3 35.43) rotate(-9.54)"/><rect class="cls-6" x="153.53" y="332.74" width="78.32" height="23.02" rx="10.87" transform="translate(-54.39 36.7) rotate(-9.54)"/></g><g id="_14" data-name="14"><rect class="cls-1" x="154.62" y="74.24" width="210.04" height="317.11" rx="25.14" transform="translate(-18.56 22.54) rotate(-4.8)"/><rect class="cls-2" x="155.13" y="94.66" width="192.88" height="113.19" transform="translate(-11.77 21.57) rotate(-4.8)"/><path class="cls-3" d="M242.74,268.52c-1.14,20.88-18.38,35-45.72,38.58,18.83,14.21,39.62,33,60.15,51.8l-25.61,2.15c-18.18-15.85-36.46-33-59-50.32l-1.36-16.21,13.07-1.09c23-1.94,34.62-10.81,35.7-23l-50.44,4.24-1-12,49.66-4.17c-4.47-9.37-16.19-14.17-34.75-12.62l-16.2,1.37-1.39-16.47,98-8.23,1,12-36.06,3a30.84,30.84,0,0,1,12.64,18.94l25.35-2.12,1,12Z"/><g class="cls-4"><path class="cls-3" d="M161.08,110.35c.72,1.68-.08,3.46-2.09,4.81,2,.38,4.4,1,6.74,1.72l-1.92,1.17c-2.05-.54-4.15-1.17-6.59-1.66l-.74-1.22,1-.59c1.73-1,2.3-2.2,1.91-3.2l-3.79,2.3-.55-.9,3.73-2.27c-.71-.56-1.82-.48-3.21.37l-1.22.74-.75-1.24,7.37-4.47.55.91-2.72,1.64a2.69,2.69,0,0,1,1.73,1l1.91-1.16.55.91Z"/></g><g class="cls-4"><path class="cls-3" d="M344.21,189.31c.72,1.68-.08,3.46-2.09,4.81,2,.38,4.4,1,6.74,1.72L346.93,197c-2-.54-4.14-1.17-6.59-1.66l-.73-1.22,1-.59c1.73-1,2.3-2.2,1.91-3.2l-3.8,2.3-.55-.91,3.74-2.26c-.71-.56-1.82-.48-3.22.37l-1.22.73-.75-1.24,7.38-4.46.54.91-2.71,1.64a2.67,2.67,0,0,1,1.73,1l1.91-1.15.55.9Z"/></g><g class="cls-4"><path class="cls-3" d="M330.78,190.43c.72,1.69-.08,3.47-2.09,4.81,2,.39,4.4,1,6.74,1.73l-1.93,1.16c-2-.53-4.14-1.17-6.58-1.65l-.74-1.22,1-.6c1.73-1,2.3-2.19,1.91-3.19l-3.8,2.3-.54-.91,3.73-2.26c-.71-.56-1.82-.48-3.22.36l-1.22.74-.75-1.24,7.38-4.46.55.9-2.72,1.65a2.67,2.67,0,0,1,1.73,1l1.91-1.15.55.9Z"/></g><g class="cls-4"><path class="cls-3" d="M325.37,172.33c.72,1.68-.08,3.46-2.09,4.81,2,.38,4.39,1.05,6.74,1.72L328.09,180c-2-.54-4.15-1.17-6.59-1.66l-.73-1.22,1-.59c1.73-1.05,2.3-2.2,1.91-3.2l-3.8,2.3-.55-.9,3.74-2.27c-.72-.56-1.82-.48-3.22.37l-1.22.74-.75-1.24,7.38-4.47.54.91-2.71,1.64a2.69,2.69,0,0,1,1.73,1l1.91-1.16.54.91Z"/></g><g class="cls-4"><path class="cls-3" d="M340.69,173.53c.72,1.68-.08,3.46-2.09,4.81,2,.38,4.4,1,6.74,1.72l-1.92,1.17c-2.05-.54-4.15-1.17-6.59-1.65l-.74-1.22,1-.6c1.73-1,2.3-2.19,1.91-3.19l-3.79,2.29-.55-.9,3.73-2.26c-.71-.56-1.82-.49-3.21.36l-1.22.74-.75-1.24,7.37-4.46.55.9-2.72,1.64a2.73,2.73,0,0,1,1.73,1l1.91-1.16.55.91Z"/></g><g class="cls-4"><path class="cls-3" d="M341.64,158.72c.72,1.68-.08,3.46-2.09,4.81,2,.38,4.4,1.05,6.74,1.72l-1.93,1.17c-2-.54-4.14-1.17-6.58-1.66l-.74-1.22,1-.59c1.73-1,2.3-2.2,1.91-3.2l-3.8,2.3-.54-.9,3.73-2.26c-.71-.57-1.82-.49-3.22.36l-1.22.74-.74-1.24,7.37-4.46.55.9-2.72,1.64a2.69,2.69,0,0,1,1.73,1l1.91-1.16.55.91Z"/></g><g class="cls-4"><path class="cls-3" d="M314,182c.72,1.68-.08,3.46-2.09,4.81,2,.38,4.4,1,6.74,1.72l-1.92,1.17c-2-.54-4.15-1.17-6.59-1.66l-.74-1.21,1-.6c1.73-1.05,2.3-2.2,1.91-3.2l-3.79,2.3-.55-.9,3.73-2.26c-.71-.57-1.82-.49-3.22.36l-1.21.74-.75-1.24,7.37-4.46.55.9-2.72,1.64a2.69,2.69,0,0,1,1.73,1l1.91-1.16.55.91Z"/></g><g class="cls-4"><path class="cls-3" d="M306.08,192.51c.73,1.68-.08,3.46-2.08,4.81,2,.38,4.39,1,6.74,1.72l-1.93,1.17c-2-.54-4.15-1.17-6.59-1.66l-.74-1.22,1-.59c1.73-1.05,2.29-2.2,1.9-3.2l-3.79,2.3-.55-.91,3.74-2.26c-.72-.56-1.83-.48-3.22.37l-1.22.73-.75-1.24,7.37-4.46.55.91-2.71,1.64a2.7,2.7,0,0,1,1.73,1l1.9-1.15.55.9Z"/></g><g class="cls-4"><path class="cls-3" d="M296.27,192.66c.72,1.69-.08,3.46-2.09,4.81,2,.38,4.4,1.05,6.74,1.73L299,200.36c-2-.54-4.14-1.17-6.59-1.65l-.73-1.22,1-.6c1.73-1,2.3-2.19,1.91-3.19l-3.8,2.29-.55-.9,3.74-2.26c-.72-.56-1.82-.48-3.22.36l-1.22.74-.75-1.24,7.38-4.46.54.9L294,190.77a2.73,2.73,0,0,1,1.73,1l1.91-1.16.55.91Z"/></g><g class="cls-4"><path class="cls-3" d="M282.84,193.79c.72,1.68-.08,3.46-2.09,4.81,2,.38,4.4,1.05,6.74,1.72l-1.93,1.17c-2-.54-4.14-1.17-6.58-1.66l-.74-1.22,1-.59c1.73-1.05,2.3-2.2,1.91-3.2l-3.8,2.3-.54-.9,3.73-2.26c-.71-.57-1.82-.49-3.22.36l-1.22.74-.75-1.24,7.38-4.47.55.91-2.72,1.64a2.69,2.69,0,0,1,1.73,1l1.91-1.16.55.91Z"/></g><g class="cls-4"><path class="cls-3" d="M277.43,175.68c.72,1.69-.09,3.46-2.09,4.81,2,.38,4.39,1,6.74,1.73l-1.93,1.16c-2-.53-4.15-1.17-6.59-1.65l-.74-1.22,1-.6c1.73-1,2.3-2.19,1.91-3.19l-3.8,2.29-.55-.9,3.74-2.26c-.72-.56-1.82-.48-3.22.36l-1.22.74-.75-1.24,7.38-4.46.54.9-2.71,1.65a2.67,2.67,0,0,1,1.73,1l1.91-1.15.54.9Z"/></g><g class="cls-4"><path class="cls-3" d="M292.75,176.89c.72,1.68-.08,3.46-2.09,4.8,2,.39,4.4,1.05,6.74,1.73l-1.92,1.17c-2.05-.54-4.15-1.18-6.59-1.66l-.74-1.22,1-.59c1.73-1.05,2.3-2.2,1.91-3.2l-3.8,2.3-.54-.91,3.73-2.26c-.71-.56-1.82-.48-3.22.36l-1.21.74-.75-1.24,7.37-4.46.55.91L290.45,175a2.67,2.67,0,0,1,1.73,1l1.91-1.15.55.9Z"/></g><g class="cls-4"><path class="cls-3" d="M293.7,162.07c.72,1.69-.08,3.46-2.09,4.81,2,.39,4.4,1.05,6.74,1.73l-1.93,1.16c-2-.53-4.14-1.17-6.58-1.65l-.74-1.22,1-.6c1.73-1,2.3-2.19,1.91-3.19l-3.8,2.3-.54-.91,3.73-2.26c-.71-.56-1.82-.48-3.22.36l-1.22.74-.75-1.24,7.38-4.46.55.9-2.72,1.65a2.67,2.67,0,0,1,1.73,1L295,160l.55.9Z"/></g><g class="cls-4"><path class="cls-3" d="M266,185.31c.72,1.69-.08,3.47-2.09,4.81,2,.39,4.4,1,6.74,1.73L268.77,193c-2-.53-4.15-1.17-6.59-1.65l-.74-1.22,1-.59c1.73-1.05,2.3-2.2,1.91-3.2l-3.8,2.3-.54-.91,3.73-2.26c-.71-.56-1.82-.48-3.22.36l-1.21.74-.75-1.24,7.37-4.46.55.91-2.72,1.64a2.67,2.67,0,0,1,1.73,1l1.91-1.15.55.9Z"/></g><g class="cls-4"><path class="cls-3" d="M258.14,195.86c.73,1.69-.08,3.46-2.08,4.81,2,.38,4.39,1.05,6.74,1.73l-1.93,1.16c-2-.53-4.15-1.17-6.59-1.65l-.74-1.22,1-.6c1.73-1,2.29-2.19,1.9-3.19l-3.79,2.29-.55-.9,3.74-2.26c-.72-.56-1.83-.48-3.22.36l-1.22.74-.75-1.24,7.37-4.46.55.9L255.85,194a2.75,2.75,0,0,1,1.73,1l1.9-1.15.55.9Z"/></g><g class="cls-4"><path class="cls-3" d="M172.61,109.38c.72,1.69-.08,3.46-2.09,4.81,2,.38,4.4,1,6.74,1.72l-1.93,1.17c-2-.54-4.14-1.17-6.58-1.65l-.74-1.22,1-.6c1.73-1,2.3-2.19,1.91-3.19l-3.8,2.29-.54-.9,3.73-2.26c-.71-.56-1.82-.48-3.22.36l-1.21.74-.75-1.24,7.37-4.46.55.9-2.72,1.64a2.73,2.73,0,0,1,1.73,1l1.91-1.16.55.91Z"/></g><g class="cls-4"><path class="cls-3" d="M164.44,124.19c.72,1.68-.09,3.46-2.09,4.81,2,.38,4.39,1,6.74,1.72l-1.93,1.17c-2-.54-4.15-1.17-6.59-1.66l-.74-1.22,1-.59c1.73-1,2.29-2.2,1.9-3.2l-3.79,2.3-.55-.9,3.74-2.27c-.72-.56-1.82-.48-3.22.37l-1.22.73-.75-1.23,7.37-4.47.55.91-2.71,1.64a2.71,2.71,0,0,1,1.73,1l1.91-1.16.54.91Z"/></g><g class="cls-4"><path class="cls-3" d="M163.29,136.66c.72,1.68-.08,3.46-2.09,4.81,2,.38,4.4,1,6.74,1.72L166,144.36c-2-.54-4.14-1.17-6.58-1.66l-.74-1.22,1-.59c1.73-1,2.3-2.2,1.91-3.2l-3.8,2.3-.54-.91,3.73-2.26c-.71-.56-1.82-.48-3.22.37l-1.22.73-.75-1.23,7.38-4.47.55.91L161,134.77a2.71,2.71,0,0,1,1.73,1l1.91-1.15.55.91Z"/></g><g class="cls-4"><path class="cls-3" d="M176.91,125.19c.73,1.69-.08,3.46-2.08,4.81,2,.38,4.39,1.05,6.74,1.73l-1.93,1.16c-2-.53-4.15-1.17-6.59-1.65l-.74-1.22,1-.6c1.73-1,2.29-2.19,1.9-3.19l-3.79,2.29-.55-.9,3.74-2.26c-.72-.56-1.83-.48-3.22.36l-1.22.74-.75-1.24,7.37-4.46.55.9-2.71,1.64a2.75,2.75,0,0,1,1.73,1l1.9-1.15.55.9Z"/></g><g class="cls-4"><path class="cls-3" d="M190.6,120.24c.73,1.69-.08,3.46-2.08,4.81,2,.39,4.39,1,6.73,1.73l-1.92,1.16c-2.05-.53-4.15-1.17-6.59-1.65l-.74-1.22,1-.6c1.73-1,2.3-2.19,1.91-3.19l-3.79,2.3-.55-.91,3.74-2.26c-.72-.56-1.83-.48-3.22.36l-1.22.74-.75-1.24,7.37-4.46.55.9-2.71,1.65a2.72,2.72,0,0,1,1.73,1l1.9-1.15.55.9Z"/></g><g class="cls-4"><path class="cls-3" d="M187.1,108.16c.72,1.69-.09,3.47-2.09,4.81,2,.39,4.39,1,6.74,1.73l-1.93,1.16c-2-.53-4.15-1.17-6.59-1.65l-.74-1.22,1-.59c1.73-1.05,2.29-2.2,1.9-3.2l-3.79,2.3-.55-.91,3.74-2.26c-.72-.56-1.82-.48-3.22.36l-1.22.74-.75-1.24,7.37-4.46.55.91-2.71,1.64a2.7,2.7,0,0,1,1.73,1l1.91-1.15.54.9Z"/></g><g class="cls-4"><path class="cls-3" d="M198.55,106.33c.73,1.68-.08,3.46-2.09,4.81,2,.38,4.4,1,6.74,1.72L201.28,114c-2.05-.54-4.15-1.17-6.59-1.66l-.74-1.21,1-.6c1.73-1,2.3-2.2,1.91-3.2l-3.79,2.3-.55-.9,3.73-2.26c-.71-.57-1.82-.49-3.21.36l-1.22.74-.75-1.24,7.37-4.46.55.9-2.72,1.64a2.69,2.69,0,0,1,1.73,1l1.91-1.16.55.91Z"/></g><g class="cls-4"><path class="cls-3" d="M210.08,105.36c.72,1.69-.08,3.46-2.09,4.81,2,.38,4.4,1,6.74,1.73l-1.92,1.16c-2.05-.54-4.15-1.17-6.59-1.65l-.74-1.22,1-.6c1.73-1,2.3-2.19,1.91-3.19l-3.8,2.29-.54-.9,3.73-2.26c-.71-.56-1.82-.48-3.22.36l-1.21.74-.75-1.24,7.37-4.46.55.9-2.72,1.64a2.73,2.73,0,0,1,1.73,1l1.91-1.16.55.91Z"/></g><g class="cls-4"><path class="cls-3" d="M201.91,120.17c.72,1.68-.09,3.46-2.09,4.81,2,.38,4.39,1,6.74,1.72l-1.93,1.17c-2-.54-4.15-1.17-6.59-1.66L197.3,125l1-.59c1.73-1.05,2.29-2.2,1.9-3.2l-3.79,2.3-.55-.9,3.74-2.27c-.72-.56-1.82-.48-3.22.37l-1.22.74-.75-1.24,7.37-4.47.55.91-2.71,1.64a2.69,2.69,0,0,1,1.73,1l1.91-1.16.54.91Z"/></g><g class="cls-4"><path class="cls-3" d="M200.76,132.64c.72,1.68-.08,3.46-2.09,4.81,2,.38,4.4,1,6.74,1.72l-1.93,1.17c-2-.54-4.14-1.17-6.58-1.66l-.74-1.22,1-.59c1.73-1.05,2.3-2.2,1.91-3.2l-3.8,2.3-.54-.9,3.73-2.27c-.71-.56-1.82-.48-3.22.37l-1.22.73-.74-1.23,7.37-4.47.55.91-2.72,1.64a2.69,2.69,0,0,1,1.73,1l1.91-1.16.55.91Z"/></g><g class="cls-4"><path class="cls-3" d="M214.38,121.17c.73,1.69-.08,3.46-2.08,4.81,2,.38,4.39,1,6.74,1.73l-1.93,1.16c-2-.53-4.15-1.17-6.59-1.65l-.74-1.22,1-.6c1.73-1,2.29-2.19,1.9-3.19l-3.79,2.29-.55-.9,3.74-2.26c-.72-.56-1.83-.48-3.22.36l-1.22.74-.75-1.24,7.37-4.46.55.9-2.71,1.65a2.7,2.7,0,0,1,1.73,1l1.91-1.15.54.9Z"/></g><g class="cls-4"><path class="cls-3" d="M207.15,150.58c.72,1.68-.09,3.46-2.09,4.8,2,.39,4.39,1.05,6.74,1.73l-1.93,1.17c-2-.54-4.15-1.18-6.59-1.66l-.74-1.22,1-.59c1.73-1.05,2.3-2.2,1.91-3.2l-3.8,2.3-.55-.91,3.74-2.26c-.72-.56-1.82-.48-3.22.36l-1.22.74-.75-1.24,7.38-4.46.54.91-2.71,1.64a2.67,2.67,0,0,1,1.73,1l1.91-1.15.54.9Z"/></g><g class="cls-4"><path class="cls-3" d="M215.1,136.66c.72,1.69-.09,3.46-2.09,4.81,2,.38,4.39,1.05,6.74,1.72l-1.93,1.17c-2-.54-4.15-1.17-6.59-1.65l-.74-1.22,1-.6c1.73-1,2.29-2.19,1.9-3.19L209.59,140l-.55-.9,3.74-2.26c-.72-.56-1.82-.48-3.22.36l-1.22.74-.75-1.24,7.37-4.46.55.9-2.71,1.64a2.75,2.75,0,0,1,1.73,1l1.91-1.16.54.91Z"/></g><g class="cls-4"><path class="cls-3" d="M226.62,135.69c.73,1.69-.08,3.46-2.08,4.81,2,.38,4.39,1.05,6.74,1.73l-1.93,1.16c-2-.53-4.15-1.17-6.59-1.65l-.74-1.22,1-.6c1.73-1,2.29-2.19,1.9-3.19L221.12,139l-.55-.9,3.74-2.26c-.72-.56-1.83-.48-3.22.36l-1.22.74-.75-1.24,7.37-4.46.55.9-2.71,1.65a2.7,2.7,0,0,1,1.73,1l1.9-1.15.55.9Z"/></g><g class="cls-4"><path class="cls-3" d="M218.45,150.5c.72,1.68-.08,3.46-2.09,4.81,2,.38,4.4,1.05,6.74,1.72l-1.93,1.17c-2-.54-4.14-1.17-6.58-1.65l-.74-1.22,1-.6c1.73-1,2.3-2.19,1.91-3.19l-3.8,2.29-.54-.9,3.73-2.26c-.71-.56-1.82-.49-3.22.36l-1.22.74-.75-1.24,7.38-4.46.55.9-2.72,1.64a2.73,2.73,0,0,1,1.73,1l1.91-1.16.55.91Z"/></g><g class="cls-4"><path class="cls-3" d="M217.3,163c.73,1.68-.08,3.46-2.08,4.81,2,.38,4.39,1.05,6.74,1.72L220,170.67c-2.05-.54-4.15-1.17-6.59-1.66l-.74-1.21,1-.6c1.73-1,2.29-2.2,1.9-3.2l-3.79,2.3-.55-.9,3.74-2.26c-.72-.56-1.83-.49-3.22.36l-1.22.74L209.8,163l7.37-4.46.55.9L215,161.08a2.71,2.71,0,0,1,1.73,1l1.9-1.16.55.91Z"/></g><g class="cls-4"><path class="cls-3" d="M230.93,151.5c.72,1.69-.08,3.47-2.09,4.81,2,.39,4.4,1.05,6.74,1.73l-1.93,1.16c-2-.53-4.14-1.17-6.59-1.65l-.73-1.22,1-.59c1.73-1.05,2.3-2.2,1.91-3.2l-3.8,2.3-.54-.91,3.73-2.26c-.71-.56-1.82-.48-3.22.36l-1.22.74-.75-1.24,7.38-4.46.54.91-2.71,1.64a2.67,2.67,0,0,1,1.73,1l1.91-1.15.55.9Z"/></g><g class="cls-4"><path class="cls-3" d="M190,189c.72,1.69-.09,3.46-2.09,4.81,2,.38,4.39,1.05,6.74,1.73l-1.93,1.16c-2-.53-4.15-1.17-6.59-1.65l-.73-1.22,1-.6c1.73-1,2.3-2.19,1.91-3.19l-3.8,2.29-.55-.9,3.74-2.26c-.72-.56-1.82-.48-3.22.36l-1.22.74-.75-1.24,7.38-4.46.54.9-2.71,1.65a2.67,2.67,0,0,1,1.73,1l1.91-1.15.54.9Z"/></g><g class="cls-4"><path class="cls-3" d="M198,175.09c.72,1.68-.09,3.46-2.09,4.81,2,.38,4.39,1,6.74,1.72l-1.93,1.17c-2-.54-4.15-1.17-6.59-1.66l-.74-1.22,1-.59c1.73-1,2.3-2.2,1.91-3.2l-3.8,2.3-.55-.91,3.74-2.26c-.72-.56-1.82-.48-3.22.37l-1.22.73-.75-1.23,7.38-4.47.54.91-2.71,1.64a2.69,2.69,0,0,1,1.73,1l1.91-1.16.54.91Z"/></g><g class="cls-4"><path class="cls-3" d="M209.51,174.12c.72,1.68-.09,3.46-2.09,4.81,2,.38,4.39,1,6.74,1.72l-1.93,1.17c-2-.54-4.15-1.17-6.59-1.65L204.9,179l1-.6c1.73-1,2.29-2.19,1.9-3.19L204,177.45l-.55-.9,3.74-2.26c-.72-.56-1.82-.49-3.22.36l-1.22.74-.75-1.24,7.37-4.46.55.9-2.71,1.64a2.71,2.71,0,0,1,1.73,1l1.91-1.16.54.91Z"/></g><g class="cls-4"><path class="cls-3" d="M201.33,188.93c.72,1.68-.08,3.46-2.09,4.81,2,.38,4.4,1,6.74,1.72l-1.93,1.17c-2-.54-4.14-1.17-6.58-1.66l-.74-1.22,1-.59c1.73-1,2.3-2.2,1.91-3.2l-3.8,2.3-.54-.91,3.73-2.26c-.71-.56-1.82-.48-3.22.37l-1.22.73-.74-1.23,7.37-4.47.55.91L199,187a2.71,2.71,0,0,1,1.73,1l1.91-1.15.55.91Z"/></g><g class="cls-4"><path class="cls-3" d="M200.18,201.4c.73,1.68-.08,3.46-2.08,4.81,2,.38,4.39,1,6.74,1.72l-1.93,1.17c-2-.54-4.15-1.17-6.59-1.66l-.74-1.22,1-.59c1.73-1,2.29-2.2,1.9-3.2l-3.79,2.3-.55-.91,3.74-2.26c-.72-.56-1.83-.48-3.22.37l-1.22.73-.75-1.24,7.37-4.46.55.91-2.71,1.64a2.7,2.7,0,0,1,1.73,1l1.9-1.15.55.9Z"/></g><g class="cls-4"><path class="cls-3" d="M167.66,193.37c.72,1.68-.08,3.46-2.09,4.81,2,.38,4.4,1,6.74,1.72l-1.93,1.17c-2-.54-4.14-1.17-6.59-1.66l-.73-1.22,1-.59c1.73-1,2.3-2.2,1.91-3.2l-3.8,2.3-.55-.9,3.74-2.26c-.71-.57-1.82-.49-3.22.36l-1.22.74-.75-1.24,7.38-4.46.54.9-2.71,1.64a2.69,2.69,0,0,1,1.73,1l1.91-1.16.55.91Z"/></g><g class="cls-4"><path class="cls-3" d="M179,193.29c.73,1.69-.08,3.47-2.09,4.81,2,.39,4.4,1.05,6.74,1.73L181.69,201c-2.05-.53-4.15-1.17-6.59-1.65l-.74-1.22,1-.6c1.73-1,2.3-2.19,1.91-3.19l-3.79,2.3-.55-.91,3.73-2.26c-.71-.56-1.82-.48-3.21.36l-1.22.74-.75-1.24,7.37-4.46.55.9-2.72,1.65a2.67,2.67,0,0,1,1.73,1l1.91-1.15.55.9Z"/></g><g class="cls-4"><path class="cls-3" d="M177.82,205.76c.72,1.69-.09,3.46-2.09,4.81,2,.38,4.39,1.05,6.74,1.73l-1.93,1.16c-2-.53-4.15-1.17-6.59-1.65l-.74-1.22,1-.6c1.73-1,2.3-2.19,1.91-3.19l-3.8,2.29-.55-.9,3.74-2.26c-.72-.56-1.82-.48-3.22.36l-1.22.74-.75-1.24,7.38-4.46.54.9-2.71,1.65a2.67,2.67,0,0,1,1.73,1l1.91-1.15.54.9Z"/></g><g class="cls-4"><path class="cls-3" d="M213.81,189.93c.72,1.69-.08,3.46-2.09,4.81,2,.38,4.4,1,6.74,1.73l-1.93,1.16c-2-.54-4.14-1.17-6.58-1.65l-.74-1.22,1-.6c1.73-1,2.3-2.19,1.91-3.19l-3.8,2.29-.54-.9,3.73-2.26c-.71-.56-1.82-.48-3.22.36l-1.22.74L206.3,190l7.38-4.46.55.9L211.51,188a2.73,2.73,0,0,1,1.73,1l1.91-1.16.55.91Z"/></g><g class="cls-4"><path class="cls-3" d="M228.07,116.22c.73,1.69-.08,3.47-2.08,4.81,2,.39,4.39,1,6.73,1.73l-1.92,1.16c-2.05-.53-4.15-1.17-6.59-1.65l-.74-1.22,1-.59c1.73-1,2.3-2.2,1.91-3.2l-3.79,2.3-.55-.91,3.74-2.26c-.72-.56-1.83-.48-3.22.36l-1.22.74-.75-1.24,7.37-4.46.55.9-2.71,1.65a2.72,2.72,0,0,1,1.73,1l1.9-1.15.55.9Z"/></g><g class="cls-4"><path class="cls-3" d="M224.57,104.15c.72,1.68-.09,3.46-2.09,4.8,2,.39,4.39,1,6.74,1.73l-1.93,1.17c-2-.54-4.15-1.18-6.59-1.66L220,109l1-.59c1.73-1,2.3-2.2,1.91-3.2l-3.8,2.3-.55-.91,3.74-2.26c-.72-.56-1.82-.48-3.22.36l-1.22.74-.75-1.24,7.37-4.46.55.91-2.71,1.64a2.67,2.67,0,0,1,1.73,1l1.91-1.15.54.9Z"/></g><g class="cls-4"><path class="cls-3" d="M167.58,151.15c.72,1.68-.09,3.46-2.09,4.8,2,.39,4.39,1.05,6.74,1.73l-1.93,1.17c-2-.54-4.15-1.18-6.59-1.66L163,156l1-.59c1.73-1,2.3-2.2,1.91-3.2l-3.8,2.3-.55-.91,3.74-2.26c-.72-.56-1.82-.48-3.22.36l-1.22.74-.75-1.24,7.38-4.46.54.91-2.71,1.64a2.67,2.67,0,0,1,1.73,1l1.91-1.15.54.9Z"/></g><g class="cls-4"><path class="cls-3" d="M179.11,150.18c.72,1.68-.09,3.46-2.09,4.81,2,.38,4.39,1,6.74,1.72l-1.93,1.17c-2-.54-4.15-1.17-6.59-1.66L174.5,155l1-.59c1.73-1,2.29-2.2,1.9-3.2l-3.79,2.3-.55-.91,3.74-2.26c-.72-.56-1.82-.48-3.22.37l-1.22.73-.75-1.23,7.37-4.47.55.91-2.71,1.64a2.71,2.71,0,0,1,1.73,1l1.91-1.16.54.91Z"/></g><g class="cls-4"><path class="cls-3" d="M170.93,165c.72,1.68-.08,3.46-2.09,4.8,2,.39,4.4,1.05,6.74,1.73l-1.93,1.16c-2-.53-4.14-1.17-6.58-1.65l-.74-1.22,1-.59c1.73-1.05,2.3-2.2,1.91-3.2l-3.8,2.3-.54-.91,3.73-2.26c-.71-.56-1.82-.48-3.22.36l-1.21.74-.75-1.24,7.37-4.46.55.91-2.72,1.64a2.67,2.67,0,0,1,1.73,1l1.91-1.15.55.9Z"/></g><g class="cls-4"><path class="cls-3" d="M169.78,177.45c.73,1.69-.08,3.47-2.08,4.81,2,.39,4.39,1.05,6.74,1.73l-1.93,1.16c-2-.53-4.15-1.17-6.59-1.65l-.74-1.22,1-.59c1.73-1.05,2.29-2.2,1.9-3.2l-3.79,2.3-.55-.91,3.74-2.26c-.72-.56-1.83-.48-3.22.36l-1.22.74-.75-1.24,7.37-4.46.55.91-2.71,1.64a2.7,2.7,0,0,1,1.73,1l1.91-1.15.54.9Z"/></g><g class="cls-4"><path class="cls-3" d="M183.41,166c.72,1.68-.08,3.46-2.09,4.81,2,.38,4.4,1,6.74,1.72l-1.93,1.17c-2-.54-4.14-1.17-6.58-1.66l-.74-1.21,1-.6c1.73-1.05,2.3-2.2,1.91-3.2l-3.8,2.3-.54-.9,3.73-2.26c-.71-.57-1.82-.49-3.22.36l-1.22.74L175.9,166l7.38-4.46.55.9-2.72,1.64a2.69,2.69,0,0,1,1.73,1l1.91-1.16.55.91Z"/></g><g class="cls-4"><path class="cls-3" d="M197.1,161c.72,1.68-.08,3.46-2.09,4.81,2,.38,4.4,1.05,6.74,1.72l-1.93,1.17c-2-.54-4.14-1.17-6.59-1.65l-.73-1.22,1-.6c1.73-1.05,2.3-2.19,1.91-3.19l-3.8,2.29-.55-.9,3.74-2.26c-.72-.56-1.82-.49-3.22.36l-1.22.74-.75-1.24,7.38-4.46.54.9-2.71,1.64a2.73,2.73,0,0,1,1.73,1l1.91-1.16.55.91Z"/></g><g class="cls-4"><path class="cls-3" d="M193.59,149c.72,1.69-.08,3.46-2.09,4.81,2,.38,4.4,1,6.74,1.73l-1.92,1.16c-2-.53-4.15-1.17-6.59-1.65l-.74-1.22,1-.6c1.73-1,2.3-2.19,1.91-3.19l-3.8,2.29-.54-.9,3.73-2.26c-.71-.56-1.82-.48-3.22.36l-1.21.74-.75-1.24,7.37-4.46.55.9-2.72,1.64a2.73,2.73,0,0,1,1.73,1l1.91-1.16.55.91Z"/></g><g class="cls-4"><path class="cls-3" d="M240.2,102c.72,1.69-.09,3.46-2.09,4.81,2,.38,4.39,1,6.74,1.73l-1.93,1.16c-2-.53-4.15-1.17-6.59-1.65l-.74-1.22,1-.6c1.73-1,2.3-2.19,1.9-3.19l-3.79,2.29-.55-.9,3.74-2.26c-.72-.56-1.82-.48-3.22.36l-1.22.74-.75-1.24,7.37-4.46.55.9-2.71,1.65a2.67,2.67,0,0,1,1.73,1l1.91-1.15.54.9Z"/></g><g class="cls-4"><path class="cls-3" d="M251.72,101.07c.73,1.68-.08,3.46-2.08,4.8,2,.39,4.39,1,6.74,1.73l-1.93,1.16c-2-.53-4.15-1.17-6.59-1.65l-.74-1.22,1-.59c1.73-1,2.29-2.2,1.9-3.2l-3.79,2.3-.55-.91,3.74-2.26c-.72-.56-1.82-.48-3.22.36l-1.22.74-.75-1.24,7.37-4.46.55.91-2.71,1.64a2.7,2.7,0,0,1,1.73,1L253.07,99l.54.9Z"/></g><g class="cls-4"><path class="cls-3" d="M243.55,115.87c.72,1.69-.08,3.46-2.09,4.81,2,.38,4.4,1,6.74,1.73l-1.93,1.16c-2-.53-4.14-1.17-6.58-1.65L239,120.7l1-.6c1.73-1,2.3-2.19,1.91-3.19L238,119.2l-.54-.9,3.73-2.26c-.71-.56-1.82-.48-3.22.36l-1.22.74-.74-1.24,7.37-4.46.55.9L241.25,114a2.67,2.67,0,0,1,1.73,1l1.91-1.15.55.9Z"/></g><g class="cls-4"><path class="cls-3" d="M272.8,112.07c.72,1.68-.08,3.46-2.09,4.81,2,.38,4.4,1.05,6.74,1.72l-1.93,1.17c-2-.54-4.14-1.17-6.58-1.66l-.74-1.21,1-.6c1.73-1,2.3-2.2,1.91-3.2l-3.8,2.3-.54-.9,3.73-2.26c-.71-.57-1.82-.49-3.22.36l-1.22.74-.75-1.24,7.38-4.46.55.9-2.72,1.64a2.69,2.69,0,0,1,1.73,1l1.91-1.16.55.91Z"/></g><g class="cls-4"><path class="cls-3" d="M269.29,100c.73,1.68-.08,3.46-2.08,4.81,2,.38,4.39,1,6.73,1.72L272,107.69c-2-.54-4.15-1.17-6.59-1.65l-.74-1.22,1-.6c1.73-1,2.3-2.19,1.91-3.19l-3.79,2.29-.55-.9,3.73-2.26c-.71-.56-1.82-.49-3.21.36l-1.22.74-.75-1.24,7.37-4.46.55.9L267,98.1a2.78,2.78,0,0,1,1.73,1l1.9-1.16.55.91Z"/></g><g class="cls-4"><path class="cls-3" d="M280.75,98.15c.72,1.69-.08,3.47-2.09,4.81,2,.39,4.4,1.05,6.74,1.73l-1.93,1.16c-2-.53-4.14-1.17-6.59-1.65l-.73-1.22,1-.59c1.73-1,2.3-2.2,1.91-3.2l-3.8,2.3-.54-.91,3.73-2.26c-.71-.56-1.82-.48-3.22.36l-1.22.74-.75-1.24,7.38-4.46.54.91-2.71,1.64a2.67,2.67,0,0,1,1.73,1l1.91-1.15.55.9Z"/></g><g class="cls-4"><path class="cls-3" d="M292.28,97.19c.72,1.68-.08,3.46-2.09,4.81,2,.38,4.4,1,6.74,1.72L295,104.89c-2-.54-4.14-1.17-6.59-1.66l-.73-1.22,1-.59c1.73-1,2.3-2.2,1.91-3.2l-3.8,2.3-.55-.91L290,97.35c-.71-.56-1.82-.48-3.22.37l-1.22.73-.75-1.23,7.38-4.47.54.91L290,95.3a2.71,2.71,0,0,1,1.73,1l1.91-1.15.55.9Z"/></g><g class="cls-4"><path class="cls-3" d="M284.1,112c.73,1.69-.08,3.47-2.08,4.81,2,.39,4.39,1,6.73,1.73l-1.92,1.16c-2.05-.53-4.15-1.17-6.59-1.65l-.74-1.22,1-.59c1.73-1,2.3-2.2,1.91-3.2l-3.79,2.3-.55-.91,3.74-2.26c-.72-.56-1.83-.48-3.22.36l-1.22.74L276.6,112l7.37-4.46.55.91-2.71,1.64a2.72,2.72,0,0,1,1.73,1l1.9-1.15.55.9Z"/></g><g class="cls-4"><path class="cls-3" d="M310.27,108.05c.72,1.68-.08,3.46-2.09,4.81,2,.38,4.4,1,6.74,1.72L313,115.75c-2-.54-4.14-1.17-6.58-1.65l-.74-1.22,1-.6c1.73-1,2.3-2.2,1.91-3.19l-3.8,2.29-.54-.9,3.73-2.26c-.71-.56-1.82-.49-3.22.36l-1.22.74-.75-1.24,7.38-4.46.55.9L308,106.16a2.69,2.69,0,0,1,1.73,1l1.91-1.16.55.91Z"/></g><g class="cls-4"><path class="cls-3" d="M306.76,96c.73,1.69-.08,3.46-2.08,4.81,2,.38,4.39,1,6.73,1.72l-1.92,1.17c-2.05-.54-4.15-1.17-6.59-1.65l-.74-1.22,1-.6c1.73-1,2.3-2.19,1.91-3.19l-3.79,2.29-.55-.9,3.74-2.26c-.72-.56-1.83-.48-3.22.36l-1.22.74L299.26,96l7.37-4.46.55.9-2.71,1.64a2.78,2.78,0,0,1,1.73,1l1.9-1.16.55.91Z"/></g><g class="cls-4"><path class="cls-3" d="M322.39,93.86c.73,1.68-.08,3.46-2.08,4.81,2,.38,4.39,1,6.73,1.72l-1.92,1.17c-2.05-.54-4.15-1.17-6.59-1.66l-.74-1.22,1-.59c1.73-1,2.3-2.2,1.91-3.2l-3.79,2.3-.55-.9L320.08,94c-.72-.57-1.83-.49-3.22.36l-1.22.74-.75-1.24,7.37-4.47.55.91L320.1,92a2.73,2.73,0,0,1,1.73,1l1.9-1.16.55.91Z"/></g><g class="cls-4"><path class="cls-3" d="M333.92,92.89c.73,1.69-.08,3.46-2.09,4.81,2,.38,4.4,1,6.74,1.72l-1.92,1.17c-2-.54-4.15-1.17-6.59-1.65l-.74-1.22,1-.6c1.73-1.05,2.3-2.19,1.91-3.19l-3.79,2.29-.55-.9,3.73-2.26c-.71-.56-1.82-.48-3.21.36l-1.22.74-.75-1.24,7.37-4.46.55.9L331.62,91a2.73,2.73,0,0,1,1.73,1l1.91-1.16.55.91Z"/></g><g class="cls-4"><path class="cls-3" d="M325.75,107.7c.72,1.68-.09,3.46-2.09,4.81,2,.38,4.39,1,6.74,1.72l-1.93,1.17c-2-.54-4.15-1.17-6.59-1.66l-.73-1.22,1-.59c1.73-1.05,2.3-2.2,1.91-3.2l-3.8,2.3-.55-.9,3.74-2.27c-.72-.56-1.82-.48-3.22.37L319,109l-.75-1.24,7.38-4.47.54.91-2.71,1.64a2.69,2.69,0,0,1,1.73,1l1.91-1.16.54.91Z"/></g><g class="cls-4"><path class="cls-3" d="M287.52,139.8c.73,1.69-.08,3.46-2.08,4.81,2,.38,4.39,1,6.74,1.73l-1.93,1.16c-2-.53-4.15-1.17-6.59-1.65l-.74-1.22,1-.6c1.73-1,2.29-2.19,1.9-3.19L282,143.13l-.55-.9,3.74-2.26c-.72-.56-1.83-.48-3.22.36l-1.22.74-.75-1.24,7.37-4.46.55.9-2.71,1.64a2.75,2.75,0,0,1,1.73,1l1.91-1.15.54.9Z"/></g><g class="cls-4"><path class="cls-3" d="M284,127.72c.72,1.69-.08,3.46-2.09,4.81,2,.38,4.4,1.05,6.74,1.73l-1.93,1.16c-2-.53-4.14-1.17-6.59-1.65l-.73-1.22,1-.6c1.73-1,2.3-2.19,1.91-3.19l-3.8,2.29-.55-.9,3.74-2.26c-.72-.56-1.82-.48-3.22.36l-1.22.74-.75-1.24,7.38-4.46.54.9-2.71,1.65a2.67,2.67,0,0,1,1.73,1l1.91-1.15.55.9Z"/></g><g class="cls-4"><path class="cls-3" d="M295.47,125.89c.73,1.68-.08,3.46-2.08,4.81,2,.38,4.39,1,6.74,1.72l-1.93,1.17c-2.05-.54-4.15-1.17-6.59-1.66l-.74-1.22,1-.59c1.73-1.05,2.29-2.2,1.9-3.2l-3.79,2.3-.55-.91,3.74-2.26c-.72-.56-1.83-.48-3.22.37l-1.22.73-.75-1.23,7.37-4.47.55.91L293.18,124a2.74,2.74,0,0,1,1.73,1l1.9-1.15.55.91Z"/></g><g class="cls-4"><path class="cls-3" d="M307,124.92c.73,1.68-.08,3.46-2.08,4.81,2,.38,4.39,1.05,6.73,1.72l-1.92,1.17c-2.05-.54-4.15-1.17-6.59-1.66l-.74-1.21,1-.6c1.73-1.05,2.3-2.2,1.91-3.2l-3.79,2.3-.55-.9,3.74-2.26c-.72-.56-1.83-.49-3.22.36l-1.22.74L299.5,125l7.37-4.46.55.9L304.71,123a2.71,2.71,0,0,1,1.73,1l1.9-1.16.55.91Z"/></g><g class="cls-4"><path class="cls-3" d="M298.83,139.73c.72,1.68-.08,3.46-2.09,4.81,2,.38,4.4,1,6.74,1.72l-1.93,1.17c-2-.54-4.14-1.17-6.59-1.66l-.73-1.22,1-.59c1.73-1.05,2.3-2.2,1.91-3.2l-3.8,2.3-.55-.91,3.74-2.26c-.71-.56-1.82-.48-3.22.37l-1.22.73-.75-1.23,7.38-4.47.54.91-2.71,1.64a2.71,2.71,0,0,1,1.73,1l1.91-1.15.55.91Z"/></g><g class="cls-4"><path class="cls-3" d="M325,135.78c.72,1.69-.09,3.46-2.09,4.81,2,.38,4.39,1,6.74,1.73l-1.93,1.16c-2-.53-4.15-1.17-6.59-1.65l-.74-1.22,1-.6c1.73-1,2.29-2.19,1.9-3.19l-3.79,2.29-.55-.9,3.74-2.26c-.72-.56-1.82-.48-3.22.36l-1.22.74-.75-1.24,7.37-4.46.55.9-2.71,1.65a2.7,2.7,0,0,1,1.73,1l1.91-1.15.54.9Z"/></g><g class="cls-4"><path class="cls-3" d="M321.49,123.7c.72,1.69-.08,3.46-2.09,4.81,2,.39,4.4,1.05,6.74,1.73l-1.93,1.16c-2-.53-4.14-1.17-6.59-1.65l-.73-1.22,1-.6c1.73-1,2.3-2.19,1.91-3.19L316,127l-.55-.91,3.74-2.26c-.71-.56-1.82-.48-3.22.36l-1.22.74-.75-1.24,7.38-4.46.54.9-2.71,1.65a2.67,2.67,0,0,1,1.73,1l1.91-1.15.55.9Z"/></g><g class="cls-4"><path class="cls-3" d="M337.12,121.59c.72,1.69-.08,3.46-2.09,4.81,2,.38,4.4,1,6.74,1.73l-1.93,1.16c-2-.54-4.14-1.17-6.59-1.65l-.73-1.22,1-.6c1.73-1,2.3-2.19,1.91-3.19l-3.8,2.29-.55-.9,3.74-2.26c-.71-.56-1.82-.48-3.22.36l-1.22.74-.75-1.24,7.38-4.46.54.9-2.71,1.64a2.73,2.73,0,0,1,1.73,1l1.91-1.16.55.91Z"/></g><g class="cls-4"><path class="cls-3" d="M340.47,135.43c.73,1.69-.08,3.46-2.08,4.81,2,.38,4.39,1,6.73,1.72l-1.92,1.17c-2.05-.54-4.15-1.17-6.59-1.65l-.74-1.22,1-.6c1.73-1,2.3-2.19,1.91-3.19L335,138.76l-.55-.9,3.73-2.26c-.71-.56-1.82-.48-3.21.36l-1.22.74-.75-1.24,7.37-4.46.55.9-2.71,1.64a2.78,2.78,0,0,1,1.73,1l1.9-1.16.55.91Z"/></g><g class="cls-4"><path class="cls-3" d="M308.09,159.58c.72,1.69-.08,3.47-2.09,4.81,2,.39,4.4,1.05,6.74,1.73l-1.93,1.16c-2-.53-4.14-1.17-6.58-1.65l-.74-1.22,1-.59c1.73-1,2.3-2.2,1.91-3.2l-3.8,2.3L302,162l3.73-2.26c-.71-.56-1.82-.48-3.22.36l-1.22.74-.75-1.24,7.38-4.46.55.9-2.72,1.65a2.67,2.67,0,0,1,1.73,1l1.91-1.15.55.9Z"/></g><g class="cls-4"><path class="cls-3" d="M304.58,147.51c.73,1.68-.08,3.46-2.08,4.8,2,.39,4.39,1.05,6.73,1.73l-1.92,1.16c-2.05-.53-4.15-1.17-6.59-1.65l-.74-1.22,1-.59c1.73-1.05,2.3-2.2,1.91-3.2l-3.79,2.3-.55-.91,3.73-2.26c-.71-.56-1.82-.48-3.21.36l-1.22.74-.75-1.24,7.37-4.46.55.91-2.72,1.64a2.72,2.72,0,0,1,1.74,1l1.9-1.15.55.9Z"/></g><g class="cls-4"><path class="cls-3" d="M320.21,145.39c.73,1.69-.08,3.46-2.08,4.81,2,.38,4.39,1.05,6.73,1.73l-1.92,1.16c-2.05-.53-4.15-1.17-6.59-1.65l-.74-1.22,1-.6c1.73-1,2.3-2.19,1.91-3.19l-3.79,2.29-.55-.9,3.73-2.26c-.71-.56-1.82-.48-3.21.36l-1.22.74-.75-1.24,7.37-4.46.55.9-2.72,1.65a2.72,2.72,0,0,1,1.74,1l1.9-1.15.55.9Z"/></g><g class="cls-4"><path class="cls-3" d="M323.57,159.23c.72,1.69-.09,3.46-2.09,4.81,2,.38,4.39,1.05,6.74,1.73l-1.93,1.16c-2-.53-4.15-1.17-6.59-1.65l-.74-1.22,1-.6c1.73-1,2.3-2.19,1.91-3.19l-3.8,2.29-.55-.9,3.74-2.26c-.72-.56-1.82-.48-3.22.36l-1.22.74-.75-1.24,7.38-4.46.54.9-2.71,1.65a2.67,2.67,0,0,1,1.73,1l1.91-1.15.54.9Z"/></g><g class="cls-4"><path class="cls-3" d="M242.4,128.34c.73,1.69-.08,3.46-2.08,4.81,2,.38,4.39,1,6.74,1.73L245.13,136c-2-.53-4.15-1.17-6.59-1.65l-.74-1.22,1-.6c1.73-1,2.29-2.19,1.9-3.19l-3.79,2.29-.55-.9,3.74-2.26c-.72-.56-1.83-.48-3.22.36l-1.22.74-.75-1.24,7.37-4.46.55.9-2.71,1.64a2.75,2.75,0,0,1,1.73,1l1.9-1.15.55.9Z"/></g><g class="cls-4"><path class="cls-3" d="M256,116.88c.72,1.68-.08,3.46-2.09,4.81,2,.38,4.4,1,6.74,1.72l-1.93,1.17c-2-.54-4.14-1.17-6.59-1.66l-.73-1.22,1-.59c1.73-1,2.3-2.2,1.91-3.2l-3.8,2.3-.54-.91,3.73-2.26c-.71-.56-1.82-.48-3.22.37l-1.22.73-.75-1.24,7.38-4.46.55.91L253.73,115a2.67,2.67,0,0,1,1.73,1l1.91-1.15.55.9Z"/></g><g class="cls-4"><path class="cls-3" d="M246.69,142.83c.72,1.68-.08,3.46-2.09,4.81,2,.38,4.4,1.05,6.74,1.72l-1.92,1.17c-2-.54-4.15-1.17-6.59-1.66l-.74-1.21,1-.6c1.73-1.05,2.3-2.2,1.91-3.19l-3.8,2.29-.54-.9,3.73-2.26c-.71-.56-1.82-.49-3.22.36l-1.21.74-.75-1.24,7.37-4.46.55.9-2.72,1.64a2.69,2.69,0,0,1,1.73,1l1.91-1.16.55.91Z"/></g><g class="cls-4"><path class="cls-3" d="M258.22,141.86c.72,1.69-.08,3.46-2.09,4.81,2,.38,4.4,1.05,6.74,1.73l-1.93,1.16c-2-.53-4.14-1.17-6.58-1.65l-.74-1.22,1-.6c1.73-1,2.3-2.19,1.91-3.19l-3.8,2.29-.54-.9L255.9,142c-.71-.56-1.82-.48-3.22.36l-1.22.74-.74-1.24,7.37-4.46.55.9L255.92,140a2.73,2.73,0,0,1,1.73,1l1.91-1.15.55.9Z"/></g><g class="cls-4"><path class="cls-3" d="M250,156.67c.73,1.68-.08,3.46-2.08,4.81,2,.38,4.39,1.05,6.74,1.72l-1.93,1.17c-2-.54-4.15-1.17-6.59-1.66l-.74-1.21,1-.6c1.73-1.05,2.29-2.2,1.9-3.2l-3.79,2.3-.55-.9,3.74-2.26c-.72-.57-1.82-.49-3.22.36l-1.22.74-.75-1.24,7.37-4.46.55.9-2.71,1.64a2.71,2.71,0,0,1,1.73,1l1.91-1.16.54.91Z"/></g><g class="cls-4"><path class="cls-3" d="M248.9,169.14c.72,1.68-.08,3.46-2.09,4.81,2,.38,4.4,1.05,6.74,1.72l-1.93,1.17c-2-.54-4.14-1.17-6.58-1.66L244.3,174l1-.59c1.73-1.05,2.3-2.2,1.91-3.2l-3.8,2.3-.54-.9,3.73-2.26c-.71-.57-1.82-.49-3.22.36l-1.22.74-.75-1.24,7.38-4.46.55.9-2.72,1.64a2.69,2.69,0,0,1,1.73,1l1.91-1.16.55.91Z"/></g><g class="cls-4"><path class="cls-3" d="M242,188.5c.73,1.69-.08,3.46-2.08,4.81,2,.38,4.39,1.05,6.73,1.73l-1.92,1.16c-2-.54-4.15-1.17-6.59-1.65l-.74-1.22,1-.6c1.73-1,2.3-2.19,1.91-3.19l-3.79,2.29-.55-.9,3.73-2.26c-.71-.56-1.82-.48-3.21.36l-1.22.74-.75-1.24,7.37-4.46.55.9-2.71,1.64a2.78,2.78,0,0,1,1.73,1l1.9-1.16.55.91Z"/></g><g class="cls-4"><path class="cls-3" d="M234.14,199.05c.72,1.68-.09,3.46-2.09,4.81,2,.38,4.39,1,6.74,1.72l-1.93,1.17c-2-.54-4.15-1.17-6.59-1.66l-.74-1.21,1-.6c1.73-1.05,2.29-2.2,1.9-3.2l-3.79,2.3-.55-.9,3.74-2.26c-.72-.57-1.82-.49-3.22.36l-1.22.74-.75-1.24,7.37-4.46.55.9-2.71,1.64a2.69,2.69,0,0,1,1.73,1l1.91-1.16.54.91Z"/></g><g class="cls-4"><path class="cls-3" d="M224.89,172.33c.72,1.68-.08,3.46-2.09,4.8,2,.39,4.4,1.05,6.74,1.73L227.62,180c-2.05-.54-4.15-1.18-6.59-1.66l-.74-1.22,1-.59c1.73-1.05,2.3-2.2,1.91-3.2l-3.8,2.3-.54-.91,3.73-2.26c-.71-.56-1.82-.48-3.22.37l-1.21.73-.75-1.24,7.37-4.46.55.91-2.72,1.64a2.67,2.67,0,0,1,1.73,1l1.91-1.15.55.9Z"/></g><g class="cls-4"><path class="cls-3" d="M262.52,157.67c.73,1.69-.08,3.46-2.08,4.81,2,.38,4.39,1.05,6.74,1.73l-1.93,1.16c-2.05-.53-4.15-1.17-6.59-1.65l-.74-1.22,1-.6c1.73-1,2.29-2.19,1.9-3.19L257,161l-.55-.91,3.74-2.26c-.72-.56-1.83-.48-3.22.36l-1.22.74L255,157.7l7.37-4.46.55.9-2.71,1.65a2.7,2.7,0,0,1,1.73,1l1.9-1.15.55.9Z"/></g><g class="cls-4"><path class="cls-3" d="M276.21,152.72c.73,1.69-.08,3.47-2.08,4.81,2,.39,4.39,1.05,6.73,1.73l-1.92,1.16c-2.05-.53-4.15-1.17-6.59-1.65l-.74-1.22,1-.59c1.73-1.05,2.3-2.2,1.91-3.2l-3.79,2.3-.55-.91,3.74-2.26c-.72-.56-1.83-.48-3.22.36l-1.22.74-.75-1.24,7.37-4.46.55.91-2.71,1.64a2.72,2.72,0,0,1,1.73,1l1.9-1.15.55.9Z"/></g><g class="cls-4"><path class="cls-3" d="M272.7,140.65c.73,1.68-.08,3.46-2.08,4.8,2,.39,4.39,1.05,6.74,1.73l-1.93,1.17c-2-.54-4.15-1.18-6.59-1.66l-.74-1.22,1-.59c1.73-1,2.29-2.2,1.9-3.2L267.2,144l-.55-.91,3.74-2.26c-.72-.56-1.82-.48-3.22.37l-1.22.73-.75-1.24,7.37-4.46.55.91-2.71,1.64a2.7,2.7,0,0,1,1.73,1l1.91-1.15.54.9Z"/></g><text class="cls-7" transform="translate(165.16 174) rotate(-4.8)">14 Days</text><rect class="cls-6" x="267.88" y="221.09" width="86.69" height="25.48" rx="11.4" transform="translate(-18.47 26.85) rotate(-4.8)"/><rect class="cls-6" x="271.25" y="261.27" width="86.69" height="25.48" rx="11.4" transform="translate(-21.82 27.28) rotate(-4.8)"/><rect class="cls-6" x="275.17" y="301.4" width="86.69" height="25.48" rx="11.4" transform="translate(-25.16 27.75) rotate(-4.8)"/><rect class="cls-6" x="277.86" y="336.2" width="86.69" height="25.48" rx="11.4" transform="translate(-28.06 28.09) rotate(-4.8)"/></g><g id="_7" data-name="7"><rect class="cls-1" x="235.43" y="64.25" width="228.82" height="345.46" rx="25.14" transform="translate(46.3 -56.98) rotate(9.97)"/><rect class="cls-2" x="258.92" y="87.18" width="210.12" height="123.31" transform="translate(31.26 -60.76) rotate(9.97)"/><path class="cls-3" d="M322.12,269.91c-7,21.69-29.07,31.74-58.87,27.95,15.89,20.2,32.57,45.76,49,71.27l-27.58-4.85C269.9,342.54,255.4,319.4,236.5,294.9l3.07-17.45,14.07,2.47c24.76,4.36,39.47-1.76,44-14.31l-54.31-9.55,2.27-12.94,53.47,9.39C297,241.41,286,233.09,266,229.58l-17.45-3.07,3.12-17.73,105.53,18.55-2.28,12.95-38.83-6.83c5.3,6.16,8.28,13.93,8.06,23.47l27.3,4.79-2.28,13Z"/><g class="cls-4"><path class="cls-3" d="M280,80.62c.29,2-1,3.62-3.53,4.49,2,1,4.33,2.32,6.62,3.69l-2.36.69c-2-1.13-4-2.39-6.48-3.57l-.44-1.49,1.2-.36c2.12-.62,3-1.67,2.9-2.83l-4.64,1.36L273,81.5l4.56-1.35c-.6-.79-1.78-1-3.49-.51l-1.49.44-.44-1.51,9-2.66.33,1.11-3.32,1a2.91,2.91,0,0,1,1.55,1.52l2.33-.68.33,1.1Z"/></g><g class="cls-4"><path class="cls-3" d="M451,214.65c.3,2-1,3.62-3.53,4.48,2,1,4.34,2.33,6.62,3.69l-2.35.69c-2-1.13-4.05-2.38-6.48-3.57l-.44-1.49,1.2-.35c2.11-.62,3-1.68,2.89-2.84l-4.63,1.37-.33-1.11,4.57-1.34c-.6-.79-1.79-1-3.49-.51l-1.49.44-.45-1.52,9-2.65.32,1.1-3.31,1a2.94,2.94,0,0,1,1.54,1.53l2.33-.69.33,1.11Z"/></g><g class="cls-4"><path class="cls-3" d="M436.55,212.11c.29,2-1.05,3.62-3.54,4.48,2,1,4.34,2.33,6.62,3.69l-2.35.69c-2-1.13-4-2.38-6.48-3.57l-.44-1.49,1.2-.35c2.11-.62,3-1.68,2.9-2.84l-4.64,1.37L429.5,213l4.56-1.34c-.6-.79-1.79-1-3.49-.51l-1.49.43-.45-1.51,9-2.65.32,1.1-3.31,1A3,3,0,0,1,436.2,211l2.33-.69.32,1.11Z"/></g><g class="cls-4"><path class="cls-3" d="M435.87,191.53c.3,2-1.05,3.62-3.53,4.49,2,1,4.34,2.32,6.62,3.68l-2.36.7c-2-1.14-4-2.39-6.48-3.58l-.44-1.48,1.2-.36c2.12-.62,3-1.67,2.9-2.83l-4.63,1.36-.33-1.1,4.56-1.35c-.59-.79-1.78-1-3.49-.51l-1.49.44-.44-1.51,9-2.66.33,1.11-3.31,1a2.94,2.94,0,0,1,1.54,1.53l2.33-.68.33,1.1Z"/></g><g class="cls-4"><path class="cls-3" d="M451.68,197.05c.3,2-1.05,3.62-3.53,4.49,2,1,4.34,2.32,6.62,3.69l-2.36.69c-2-1.13-4-2.39-6.48-3.57l-.44-1.49,1.2-.36c2.12-.62,3-1.67,2.9-2.83L445,199l-.33-1.1,4.56-1.35c-.59-.79-1.78-1-3.49-.51l-1.49.44-.44-1.51,9-2.66.33,1.11-3.32,1a2.91,2.91,0,0,1,1.55,1.52l2.33-.68.33,1.1Z"/></g><g class="cls-4"><path class="cls-3" d="M456.79,181.71c.3,2-1,3.63-3.53,4.49,2,1,4.34,2.32,6.62,3.69l-2.35.69c-2-1.13-4-2.39-6.49-3.57l-.43-1.49,1.2-.36c2.11-.62,3-1.67,2.89-2.83l-4.63,1.36-.33-1.1,4.57-1.35c-.6-.79-1.79-1-3.5-.51l-1.48.44-.45-1.51,9-2.66.32,1.11-3.31,1a2.92,2.92,0,0,1,1.54,1.52l2.33-.68.33,1.1Z"/></g><g class="cls-4"><path class="cls-3" d="M421.2,198.51c.3,2-1,3.63-3.53,4.49,2,1,4.34,2.32,6.62,3.69l-2.35.69c-2-1.13-4.05-2.38-6.49-3.57l-.43-1.49,1.2-.35c2.11-.63,3-1.68,2.89-2.84l-4.63,1.36-.33-1.1,4.57-1.34c-.6-.79-1.79-1-3.5-.52l-1.48.44-.45-1.51,9-2.65.32,1.1-3.31,1a2.91,2.91,0,0,1,1.54,1.53l2.33-.69.33,1.1Z"/></g><g class="cls-4"><path class="cls-3" d="M410,207.43c.29,2-1,3.63-3.54,4.49,2,1,4.34,2.32,6.62,3.69l-2.35.69c-2-1.13-4.05-2.39-6.48-3.57l-.44-1.49,1.2-.36c2.11-.62,3-1.67,2.9-2.83l-4.64,1.36-.32-1.1,4.56-1.35c-.6-.79-1.79-1-3.49-.51l-1.49.44-.45-1.51,9-2.65.32,1.1-3.31,1a2.94,2.94,0,0,1,1.55,1.52l2.33-.68.32,1.1Z"/></g><g class="cls-4"><path class="cls-3" d="M399.57,204.87c.3,2-1.05,3.62-3.53,4.49,2,1,4.34,2.32,6.62,3.68l-2.36.7c-2-1.14-4-2.39-6.48-3.58l-.44-1.48,1.2-.36c2.12-.62,3-1.67,2.9-2.84l-4.63,1.37-.33-1.11,4.56-1.34c-.59-.79-1.78-1-3.49-.51l-1.49.44-.44-1.52,9-2.65.33,1.11-3.31,1a2.94,2.94,0,0,1,1.54,1.53l2.33-.68.33,1.1Z"/></g><g class="cls-4"><path class="cls-3" d="M385.11,202.33c.3,2-1,3.62-3.53,4.48,2,1,4.34,2.33,6.62,3.69l-2.35.7c-2-1.14-4.05-2.39-6.49-3.58l-.43-1.49,1.2-.35c2.11-.62,3-1.68,2.89-2.84l-4.63,1.37-.33-1.11,4.57-1.34c-.6-.79-1.79-1-3.5-.51l-1.48.44-.45-1.52,9-2.65.32,1.11-3.31,1a2.94,2.94,0,0,1,1.54,1.53l2.33-.69.33,1.11Z"/></g><g class="cls-4"><path class="cls-3" d="M384.44,181.75c.29,2-1.05,3.63-3.54,4.49,2,1,4.34,2.32,6.62,3.69l-2.35.69c-2-1.13-4-2.39-6.48-3.57l-.44-1.49,1.2-.36c2.12-.62,3-1.67,2.9-2.83l-4.64,1.36-.32-1.1,4.56-1.35c-.6-.79-1.78-1-3.49-.51l-1.49.44-.44-1.51,9-2.65.33,1.1-3.32,1a2.91,2.91,0,0,1,1.55,1.52l2.33-.68.32,1.1Z"/></g><g class="cls-4"><path class="cls-3" d="M400.25,187.27c.29,2-1.05,3.63-3.54,4.49,2,1,4.34,2.32,6.62,3.69l-2.35.69c-2-1.13-4-2.38-6.48-3.57l-.44-1.49,1.2-.35c2.11-.63,3-1.68,2.9-2.84l-4.64,1.36-.32-1.1,4.56-1.34c-.6-.79-1.79-1-3.49-.52l-1.49.44-.45-1.51,9-2.65.33,1.1-3.32,1a2.93,2.93,0,0,1,1.55,1.53l2.33-.69.32,1.1Z"/></g><g class="cls-4"><path class="cls-3" d="M405.36,171.93c.29,2-1.05,3.63-3.53,4.49,2,1,4.34,2.32,6.62,3.69l-2.36.69c-2-1.13-4-2.38-6.48-3.57l-.44-1.49,1.2-.35c2.12-.63,3-1.68,2.9-2.84l-4.64,1.36-.32-1.1,4.56-1.34c-.59-.79-1.78-1-3.49-.52l-1.49.44-.44-1.51,9-2.65.33,1.1-3.32,1a2.89,2.89,0,0,1,1.55,1.53l2.33-.69.33,1.11Z"/></g><g class="cls-4"><path class="cls-3" d="M369.77,188.74c.29,2-1,3.62-3.53,4.48,2,1,4.34,2.33,6.62,3.69l-2.36.69c-2-1.13-4-2.38-6.48-3.57l-.44-1.49,1.2-.35c2.12-.62,3-1.68,2.9-2.84l-4.63,1.37-.33-1.11,4.56-1.34c-.59-.79-1.78-1-3.49-.51l-1.49.43-.44-1.51,9-2.65.33,1.1-3.32,1a2.93,2.93,0,0,1,1.55,1.53l2.33-.69.33,1.11Z"/></g><g class="cls-4"><path class="cls-3" d="M358.52,197.65c.3,2-1,3.63-3.53,4.49,2,1,4.34,2.32,6.62,3.69l-2.35.69c-2-1.13-4.05-2.38-6.49-3.57l-.43-1.49,1.2-.35c2.11-.63,3-1.68,2.89-2.84l-4.63,1.37-.33-1.11,4.57-1.34c-.6-.79-1.79-1-3.5-.52l-1.48.44-.45-1.51,9-2.65.32,1.1-3.31,1a2.94,2.94,0,0,1,1.54,1.53l2.33-.69.33,1.11Z"/></g><g class="cls-4"><path class="cls-3" d="M292.43,82.8c.3,2-1,3.63-3.53,4.49,2,1,4.34,2.32,6.62,3.69l-2.35.69c-2-1.13-4.05-2.38-6.49-3.57l-.43-1.49,1.2-.35c2.11-.63,3-1.68,2.89-2.84l-4.63,1.36-.33-1.1L290,82.34c-.6-.79-1.79-1-3.5-.52l-1.48.44-.45-1.51,9-2.65.32,1.1-3.31,1a2.91,2.91,0,0,1,1.54,1.53l2.33-.69.33,1.1Z"/></g><g class="cls-4"><path class="cls-3" d="M279.71,96.13c.29,2-1,3.63-3.53,4.49,2,1,4.34,2.32,6.62,3.69l-2.36.69c-2-1.13-4-2.39-6.48-3.57l-.44-1.49,1.2-.36c2.12-.62,3-1.67,2.9-2.83L273,98.11l-.33-1.1,4.56-1.35c-.59-.79-1.78-1-3.49-.51l-1.49.44-.44-1.51,9-2.66.33,1.11-3.32,1A2.91,2.91,0,0,1,279.36,95l2.33-.68.33,1.1Z"/></g><g class="cls-4"><path class="cls-3" d="M275,109c.3,2-1.05,3.62-3.53,4.49,2,1,4.34,2.32,6.62,3.68l-2.36.7c-2-1.14-4-2.39-6.48-3.58l-.44-1.48,1.2-.36c2.12-.62,3-1.67,2.9-2.84l-4.63,1.37-.33-1.1,4.56-1.35c-.59-.79-1.78-1-3.49-.51l-1.49.44-.44-1.52,9-2.65.33,1.11-3.31,1a2.94,2.94,0,0,1,1.54,1.53l2.33-.68.33,1.1Z"/></g><g class="cls-4"><path class="cls-3" d="M292.58,100.65c.29,2-1.05,3.63-3.54,4.49,2,1,4.34,2.33,6.62,3.69l-2.35.69c-2-1.13-4-2.38-6.48-3.57l-.44-1.49,1.2-.35c2.11-.63,3-1.68,2.9-2.84l-4.64,1.37-.32-1.11,4.56-1.34c-.6-.79-1.79-1-3.49-.52l-1.49.44-.45-1.51,9-2.65.33,1.1-3.32,1a3,3,0,0,1,1.55,1.53l2.33-.69.32,1.11Z"/></g><g class="cls-4"><path class="cls-3" d="M308.37,99.24c.3,2-1.05,3.63-3.53,4.49,2,1,4.34,2.32,6.62,3.69l-2.36.69c-2-1.13-4-2.38-6.48-3.57l-.44-1.49,1.2-.36c2.12-.62,3-1.67,2.9-2.83l-4.63,1.36-.33-1.1,4.56-1.35c-.59-.79-1.78-1-3.49-.51l-1.49.44-.44-1.51,9-2.65.33,1.1-3.32,1A2.91,2.91,0,0,1,308,98.14l2.33-.68.33,1.1Z"/></g><g class="cls-4"><path class="cls-3" d="M308,85.54c.29,2-1,3.63-3.53,4.49,2,1,4.33,2.32,6.62,3.69l-2.36.69c-2-1.13-4-2.38-6.48-3.57l-.44-1.49L303,89c2.12-.63,3-1.68,2.9-2.84l-4.64,1.37L301,86.42l4.56-1.34c-.6-.79-1.78-1-3.49-.52l-1.49.44-.44-1.51,9-2.65.33,1.1-3.32,1a2.93,2.93,0,0,1,1.55,1.53l2.33-.69.33,1.11Z"/></g><g class="cls-4"><path class="cls-3" d="M320.61,86.79c.29,2-1.05,3.63-3.54,4.49,2,1,4.34,2.32,6.62,3.69l-2.35.69c-2-1.13-4-2.39-6.48-3.57l-.44-1.49,1.2-.36c2.11-.62,3-1.67,2.9-2.83l-4.64,1.36-.32-1.1,4.56-1.35c-.6-.79-1.79-1-3.49-.51l-1.49.44-.45-1.51,9-2.65.33,1.1-3.32,1a2.91,2.91,0,0,1,1.55,1.52l2.33-.68.32,1.1Z"/></g><g class="cls-4"><path class="cls-3" d="M333,89c.3,2-1,3.63-3.53,4.49,2,1,4.34,2.32,6.62,3.69l-2.36.69c-2-1.13-4-2.38-6.48-3.57l-.44-1.49,1.21-.35c2.11-.63,3-1.68,2.89-2.84L326.3,91l-.33-1.1,4.56-1.34c-.59-.79-1.78-1-3.49-.52l-1.49.44-.44-1.51,9-2.65.32,1.1-3.31,1a2.91,2.91,0,0,1,1.54,1.53l2.33-.69.33,1.1Z"/></g><g class="cls-4"><path class="cls-3" d="M320.3,102.3c.29,2-1.05,3.63-3.54,4.49,2,1,4.34,2.32,6.62,3.69l-2.35.69c-2-1.13-4-2.39-6.48-3.57l-.44-1.49,1.2-.36c2.12-.62,3-1.67,2.9-2.83l-4.64,1.36-.32-1.1,4.56-1.35c-.6-.79-1.79-1-3.49-.51l-1.49.44-.45-1.51,9-2.65.33,1.1-3.32,1A2.91,2.91,0,0,1,320,101.2l2.33-.68.32,1.1Z"/></g><g class="cls-4"><path class="cls-3" d="M315.63,115.12c.29,2-1.05,3.62-3.53,4.49,2,1,4.33,2.32,6.62,3.68l-2.36.7c-2-1.14-4-2.39-6.48-3.58l-.44-1.48,1.2-.36c2.12-.62,3-1.67,2.9-2.83l-4.64,1.36-.32-1.1,4.56-1.35c-.6-.79-1.78-1-3.49-.51l-1.49.44-.44-1.51,9-2.66.33,1.11-3.32,1a2.93,2.93,0,0,1,1.55,1.53l2.33-.68.32,1.1Z"/></g><g class="cls-4"><path class="cls-3" d="M333.17,106.83c.29,2-1.05,3.62-3.54,4.48,2,1,4.34,2.33,6.62,3.69l-2.35.69c-2-1.13-4-2.38-6.48-3.57l-.44-1.49,1.2-.35c2.11-.63,3-1.68,2.9-2.84l-4.64,1.37-.33-1.11,4.57-1.34c-.6-.79-1.79-1-3.49-.51l-1.49.43-.45-1.51,9-2.65.32,1.1-3.31,1a3,3,0,0,1,1.55,1.53l2.33-.69.32,1.11Z"/></g><g class="cls-4"><path class="cls-3" d="M317.38,135.79c.29,2-1.05,3.62-3.54,4.48,2,1,4.34,2.33,6.62,3.69l-2.35.7c-2-1.14-4.05-2.39-6.48-3.58l-.44-1.49,1.2-.35c2.11-.62,3-1.67,2.9-2.84l-4.64,1.37-.32-1.11,4.56-1.34c-.6-.79-1.79-1-3.49-.51l-1.49.44-.45-1.52,9-2.65.32,1.11-3.31,1a3,3,0,0,1,1.55,1.53l2.33-.69.32,1.11Z"/></g><g class="cls-4"><path class="cls-3" d="M329.61,123.34c.3,2-1,3.62-3.53,4.48,2,1,4.34,2.33,6.62,3.69l-2.35.7c-2-1.14-4.05-2.39-6.49-3.58l-.43-1.49,1.2-.35c2.11-.62,3-1.68,2.89-2.84l-4.63,1.37-.33-1.11,4.57-1.34c-.6-.79-1.79-1-3.5-.51l-1.48.44-.45-1.52,9-2.65.32,1.11-3.31,1a2.94,2.94,0,0,1,1.54,1.53l2.33-.69.33,1.11Z"/></g><g class="cls-4"><path class="cls-3" d="M342,125.52c.29,2-1,3.62-3.54,4.49,2,1,4.34,2.32,6.62,3.68l-2.35.7c-2-1.14-4-2.39-6.48-3.58l-.44-1.48L337,129c2.11-.62,3-1.67,2.9-2.84l-4.64,1.37-.32-1.1,4.56-1.35c-.6-.79-1.79-1-3.49-.51l-1.49.44-.45-1.51,9-2.66.33,1.11-3.32,1a3,3,0,0,1,1.55,1.53l2.33-.68.32,1.1Z"/></g><g class="cls-4"><path class="cls-3" d="M329.3,138.85c.3,2-1,3.62-3.53,4.48,2,1,4.34,2.33,6.62,3.69l-2.35.7c-2-1.14-4.05-2.39-6.49-3.58l-.43-1.49,1.2-.35c2.11-.62,3-1.68,2.89-2.84l-4.63,1.37-.33-1.11,4.57-1.34c-.6-.79-1.79-1-3.5-.51l-1.48.44-.45-1.52,9-2.65.32,1.11-3.31,1a2.94,2.94,0,0,1,1.54,1.53l2.33-.69.33,1.11Z"/></g><g class="cls-4"><path class="cls-3" d="M324.63,151.67c.3,2-1,3.62-3.53,4.48,2,1,4.34,2.33,6.62,3.69l-2.35.69c-2-1.13-4.05-2.38-6.48-3.57l-.44-1.49,1.2-.35c2.11-.62,3-1.68,2.89-2.84l-4.63,1.37-.33-1.11,4.57-1.34c-.6-.79-1.79-1-3.49-.51l-1.49.43-.45-1.51,9-2.65.32,1.1-3.31,1a2.94,2.94,0,0,1,1.54,1.53l2.33-.69.33,1.11Z"/></g><g class="cls-4"><path class="cls-3" d="M342.17,143.37c.29,2-1.05,3.62-3.53,4.49,2,1,4.34,2.32,6.62,3.69l-2.36.69c-2-1.13-4-2.39-6.48-3.57l-.44-1.49,1.2-.36c2.12-.62,3-1.67,2.9-2.83l-4.63,1.36-.33-1.1,4.56-1.35c-.59-.79-1.78-1-3.49-.51l-1.49.44-.44-1.51,9-2.66.33,1.11-3.32,1a3,3,0,0,1,1.55,1.53l2.33-.68.33,1.1Z"/></g><g class="cls-4"><path class="cls-3" d="M288.67,171.51c.3,2-1.05,3.63-3.53,4.49,2,1,4.34,2.32,6.62,3.69l-2.36.69c-2-1.13-4-2.38-6.48-3.57l-.44-1.49,1.2-.35c2.12-.63,3-1.68,2.9-2.84L282,173.5l-.33-1.11,4.56-1.34c-.59-.79-1.78-1-3.49-.52l-1.49.44-.44-1.51,9-2.65.33,1.1-3.31,1a2.94,2.94,0,0,1,1.54,1.53l2.33-.69.33,1.11Z"/></g><g class="cls-4"><path class="cls-3" d="M300.91,159.06c.29,2-1.05,3.63-3.53,4.49,2,1,4.33,2.32,6.62,3.69l-2.36.69c-2-1.13-4-2.38-6.48-3.57l-.44-1.49,1.2-.35c2.12-.63,3-1.68,2.9-2.84L294.18,161l-.32-1.1,4.56-1.34c-.6-.79-1.78-1-3.49-.52l-1.49.44L293,157l9-2.65.33,1.1-3.32,1a2.89,2.89,0,0,1,1.55,1.53l2.33-.69.32,1.1Z"/></g><g class="cls-4"><path class="cls-3" d="M313.32,161.25c.3,2-1,3.62-3.53,4.48,2,1,4.34,2.33,6.62,3.69l-2.35.69c-2-1.13-4.05-2.38-6.49-3.57l-.43-1.49,1.2-.35c2.11-.62,3-1.68,2.89-2.84l-4.63,1.37-.33-1.11,4.57-1.34c-.6-.79-1.79-1-3.5-.51l-1.48.43-.45-1.51,9-2.65.32,1.1-3.31,1a2.94,2.94,0,0,1,1.54,1.53l2.33-.69.33,1.11Z"/></g><g class="cls-4"><path class="cls-3" d="M300.6,174.57c.29,2-1.05,3.63-3.53,4.49,2,1,4.33,2.32,6.62,3.69l-2.36.69c-2-1.13-4-2.38-6.48-3.57l-.44-1.49,1.2-.35c2.12-.63,3-1.68,2.9-2.84l-4.64,1.36-.32-1.1,4.56-1.34c-.6-.79-1.78-1-3.49-.52l-1.49.44-.44-1.51,9-2.65L302,171l-3.32,1a2.89,2.89,0,0,1,1.55,1.53l2.33-.69.33,1.11Z"/></g><g class="cls-4"><path class="cls-3" d="M295.93,187.39c.29,2-1.05,3.62-3.53,4.49,2,1,4.34,2.32,6.62,3.69l-2.36.69c-2-1.13-4-2.39-6.48-3.57l-.44-1.49,1.2-.36c2.12-.62,3-1.67,2.9-2.83l-4.63,1.36-.33-1.1,4.56-1.35c-.59-.79-1.78-1-3.49-.51l-1.49.44-.44-1.51,9-2.66.33,1.11-3.32,1a2.91,2.91,0,0,1,1.55,1.52l2.33-.68.33,1.1Z"/></g><g class="cls-4"><path class="cls-3" d="M263.9,169.9c.29,2-1,3.63-3.54,4.49,2,1,4.34,2.32,6.62,3.69l-2.35.69c-2-1.13-4.05-2.38-6.48-3.57l-.44-1.49,1.2-.35c2.11-.63,3-1.68,2.9-2.84l-4.64,1.36-.32-1.1,4.56-1.35c-.6-.78-1.79-1-3.49-.51l-1.49.44-.45-1.51,9-2.65.32,1.1-3.31,1a2.93,2.93,0,0,1,1.55,1.53l2.33-.69.32,1.1Z"/></g><g class="cls-4"><path class="cls-3" d="M275.82,173c.3,2-1,3.63-3.53,4.49,2,1,4.34,2.32,6.62,3.69l-2.35.69c-2-1.13-4.05-2.38-6.49-3.57l-.43-1.49,1.2-.36c2.11-.62,3-1.67,2.89-2.83l-4.63,1.36-.33-1.1,4.57-1.35c-.6-.79-1.79-1-3.49-.51l-1.49.44-.45-1.51,9-2.65.32,1.1-3.31,1a2.92,2.92,0,0,1,1.54,1.52l2.33-.68.33,1.1Z"/></g><g class="cls-4"><path class="cls-3" d="M271.15,185.78c.3,2-1,3.62-3.53,4.49,2,1,4.34,2.32,6.62,3.68l-2.35.7c-2-1.13-4.05-2.39-6.48-3.57l-.44-1.49,1.2-.36c2.11-.62,3-1.67,2.89-2.83l-4.63,1.36-.33-1.1,4.57-1.35c-.6-.79-1.79-1-3.49-.51l-1.49.44-.45-1.51,9-2.66.32,1.11-3.31,1a3,3,0,0,1,1.55,1.53l2.32-.68.33,1.1Z"/></g><g class="cls-4"><path class="cls-3" d="M313.47,179.1c.29,2-1.05,3.62-3.54,4.48,2,1,4.34,2.33,6.62,3.69l-2.35.69c-2-1.13-4-2.38-6.48-3.57l-.44-1.49,1.2-.35c2.11-.62,3-1.68,2.9-2.84l-4.64,1.37-.32-1.11,4.56-1.34c-.6-.79-1.79-1-3.49-.51l-1.49.44-.45-1.52,9-2.65.33,1.1-3.32,1a3,3,0,0,1,1.55,1.53l2.33-.69.32,1.11Z"/></g><g class="cls-4"><path class="cls-3" d="M349,105.41c.29,2-1,3.63-3.54,4.49,2,1,4.34,2.32,6.62,3.69l-2.35.69c-2-1.13-4-2.38-6.48-3.57l-.44-1.49,1.2-.35c2.12-.63,3-1.68,2.9-2.84l-4.64,1.36-.32-1.1,4.56-1.35c-.6-.78-1.78-1-3.49-.51l-1.49.44-.44-1.51,9-2.65.33,1.1-3.32,1a2.89,2.89,0,0,1,1.55,1.53l2.33-.69.32,1.1Z"/></g><g class="cls-4"><path class="cls-3" d="M348.62,91.71c.29,2-1.05,3.63-3.54,4.49,2,1,4.34,2.33,6.62,3.69l-2.35.69c-2-1.13-4-2.38-6.48-3.57l-.44-1.49,1.2-.35c2.12-.63,3-1.68,2.9-2.84l-4.64,1.37-.32-1.11,4.56-1.34c-.6-.79-1.79-1-3.49-.51l-1.49.43-.45-1.51,9-2.65.33,1.1-3.32,1a2.93,2.93,0,0,1,1.55,1.53l2.33-.69.32,1.11Z"/></g><g class="cls-4"><path class="cls-3" d="M275.53,125.4c.3,2-1,3.62-3.53,4.49,2,1,4.34,2.32,6.62,3.69l-2.35.69c-2-1.13-4-2.39-6.49-3.57l-.43-1.49,1.2-.36c2.11-.62,3-1.67,2.89-2.83l-4.63,1.36-.33-1.1,4.57-1.35c-.6-.79-1.79-1-3.5-.51l-1.48.44-.45-1.51,9-2.66.32,1.11-3.31,1a2.92,2.92,0,0,1,1.54,1.52l2.33-.68.33,1.1Z"/></g><g class="cls-4"><path class="cls-3" d="M288,127.58c.29,2-1.05,3.63-3.54,4.49,2,1,4.34,2.32,6.62,3.69l-2.35.69c-2-1.13-4-2.38-6.48-3.57l-.44-1.49L283,131c2.11-.63,3-1.68,2.9-2.84l-4.64,1.36-.32-1.1,4.56-1.35c-.6-.78-1.79-1-3.49-.51l-1.49.44-.45-1.51,9-2.65.33,1.1-3.32,1a2.93,2.93,0,0,1,1.55,1.53l2.33-.69.32,1.1Z"/></g><g class="cls-4"><path class="cls-3" d="M275.22,140.91c.3,2-1,3.62-3.53,4.49,2,1,4.34,2.32,6.62,3.69l-2.35.69c-2-1.13-4-2.39-6.48-3.57l-.44-1.49,1.2-.36c2.11-.62,3-1.67,2.89-2.83l-4.63,1.36-.33-1.1,4.57-1.35c-.6-.79-1.79-1-3.49-.51l-1.49.44-.45-1.51,9-2.66.32,1.11-3.31,1a2.92,2.92,0,0,1,1.54,1.52l2.33-.68.33,1.1Z"/></g><g class="cls-4"><path class="cls-3" d="M270.55,153.73c.3,2-1,3.62-3.53,4.49,2,1,4.34,2.32,6.62,3.68l-2.35.7c-2-1.14-4.05-2.39-6.48-3.58l-.44-1.49,1.2-.35c2.11-.62,3-1.67,2.9-2.84l-4.64,1.37-.33-1.11,4.57-1.34c-.6-.79-1.79-1-3.49-.51l-1.49.44-.45-1.52,9-2.65.32,1.11-3.31,1a3,3,0,0,1,1.55,1.53l2.33-.68.32,1.1Z"/></g><g class="cls-4"><path class="cls-3" d="M288.09,145.43c.3,2-1,3.63-3.53,4.49,2,1,4.34,2.32,6.62,3.69l-2.36.69c-2-1.13-4-2.38-6.48-3.57l-.44-1.49,1.2-.35c2.12-.63,3-1.68,2.9-2.84l-4.63,1.36-.33-1.1L285.6,145c-.59-.79-1.78-1-3.49-.52l-1.49.44-.44-1.51,9-2.65.33,1.1-3.31,1a2.94,2.94,0,0,1,1.54,1.53l2.33-.69.33,1.11Z"/></g><g class="cls-4"><path class="cls-3" d="M303.88,144c.3,2-1,3.63-3.53,4.49,2,1,4.34,2.32,6.62,3.69l-2.35.69c-2-1.13-4.05-2.39-6.48-3.57l-.44-1.49,1.2-.36c2.11-.62,3-1.67,2.89-2.83L297.16,146l-.33-1.1,4.57-1.35c-.6-.79-1.79-1-3.49-.51l-1.49.44L296,142l9-2.65.32,1.1-3.31,1a2.92,2.92,0,0,1,1.54,1.52l2.33-.68.33,1.1Z"/></g><g class="cls-4"><path class="cls-3" d="M303.54,130.32c.3,2-1,3.63-3.53,4.49,2,1,4.34,2.32,6.62,3.69l-2.35.69c-2-1.13-4-2.38-6.49-3.57l-.43-1.49,1.2-.35c2.11-.63,3-1.68,2.89-2.84l-4.63,1.36-.33-1.1,4.57-1.34c-.6-.79-1.79-1-3.49-.52l-1.49.44-.45-1.51,9-2.65.32,1.1-3.31,1a2.94,2.94,0,0,1,1.54,1.53l2.33-.69.33,1.11Z"/></g><g class="cls-4"><path class="cls-3" d="M365.67,93.83c.29,2-1.05,3.62-3.53,4.49,2,1,4.33,2.32,6.62,3.68l-2.36.7c-2-1.14-4-2.39-6.48-3.58l-.44-1.48,1.2-.36c2.12-.62,3-1.67,2.9-2.83l-4.64,1.36-.32-1.1,4.56-1.35c-.6-.79-1.78-1-3.49-.51l-1.49.44-.44-1.51,9-2.66.33,1.11-3.32,1a2.93,2.93,0,0,1,1.55,1.53l2.33-.68.33,1.1Z"/></g><g class="cls-4"><path class="cls-3" d="M378.08,96c.3,2-1,3.62-3.53,4.49,2,1,4.34,2.32,6.62,3.69l-2.35.69c-2-1.13-4.05-2.39-6.49-3.57l-.43-1.49,1.2-.36c2.11-.62,3-1.67,2.89-2.83L371.36,98l-.33-1.1,4.57-1.35c-.6-.79-1.79-1-3.5-.51l-1.48.44L370.17,94l9-2.66.32,1.11-3.31,1a2.92,2.92,0,0,1,1.54,1.52l2.33-.68.33,1.1Z"/></g><g class="cls-4"><path class="cls-3" d="M365.36,109.34c.29,2-1.05,3.62-3.53,4.49,2,1,4.34,2.32,6.62,3.68l-2.36.7c-2-1.13-4-2.39-6.48-3.58l-.44-1.48,1.2-.36c2.12-.62,3-1.67,2.9-2.83l-4.64,1.36-.32-1.1,4.56-1.35c-.59-.79-1.78-1-3.49-.51l-1.49.44-.44-1.51,9-2.66.33,1.11-3.32,1a3,3,0,0,1,1.55,1.53l2.33-.68.33,1.1Z"/></g><g class="cls-4"><path class="cls-3" d="M397.23,113.46c.29,2-1.05,3.62-3.54,4.48,2,1,4.34,2.33,6.62,3.69l-2.35.69c-2-1.13-4-2.38-6.48-3.57l-.44-1.49,1.2-.35c2.11-.62,3-1.68,2.9-2.84l-4.64,1.37-.32-1.11,4.56-1.34c-.6-.79-1.79-1-3.49-.51l-1.49.43-.45-1.51,9-2.65.33,1.1-3.32,1a3,3,0,0,1,1.55,1.53l2.33-.69.32,1.11Z"/></g><g class="cls-4"><path class="cls-3" d="M396.89,99.76c.29,2-1.05,3.62-3.54,4.48,2,1,4.34,2.33,6.62,3.69l-2.35.7c-2-1.14-4-2.39-6.48-3.58l-.44-1.49,1.2-.35c2.11-.62,3-1.68,2.9-2.84l-4.64,1.37-.32-1.11,4.56-1.34c-.6-.79-1.79-1-3.49-.51l-1.49.44L389,97.7l9-2.65.33,1.11-3.32,1a3,3,0,0,1,1.55,1.53l2.33-.69.32,1.11Z"/></g><g class="cls-4"><path class="cls-3" d="M409.47,101c.29,2-1.05,3.63-3.54,4.49,2,1,4.34,2.33,6.62,3.69l-2.35.69c-2-1.13-4.05-2.38-6.48-3.57l-.44-1.49,1.2-.35c2.11-.63,3-1.68,2.9-2.84L402.74,103l-.33-1.11,4.57-1.34c-.6-.79-1.79-1-3.49-.52l-1.49.44L401.55,99l9-2.65.32,1.1-3.31,1a3,3,0,0,1,1.55,1.53l2.33-.69.32,1.11Z"/></g><g class="cls-4"><path class="cls-3" d="M421.88,103.19c.29,2-1.05,3.62-3.53,4.48,2,1,4.33,2.33,6.62,3.69l-2.36.69c-2-1.13-4-2.38-6.48-3.57l-.44-1.49,1.2-.35c2.12-.62,3-1.68,2.9-2.84l-4.64,1.37-.32-1.11,4.56-1.34c-.6-.79-1.78-1-3.49-.51l-1.49.44-.44-1.52,9-2.65.33,1.1-3.32,1a2.93,2.93,0,0,1,1.55,1.53l2.33-.69.32,1.11Z"/></g><g class="cls-4"><path class="cls-3" d="M409.16,116.52c.29,2-1.05,3.62-3.54,4.48,2,1,4.34,2.33,6.62,3.69l-2.35.69c-2-1.13-4.05-2.38-6.48-3.57l-.44-1.49,1.2-.35c2.11-.63,3-1.68,2.9-2.84l-4.64,1.37-.32-1.11,4.56-1.34c-.6-.79-1.79-1-3.49-.51l-1.49.43-.45-1.51,9-2.65.32,1.1-3.31,1a3,3,0,0,1,1.55,1.53l2.33-.69.32,1.11Z"/></g><g class="cls-4"><path class="cls-3" d="M437.82,119.63c.29,2-1.05,3.62-3.54,4.48,2,1,4.34,2.33,6.62,3.69l-2.35.69c-2-1.13-4.05-2.38-6.48-3.57l-.44-1.49,1.2-.35c2.11-.62,3-1.68,2.9-2.84l-4.64,1.37-.32-1.11,4.56-1.34c-.6-.79-1.79-1-3.49-.51l-1.49.43-.45-1.51,9-2.65.32,1.1-3.31,1a3,3,0,0,1,1.55,1.53l2.33-.69.32,1.11Z"/></g><g class="cls-4"><path class="cls-3" d="M437.48,105.93c.29,2-1.05,3.62-3.54,4.48,2,1,4.34,2.33,6.62,3.69l-2.35.7c-2-1.14-4-2.39-6.48-3.58l-.44-1.49,1.2-.35c2.11-.62,3-1.68,2.9-2.84l-4.64,1.37-.32-1.11,4.56-1.34c-.6-.79-1.79-1-3.49-.51l-1.49.44-.45-1.52,9-2.65.32,1.11-3.31,1a3,3,0,0,1,1.55,1.53l2.33-.69.32,1.11Z"/></g><g class="cls-4"><path class="cls-3" d="M454.53,108c.29,2-1,3.63-3.54,4.49,2,1,4.34,2.32,6.62,3.69l-2.35.69c-2-1.13-4-2.38-6.48-3.57l-.44-1.49,1.2-.36c2.11-.62,3-1.67,2.9-2.83L447.8,110l-.32-1.1,4.56-1.35c-.6-.79-1.79-1-3.49-.51l-1.49.44-.45-1.51,9-2.65.33,1.1-3.32,1a2.94,2.94,0,0,1,1.55,1.52l2.33-.68.32,1.1Z"/></g><g class="cls-4"><path class="cls-3" d="M466.94,110.22c.3,2-1.05,3.63-3.53,4.49,2,1,4.34,2.32,6.62,3.69l-2.36.69c-2-1.13-4-2.38-6.48-3.57l-.44-1.49,1.2-.35c2.12-.63,3-1.68,2.9-2.84l-4.63,1.37-.33-1.11,4.56-1.34c-.59-.79-1.78-1-3.49-.52l-1.49.44-.44-1.51,9-2.65.33,1.1-3.31,1a2.94,2.94,0,0,1,1.54,1.53l2.33-.69.33,1.11Z"/></g><g class="cls-4"><path class="cls-3" d="M454.22,123.55c.29,2-1.05,3.63-3.54,4.49,2,1,4.34,2.32,6.62,3.69l-2.35.69c-2-1.13-4-2.38-6.48-3.57l-.44-1.49,1.2-.35c2.11-.63,3-1.68,2.9-2.84l-4.64,1.36-.32-1.1,4.56-1.35c-.6-.78-1.79-1-3.49-.51l-1.49.44-.45-1.51,9-2.65.33,1.1-3.32,1a2.93,2.93,0,0,1,1.55,1.53l2.33-.69.32,1.1Z"/></g><g class="cls-4"><path class="cls-3" d="M405,146.76c.29,2-1.05,3.62-3.53,4.48,2,1,4.33,2.33,6.62,3.69l-2.36.7c-2-1.14-4-2.39-6.48-3.58l-.44-1.49,1.2-.35c2.12-.62,3-1.67,2.9-2.84l-4.64,1.37-.32-1.11,4.56-1.34c-.6-.79-1.78-1-3.49-.51l-1.49.44-.44-1.52,9-2.65.33,1.11-3.32,1a2.93,2.93,0,0,1,1.55,1.53L407,145l.32,1.11Z"/></g><g class="cls-4"><path class="cls-3" d="M404.7,133.06c.29,2-1.05,3.62-3.53,4.49,2,1,4.33,2.32,6.61,3.68l-2.35.7c-2-1.13-4-2.39-6.48-3.57l-.44-1.49,1.2-.36c2.12-.62,3-1.67,2.9-2.83L398,135l-.32-1.1,4.56-1.35c-.6-.79-1.78-1-3.49-.51l-1.49.44-.44-1.51,9-2.66.33,1.11-3.32,1a3,3,0,0,1,1.55,1.53l2.33-.68.32,1.1Z"/></g><g class="cls-4"><path class="cls-3" d="M417.28,134.31c.29,2-1,3.62-3.54,4.48,2,1,4.34,2.33,6.62,3.69l-2.35.7c-2-1.14-4-2.39-6.48-3.58l-.44-1.49,1.2-.35c2.11-.62,3-1.68,2.9-2.84l-4.64,1.37-.32-1.11,4.56-1.34c-.6-.79-1.79-1-3.49-.51l-1.49.44-.45-1.52,9-2.65.33,1.11-3.32,1a3,3,0,0,1,1.55,1.53l2.33-.69.32,1.11Z"/></g><g class="cls-4"><path class="cls-3" d="M429.69,136.49c.3,2-1.05,3.62-3.53,4.49,2,1,4.34,2.32,6.62,3.68l-2.36.7c-2-1.14-4-2.39-6.48-3.58l-.44-1.48,1.2-.36c2.12-.62,3-1.67,2.9-2.83L423,138.47l-.33-1.1L427.2,136c-.59-.79-1.78-1-3.49-.51l-1.49.44-.44-1.51,9-2.66.33,1.11-3.32,1a2.93,2.93,0,0,1,1.55,1.53l2.33-.68.33,1.1Z"/></g><g class="cls-4"><path class="cls-3" d="M417,149.82c.29,2-1.05,3.62-3.54,4.48,2,1,4.34,2.33,6.62,3.69l-2.35.7c-2-1.14-4-2.39-6.48-3.58l-.44-1.49,1.2-.35c2.11-.62,3-1.68,2.9-2.84l-4.64,1.37-.32-1.11,4.56-1.34c-.6-.79-1.79-1-3.49-.51l-1.49.44-.45-1.52,9-2.65.33,1.11-3.32,1a3,3,0,0,1,1.55,1.53L419,148l.32,1.11Z"/></g><g class="cls-4"><path class="cls-3" d="M445.63,152.93c.29,2-1.05,3.62-3.54,4.48,2,1,4.34,2.33,6.62,3.69l-2.35.7c-2-1.14-4-2.39-6.48-3.58l-.44-1.49,1.2-.35c2.11-.62,3-1.67,2.9-2.84l-4.64,1.37-.32-1.11,4.56-1.34c-.6-.79-1.79-1-3.49-.51l-1.49.44-.45-1.52,9-2.65.33,1.11-3.32,1a3,3,0,0,1,1.55,1.53l2.33-.69.32,1.11Z"/></g><g class="cls-4"><path class="cls-3" d="M445.29,139.23c.29,2-1.05,3.62-3.54,4.49,2,1,4.34,2.32,6.62,3.69l-2.35.69c-2-1.13-4-2.39-6.48-3.57L439.1,143l1.2-.36c2.11-.62,3-1.67,2.9-2.83l-4.64,1.36-.32-1.1,4.56-1.35c-.6-.79-1.79-1-3.49-.51l-1.49.44-.45-1.51,9-2.66.33,1.11-3.32,1a3,3,0,0,1,1.55,1.53l2.33-.68.32,1.1Z"/></g><g class="cls-4"><path class="cls-3" d="M462.34,141.35c.29,2-1,3.62-3.54,4.48,2,1,4.34,2.33,6.62,3.69l-2.35.69c-2-1.13-4-2.38-6.48-3.57l-.44-1.49,1.2-.35c2.12-.62,3-1.68,2.9-2.84l-4.64,1.37-.32-1.11,4.56-1.34c-.6-.79-1.79-1-3.49-.51l-1.49.43-.45-1.51,9-2.65.33,1.1-3.32,1a2.93,2.93,0,0,1,1.55,1.53l2.33-.69.32,1.11Z"/></g><g class="cls-4"><path class="cls-3" d="M462,156.86c.29,2-1,3.62-3.53,4.48,2,1,4.33,2.33,6.61,3.69l-2.35.69c-2-1.13-4-2.38-6.48-3.57l-.44-1.49,1.2-.35c2.12-.62,3-1.68,2.9-2.84l-4.64,1.37-.32-1.11,4.56-1.34c-.6-.79-1.78-1-3.49-.51l-1.49.43-.44-1.51,9-2.65.33,1.1-3.32,1a2.93,2.93,0,0,1,1.55,1.53l2.33-.69.32,1.11Z"/></g><g class="cls-4"><path class="cls-3" d="M421.21,173.31c.29,2-1,3.62-3.53,4.48,2,1,4.33,2.33,6.62,3.69l-2.36.69c-2-1.13-4-2.38-6.48-3.57l-.44-1.49,1.2-.35c2.12-.62,3-1.68,2.9-2.84l-4.64,1.37-.32-1.11,4.56-1.34c-.6-.79-1.78-1-3.49-.51l-1.49.44-.44-1.52,9-2.65.33,1.11-3.32,1a2.93,2.93,0,0,1,1.55,1.53l2.33-.69.33,1.11Z"/></g><g class="cls-4"><path class="cls-3" d="M420.87,159.61c.29,2-1.05,3.62-3.53,4.49,2,1,4.33,2.32,6.61,3.68l-2.35.7c-2-1.14-4-2.39-6.48-3.58l-.44-1.48,1.2-.36c2.12-.62,3-1.67,2.9-2.84l-4.64,1.37-.32-1.11,4.56-1.34c-.6-.79-1.78-1-3.49-.51l-1.49.44-.44-1.52,9-2.65.33,1.11L419,157a2.93,2.93,0,0,1,1.55,1.53l2.33-.68.32,1.1Z"/></g><g class="cls-4"><path class="cls-3" d="M437.92,161.72c.3,2-1.05,3.63-3.53,4.49,2,1,4.34,2.32,6.62,3.69l-2.36.69c-2-1.13-4-2.38-6.48-3.57l-.44-1.49,1.2-.35c2.12-.63,3-1.68,2.9-2.84l-4.63,1.36-.33-1.1,4.56-1.34c-.59-.79-1.78-1-3.49-.52l-1.49.44-.44-1.51,9-2.65.33,1.1-3.32,1a2.89,2.89,0,0,1,1.55,1.53l2.33-.69.33,1.1Z"/></g><g class="cls-4"><path class="cls-3" d="M437.61,177.23c.3,2-1.05,3.63-3.53,4.49,2,1,4.34,2.32,6.62,3.69l-2.36.69c-2-1.13-4-2.38-6.48-3.57l-.44-1.49,1.2-.35c2.12-.63,3-1.68,2.9-2.84l-4.63,1.36-.33-1.1,4.56-1.34c-.59-.79-1.78-1-3.49-.52l-1.49.44-.44-1.51,9-2.65.33,1.1-3.31,1a2.91,2.91,0,0,1,1.54,1.53l2.33-.69.33,1.11Z"/></g><g class="cls-4"><path class="cls-3" d="M360.69,122.16c.3,2-1.05,3.62-3.53,4.48,2,1,4.34,2.33,6.62,3.69l-2.36.7c-2-1.14-4-2.39-6.48-3.58L354.5,126l1.2-.35c2.12-.62,3-1.68,2.9-2.84L354,124.14l-.33-1.11,4.56-1.34c-.59-.79-1.78-1-3.49-.51l-1.49.44-.44-1.52,9-2.65.33,1.11-3.31,1a2.94,2.94,0,0,1,1.54,1.53l2.33-.69.33,1.11Z"/></g><g class="cls-4"><path class="cls-3" d="M378.23,113.86c.29,2-1.05,3.63-3.54,4.49,2,1,4.34,2.32,6.62,3.69l-2.35.69c-2-1.13-4-2.38-6.48-3.57l-.44-1.49,1.2-.35c2.11-.63,3-1.68,2.9-2.84l-4.64,1.36-.32-1.1,4.56-1.35c-.6-.79-1.79-1-3.49-.51l-1.49.44-.45-1.51,9-2.65.33,1.1-3.32,1a2.94,2.94,0,0,1,1.55,1.52l2.33-.68.32,1.1Z"/></g><g class="cls-4"><path class="cls-3" d="M361.18,138.61c.3,2-1,3.62-3.53,4.49,2,1,4.34,2.32,6.62,3.68l-2.35.7c-2-1.14-4.05-2.39-6.49-3.58l-.43-1.48,1.2-.36c2.11-.62,3-1.67,2.89-2.84l-4.63,1.37-.33-1.1,4.57-1.35c-.6-.79-1.79-1-3.5-.51l-1.48.44-.45-1.51,9-2.66.32,1.11-3.31,1a2.94,2.94,0,0,1,1.54,1.53l2.33-.68.33,1.1Z"/></g><g class="cls-4"><path class="cls-3" d="M373.6,140.79c.29,2-1.05,3.62-3.54,4.49,2,1,4.34,2.32,6.62,3.69l-2.35.69c-2-1.13-4-2.39-6.48-3.57l-.44-1.49,1.2-.36c2.11-.62,3-1.67,2.9-2.83l-4.64,1.36-.32-1.1,4.56-1.35c-.6-.79-1.79-1-3.49-.51l-1.49.44-.45-1.51,9-2.66.33,1.11-3.32,1a2.94,2.94,0,0,1,1.55,1.52l2.33-.68.32,1.1Z"/></g><g class="cls-4"><path class="cls-3" d="M360.87,154.12c.3,2-1,3.62-3.53,4.49,2,1,4.34,2.32,6.62,3.68l-2.35.7c-2-1.14-4.05-2.39-6.49-3.58l-.43-1.48,1.2-.36c2.11-.62,3-1.67,2.89-2.83l-4.63,1.36-.33-1.1,4.57-1.35c-.6-.79-1.79-1-3.49-.51l-1.49.44-.45-1.51,9-2.66.32,1.11-3.31,1a2.94,2.94,0,0,1,1.54,1.53l2.33-.68.33,1.1Z"/></g><g class="cls-4"><path class="cls-3" d="M356.2,166.94c.3,2-1,3.62-3.53,4.48,2,1,4.34,2.33,6.62,3.69l-2.35.69c-2-1.13-4.05-2.38-6.48-3.57l-.44-1.49,1.2-.35c2.11-.62,3-1.68,2.9-2.84l-4.64,1.37-.33-1.11,4.57-1.34c-.6-.79-1.79-1-3.49-.51l-1.49.44-.45-1.52,9-2.65.32,1.11-3.31,1a3,3,0,0,1,1.55,1.53l2.33-.69.32,1.11Z"/></g><g class="cls-4"><path class="cls-3" d="M343.59,185.43c.3,2-1,3.62-3.53,4.48,2,1,4.34,2.33,6.62,3.69l-2.35.69c-2-1.13-4.05-2.38-6.48-3.57l-.44-1.49,1.2-.35c2.11-.62,3-1.68,2.89-2.84l-4.63,1.37-.33-1.11,4.57-1.34c-.6-.79-1.79-1-3.49-.51l-1.49.44-.45-1.52,9-2.65.32,1.11-3.31,1a2.94,2.94,0,0,1,1.54,1.53l2.33-.69.33,1.11Z"/></g><g class="cls-4"><path class="cls-3" d="M332.35,194.35c.29,2-1.05,3.62-3.54,4.48,2,1,4.34,2.33,6.62,3.69l-2.35.69c-2-1.13-4-2.38-6.48-3.57l-.44-1.49,1.2-.35c2.11-.62,3-1.68,2.9-2.84l-4.64,1.37-.32-1.11,4.56-1.34c-.6-.79-1.79-1-3.49-.51l-1.49.43-.45-1.51,9-2.65.33,1.1-3.32,1a3,3,0,0,1,1.55,1.53l2.33-.69.32,1.11Z"/></g><g class="cls-4"><path class="cls-3" d="M330,163.63c.29,2-1,3.62-3.54,4.48,2,1,4.34,2.33,6.62,3.69l-2.35.7c-2-1.14-4-2.39-6.48-3.58l-.44-1.49,1.2-.35c2.12-.62,3-1.67,2.9-2.84l-4.64,1.37L323,164.5l4.56-1.34c-.6-.79-1.78-1-3.49-.51l-1.49.44-.44-1.52,9-2.65.33,1.11-3.32,1a2.93,2.93,0,0,1,1.55,1.53l2.33-.69.32,1.11Z"/></g><g class="cls-4"><path class="cls-3" d="M373.74,158.64c.3,2-1.05,3.63-3.53,4.49,2,1,4.34,2.32,6.62,3.69l-2.36.69c-2-1.13-4-2.39-6.48-3.57l-.44-1.49,1.2-.36c2.12-.62,3-1.67,2.9-2.83L367,160.62l-.33-1.1,4.56-1.35c-.59-.79-1.78-1-3.49-.51l-1.49.44-.44-1.51,9-2.65.33,1.1-3.31,1a2.92,2.92,0,0,1,1.54,1.52l2.33-.68.33,1.1Z"/></g><g class="cls-4"><path class="cls-3" d="M389.53,157.23c.3,2-1,3.62-3.53,4.49,2,1,4.34,2.32,6.62,3.68l-2.35.7c-2-1.13-4-2.39-6.48-3.57l-.44-1.49,1.2-.36c2.11-.62,3-1.67,2.89-2.83l-4.63,1.36-.33-1.1,4.57-1.35c-.6-.79-1.79-1-3.49-.51l-1.49.44-.45-1.51,9-2.66.32,1.11-3.31,1a3,3,0,0,1,1.54,1.53l2.33-.68.33,1.1Z"/></g><g class="cls-4"><path class="cls-3" d="M389.19,143.53c.3,2-1,3.63-3.53,4.49,2,1,4.34,2.32,6.62,3.69l-2.35.69c-2-1.13-4.05-2.39-6.49-3.57l-.43-1.49,1.2-.36c2.11-.62,3-1.67,2.89-2.83l-4.63,1.36-.33-1.1,4.57-1.35c-.6-.79-1.79-1-3.5-.51l-1.48.44-.45-1.51,9-2.65.32,1.1-3.31,1a2.92,2.92,0,0,1,1.54,1.52l2.33-.68.33,1.1Z"/></g><text class="cls-8" transform="translate(284.53 153.62) rotate(9.97)">7 Days</text><rect class="cls-6" x="356.67" y="238.51" width="94.44" height="27.76" rx="9.99" transform="translate(49.79 -66.11) rotate(9.97)"/><rect class="cls-6" x="349.07" y="281.77" width="94.44" height="27.76" rx="9.99" transform="translate(57.16 -64.14) rotate(9.97)"/><rect class="cls-6" x="342.06" y="325.14" width="94.44" height="27.76" rx="9.99" transform="translate(64.56 -62.27) rotate(9.97)"/><rect class="cls-6" x="335.23" y="362.54" width="94.44" height="27.76" rx="9.99" transform="translate(70.93 -60.52) rotate(9.97)"/></g></svg>