<svg xmlns="http://www.w3.org/2000/svg" viewBox="0 0 500 500"><defs><style>.cls-1{opacity:0.16;}.cls-2,.cls-22,.cls-23,.cls-6{fill:#fff;}.cls-2{opacity:0.8;}.cls-3{fill:#4d483b;}.cls-4{fill:#e0e0e0;}.cls-5{fill:#c9c2a8;stroke:#3d382c;stroke-width:3px;}.cls-25,.cls-26,.cls-27,.cls-5{stroke-miterlimit:10;}.cls-7{fill:#2d2d2d;}.cls-8{fill:#ee771f;}.cls-9{fill:#e30713;}.cls-10{fill:#969696;}.cls-11{fill:#41bac1;}.cls-12{fill:#5c5c5c;}.cls-13{fill:#c2c1c1;}.cls-14{fill:#7f7f80;}.cls-15,.cls-25,.cls-26,.cls-27{fill:none;}.cls-16{fill:#afafaf;}.cls-17{fill:#d6e5e5;}.cls-18{fill:#c4c4c4;}.cls-19{fill:#a9a9a9;}.cls-20{fill:#c7c6c6;}.cls-21{fill:#7ecad0;}.cls-22{opacity:0.06;}.cls-23{opacity:0.51;}.cls-24{fill:#049692;}.cls-25{stroke:#fff;stroke-width:2px;}.cls-26{stroke:#1d1d1b;}.cls-27{stroke:#000;}.cls-28{font-size:32px;fill:#e5232b;font-family:BookAntiqua-Bold, Book Antiqua;font-weight:700;}</style></defs><g id="shadow"><path class="cls-1" d="M137.48,383.58l101.65-1.13,68-.75c22.09-.24,44.19-.49,66.28,0q40,.82,79.79,4.74c-33.19,4.48-66.79,4.48-100.27,4.32q-49.18-.24-98.36-.93t-98.34-1.86c-9.07-.22-18.14-.38-27.2-.68-2.68-.09-9.48-.84-3.64-2.82C129,383.21,133.71,383.62,137.48,383.58Z"/></g><g id="smoke"><path class="cls-2" d="M75,360.6,71.14,356a7.73,7.73,0,0,0-1.62-1.61c-1.63-1.11-3.79-.87-5.75-.59.12.4-.2.8-.49,1.1-2.09,2.15-4.9,4.29-7.79,3.51-2.63-.7-4-3.46-5.57-5.7a12.93,12.93,0,0,0-4.9-4.48,7.16,7.16,0,0,0-6.47,0,22.14,22.14,0,0,0-3.06,2.52,12.12,12.12,0,0,1-4.06,2.23A6.79,6.79,0,0,1,27,353c-1.64-.64-2.76-2.12-4.08-3.28a12.66,12.66,0,0,0-13.45-1.93,4.12,4.12,0,0,0-1.49,1.05,4.85,4.85,0,0,0-.75,1.85,74.17,74.17,0,0,0-2,13.75c-.08,1.55,0,3.3,1.08,4.38a5.81,5.81,0,0,0,3,1.2,45.69,45.69,0,0,0,9.59,1.08,15.19,15.19,0,0,0,9-3c2.47-2,4.55-5.17,7.72-5.06a2.16,2.16,0,0,1,.87.19c1,.49,1.12,1.87,1.48,2.95A6.47,6.47,0,0,0,42,370a19.08,19.08,0,0,0,5.64.85,2.67,2.67,0,0,0,1.79-.33,2.59,2.59,0,0,0,.77-1.34l1-3.06c.56-1.62,1.25-3.39,2.8-4.11,2.63-1.23,6.44,1.24,8.38-.92.44-.49.68-1.15,1.2-1.55a3.06,3.06,0,0,1,2.29-.37A17.06,17.06,0,0,1,72,361.14c1,.56,3.27,2.89,4.53,2.25.78-.4,1.33-3.38,1.07-4.06C76.85,357.25,74.43,359.91,75,360.6Z"/><path class="cls-2" d="M54.58,365.73l-1.79,0a12.54,12.54,0,0,0-.45,2.59,2.71,2.71,0,0,0,.08,1.1A3.07,3.07,0,0,0,54.14,371a2.59,2.59,0,0,0,1.71.4,2.1,2.1,0,0,0,1.3-1.33,2.86,2.86,0,0,0,.26-1.11,2.62,2.62,0,0,0-1.09-2,6.92,6.92,0,0,0-2.1-1"/><path class="cls-2" d="M58.74,341.6a1.19,1.19,0,0,0-.56.17,1.21,1.21,0,0,0-.38.53,11.21,11.21,0,0,0-1.46,5.24c.11,1.83,1.42,3.73,3.25,3.83a4.66,4.66,0,0,0,3.24-1.48,20.12,20.12,0,0,1,2.72-2.43,3.48,3.48,0,0,1,2.87-.46c.54.2,1.54,1.69,1.91,1.62,1.25-.22,0-2.84-.38-3.36C67.59,341.81,62.54,341.13,58.74,341.6Z"/><path class="cls-2" d="M64.8,371.21a4.53,4.53,0,0,0-.79.44,1.52,1.52,0,0,0-.44.52c-.79,1.38-1.56,2.8-1,3.71s3,1.07,5.71-.05a16.39,16.39,0,0,0,4.5-2.84,40.38,40.38,0,0,1,3.51-3,14.78,14.78,0,0,1,4.17-2.07c.85-.24,2.68-.08,3.22-.35,1.81-.92-.69-1.5-1.33-1.55C78.05,365.68,70.38,368.53,64.8,371.21Z"/><path class="cls-2" d="M49.44,344.07a7.89,7.89,0,0,0-6.81.16c-.8.42-1.52,1-2.3,1.43a22.17,22.17,0,0,1-5.85,2.08,19.24,19.24,0,0,1-5.41.83,6.48,6.48,0,0,1-4.86-2.17c-.71-.9-1.08-2-1.71-3A6.54,6.54,0,0,0,15,341c-.77-1.33,1-2.84,2.54-2.81,4.25.08,6.54,5.57,10.7,6.45,2.28.48,4.57-.55,6.76-1.34a36.7,36.7,0,0,1,9.14-2.06,6.8,6.8,0,0,1,2.66.12,6,6,0,0,1,2.09,1.23,17.09,17.09,0,0,1,4,5.32C53.32,346.39,50.67,344.63,49.44,344.07Z"/></g><g id="innerwheels"><g id="snallest"><ellipse class="cls-3" cx="138.75" cy="339.62" rx="35.75" ry="37.75"/><ellipse class="cls-3" cx="425.29" cy="341.3" rx="34.5" ry="36.08"/><circle class="cls-4" cx="138.83" cy="341.27" r="31.26"/><ellipse class="cls-4" cx="424.49" cy="342.89" rx="28.95" ry="29.64"/><circle class="cls-3" cx="138.71" cy="341.34" r="26.46"/><ellipse class="cls-3" cx="425.45" cy="343.05" rx="23.78" ry="24.55"/><ellipse class="cls-5" cx="138.71" cy="341.54" rx="18.89" ry="19.38"/><ellipse class="cls-5" cx="425.43" cy="342.72" rx="16.32" ry="16.62"/><path class="cls-6" d="M130.29,355.91a15.84,15.84,0,0,1,.41-6.66,12.11,12.11,0,0,1,3.63-4.89,26.19,26.19,0,0,1,12.47-6.2,9.6,9.6,0,0,1,3.92-.1,4.8,4.8,0,0,1,3.19,2.32,8.31,8.31,0,0,1,.71,3.3,5.17,5.17,0,0,1-1.27,4.34l-2.93,4.13a17.6,17.6,0,0,1-2.7,3.23,10.65,10.65,0,0,1-2.44,1.56,14.82,14.82,0,0,1-15.88-2.23"/><path class="cls-6" d="M131.65,330.38a8.5,8.5,0,0,0-3.71.71,2,2,0,0,0-.8.54,1.83,1.83,0,0,0-.33.93,21.78,21.78,0,0,0-.25,3.13,2,2,0,0,0,.15.89,2.15,2.15,0,0,0,1.82.84c2.22.13,4.27-1,6-2.16a5,5,0,0,0,1.62-1.46,5.15,5.15,0,0,0,.38-.91,2.68,2.68,0,0,0,.19-1.33,2.15,2.15,0,0,0-1.45-1.39,7.39,7.39,0,0,0-2.21-.32,5.3,5.3,0,0,0-1.64.12,4.89,4.89,0,0,0-1.19.59l-1.68,1"/><path class="cls-6" d="M418.93,348.32a14.91,14.91,0,0,1,4.26-4.48,18.82,18.82,0,0,1,6.72-3.4,10.08,10.08,0,0,1,7.36.82,4.91,4.91,0,0,1,2.5,3.08,2.2,2.2,0,0,1,0,1.22,3.54,3.54,0,0,1-.47.85c-2.15,3.12-4.36,6.31-7.42,8.54a5.72,5.72,0,0,1-1.82,1,6.88,6.88,0,0,1-1.81.19c-2,0-3.95,0-5.93-.13-1.51-.07-3.45-.28-4-1.86A7.24,7.24,0,0,1,418.93,348.32Z"/></g></g><g id="wheels"><g id="darkergrey"><path class="cls-7" d="M392.56,344.32h-6l1.59-30,6.51-8.1,11.36-7.63,13.13-5s15.55.09,15.92,0S445.73,300,445.73,300s8.1,8.38,8.56,8.57,8.94,14.34,8.94,14.34L465.84,333l.37,11.28-1.4.19h-5.68s-.65-18.9-9.49-25.89-13.32-11.08-29.24-9.68S395.08,325.61,394,331.1A99.22,99.22,0,0,0,392.56,344.32Z"/><path class="cls-7" d="M104.21,338.32H98.55l3.42-20,7-13,8.38-7.55,8.94-1.67,12.47-2.31s12.32,1.33,12.52,1.4,10,5.45,10,5.45l7.54,7.61L176,323l2.52,7.27-.63,10.47h-3.1s-.38-26.11-23.92-34-38.18,10-38.18,10S102.63,327.66,104.21,338.32Z"/></g></g><g id="car"><g id="lights"><path class="cls-8" d="M484.49,317.44a1.22,1.22,0,0,0,.17,1,1.12,1.12,0,0,0,.56.29,3.53,3.53,0,0,0,3.91-1.43,5.09,5.09,0,0,0,.49-2.15,18,18,0,0,0,0-3.36.74.74,0,0,0-.11-.39,1,1,0,0,0-.33-.27c-1.21-.68-3.64-1.95-3.83.23S484.75,315.39,484.49,317.44Z"/><path class="cls-8" d="M37.85,274.63a22.28,22.28,0,0,0-.26,4.47,17.62,17.62,0,0,0,.36,4,1.07,1.07,0,0,0,.27.54,1.09,1.09,0,0,0,.69.21l1.23.11a1.74,1.74,0,0,0,1.08-.15,1.75,1.75,0,0,0,.52-1.53v-4.68a5.69,5.69,0,0,0-.15-1.59,5.94,5.94,0,0,0-.48-1.06l-.94-1.76C39,271,38.1,273.34,37.85,274.63Z"/><path class="cls-9" d="M37.79,292a5.63,5.63,0,0,0,.51,3,1.94,1.94,0,0,0,2.65.78,2.85,2.85,0,0,0,.8-2l.4-4c.19-1.84.35-3.81-.57-5.42A2,2,0,0,0,38,285C37.5,287.14,37.84,289.79,37.79,292Z"/><path class="cls-10" d="M41.78,296.17a2.93,2.93,0,0,0,2.1.54l.34-5.12c.08-1.27.17-2.54.15-3.82-.07-5.12-1.8-10.17-1.36-15.27.1-1.24-2.2-.88-2.33.42-.17,1.67.45,3.7.62,5.39.37,3.81.57,7.65.6,11.48,0,1.1,0,2.2,0,3.3C41.87,293.48,41.55,296,41.78,296.17Z"/><path class="cls-8" d="M62.92,258.57a.24.24,0,0,1,0-.16.27.27,0,0,1,.18-.05c.36,0,.72,0,1.08,0a15.08,15.08,0,0,1,2.58-.28,2.79,2.79,0,0,1-.24,1.77,8.46,8.46,0,0,1-1,1.51c-.5.64-1.8,2.69-2.55,1.41C62.44,261.8,62.83,259.64,62.92,258.57Z"/></g><g id="base_colour" data-name="base colour"><path class="cls-11" d="M489.23,277.08a12.9,12.9,0,0,0-7.29-8.55l-5.58-.37-5.5-6.33-26.53-3.44-74.86-7-4.16,7.29-2.17-1-27.92-41.46c-1.29-3.53,2.22-5.84,2.22-5.84v-6.7l-1.28-.44c-4.07-3-22.55-3.69-22.55-3.69H293.68l-38.36-.74-46.18-1.1s-16.73.27-25.63,1.1a94.16,94.16,0,0,0-16.93,3.3c-10.39,2.34-18.7,9.75-18.7,9.75l6.79,4.94,4.47,2.61,1.59.37h.55l.91,3.63-.44,3.72-3.22,5.35-1.44,1.64-16,27.65s-9.31-2.24-12-3.45l-7.82-2L120,255.5l-.34-2.61.64-.74-8.24,1.67L98.76,255l-10.12.84L71,257.38l-4,.35c-2.37,4.68-4.82,5.8-4.82,5.8L56,266.46l-4.68.91-4.19.42-.7.46-1,2.47v42.39l9.66.47,0,0c3.1,1,4.59,4.81,4.59,4.81a8.19,8.19,0,0,1-4.4,8.17l-5.1-.32-4.4-.3c-1.26,11.1,3.1,11.39,3.1,11.39l2.22.14,15.56.76,9.43,0,14.31,0,9.38.67.08-3.18,1.68-11.19L104,318l2.8-4.92,4.51-5.32,4.76-3.81,6-3.25,6.61-2.28,9.44-1.48,3.48-.05,8.43,1.25,4.7,1.33L164.92,308l5.06,7.37,3.26,7.06,3.31,11.12-.28,3-.14,3.51,1.27,3.16,2.51,1.71,2.09.05,10.41.25,20.6.5,22.06.53,29.62.72,15.77.67,18.09.15,32.26.78,25.35.61,17.18.41,8.58.17,3.5-1.15,2.67-3.55-.5-3.35-.25-8.31.88-7,1.1-4.2,2.35-5.59,3.9-5.72,5.16-4.73,4.25-2.6,7.08-2.81,5.74-1.32,8.12-.84,5.57.12,9.37,1.68,4.68,2.16,3.14,1.68,6.78,7.05,3.84,6.36,3.77,9.63,1.25,7.54.49,9.76,2.89.38,6.64-.26,4.91-2.73,1.2-2.61-.74-1.16-2-3.14-.26-1.78.88-2.29,3.34-2.8,1.13-1,1.52-10.53,2.94-20.23S490.79,283.43,489.23,277.08ZM253.65,258.85H165.29l5.86-17,3.54-12,5.22-7.26,8.65-6.14,5.68-2,59.41-.19Zm94.19,1.49-3.14,2.23-2.14.75-1.77.4-3.35-.86-3.7-2.33H260.82l.09-46,30,.93,16.2.56,5.87-.09a34.47,34.47,0,0,1,9.49,2.42,34,34,0,0,1,13.41,12.2l17.6,30.16Z"/></g><g id="liite_whites" data-name="liite whites"><path class="cls-6" d="M43.45,313.42c.17,3.11,2.71,5.7,5.62,6.79s6.12,1,9.21.61c.7-.08,1.55-.29,1.71-1a1.74,1.74,0,0,0-.06-.78,9.61,9.61,0,0,0-.69-2.23,6.48,6.48,0,0,0-3.79-3.08,14.93,14.93,0,0,0-4.94-.6,44.71,44.71,0,0,0-9.29,1.07"/><path class="cls-6" d="M478.13,330.75l-.1,3.4a1.93,1.93,0,0,0,.2,1.12,1.54,1.54,0,0,0,.75.55,8.81,8.81,0,0,0,3.58.43,5,5,0,0,0,2.15-.35,3.82,3.82,0,0,0,1.53-1.53,5,5,0,0,0,.81-2.54C487.08,327.65,478.26,326.23,478.13,330.75Z"/><path class="cls-6" d="M337.7,251.59a.27.27,0,0,1,.14.24,5.48,5.48,0,0,0-2.27,2.58,6.14,6.14,0,0,0-.24,3,10.46,10.46,0,0,0,4.95-.77c1.48-.68,2.62-1.93,2.62-3.25a2.77,2.77,0,0,0-1.4-2.27,1.35,1.35,0,0,0-.44-.2,2.09,2.09,0,0,0-.66,0,22.75,22.75,0,0,0-4.64,1.11"/><path class="cls-6" d="M337.21,251.46a4,4,0,0,0-.84.06.88.88,0,0,0-.44.17,1.31,1.31,0,0,0-.34.54,3.42,3.42,0,0,1-.52.78,1.89,1.89,0,0,0-.25.31,1.15,1.15,0,0,0-.13.58,4.43,4.43,0,0,0,.25,1.19l.24.81a.75.75,0,0,0,.1.2.59.59,0,0,0,.22.12,3.91,3.91,0,0,0,1.95.07,1.21,1.21,0,0,0,.68-.33,2.25,2.25,0,0,0,.29-.53c.13-.29.32-.56.44-.85a3.39,3.39,0,0,0,.1-2.09,2.18,2.18,0,0,0-.17-.51,1.51,1.51,0,0,0-.83-.72,2,2,0,0,0-1.1-.09"/></g><g id="grey_shades" data-name="grey shades"><path class="cls-12" d="M195.13,214.53S178.51,226.4,176,254.66h77.66v4.56H165.29l7.17-21.6S175.16,217.84,195.13,214.53Z"/><path class="cls-12" d="M266.76,214.71V253.4s-1.38,2.38,6,2.1l61.59,0s-2.17,4.49-.65,5.19h-73V214.53Z"/><polygon class="cls-13" points="323.21 218.73 323.27 255.52 325.15 255.52 325.15 219.84 323.21 218.73"/><path class="cls-14" d="M157.6,218.67s-8.7-.79-10.56,2.94l-20.76,29.33s-1.4,2.7.46,3.16c0,0,10.58,1.48,15.67,5.44L141,262.39l-20.24-6.28-.81-1.64.79-2.32,27.58-40.68Z"/><path class="cls-15" d="M45.13,314.88a3.31,3.31,0,0,0-1.53,2.83c.12,1.5,1.54,2.54,2.94,3.09A11.8,11.8,0,0,0,56.66,320,6.06,6.06,0,0,0,59.49,317c.16-.09.29.17.29.36l0,2.79a5.93,5.93,0,0,1-2.57,5.4,4.57,4.57,0,0,1-1.46,1.1,4.25,4.25,0,0,1-1.41.23,44.3,44.3,0,0,1-16-2.29,4.65,4.65,0,0,1-2.18-1.24,4.88,4.88,0,0,1-.85-2.78,13.05,13.05,0,0,1,0-3.64,4.43,4.43,0,0,1,1.88-3,5.83,5.83,0,0,1,2.13-.67,22.58,22.58,0,0,1,5.63-.16c.43,0,2,0,2,.74C47.07,314.11,45.43,314.67,45.13,314.88Z"/><path class="cls-15" d="M44.28,316.57a4.47,4.47,0,0,0,.41,2.27A3.43,3.43,0,0,0,46,320c2.75,1.46,6.1.77,9.13,0a6.52,6.52,0,0,0,2.43-1,2.23,2.23,0,0,0,.93-2.29c.34-.13.69.19.88.5a5,5,0,0,1,.48,3.75,9.41,9.41,0,0,1-1.78,3.42,6.67,6.67,0,0,1-2.54,2.18,8.27,8.27,0,0,1-4.68.08L38.74,324.6a4.69,4.69,0,0,1-1.6-.47,4.05,4.05,0,0,1-1.74-2.72,9.75,9.75,0,0,1,.33-5.53,4.41,4.41,0,0,1,.73-1.35c1-1.18,2.72-1.33,4.26-1.39,1.29-.06,4.94-.8,5.76.46C44.82,314.05,44.26,314.76,44.28,316.57Z"/><path class="cls-16" d="M482.34,335.38a27.8,27.8,0,0,0,5.32-.18c1.49-.19,3.18-.67,3.76-2.05a2.41,2.41,0,0,0-.8-2.83,4.5,4.5,0,0,0-1.43-.59,54.56,54.56,0,0,0-6.22-1.32q5.26-.45,10.54-.62a2.61,2.61,0,0,1,1.24.15,2.67,2.67,0,0,1,1,1,11.17,11.17,0,0,1,2.08,5.11,5.15,5.15,0,0,1-2.15,4.85,7.35,7.35,0,0,1-4,.75,46.54,46.54,0,0,1-11.84-1.78,2.5,2.5,0,0,1-1.15-.57c-.57-.59-1.32-3.08-.24-3.33.58-.13,1.1.51,1.53.76A5.16,5.16,0,0,0,482.34,335.38Z"/><path class="cls-17" d="M339.66,251.55c.78,1.51,2.82,6.92-4.31,3.39-.57-.28-1.27,1.59-1.26,3.48a5,5,0,0,0,.5,2.51,3.62,3.62,0,0,0,1.77,1.45,10.71,10.71,0,0,0,2.24.59l1.14.22a11.46,11.46,0,0,0,1.76.24,7.85,7.85,0,0,0,4.39-1.32,5.09,5.09,0,0,0,1.53-1.35,4.71,4.71,0,0,0,.16-4.58,19,19,0,0,0-2.72-3.93,5.87,5.87,0,0,0-.88-1,4.85,4.85,0,0,0-2.06-.83,3.87,3.87,0,0,0-2.26,0"/><path class="cls-18" d="M491.36,276.76a1.51,1.51,0,0,1,.68.34,1.75,1.75,0,0,1,.41,1.14,28.82,28.82,0,0,1-.08,5.8c-.2,1.68-.55,3.34-.68,5-.07,1-.07,1.92-.09,2.88,0,.64,0,1.29-.06,1.93-.13,2.86-.4,5.72-.81,8.56a.77.77,0,0,1-.12.37.7.7,0,0,1-.35.23,3.63,3.63,0,0,1-3.63-1.21,1.73,1.73,0,0,1-.4-.57,1.94,1.94,0,0,1-.05-.68,45.86,45.86,0,0,1,1.16-8.15c.76-3.29,1.89-6.51,2.24-9.86a34.4,34.4,0,0,0,.16-3.8,6.69,6.69,0,0,0-.08-1.18c-.05-.24-.36-.75-.29-1C489.54,276.08,490.93,276.63,491.36,276.76Z"/><path class="cls-19" d="M477.7,262.91c0,1.54,0,3.07,0,4.6a.57.57,0,0,1-.16.48.55.55,0,0,1-.31.07H476a.52.52,0,0,1-.25,0,.64.64,0,0,1-.26-.23,19.28,19.28,0,0,1-1.41-2.14c-.3-.51-1.09-1.51-1-2.14C473.28,262.53,477.7,263,477.7,262.91Z"/><path class="cls-10" d="M44.37,318.43a1.64,1.64,0,0,0,.38,1,1.82,1.82,0,0,0,.69.39,16.49,16.49,0,0,0,14.48-1.41,7.68,7.68,0,0,1-4.26,7.75,13.7,13.7,0,0,1-6.11.87,29.87,29.87,0,0,1-5.18-.46,38.8,38.8,0,0,1-6.54-2.07,3.66,3.66,0,0,1-1.26-.68,3.54,3.54,0,0,1-.78-1.75c-.59-2.42-1-5.34.72-7.09a6.67,6.67,0,0,1,3.91-1.5c1.11-.14,4.12-.9,4.82.37C45.84,314.89,44.18,317,44.37,318.43Z"/></g><g id="lighter_grey" data-name="lighter grey"><path class="cls-4" d="M482.17,333.15a6.25,6.25,0,0,0,2.06-.27,2.33,2.33,0,0,0,1.46-1.38,2.36,2.36,0,0,0-.38-2,6.75,6.75,0,0,0-1.49-1.48l5.87.35a8.15,8.15,0,0,1,2.14.32,2.76,2.76,0,0,1,1.63,1.34,3.92,3.92,0,0,1,.27,1.56,6.2,6.2,0,0,1-.64,3.77,4.48,4.48,0,0,1-1.65,1.4,11.7,11.7,0,0,1-5.82,1.31,8.88,8.88,0,0,1-3.71-.74,11.41,11.41,0,0,1-1.53-.94c-.67-.46-3.07-2-2.42-3.08C478.42,332.53,481.34,333.15,482.17,333.15Z"/><path class="cls-20" d="M54.62,318.52a39.67,39.67,0,0,0,4.17-.65.68.68,0,0,1,.47.05.65.65,0,0,1,.21.4c.26,1,.47,2.18-.19,3a3,3,0,0,1-1.57.83,22.3,22.3,0,0,1-8.65.52A6.71,6.71,0,0,1,44.88,321c-1.3-1.38-1.37-3.48-1.27-5.37a.93.93,0,0,1,1.06-1.06c2.09-.2,3.47-.51,4.66,1.26A5.31,5.31,0,0,0,54.62,318.52Z"/></g><g id="lighter_shade" data-name="lighter shade"><path class="cls-21" d="M369.47,251l-1.86,5.16,100.9,9.1s5.8,2.13,5.8,3.24.87-1.18.87-1.18l-4.32-5.52-8.46-1.75-54-5.14Z"/><path class="cls-21" d="M45.43,278.82H464.67s6.43,1.58,8,11.69l11.45.37a25.77,25.77,0,0,0-6.35-22.35H48.62S43.77,265.62,45.43,278.82Z"/><path class="cls-21" d="M66.81,258.43,67.9,262,118,258.43l1.66-6.56-1.38,1s-26.68,2.66-29.89,2.94l-21.37,2Z"/></g><g id="unserwhites"><polygon class="cls-22" points="193.87 214.53 225.71 214.53 253.65 214.53 253.65 259.22 196.48 258.85 164.64 259.22 165.57 257.27 167.79 251.68 169.78 246.23 171.37 241.17 172.46 237.62 173.21 234.37 174.69 229.89 181.88 221.23 191.5 215.36 193.87 214.53"/><polygon class="cls-22" points="260.72 214.53 308.94 215.9 314.72 216.14 323.92 219.22 330.56 223.93 337.44 233.45 346.03 248.07 350.43 255.52 353.46 259.94 353.46 260.71 347.87 260.71 346.47 254.1 344.89 251.4 340.42 250.43 335.65 252.54 334.22 256.18 333.74 260.52 333.25 260.71 296.75 260.52 260.35 260.71 260.72 214.53"/><polygon class="cls-22" points="147.88 211.92 152.82 215.64 159.14 219.47 161.1 219.93 162.19 221.61 162.19 226.91 159.76 230.49 157.09 234.18 150.76 245.84 140.94 262.39 129.07 258.85 120.6 255.89 119.76 253.34 119.93 252.43 147.88 211.92"/></g><g id="whites"><polygon class="cls-23" points="303.64 215.9 289.96 260.52 333.74 259.94 335.53 252.8 337.44 251.03 340.79 249.77 343.24 250.81 345.84 252.79 347.84 258.85 347.87 260.71 350.62 260.71 353.46 260.71 347.77 251.03 339.89 237.45 331.81 224.87 324.69 219.56 319.57 217.36 314.72 216.14 303.64 215.9"/><polygon class="cls-23" points="221.1 215.14 206.09 259.22 253.65 259.22 253.65 214.53 221.1 215.14"/><polygon class="cls-23" points="157.02 218.23 130.16 258.85 140.99 262.01 154.54 238.54 157.85 233.31 160.39 229.86 162.1 225.14 162.19 221.61 161.1 219.93 157.02 218.23"/><path class="cls-23" d="M290.16,234.43l-1.66,2.67c-2.24,3.63-4.52,7.35-5.41,11.52a1.25,1.25,0,0,0,.07,1,.9.9,0,0,0,1.14.19,2.53,2.53,0,0,0,.86-.92c2.89-4.39,5-9.23,7.58-13.8.41-.72,3.27-6,.92-5.59-.75.14-1.11,1.16-1.47,1.73C291.52,232.29,290.83,233.35,290.16,234.43Z"/><path class="cls-23" d="M290.54,241.65c-.3.74-.54,1.5-.87,2.23a29.94,29.94,0,0,0-1.39,2.92c-.26.77-.26,1.81.45,2.18a1.49,1.49,0,0,0,1.78-.61,13,13,0,0,0,.89-1.84c.58-1.1,1.62-1.91,2.27-3a20,20,0,0,0,1.33-3.48c.51-1.36,1.32-2.57,1.94-3.89.72-1.53-.18-2.45-1.5-1.31A18,18,0,0,0,290.54,241.65Z"/><path class="cls-23" d="M210.19,232.53c-.68.85-1.51,1.57-2.17,2.44a15,15,0,0,0-1.3,2.19L204,242.39a12.25,12.25,0,0,0-1.79,5.18,1.53,1.53,0,0,0,.18.89.62.62,0,0,0,.8.22,94.74,94.74,0,0,0,10.44-16.79c.36-.74,1.22-4.43-.86-3.69-.57.21-.84,1.39-1.08,1.87A11.87,11.87,0,0,1,210.19,232.53Z"/><path class="cls-6" d="M273.71,271.66a.83.83,0,0,1,.7.23,1.74,1.74,0,0,1,.17.5c.2.55.91.64,1.49.65l9.26.17a7.67,7.67,0,0,1-5.66,1.77,41,41,0,0,1-6-1,1.67,1.67,0,0,0-1.62.28c-.18.2-.25.48-.42.68a1.77,1.77,0,0,1-1.35.45,39.14,39.14,0,0,1-5.72.22,1.85,1.85,0,0,1-1.25-3c.92-1.3,2.83-1,4.19-1Z"/><path class="cls-6" d="M166.77,269.48a2.89,2.89,0,0,0-.15,1.54,1.35,1.35,0,0,0,1.72-.1c.49-.37.86-.92,1.38-1.26a4.43,4.43,0,0,1,2.16-.53c4.29-.34,8.76-.65,12.74,1-3.25,1.15-6.82.63-10.27.72a2.42,2.42,0,0,0-1.33.3c-.29.18-.49.47-.78.66a2.59,2.59,0,0,1-1.41.27h-5.94a1.11,1.11,0,0,1-.65-.14,1,1,0,0,1-.3-.44c-.45-.94-1.28-1.73-.13-2C164.13,269.38,166.7,269.68,166.77,269.48Z"/></g><g id="lower_darker_shade" data-name="lower darker shade"><path class="cls-24" d="M45.43,290.51H488.09l-5.4,37.61s-10.24,3-2.24,10.8a6.54,6.54,0,0,1-6.41,5.77l-9.23-.18s-.27-21.41-7.12-30.07c0,0-7.4-17.79-35.15-15.74,0,0-26.72,1.64-32.63,21.77A46.19,46.19,0,0,0,388.09,345s-.18,3-6.7,4.7l-86-2.05-95.53-2.79-19.92-.74-1.8-.23s-3.79-3.5-1.37-9.46c0,0-5.21-28.67-23.09-35.19,0,0-16.59-9-38,4.92,0,0-16.73,8.31-15.81,34,0,0-13.57.34-23.09.06l-27.57-.81s-4.65-.93-3.35-11.17H55s11.73-5,0-12.66H45.43Z"/><line class="cls-25" x1="45.83" y1="282.87" x2="489.23" y2="283.04"/></g><g id="outline"><path class="cls-26" d="M67.06,257.73s52.14-4.09,53.63-5.58l27.19-40.23s9.31-12.66,49.9-14.15L295,199.63s26.07-1.86,42.45,4.1v6.7s-7.82,3.36,4.84,17.32l20.86,30s3,4.84,6.33-6.33l95.71,8.94,7.08,1.86s2.24,5.59,4.1,6c0,0,10.8-2.61,13.41,11.17l-7.08,48.79s-10.06,3-2.24,10.8c0,0,0,8.19-15.64,5.59,0,0,2.61-49.53-41.71-45.81s-35,46.32-35,46.32-1.49,4.7-7.82,4.7l-200.36-4.84s-5.59-1.12-3.36-10.43c0,0-5.21-38-36.12-37.61,0,0-40.6-1.49-40.6,42.08l-50.65-1.49s-5.21-1.12-3.35-11.17l9.31.37s10.8-6.7,0-13H45.43V270.39l1.89-2.6S64.08,267.42,67.06,257.73Z"/><line class="cls-26" x1="337.44" y1="210.43" x2="369.47" y2="251.4"/><line class="cls-26" x1="381.39" y1="268.91" x2="476.36" y2="268.16"/><path class="cls-26" d="M260.72,214.53v46.18h73s0-8.56,3.72-9.31c0,0,10.06-5.21,10.43,9.31h5.59L336,230.92s-8.56-16.76-28.86-14.9Z"/><path class="cls-26" d="M255.51,264.44l-1.86,73,105,1.86s18.25-4.84,2.61-73"/><path class="cls-26" d="M253.65,259.22V214.53H194.43s-18.62,4.1-22,23.09c0,0-5.59,19-7.82,21.6Z"/><line class="cls-26" x1="49.91" y1="267.59" x2="135.21" y2="268.91"/><path class="cls-26" d="M482.69,328.12h12.66s6,5.59,0,11.17l-14.9-.37"/><path class="cls-26" d="M45.43,313.6H37.64s-6,7.07,0,11.17l8.19,1.49"/><path class="cls-26" d="M97.22,338.84s-7.81-42.38,40.6-49.45c0,0,49.53.74,42.09,55.49"/><path class="cls-26" d="M385,348.57s-17-45,35.87-57.69c0,0,55.18-1.12,46.77,54"/><path class="cls-26" d="M333.74,259.94s6.76,8.5,14.1,0"/><path class="cls-26" d="M147.88,211.92s9.87,8,13.22,8c0,0,4.28,5.59-4.1,14.34L141,262l-19.74-5.78s-2.27,0-1.32-3.81"/><path class="cls-26" d="M164.64,259.22s-7.22,3.4-6,13.74l-.15,11.45s9.09,10.89,15.51,15.08,13.69,23,14.38,30,8.66,6.56,18.3,6.84l46.93,1.07"/><polyline class="cls-26" points="46.39 268.25 43.22 271.33 44.81 308.75"/><path class="cls-26" d="M43.22,272.16l-4.56.47s-1,1.3-.93,11.27,0,11.17,0,11.17,5.36,1.68,6.54.65"/><line class="cls-26" x1="37.73" y1="283.9" x2="43.22" y2="283.9"/><path class="cls-26" d="M40.48,272.44s3.12,19.84.51,23.42"/><polyline class="cls-26" points="66.81 258.44 63.41 258.44 62.4 263.6"/><polyline class="cls-26" points="472.63 263.07 477.73 263.07 477.73 267.51"/><path class="cls-26" d="M489.23,276.59s3.24-.28,3.44,1.67L491,302.49s-3.78,1.27-4.35-1.36"/><path class="cls-26" d="M485.27,310.35l3.38.45a7.61,7.61,0,0,1-.56,7.73h-4"/><path class="cls-27" d="M263.7,270.3s6.84-.28,7.82,0,1.12.84,1.68.84h10.47l1.26,1s.56,2.51-4.05,2.51a43.43,43.43,0,0,1-8.52-.88l-.56,1.58h-8.1S261.05,272.4,263.7,270.3Z"/><path class="cls-27" d="M268.54,270.18s-2.51,3.29,0,5.15"/><path class="cls-27" d="M164.08,267.88h8.75s-.93,1.4,4.28,1.21c0,0,15.55.65,4,2.24h-7.73l-1.4.93h-7.91S160.73,269.28,164.08,267.88Z"/><path class="cls-27" d="M167.06,267.88s-2.24,3.82.56,4.38"/><line class="cls-26" x1="319.57" y1="216.95" x2="319.57" y2="255.52"/></g></g><g id="Layer_24" data-name="Layer 24"><text class="cls-28" transform="translate(459.98 296.65)">L</text></g></svg>