<svg xmlns="http://www.w3.org/2000/svg" viewBox="0 0 400 100"><defs><style>.cls-1{fill:#fff;}</style></defs><g id="Layer_1" data-name="Layer 1"><path class="cls-1" d="M80.6,4.22l-.23,13.09c-.07,4-4.87,7.22-10.73,7.17l-11.7-.09.12-7.2q-3,.91-5.7,2.06c-.59.26-1.19.51-1.77.78a52.47,52.47,0,0,0-7.51,4.16l-.12.08a44.78,44.78,0,0,0-6.25,5c-.4.39-.79.79-1.18,1.2a33.16,33.16,0,0,0-3.15,3.85,29,29,0,0,0-2.91,5.07,27.25,27.25,0,0,0-1.61,4.68c0,.13-.07.26-.09.39a25.14,25.14,0,0,0-.18,10.17c0,.14.05.27.08.41a26.16,26.16,0,0,0,1.44,4.69,29.29,29.29,0,0,0,2.73,5.11,35.55,35.55,0,0,0,3,3.91c.37.41.76.82,1.14,1.22a43.71,43.71,0,0,0,6.07,5.13,1.25,1.25,0,0,1,.12.08,52.14,52.14,0,0,0,7.36,4.28c.58.28,1.16.54,1.75.8a59.71,59.71,0,0,0,5.63,2.16l.12-7.2,6.44,0c8.76.07,15.79,5,15.68,11L79,95.79c-2.52,0-5-.14-7.43-.35s-5-.51-7.43-.91-5-.93-7.41-1.53-5-1.38-7.38-2.21v-.33h-1C46.19,89.64,44,88.74,42,87.77c-1.67-.78-3.29-1.62-4.84-2.5-.87-.49-1.71-1-2.53-1.51a58.66,58.66,0,0,1-5.2-3.65c-.74-.57-1.45-1.16-2.14-1.77a50.11,50.11,0,0,1-5.58-5.62c-.4-.47-.77-.94-1.12-1.42s-.75-1-1-1.44a36.34,36.34,0,0,1-3.06-5.11,33.35,33.35,0,0,1-3.23-10.21A32.19,32.19,0,0,1,14.74,39.3,33.56,33.56,0,0,1,17,34.23a38.08,38.08,0,0,1,3.24-5.07c.14-.21.3-.41.47-.62a44.67,44.67,0,0,1,3.91-4.42,48.73,48.73,0,0,1,3.66-3.31c.71-.59,1.44-1.17,2.2-1.73a59.51,59.51,0,0,1,5.33-3.56q1.26-.77,2.58-1.47c1.58-.86,3.23-1.67,4.93-2.42,2.09-1,4.28-1.8,6.52-2.57q.48-.18,1-.33c2.41-.79,4.91-1.49,7.47-2.09,2.41-.57,4.91-1,7.46-1.41s4.92-.63,7.45-.79S78.09,4.2,80.6,4.22Z"/><path class="cls-1" d="M48.25,38.51A18.17,18.17,0,0,1,58.9,41.6q4.44,3.09,4.44,7.4t-4.47,7.44A18.81,18.81,0,0,1,48,59.5a18.7,18.7,0,0,1-10.85-3.08c-3-2.05-4.49-4.52-4.49-7.42s1.5-5.41,4.52-7.44A19.4,19.4,0,0,1,48.25,38.51ZM48,44.4a7.64,7.64,0,0,0-4.56,1.35,3.74,3.74,0,0,0,0,6.5,8.4,8.4,0,0,0,9.12,0,3.77,3.77,0,0,0,0-6.52A7.58,7.58,0,0,0,48,44.4Z"/><path class="cls-1" d="M68.54,59V46a6.34,6.34,0,0,1,3-5.46,13.78,13.78,0,0,1,8-2.05q5,0,7.57,2a6.76,6.76,0,0,1,2.62,5.73V59H81V46.23c0-1.22-.64-1.83-1.91-1.83a1.62,1.62,0,0,0-1.84,1.83V59Z"/><path class="cls-1" d="M107.65,48.43v5.36h-2.89V59H96.07V46.6a6.9,6.9,0,0,1,3.16-5.8,13.15,13.15,0,0,1,8-2.29A12.92,12.92,0,0,1,116,41.63l-7.13,3.56a2.18,2.18,0,0,0-2.12-1.14c-1.34,0-2,.63-2,1.9v2.48Z"/><path class="cls-1" d="M128.18,39V59h-8.69V39Z"/><path class="cls-1" d="M144.42,44.75V59h-8.69V39h11.33q7.44,0,11.66,2.31,5,2.77,5,7.52,0,4.53-4.28,7.41t-11,2.87c-.53,0-1.4,0-2.59-.06V53.19h1.39c5.06,0,7.6-1.45,7.6-4.35q0-4.1-7.48-4.09Z"/><path class="cls-1" d="M185.11,46.79v4.45h-5.67a4.25,4.25,0,0,0-1.64.23.92.92,0,0,0,0,1.62,6.57,6.57,0,0,0,2,.2h5.84V59h-6.83q-4.82,0-7.36-1.57a5,5,0,0,1-2.55-4.55V45a5,5,0,0,1,2.41-4.45A12.22,12.22,0,0,1,178.11,39h7.56v5.74h-5.54c-1.5,0-2.25.33-2.25,1a.82.82,0,0,0,.53.81,5.55,5.55,0,0,0,1.91.23Z"/><path class="cls-1" d="M191.77,59V46a6.32,6.32,0,0,1,3-5.46,13.78,13.78,0,0,1,8-2.05q4.95,0,7.57,2a6.79,6.79,0,0,1,2.62,5.73V59h-8.69V46.23c0-1.22-.64-1.83-1.91-1.83a1.62,1.62,0,0,0-1.84,1.83V59Z"/><path class="cls-1" d="M232.61,44.75V59h-8.69V44.75h-6.66V39h22v5.74Z"/><path class="cls-1" d="M279.33,45.23V59.85h-8.69v-20H281.8c3.39,0,6,.57,7.9,1.73q3.12,1.94,3.12,4.9c0,2-1.29,3.73-3.87,5.12l5,8.24h-9.12l-4.22-6.44V48.27h.68c1.83,0,2.74-.54,2.74-1.61s-1.05-1.43-3.16-1.43Z"/><path class="cls-1" d="M307.27,39.86v20h-8.69v-20Z"/><path class="cls-1" d="M335.82,39.86,323.08,61,310.43,39.86h10.06l2.68,6.24,2.95-6.24Z"/><path class="cls-1" d="M355,47.64v4.45h-5.67a4.21,4.21,0,0,0-1.64.23.82.82,0,0,0-.48.79.8.8,0,0,0,.49.83,6.54,6.54,0,0,0,2,.2h5.85v5.71h-6.83q-4.81,0-7.37-1.57a5.05,5.05,0,0,1-2.54-4.55V45.89a5,5,0,0,1,2.41-4.45A12.3,12.3,0,0,1,348,39.86h7.56V45.6H350c-1.49,0-2.24.33-2.24,1a.8.8,0,0,0,.53.81,5.51,5.51,0,0,0,1.91.23Z"/><path class="cls-1" d="M371,45.23V59.85h-8.7v-20h11.16c3.39,0,6,.57,7.9,1.73q3.12,1.94,3.12,4.9c0,2-1.29,3.73-3.87,5.12l5,8.24h-9.12l-4.22-6.44V48.27h.69c1.82,0,2.74-.54,2.74-1.61s-1.06-1.43-3.17-1.43Z"/></g><g id="Layer_2" data-name="Layer 2"><path class="cls-1" d="M291.21,63.25c-.46.79-.95,1.58-1.49,2.34a36.23,36.23,0,0,1-3.15,3.84c-.39.41-.78.81-1.19,1.21a44.78,44.78,0,0,1-6.25,5l-.11.08A51.85,51.85,0,0,1,273.31,79c-1.15.57-2.34,1.14-3.58,1.65l-.06,0c-2.46,1-5.61-.25-5.57-2.22l1-56.74c0-2,3.22-3.19,5.64-2.13l.06,0c1.23.53,2.41,1.12,3.55,1.71a51.84,51.84,0,0,1,5.57,3.38l.1.07a43.8,43.8,0,0,1,6.08,5.13c.39.41.77.82,1.14,1.24a31.94,31.94,0,0,1,3,3.89c.45.67.85,1.36,1.23,2h15c-.27-.65-.55-1.29-.87-1.93a37.73,37.73,0,0,0-3.06-5.11c-.15-.22-.3-.44-.46-.65A44.62,44.62,0,0,0,298.38,25c-1.1-1.16-2.3-2.29-3.55-3.38-.69-.59-1.4-1.18-2.13-1.75a59.47,59.47,0,0,0-5.21-3.65c-.81-.51-1.65-1-2.52-1.51-1.55-.88-3.17-1.72-4.84-2.5-2.06-1-4.22-1.87-6.45-2.68-.3-.11-.62-.23-.94-.33-2.38-.84-4.86-1.58-7.4-2.21s-4.88-1.13-7.41-1.54l-7.4-1.2-.18,10.13c.2,0,.39,0,.58.06h-.58l-1.24,71.22h.58l-.58,0-.18,10.13,7.45-1.08q3.81-.55,7.46-1.41c2.56-.6,5.06-1.29,7.47-2.1l.95-.31c2.26-.78,4.45-1.64,6.54-2.58,1.7-.75,3.35-1.56,4.93-2.42q1.32-.7,2.58-1.47a57.94,57.94,0,0,0,5.32-3.56c.76-.55,1.49-1.13,2.19-1.71a47.21,47.21,0,0,0,3.67-3.33,45.94,45.94,0,0,0,3.91-4.4v-.65h.47a39.31,39.31,0,0,0,3.24-5.06c.44-.82.84-1.64,1.21-2.47Z"/></g></svg>