<svg id="Layer_1" data-name="Layer 1" xmlns="http://www.w3.org/2000/svg" xmlns:xlink="http://www.w3.org/1999/xlink" viewBox="0 0 16 16"><defs><style>.cls-1{fill:url(#radial-gradient);}.cls-2{fill:#1f2146;}</style><radialGradient id="radial-gradient" cx="8" cy="8" r="7.87" gradientUnits="userSpaceOnUse"><stop offset="0" stop-color="#f4e711"/><stop offset="1" stop-color="#f7c000"/></radialGradient></defs><circle class="cls-1" cx="8" cy="8" r="7.87"/><path class="cls-2" d="M15,7.41c0-.22-.06-.43-.1-.65s-.11-.43-.18-.65-.17-.44-.27-.65c0,0,0,0,0-.08A5.3,5.3,0,0,0,14,4.81a4.25,4.25,0,0,0-.31-.43l-.18-.22a5.1,5.1,0,0,0-.46-.47l-.22-.19a4.63,4.63,0,0,0-.42-.32,6.42,6.42,0,0,0-.56-.34l-.08,0c-.21-.11-.43-.2-.65-.29s-.42-.14-.64-.19l-.65-.15V3.46h0l-.11,9.08h0l0,1.29.65-.14c.22,0,.44-.11.65-.18a6.32,6.32,0,0,0,.65-.27l.09,0,.57-.33a4.25,4.25,0,0,0,.43-.31l.22-.18c.16-.14.32-.3.47-.46s.13-.14.19-.22a4.63,4.63,0,0,0,.32-.42c.12-.18.23-.37.34-.56v-.08h0a5.3,5.3,0,0,0,.28-.65c.08-.21.14-.42.2-.64a4.64,4.64,0,0,0,.11-.65c0-.21,0-.43.05-.65S15,7.63,15,7.41ZM13.68,8.7a.43.43,0,0,0,0,.05,3.9,3.9,0,0,1-.14.59,5.12,5.12,0,0,1-.25.65,3.43,3.43,0,0,1-.28.49l-.1.15a4.16,4.16,0,0,1-.54.64h0a4.72,4.72,0,0,1-.48.41l-.33.22h0a.32.32,0,0,1-.49-.28l.09-7.23a.32.32,0,0,1,.49-.27h0l.33.24a3.55,3.55,0,0,1,.46.41h0a4.07,4.07,0,0,1,.53.65l.1.16a3.4,3.4,0,0,1,.26.5,3.91,3.91,0,0,1,.24.65,3.75,3.75,0,0,1,.13.6V7.4a4.64,4.64,0,0,1,0,.65A4.74,4.74,0,0,1,13.68,8.7Z"/><path class="cls-2" d="M6.93,2.17l0,1.67A.93.93,0,0,1,6,4.75H5V3.82a4.74,4.74,0,0,0-.5.26l-.15.1a5.67,5.67,0,0,0-.66.53h0a4.69,4.69,0,0,0-.54.64.86.86,0,0,0-.1.16A3,3,0,0,0,2.72,6a4.47,4.47,0,0,0-.25.64,4.34,4.34,0,0,0-.14.6v0a4.62,4.62,0,0,0,0,.65,4.5,4.5,0,0,0,0,.64.13.13,0,0,1,0,.06,3.87,3.87,0,0,0,.13.59,4.67,4.67,0,0,0,.23.66,4.67,4.67,0,0,0,.27.49.86.86,0,0,0,.1.16,4.07,4.07,0,0,0,.53.65h0a4.22,4.22,0,0,0,.64.55l.15.1.49.28v-.92h.56a1.37,1.37,0,0,1,1.37,1.4v1.21c-.22,0-.44,0-.65-.05a3.55,3.55,0,0,1-.65-.12,4.32,4.32,0,0,1-.64-.19,6.36,6.36,0,0,1-.65-.28v0H4.12a4.65,4.65,0,0,1-.56-.34,3.32,3.32,0,0,1-.42-.32l-.22-.19a5,5,0,0,1-.46-.46l-.19-.23a4.91,4.91,0,0,1-.48-.71,1.14,1.14,0,0,1-.1-.19c0-.07-.07-.12-.09-.18s-.19-.43-.27-.65-.13-.43-.18-.65-.08-.43-.1-.65,0-.43,0-.65,0-.43.05-.65a4.5,4.5,0,0,1,.11-.64c.06-.22.12-.44.2-.65a4.59,4.59,0,0,1,.28-.64l0-.08c.11-.2.22-.39.34-.57l.32-.42.19-.22c.15-.16.31-.31.47-.45l.22-.19.43-.31q.29-.18.57-.33l.09,0A4.64,4.64,0,0,1,5,2.48a3.69,3.69,0,0,1,.65-.18c.21,0,.43-.08.65-.11A4.66,4.66,0,0,1,6.93,2.17Z"/></svg>