<svg xmlns="http://www.w3.org/2000/svg" viewBox="0 0 250 100"><defs><style>.cls-1{fill:#fff;}</style></defs><g id="Layer_1" data-name="Layer 1"><path class="cls-1" d="M49.21,1l-.16,14a7.68,7.68,0,0,1-7.69,7.67L33,22.52l.09-7.69A36.45,36.45,0,0,0,29,17c-.43.27-.85.54-1.27.83a36.27,36.27,0,0,0-5.38,4.44.34.34,0,0,1-.09.08,38.56,38.56,0,0,0-4.47,5.38c-.29.42-.57.85-.85,1.28a39,39,0,0,0-2.25,4.12,36.41,36.41,0,0,0-2.08,5.41,38,38,0,0,0-1.16,5c0,.13,0,.28-.07.42a40.32,40.32,0,0,0-.43,5.43,39.25,39.25,0,0,0,.31,5.44c0,.14,0,.28.05.43a41.73,41.73,0,0,0,1,5,38.92,38.92,0,0,0,2,5.46A37.43,37.43,0,0,0,16.46,70c.26.44.54.88.81,1.3a39.31,39.31,0,0,0,4.35,5.49.34.34,0,0,1,.08.09A38.31,38.31,0,0,0,27,81.41l1.25.86a35.54,35.54,0,0,0,4,2.3l.09-7.69,4.61.05A11.5,11.5,0,0,1,48.19,88.68l-.12,10.14a46.89,46.89,0,0,1-10.64-1.34,44.62,44.62,0,0,1-5.3-1.64,46.52,46.52,0,0,1-5.29-2.36v-.35h-.68a49.28,49.28,0,0,1-4.61-2.86q-1.8-1.26-3.47-2.68c-.62-.51-1.22-1.06-1.81-1.61a45.57,45.57,0,0,1-3.72-3.89c-.54-.61-1.05-1.25-1.54-1.9a48.93,48.93,0,0,1-4-6c-.29-.5-.56-1-.81-1.52s-.54-1-.75-1.53a47.1,47.1,0,0,1-2.19-5.46A49.93,49.93,0,0,1,1.78,60.2a51.17,51.17,0,0,1-1-10.88,48.88,48.88,0,0,1,.36-5.44,46.16,46.16,0,0,1,1-5.42A44.53,44.53,0,0,1,3.65,33,45.62,45.62,0,0,1,6,27.63,6,6,0,0,1,6.31,27a47.79,47.79,0,0,1,2.8-4.73c.82-1.21,1.68-2.39,2.62-3.53.51-.63,1-1.26,1.58-1.85A45.66,45.66,0,0,1,17.12,13c.6-.54,1.21-1.06,1.85-1.56A42.63,42.63,0,0,1,22.5,8.89a44.64,44.64,0,0,1,4.67-2.75l.69-.35a47,47,0,0,1,16-4.59A47.11,47.11,0,0,1,49.21,1Z"/><path class="cls-1" d="M24.32,37.61A10.19,10.19,0,0,1,32,40.92a11.44,11.44,0,0,1,0,15.85,10.49,10.49,0,0,1-7.79,3.28,10.51,10.51,0,0,1-7.78-3.29,11,11,0,0,1-3.22-7.94A11.11,11.11,0,0,1,24.32,37.61Zm-.18,6.3a4.32,4.32,0,0,0-3.27,1.44,5.13,5.13,0,0,0,0,6.95,4.42,4.42,0,0,0,6.53,0,5.19,5.19,0,0,0,0-7A4.29,4.29,0,0,0,24.14,43.91Z"/><path class="cls-1" d="M37.63,59.51V45.64a8,8,0,0,1,2.14-5.83,7.55,7.55,0,0,1,5.69-2.2,6.84,6.84,0,0,1,5.42,2.13,8.93,8.93,0,0,1,1.88,6.12V59.51H46.54V45.86c0-1.3-.46-2-1.37-2s-1.32.65-1.32,2V59.51Z"/><path class="cls-1" d="M64.41,48.21v5.73H62.34v5.57H56.12V46.26a8.79,8.79,0,0,1,2.26-6.2,7.44,7.44,0,0,1,5.7-2.45A7.71,7.71,0,0,1,70.41,41l-5.11,3.8a1.55,1.55,0,0,0-1.52-1.22q-1.44,0-1.44,2v2.64Z"/><path class="cls-1" d="M77.89,38.15V59.51H71.67V38.15Z"/><path class="cls-1" d="M88.3,44.28V59.51H82.08V38.15h8.11c3.55,0,6.34.82,8.35,2.47a9.86,9.86,0,0,1,3.59,8,10.52,10.52,0,0,1-11,11q-.57,0-1.86-.06V53.3h1q5.44,0,5.44-4.65,0-4.36-5.35-4.37Z"/><path class="cls-1" d="M116.22,46.46v4.76h-4.06a2,2,0,0,0-1.18.25,1,1,0,0,0-.34.84,1,1,0,0,0,.35.89,3.25,3.25,0,0,0,1.44.21h4.19v6.1h-4.89a7.54,7.54,0,0,1-5.28-1.68A6.3,6.3,0,0,1,104.63,53V44.6a6.34,6.34,0,0,1,1.72-4.76,6.64,6.64,0,0,1,4.86-1.69h5.41v6.13h-4c-1.08,0-1.61.36-1.61,1.07a1,1,0,0,0,.38.87,2.78,2.78,0,0,0,1.37.24Z"/><path class="cls-1" d="M119.76,59.51V45.64a8,8,0,0,1,2.14-5.83,7.57,7.57,0,0,1,5.7-2.2A6.82,6.82,0,0,1,133,39.74a8.93,8.93,0,0,1,1.88,6.12V59.51h-6.22V45.86c0-1.3-.46-2-1.37-2s-1.31.65-1.31,2V59.51Z"/><path class="cls-1" d="M147.79,44.28V59.51h-6.23V44.28h-4.77V38.15h15.75v6.13Z"/><path class="cls-1" d="M177.52,44.8V60.42H171.3V39.06h8a8,8,0,0,1,5.65,1.84,6.82,6.82,0,0,1,2.24,5.25,6.75,6.75,0,0,1-2.77,5.46L188,60.42h-6.53l-3-6.88V48h.49c1.31,0,2-.57,2-1.72s-.76-1.52-2.27-1.52Z"/><path class="cls-1" d="M196.3,39.06V60.42h-6.22V39.06Z"/><path class="cls-1" d="M215.53,39.06l-9.12,22.58-9.06-22.58h7.2l1.92,6.66,2.11-6.66Z"/><path class="cls-1" d="M228.06,47.37v4.76H224a2,2,0,0,0-1.17.25,1,1,0,0,0-.34.84c0,.45.11.75.35.89a3.19,3.19,0,0,0,1.44.21h4.18v6.1h-4.89a7.51,7.51,0,0,1-5.27-1.68,6.26,6.26,0,0,1-1.82-4.86V45.51a6.34,6.34,0,0,1,1.72-4.76A6.63,6.63,0,0,1,223,39.06h5.41v6.13h-4c-1.07,0-1.61.36-1.61,1.07a1,1,0,0,0,.39.87,2.73,2.73,0,0,0,1.36.24Z"/><path class="cls-1" d="M238.25,44.8V60.42H232V39.06h8a8.05,8.05,0,0,1,5.66,1.84,6.85,6.85,0,0,1,2.24,5.25,6.75,6.75,0,0,1-2.77,5.46l3.58,8.81h-6.53l-3-6.88V48h.49c1.31,0,2-.57,2-1.72s-.75-1.52-2.26-1.52Z"/></g><g id="Layer_2" data-name="Layer 2"><path class="cls-1" d="M186.45,64.05c-.33.85-.69,1.69-1.08,2.5a36.14,36.14,0,0,1-2.25,4.1c-.28.45-.56.88-.85,1.3a39.34,39.34,0,0,1-4.48,5.38l-.08.08a37,37,0,0,1-4.09,3.52c-.82.61-1.67,1.22-2.56,1.76l0,0a2.64,2.64,0,0,1-4-2.37l.7-60.64a2.65,2.65,0,0,1,4.05-2.27l0,0c.88.56,1.73,1.2,2.54,1.83a36.83,36.83,0,0,1,4,3.61l.07.08a37.27,37.27,0,0,1,4.35,5.48c.29.43.56.87.83,1.32a37,37,0,0,1,2.15,4.15c.32.72.6,1.46.88,2.2h10.78c-.2-.69-.4-1.38-.62-2.06a47.31,47.31,0,0,0-2.2-5.47c-.1-.23-.21-.47-.33-.69a48.25,48.25,0,0,0-2.68-4.77c-.79-1.25-1.65-2.46-2.55-3.62-.49-.63-1-1.26-1.52-1.87a47.35,47.35,0,0,0-3.73-3.9c-.58-.55-1.19-1.09-1.8-1.61-1.12-.94-2.27-1.84-3.47-2.67a45.64,45.64,0,0,0-4.62-2.87l-.67-.35a47,47,0,0,0-10.61-4L157.31,1l-.13,10.82.41.07h-.41L156.29,88h.42l-.42.06-.12,10.82,5.33-1.15a45.94,45.94,0,0,0,5.34-1.52,43.43,43.43,0,0,0,5.35-2.24c.23-.11.46-.21.68-.33a47.56,47.56,0,0,0,4.69-2.75c1.22-.81,2.39-1.67,3.53-2.59.63-.5,1.24-1,1.84-1.57a47.23,47.23,0,0,0,3.82-3.8c.54-.6,1.06-1.21,1.57-1.84a43.29,43.29,0,0,0,2.62-3.55,48.13,48.13,0,0,0,2.8-4.7v-.7h.34a48.91,48.91,0,0,0,2.32-5.41c.31-.87.6-1.75.86-2.64Z"/></g></svg>