<svg id="Layer_1" data-name="Layer 1" xmlns="http://www.w3.org/2000/svg" viewBox="0 0 16 16"><defs><style>.cls-1{fill:#fff;}.cls-2{font-size:30px;fill:#020202;font-family:Bauhaus93, "Bauhaus 93";letter-spacing:-0.07em;}</style></defs><path class="cls-1" d="M15.64,7.74a5.5,5.5,0,0,0-.11-.69,5.27,5.27,0,0,0-.19-.68,5.24,5.24,0,0,0-.28-.69l0-.09a4.48,4.48,0,0,0-.35-.6c-.1-.16-.21-.31-.32-.46l-.2-.24c-.15-.17-.31-.33-.48-.49l-.23-.2L13,3.26c-.19-.13-.39-.25-.59-.36l-.09,0a4.54,4.54,0,0,0-.68-.3c-.23-.08-.45-.15-.69-.21l-.68-.16,0,1.36h0l-.11,9.6h0l0,1.36.69-.14a5.91,5.91,0,0,0,.69-.19c.23-.08.46-.18.69-.28l.08-.05c.21-.1.41-.22.61-.34a4.71,4.71,0,0,0,.45-.33l.24-.2a5.55,5.55,0,0,0,.49-.48,2.2,2.2,0,0,0,.2-.23,3.79,3.79,0,0,0,.34-.45,5.8,5.8,0,0,0,.36-.59v-.09H15c.11-.22.21-.45.3-.68a5.31,5.31,0,0,0,.2-.68,5.25,5.25,0,0,0,.13-.69c0-.22,0-.45,0-.68S15.66,8,15.64,7.74ZM14.3,9.1s0,0,0,.05a4.14,4.14,0,0,1-.15.63,4,4,0,0,1-.27.68,3.29,3.29,0,0,1-.29.52.91.91,0,0,1-.11.16,4.19,4.19,0,0,1-.57.68h0a5.72,5.72,0,0,1-.53.45L12,12.5a4.44,4.44,0,0,1-.53.28L11.61,4a3.81,3.81,0,0,1,.52.29l.33.23A4.41,4.41,0,0,1,13,5h0a4.69,4.69,0,0,1,.56.69s.07.11.11.17a4.25,4.25,0,0,1,.27.52,4,4,0,0,1,.25.69,4.42,4.42,0,0,1,.14.63v.06c0,.22,0,.45,0,.68S14.33,8.87,14.3,9.1Z"/><path class="cls-1" d="M7.15,2.19,7.13,4a1,1,0,0,1-1,1H5.06v-1a3.74,3.74,0,0,0-.52.28l-.16.1a5.37,5.37,0,0,0-.7.56h0a6.3,6.3,0,0,0-.58.68L3,5.73a3.81,3.81,0,0,0-.29.52,4.12,4.12,0,0,0-.27.69,3.22,3.22,0,0,0-.15.63v0c0,.22,0,.45-.06.68a5.12,5.12,0,0,0,0,.69.11.11,0,0,1,0,0c0,.22.08.43.13.64a4.08,4.08,0,0,0,.26.69,5.12,5.12,0,0,0,.27.52l.11.17a4.69,4.69,0,0,0,.56.69h0a5.35,5.35,0,0,0,.68.58l.16.11c.17.1.34.2.52.29v-1h.6A1.47,1.47,0,0,1,7,13.25v1.28a5.22,5.22,0,0,1-.69,0,5.1,5.1,0,0,1-.68-.13,5,5,0,0,1-.69-.2c-.23-.09-.46-.19-.68-.3v0H4.18a5.17,5.17,0,0,1-.59-.36q-.22-.15-.45-.33l-.23-.21a5.55,5.55,0,0,1-.48-.49l-.2-.24a5.6,5.6,0,0,1-.51-.76,1.14,1.14,0,0,1-.1-.19L1.52,11a5.24,5.24,0,0,1-.28-.69A7,7,0,0,1,1,9.66C1,9.44,1,9.21.94,9s0-.45,0-.68,0-.46,0-.69a5.1,5.1,0,0,1,.13-.68,5.31,5.31,0,0,1,.2-.68,7.17,7.17,0,0,1,.3-.69l0-.08A6,6,0,0,1,2,4.87a4.7,4.7,0,0,1,.34-.44l.2-.24A5.55,5.55,0,0,1,3,3.71l.24-.19a4.71,4.71,0,0,1,.45-.33c.2-.13.4-.24.6-.35l.09,0a6.65,6.65,0,0,1,.69-.28,5.41,5.41,0,0,1,.69-.19,5,5,0,0,1,.69-.11C6.69,2.2,6.92,2.19,7.15,2.19Z"/><text class="cls-2" transform="translate(-81.61 29.52)">RIVER</text></svg>