<svg xmlns="http://www.w3.org/2000/svg" viewBox="0 0 301.02 450.38"><defs><style>.cls-1{fill:#f9f6ed;stroke:#1d1d1b;stroke-miterlimit:10;}.cls-2{fill:#3caee4;}.cls-3{fill:#010101;}.cls-4{opacity:0.09;}.cls-5{fill:#fff;}.cls-6{fill:#adacac;}</style></defs><g id="Layer_1" data-name="Layer 1"><rect class="cls-1" x="3.86" y="6" width="290.4" height="438.42" rx="25.14"/></g><g id="Layer_2" data-name="Layer 2"><rect class="cls-2" x="14.03" y="33.68" width="266.67" height="156.5"/></g><g id="Layer_4" data-name="Layer 4"><path class="cls-3" d="M121.65,272.46c-4,28.65-29.38,46.06-67.45,47.87,24.29,21.76,50.76,50,76.87,78.33H95.54C72.33,374.72,49.12,349,20.11,322.51V300H38.24c31.91,0,49-10.87,51.86-27.56h-70V255.78H89c-5.08-13.41-20.67-21.39-46.42-21.39H20.11V211.54h136v16.69h-50c8,6.52,13.42,15.59,15.23,27.55h35.18v16.68Z"/><g class="cls-4"><path class="cls-3" d="M27.43,45.11c.81,2.41-.51,4.76-3.43,6.39,2.76.76,5.94,2,9.09,3.15L30.3,56c-2.76-1-5.58-2.1-8.89-3l-.87-1.76L22,50.52c2.5-1.24,3.42-2.76,3-4.18l-5.5,2.73-.65-1.31,5.41-2.69c-.92-.85-2.45-.87-4.47.13L18,46.08l-.89-1.8L27.77,39l.65,1.31-3.93,2a3.73,3.73,0,0,1,2.27,1.57l2.76-1.37.65,1.31Z"/></g><g class="cls-4"><path class="cls-3" d="M270.6,175.07c.8,2.41-.52,4.76-3.43,6.39,2.75.76,5.93,1.95,9.08,3.15L273.46,186c-2.75-1-5.58-2.1-8.89-3l-.87-1.77,1.42-.71c2.51-1.24,3.42-2.76,3-4.18L262.63,179l-.65-1.31,5.41-2.69c-.93-.85-2.46-.87-4.48.13l-1.77.88-.89-1.8L270.93,169l.65,1.31-3.93,2a3.73,3.73,0,0,1,2.27,1.57l2.76-1.37.65,1.31Z"/></g><g class="cls-4"><path class="cls-3" d="M252,175.07c.8,2.41-.52,4.76-3.43,6.39,2.75.76,5.93,1.95,9.08,3.15L254.83,186c-2.75-1-5.58-2.1-8.89-3l-.87-1.77,1.42-.71c2.51-1.24,3.42-2.76,3-4.18L244,179l-.65-1.31,5.41-2.69c-.93-.85-2.46-.87-4.48.13l-1.77.88-.89-1.8L252.3,169l.65,1.31-3.93,2a3.73,3.73,0,0,1,2.27,1.57l2.76-1.37.65,1.31Z"/></g><g class="cls-4"><path class="cls-3" d="M246.6,149.5c.81,2.41-.51,4.76-3.43,6.39,2.76.76,5.94,2,9.09,3.15l-2.79,1.39c-2.76-1-5.58-2.1-8.89-3.05l-.87-1.76,1.42-.71c2.5-1.24,3.42-2.76,3-4.18l-5.5,2.73-.65-1.31,5.41-2.69c-.92-.85-2.45-.87-4.47.13l-1.77.88-.89-1.8,10.68-5.29.65,1.31-3.93,1.95a3.73,3.73,0,0,1,2.27,1.57l2.76-1.37.65,1.31Z"/></g><g class="cls-4"><path class="cls-3" d="M267.58,152.93c.8,2.41-.52,4.76-3.43,6.39,2.75.76,5.93,2,9.08,3.15l-2.79,1.39c-2.75-1-5.58-2.1-8.89-3.05l-.87-1.76,1.42-.71c2.51-1.24,3.42-2.76,3-4.18l-5.49,2.73-.65-1.31,5.41-2.69c-.93-.85-2.46-.87-4.48.13l-1.77.88-.89-1.8,10.68-5.29.65,1.31-3.93,1.95a3.73,3.73,0,0,1,2.27,1.57l2.76-1.37.65,1.31Z"/></g><g class="cls-4"><path class="cls-3" d="M270.6,132.64c.8,2.4-.52,4.75-3.43,6.38,2.75.76,5.93,1.95,9.08,3.16l-2.79,1.38c-2.75-1-5.58-2.09-8.89-3l-.87-1.77,1.42-.7c2.51-1.25,3.42-2.76,3-4.19l-5.49,2.73-.65-1.31,5.41-2.68c-.93-.86-2.46-.88-4.48.12l-1.77.88-.89-1.79,10.68-5.3.65,1.31-3.93,2a3.73,3.73,0,0,1,2.27,1.57l2.76-1.37.65,1.31Z"/></g><g class="cls-4"><path class="cls-3" d="M229.8,161.46c.81,2.4-.51,4.75-3.43,6.38,2.76.76,5.94,1.95,9.09,3.16l-2.79,1.38c-2.76-1-5.58-2.09-8.89-3l-.87-1.77,1.42-.7c2.5-1.25,3.42-2.76,3-4.19l-5.5,2.73-.65-1.31,5.41-2.68c-.92-.86-2.45-.88-4.48.12l-1.76.88-.89-1.79,10.68-5.3.65,1.31-3.93,2a3.73,3.73,0,0,1,2.27,1.57l2.76-1.37.65,1.31Z"/></g><g class="cls-4"><path class="cls-3" d="M217.7,175.07c.81,2.41-.51,4.76-3.43,6.39,2.76.76,5.94,1.95,9.09,3.15L220.57,186c-2.76-1-5.58-2.1-8.89-3l-.87-1.77,1.42-.71c2.5-1.24,3.42-2.76,3-4.18l-5.5,2.73-.65-1.31,5.41-2.69c-.92-.85-2.45-.87-4.47.13l-1.77.88-.89-1.8L218,169l.65,1.31-3.93,2a3.73,3.73,0,0,1,2.27,1.57l2.76-1.37.65,1.31Z"/></g><g class="cls-4"><path class="cls-3" d="M204.16,174.15c.8,2.41-.51,4.76-3.43,6.38,2.75.77,5.93,2,9.08,3.16L207,185.07c-2.75-1-5.57-2.09-8.88-3l-.88-1.76,1.43-.71c2.5-1.24,3.42-2.76,3-4.18l-5.49,2.72-.65-1.31,5.41-2.68c-.92-.85-2.46-.87-4.48.13l-1.76.87-.89-1.79L204.49,168l.65,1.31-3.93,1.95a3.68,3.68,0,0,1,2.27,1.57l2.76-1.37.65,1.31Z"/></g><g class="cls-4"><path class="cls-3" d="M185.53,174.15c.8,2.41-.51,4.76-3.43,6.38,2.75.77,5.93,2,9.08,3.16l-2.79,1.38c-2.75-1-5.57-2.09-8.88-3l-.88-1.76,1.43-.71c2.5-1.24,3.42-2.76,3-4.18l-5.49,2.72-.65-1.31,5.41-2.68c-.92-.85-2.46-.87-4.48.13l-1.76.87-.89-1.79L185.86,168l.65,1.31-3.93,1.95a3.73,3.73,0,0,1,2.27,1.57l2.76-1.37.65,1.31Z"/></g><g class="cls-4"><path class="cls-3" d="M180.17,148.58c.8,2.41-.52,4.76-3.43,6.38,2.75.77,5.93,2,9.08,3.16L183,159.5c-2.75-1-5.58-2.09-8.88-3l-.88-1.76,1.42-.71c2.51-1.24,3.42-2.76,3-4.18l-5.49,2.72-.65-1.31,5.41-2.68c-.92-.85-2.46-.87-4.48.13l-1.77.87-.88-1.79,10.67-5.29.65,1.31-3.93,1.95a3.73,3.73,0,0,1,2.27,1.57l2.76-1.37.65,1.31Z"/></g><g class="cls-4"><path class="cls-3" d="M201.14,152c.8,2.4-.51,4.76-3.43,6.38,2.75.77,5.93,2,9.08,3.16L204,162.93c-2.75-1-5.57-2.09-8.88-3l-.88-1.76,1.43-.71c2.5-1.24,3.42-2.76,3-4.18L193.17,156l-.65-1.31,5.41-2.68c-.92-.85-2.46-.87-4.48.13l-1.76.87-.89-1.79,10.67-5.29.65,1.31-3.93,1.94a3.81,3.81,0,0,1,2.27,1.57l2.76-1.37.65,1.31Z"/></g><g class="cls-4"><path class="cls-3" d="M204.16,131.71c.8,2.41-.51,4.76-3.43,6.39,2.75.76,5.93,2,9.08,3.15L207,142.64c-2.75-1-5.57-2.1-8.88-3l-.88-1.76,1.43-.71c2.5-1.24,3.42-2.76,3-4.18l-5.49,2.73-.65-1.31,5.41-2.69c-.92-.85-2.46-.87-4.48.13l-1.76.88-.89-1.8,10.67-5.29.65,1.31-3.93,1.95a3.68,3.68,0,0,1,2.27,1.57l2.76-1.37.65,1.31Z"/></g><g class="cls-4"><path class="cls-3" d="M163.37,160.53c.8,2.41-.52,4.76-3.43,6.39,2.75.76,5.93,2,9.08,3.15l-2.79,1.39c-2.75-1-5.58-2.1-8.89-3.05l-.87-1.76,1.42-.71c2.51-1.24,3.42-2.76,3-4.18l-5.49,2.73-.65-1.31,5.41-2.69c-.93-.85-2.46-.87-4.48.13l-1.77.88-.89-1.8,10.68-5.29.65,1.31-3.93,1.95a3.73,3.73,0,0,1,2.27,1.57l2.76-1.37.65,1.31Z"/></g><g class="cls-4"><path class="cls-3" d="M151.27,174.15c.8,2.41-.51,4.76-3.43,6.38,2.75.77,5.93,2,9.08,3.16l-2.79,1.38c-2.75-1-5.58-2.09-8.88-3l-.88-1.76,1.42-.71c2.51-1.24,3.42-2.76,3-4.18l-5.49,2.72-.65-1.31,5.41-2.68c-.92-.85-2.46-.87-4.48.13l-1.76.87-.89-1.79L151.6,168l.65,1.31-3.93,1.95a3.73,3.73,0,0,1,2.27,1.57l2.76-1.37.65,1.31Z"/></g><g class="cls-4"><path class="cls-3" d="M43.43,45.11c.8,2.41-.51,4.76-3.43,6.39,2.75.76,5.93,2,9.08,3.15L46.29,56c-2.75-1-5.57-2.1-8.88-3l-.88-1.76L38,50.52c2.5-1.24,3.41-2.76,3-4.18l-5.49,2.73-.65-1.31,5.41-2.69c-.92-.85-2.46-.87-4.48.13L34,46.08l-.89-1.8L43.76,39l.65,1.31-3.93,2a3.73,3.73,0,0,1,2.27,1.57l2.76-1.37.65,1.31Z"/></g><g class="cls-4"><path class="cls-3" d="M30.45,64.57C31.26,67,29.94,69.33,27,71c2.76.76,5.94,2,9.09,3.16l-2.79,1.38c-2.76-1-5.58-2.09-8.89-3l-.87-1.77L25,70c2.5-1.24,3.42-2.76,3-4.18l-5.5,2.72-.65-1.31,5.41-2.68c-.92-.86-2.45-.88-4.47.13L21,65.53l-.89-1.79,10.68-5.3.65,1.31-3.93,2a3.73,3.73,0,0,1,2.27,1.57l2.76-1.37.65,1.31Z"/></g><g class="cls-4"><path class="cls-3" d="M27.43,81.61C28.24,84,26.92,86.37,24,88c2.76.76,5.94,2,9.09,3.15L30.3,92.54c-2.76-1-5.58-2.1-8.89-3l-.87-1.77L22,87c2.5-1.25,3.42-2.76,3-4.19l-5.5,2.73-.65-1.31,5.41-2.68c-.92-.86-2.45-.88-4.47.12L18,82.58l-.89-1.79,10.68-5.3.65,1.31-3.93,2a3.73,3.73,0,0,1,2.27,1.57L29.52,79l.65,1.31Z"/></g><g class="cls-4"><path class="cls-3" d="M47.53,67.39c.8,2.41-.51,4.76-3.43,6.39,2.75.76,5.93,2,9.08,3.15l-2.79,1.39c-2.75-1-5.57-2.1-8.88-3l-.88-1.77,1.43-.7c2.5-1.25,3.42-2.76,3-4.19l-5.49,2.73L38.91,70l5.41-2.68c-.92-.86-2.46-.88-4.48.12l-1.76.88-.89-1.79,10.67-5.3.65,1.31-3.93,2a3.73,3.73,0,0,1,2.27,1.57l2.76-1.37L50.26,66Z"/></g><g class="cls-4"><path class="cls-3" d="M67,62.16c.8,2.4-.51,4.76-3.43,6.38,2.75.77,5.93,2,9.08,3.16l-2.79,1.38c-2.75-1-5.57-2.09-8.88-3l-.88-1.76,1.43-.71c2.5-1.24,3.42-2.76,3-4.18L59,66.11l-.65-1.31,5.41-2.68c-.92-.85-2.46-.87-4.48.13l-1.76.87-.89-1.79L67.29,56l.65,1.31L64,59.29a3.76,3.76,0,0,1,2.27,1.57L69,59.5l.65,1.3Z"/></g><g class="cls-4"><path class="cls-3" d="M63.53,45.11c.8,2.41-.52,4.76-3.43,6.39,2.75.76,5.93,2,9.08,3.15L66.39,56c-2.75-1-5.58-2.1-8.89-3l-.87-1.76,1.42-.71c2.51-1.24,3.42-2.76,3-4.18l-5.49,2.73-.65-1.31,5.4-2.69c-.92-.85-2.45-.87-4.47.13l-1.77.88-.89-1.8L63.86,39l.65,1.31-3.93,2a3.73,3.73,0,0,1,2.27,1.57l2.76-1.37.65,1.31Z"/></g><g class="cls-4"><path class="cls-3" d="M79.52,43.91c.8,2.4-.51,4.76-3.43,6.38,2.76.76,5.93,2,9.09,3.16l-2.79,1.38c-2.76-1-5.58-2.09-8.89-3L72.62,50l1.43-.71c2.5-1.24,3.42-2.76,3-4.18l-5.5,2.72-.65-1.31,5.41-2.68c-.92-.86-2.45-.87-4.48.13l-1.76.87-.89-1.79,10.67-5.29.65,1.31L76.58,41a3.76,3.76,0,0,1,2.26,1.57l2.77-1.37.64,1.31Z"/></g><g class="cls-4"><path class="cls-3" d="M95.52,43.91c.8,2.4-.52,4.76-3.43,6.38,2.75.76,5.93,2,9.08,3.16l-2.79,1.38c-2.75-1-5.58-2.09-8.88-3L88.62,50,90,49.32c2.51-1.24,3.42-2.76,3-4.18l-5.49,2.72-.65-1.31,5.41-2.68c-.92-.86-2.46-.87-4.48.13l-1.77.87-.88-1.79,10.67-5.29.65,1.31L92.57,41a3.81,3.81,0,0,1,2.27,1.57l2.76-1.37.65,1.31Z"/></g><g class="cls-4"><path class="cls-3" d="M82.54,63.36c.8,2.41-.51,4.76-3.43,6.39,2.76.76,5.93,2,9.09,3.15l-2.79,1.39c-2.76-1-5.58-2.1-8.89-3l-.88-1.77,1.43-.71c2.5-1.24,3.42-2.76,3-4.18l-5.5,2.73L73.92,66l5.41-2.68c-.92-.86-2.45-.88-4.48.12l-1.76.88-.89-1.8,10.68-5.29.64,1.31-3.92,2a3.68,3.68,0,0,1,2.26,1.57l2.77-1.37L85.28,62Z"/></g><g class="cls-4"><path class="cls-3" d="M79.52,80.41c.8,2.4-.51,4.76-3.43,6.38,2.76.77,5.93,2,9.09,3.16l-2.79,1.38c-2.76-1-5.58-2.09-8.89-3l-.88-1.76,1.43-.71c2.5-1.24,3.42-2.76,3-4.18l-5.5,2.72-.65-1.31,5.41-2.68c-.92-.85-2.45-.87-4.48.13l-1.76.87-.89-1.79,10.67-5.29.65,1.31-3.92,1.94a3.74,3.74,0,0,1,2.26,1.58l2.77-1.37.64,1.31Z"/></g><g class="cls-4"><path class="cls-3" d="M99.62,66.19c.8,2.4-.51,4.76-3.43,6.38,2.75.77,5.93,2,9.08,3.16l-2.79,1.38c-2.75-1-5.58-2.09-8.88-3l-.88-1.76,1.42-.71c2.51-1.24,3.42-2.76,3-4.18l-5.49,2.72L91,68.83l5.41-2.68c-.92-.85-2.46-.87-4.48.13l-1.76.87-.89-1.79L100,60.07l.65,1.31-3.93,1.94a3.79,3.79,0,0,1,2.27,1.58l2.76-1.37.65,1.31Z"/></g><g class="cls-4"><path class="cls-3" d="M86.25,105.86c.8,2.41-.52,4.76-3.44,6.39,2.76.76,5.94,2,9.09,3.15l-2.79,1.38c-2.75-1-5.58-2.09-8.89-3L79.35,112l1.42-.71c2.51-1.24,3.42-2.76,3-4.18l-5.5,2.72-.64-1.31,5.4-2.68c-.92-.85-2.45-.87-4.47.13l-1.77.88L75.9,105l10.68-5.29.65,1.31-3.93,2a3.73,3.73,0,0,1,2.27,1.57l2.76-1.37.65,1.31Z"/></g><g class="cls-4"><path class="cls-3" d="M98.81,87.61c.8,2.4-.52,4.76-3.43,6.38,2.75.77,5.93,2,9.08,3.16l-2.79,1.38c-2.75-1-5.58-2.09-8.89-3l-.87-1.76L93.33,93c2.51-1.24,3.42-2.76,3-4.18l-5.49,2.72-.65-1.31,5.4-2.68c-.92-.85-2.45-.87-4.47.13l-1.77.87-.89-1.79,10.68-5.29.65,1.31-3.93,1.94a3.79,3.79,0,0,1,2.27,1.58L100.89,85l.65,1.31Z"/></g><g class="cls-4"><path class="cls-3" d="M114.8,87.61c.8,2.4-.51,4.76-3.43,6.38,2.76.77,5.93,2,9.09,3.16l-2.79,1.38c-2.76-1-5.58-2.09-8.89-3l-.88-1.76,1.43-.71c2.5-1.24,3.42-2.76,3-4.18l-5.5,2.72-.65-1.31,5.41-2.68c-.92-.85-2.45-.87-4.48.13l-1.76.87-.89-1.79,10.67-5.29.65,1.31-3.92,1.94a3.74,3.74,0,0,1,2.26,1.58L116.89,85l.65,1.31Z"/></g><g class="cls-4"><path class="cls-3" d="M101.83,107.07c.8,2.4-.52,4.75-3.43,6.38,2.75.76,5.93,2,9.08,3.16L104.69,118c-2.75-1-5.58-2.09-8.89-3l-.87-1.77,1.42-.7c2.51-1.25,3.42-2.76,3-4.19L93.86,111l-.65-1.31L98.62,107c-.93-.86-2.46-.88-4.48.12l-1.77.88-.89-1.79,10.68-5.3.65,1.31-3.93,2a3.73,3.73,0,0,1,2.27,1.57l2.76-1.37.65,1.31Z"/></g><g class="cls-4"><path class="cls-3" d="M98.81,124.11c.8,2.41-.52,4.76-3.43,6.39,2.75.76,5.93,1.95,9.08,3.15L101.67,135c-2.75-1-5.58-2.1-8.89-3l-.87-1.76,1.42-.71c2.51-1.24,3.42-2.76,3-4.18l-5.49,2.73-.65-1.31,5.4-2.69c-.92-.85-2.45-.87-4.47.13l-1.77.88-.89-1.8L99.14,118l.65,1.31-3.93,2a3.73,3.73,0,0,1,2.27,1.57l2.76-1.37.65,1.31Z"/></g><g class="cls-4"><path class="cls-3" d="M118.9,109.89c.81,2.41-.51,4.76-3.43,6.39,2.76.76,5.94,2,9.09,3.15l-2.79,1.39c-2.76-1-5.58-2.1-8.89-3L112,116l1.42-.71c2.5-1.24,3.42-2.76,3-4.18l-5.5,2.73-.65-1.31,5.41-2.69c-.92-.85-2.45-.87-4.48.13l-1.76.88-.89-1.8,10.68-5.29.65,1.31L116,107a3.73,3.73,0,0,1,2.27,1.57l2.76-1.37.65,1.31Z"/></g><g class="cls-4"><path class="cls-3" d="M58.22,156.82c.8,2.41-.52,4.76-3.44,6.39,2.76.76,5.94,1.95,9.09,3.15l-2.79,1.39c-2.75-1-5.58-2.1-8.89-3.05l-.87-1.76,1.42-.71c2.51-1.24,3.42-2.76,3-4.18l-5.49,2.73-.65-1.31,5.4-2.69c-.92-.85-2.45-.87-4.47.13l-1.77.88-.89-1.8,10.68-5.29L59.2,152l-3.93,2a3.73,3.73,0,0,1,2.27,1.57l2.76-1.37.65,1.31Z"/></g><g class="cls-4"><path class="cls-3" d="M70.78,138.57c.8,2.41-.52,4.76-3.43,6.39,2.75.76,5.93,1.95,9.08,3.15l-2.79,1.39c-2.75-1-5.58-2.1-8.89-3.05l-.87-1.76L65.3,144c2.51-1.24,3.42-2.76,3-4.18l-5.49,2.73-.65-1.31,5.41-2.69c-.93-.85-2.46-.87-4.48.13l-1.77.88-.89-1.8,10.68-5.29.65,1.31-3.93,2a3.73,3.73,0,0,1,2.27,1.57l2.76-1.37.65,1.31Z"/></g><g class="cls-4"><path class="cls-3" d="M86.77,138.57c.8,2.41-.51,4.76-3.43,6.39,2.76.76,5.93,1.95,9.09,3.15l-2.79,1.39c-2.76-1-5.58-2.1-8.89-3.05l-.88-1.76L81.3,144c2.5-1.24,3.42-2.76,3-4.18l-5.5,2.73-.65-1.31,5.41-2.69c-.92-.85-2.45-.87-4.48.13l-1.76.88-.89-1.8,10.68-5.29.64,1.31-3.92,2a3.68,3.68,0,0,1,2.26,1.57l2.77-1.37.65,1.31Z"/></g><g class="cls-4"><path class="cls-3" d="M73.8,158c.8,2.4-.52,4.76-3.43,6.38,2.75.76,5.93,2,9.08,3.16L76.66,169c-2.75-1-5.58-2.09-8.89-3l-.87-1.77,1.42-.7c2.51-1.24,3.42-2.76,3-4.18L65.83,162l-.65-1.31L70.59,158c-.93-.86-2.46-.88-4.48.13l-1.77.87-.89-1.79,10.68-5.3.65,1.31-3.93,1.95a3.73,3.73,0,0,1,2.27,1.57l2.76-1.37.65,1.31Z"/></g><g class="cls-4"><path class="cls-3" d="M70.78,175.07c.8,2.41-.52,4.76-3.43,6.39,2.75.76,5.93,1.95,9.08,3.15L73.64,186c-2.75-1-5.58-2.1-8.89-3l-.87-1.77,1.42-.71c2.51-1.24,3.42-2.76,3-4.18L62.81,179l-.65-1.31L67.57,175c-.93-.85-2.46-.87-4.48.13l-1.77.88-.89-1.8L71.11,169l.65,1.31-3.93,2a3.73,3.73,0,0,1,2.27,1.57l2.76-1.37.65,1.31Z"/></g><g class="cls-4"><path class="cls-3" d="M26.89,160.25c.81,2.41-.51,4.76-3.43,6.39,2.76.76,5.94,2,9.09,3.15l-2.79,1.38c-2.76-1-5.58-2.09-8.89-3L20,166.37l1.42-.71c2.5-1.24,3.42-2.76,3-4.18l-5.5,2.72-.65-1.31,5.41-2.68c-.92-.85-2.45-.87-4.47.13l-1.77.88-.89-1.8,10.68-5.29.65,1.31L24,157.39A3.73,3.73,0,0,1,26.22,159L29,157.59l.65,1.31Z"/></g><g class="cls-4"><path class="cls-3" d="M42.47,161.46c.81,2.4-.51,4.75-3.43,6.38,2.76.76,5.94,1.95,9.09,3.16l-2.79,1.38c-2.76-1-5.58-2.09-8.89-3l-.87-1.77,1.42-.7c2.51-1.25,3.42-2.76,3-4.19l-5.5,2.73-.65-1.31,5.41-2.68c-.92-.86-2.45-.88-4.47.12l-1.77.88-.89-1.79,10.68-5.3.65,1.31-3.93,2a3.73,3.73,0,0,1,2.27,1.57l2.76-1.37.65,1.31Z"/></g><g class="cls-4"><path class="cls-3" d="M39.45,178.5c.81,2.41-.51,4.76-3.43,6.39,2.76.76,5.94,2,9.09,3.15l-2.79,1.39c-2.76-1-5.58-2.1-8.89-3.05l-.87-1.76,1.42-.71c2.51-1.24,3.42-2.76,3-4.18l-5.5,2.73-.65-1.31,5.41-2.69c-.92-.85-2.45-.87-4.47.13l-1.77.88-.89-1.8,10.68-5.29.65,1.31-3.93,1.95a3.73,3.73,0,0,1,2.27,1.57l2.76-1.37.65,1.31Z"/></g><g class="cls-4"><path class="cls-3" d="M90.87,160.85c.81,2.41-.51,4.76-3.43,6.39,2.76.76,5.94,1.95,9.09,3.15l-2.79,1.39c-2.76-1-5.58-2.1-8.89-3.05L84,167l1.42-.71c2.5-1.24,3.42-2.76,3-4.18l-5.5,2.73-.65-1.31,5.41-2.69c-.92-.85-2.45-.87-4.47.13l-1.77.88-.89-1.8,10.68-5.29.65,1.31-3.93,2a3.73,3.73,0,0,1,2.27,1.57L93,158.19l.65,1.31Z"/></g><g class="cls-4"><path class="cls-3" d="M119.05,61c.8,2.4-.51,4.75-3.43,6.38,2.75.76,5.93,2,9.08,3.16l-2.79,1.38c-2.75-1-5.58-2.09-8.88-3l-.88-1.77,1.42-.7c2.51-1.25,3.42-2.76,3-4.19l-5.49,2.73-.65-1.31,5.41-2.68c-.92-.86-2.46-.88-4.48.12l-1.76.88-.89-1.79,10.67-5.3.65,1.31-3.93,2a3.73,3.73,0,0,1,2.27,1.57l2.76-1.37.65,1.31Z"/></g><g class="cls-4"><path class="cls-3" d="M115.61,43.91c.81,2.4-.51,4.76-3.43,6.38,2.76.76,5.94,2,9.09,3.16l-2.79,1.38c-2.76-1-5.58-2.09-8.89-3L108.72,50l1.42-.71c2.51-1.24,3.42-2.76,3-4.18l-5.5,2.72L107,46.55l5.41-2.68c-.92-.86-2.45-.87-4.47.13l-1.77.87-.89-1.79L116,37.79l.65,1.31L112.67,41a3.81,3.81,0,0,1,2.27,1.57l2.76-1.37.65,1.31Z"/></g><g class="cls-4"><path class="cls-3" d="M31.66,102.07c.81,2.4-.51,4.76-3.43,6.38,2.76.77,5.94,2,9.09,3.16L34.53,113c-2.76-1-5.58-2.09-8.89-3l-.87-1.76,1.42-.71c2.5-1.24,3.42-2.76,3-4.18L23.69,106,23,104.71,28.45,102c-.92-.85-2.45-.87-4.47.13l-1.77.87-.89-1.79L32,96l.65,1.31L28.72,99.2A3.79,3.79,0,0,1,31,100.78l2.76-1.37.65,1.31Z"/></g><g class="cls-4"><path class="cls-3" d="M47.66,102.07c.8,2.4-.51,4.76-3.43,6.38,2.75.77,5.93,2,9.08,3.16L50.52,113c-2.75-1-5.57-2.09-8.88-3l-.88-1.76,1.43-.71c2.5-1.24,3.41-2.76,3-4.18L39.69,106,39,104.71,44.45,102c-.92-.85-2.46-.87-4.48.13l-1.76.87-.89-1.79L48,96l.65,1.31L44.71,99.2A3.79,3.79,0,0,1,47,100.78l2.76-1.37.65,1.31Z"/></g><g class="cls-4"><path class="cls-3" d="M34.68,121.53c.81,2.4-.51,4.75-3.43,6.38,2.76.76,5.94,2,9.09,3.15l-2.79,1.39c-2.76-1-5.58-2.09-8.89-3l-.87-1.77,1.42-.7c2.5-1.25,3.42-2.76,3-4.19l-5.5,2.73-.65-1.31,5.41-2.68c-.92-.86-2.45-.88-4.47.12l-1.77.88-.89-1.79L35,115.4l.65,1.31-3.93,2A3.73,3.73,0,0,1,34,120.23l2.76-1.37.65,1.31Z"/></g><g class="cls-4"><path class="cls-3" d="M31.66,138.57c.81,2.41-.51,4.76-3.43,6.39,2.76.76,5.94,1.95,9.09,3.15l-2.79,1.39c-2.76-1-5.58-2.1-8.89-3.05l-.87-1.76,1.42-.71c2.5-1.24,3.42-2.76,3-4.18l-5.5,2.73L23,141.22l5.41-2.69c-.92-.85-2.45-.87-4.47.13l-1.77.88-.89-1.8L32,132.45l.65,1.31-3.93,2A3.73,3.73,0,0,1,31,137.28l2.76-1.37.65,1.31Z"/></g><g class="cls-4"><path class="cls-3" d="M51.76,124.35c.8,2.41-.51,4.76-3.43,6.39,2.75.76,5.93,1.95,9.08,3.15l-2.79,1.39c-2.75-1-5.57-2.1-8.88-3.05l-.88-1.76,1.43-.71c2.5-1.24,3.42-2.76,3-4.18l-5.49,2.72-.65-1.3,5.41-2.69c-.92-.85-2.46-.87-4.48.13l-1.76.88-.89-1.8,10.67-5.29.65,1.31-3.93,1.95a3.73,3.73,0,0,1,2.27,1.57l2.76-1.37.65,1.31Z"/></g><g class="cls-4"><path class="cls-3" d="M71.19,119.12c.8,2.4-.51,4.76-3.43,6.38,2.75.76,5.93,2,9.08,3.16L74.05,130c-2.75-1-5.57-2.09-8.88-3l-.88-1.77,1.43-.7c2.5-1.24,3.42-2.76,3-4.18l-5.49,2.72-.65-1.31L68,119.08c-.92-.86-2.46-.88-4.48.13l-1.76.87-.89-1.79L71.52,113l.65,1.31-3.93,2a3.68,3.68,0,0,1,2.27,1.57l2.76-1.37.65,1.31Z"/></g><g class="cls-4"><path class="cls-3" d="M67.76,102.07c.8,2.4-.52,4.76-3.44,6.38,2.76.77,5.94,2,9.09,3.16L70.62,113c-2.75-1-5.58-2.09-8.89-3l-.87-1.76,1.42-.71c2.51-1.24,3.42-2.76,3-4.18L59.79,106l-.65-1.31,5.4-2.68c-.92-.85-2.45-.87-4.47.13L58.3,103l-.89-1.79L68.09,96l.65,1.31L64.81,99.2a3.79,3.79,0,0,1,2.27,1.58l2.76-1.37.65,1.31Z"/></g><g class="cls-4"><path class="cls-3" d="M137.39,42.81c.8,2.4-.51,4.76-3.43,6.38,2.76.76,5.93,2,9.09,3.16l-2.79,1.38c-2.76-1-5.58-2.09-8.89-3l-.88-1.77,1.43-.7c2.5-1.25,3.42-2.76,3-4.19l-5.5,2.73-.65-1.31,5.41-2.68c-.92-.86-2.45-.88-4.48.13l-1.76.87L127.05,42l10.67-5.3.65,1.31-3.92,1.95a3.68,3.68,0,0,1,2.26,1.57l2.77-1.37.65,1.31Z"/></g><g class="cls-4"><path class="cls-3" d="M153.39,42.81c.8,2.4-.51,4.76-3.43,6.38,2.75.76,5.93,2,9.08,3.16l-2.79,1.38c-2.75-1-5.58-2.09-8.88-3l-.88-1.77,1.42-.7c2.51-1.25,3.42-2.76,3-4.19l-5.49,2.73-.65-1.31,5.41-2.68c-.92-.86-2.46-.88-4.48.13l-1.77.87L143.05,42l10.67-5.3.65,1.31-3.93,1.95a3.73,3.73,0,0,1,2.27,1.57l2.76-1.37.65,1.31Z"/></g><g class="cls-4"><path class="cls-3" d="M140.41,62.26c.8,2.41-.51,4.76-3.43,6.39,2.76.76,5.94,1.95,9.09,3.15l-2.79,1.38c-2.76-1-5.58-2.09-8.89-3l-.88-1.76,1.43-.71c2.5-1.24,3.42-2.76,3-4.18l-5.5,2.72-.65-1.31,5.41-2.68c-.92-.85-2.45-.87-4.48.13l-1.76.88-.89-1.8,10.68-5.29.64,1.31-3.92,1.95A3.68,3.68,0,0,1,139.73,61l2.77-1.37.65,1.31Z"/></g><g class="cls-4"><path class="cls-3" d="M181.15,60.4c.8,2.41-.51,4.76-3.43,6.39,2.75.76,5.93,1.95,9.08,3.15L184,71.33c-2.75-1-5.57-2.1-8.88-3l-.88-1.77,1.43-.7c2.5-1.25,3.41-2.76,3-4.19l-5.49,2.73-.65-1.31,5.41-2.68c-.92-.86-2.46-.88-4.48.12l-1.76.88-.89-1.79,10.67-5.3.65,1.31-3.93,1.95a3.73,3.73,0,0,1,2.27,1.57l2.76-1.37.65,1.31Z"/></g><g class="cls-4"><path class="cls-3" d="M177.71,43.36c.81,2.4-.51,4.76-3.43,6.38,2.76.76,5.94,1.95,9.09,3.16l-2.79,1.38c-2.76-1-5.58-2.09-8.89-3l-.87-1.77,1.42-.7c2.51-1.24,3.42-2.76,3-4.18l-5.5,2.72L169.09,46l5.41-2.68c-.92-.86-2.45-.88-4.47.13l-1.77.87-.89-1.79,10.68-5.3.65,1.31-3.93,2A3.73,3.73,0,0,1,177,42.06l2.76-1.37.65,1.31Z"/></g><g class="cls-4"><path class="cls-3" d="M193.71,42.15c.8,2.41-.51,4.76-3.43,6.39,2.75.76,5.93,2,9.08,3.15l-2.79,1.39c-2.75-1-5.57-2.1-8.88-3l-.88-1.77,1.43-.71c2.5-1.24,3.42-2.76,3-4.18l-5.49,2.73-.65-1.31,5.41-2.68c-.92-.86-2.46-.88-4.48.12l-1.76.88-.89-1.8L194,36l.65,1.31-3.93,1.95A3.73,3.73,0,0,1,193,40.86l2.76-1.37.65,1.31Z"/></g><g class="cls-4"><path class="cls-3" d="M209.71,42.15c.8,2.41-.52,4.76-3.44,6.39,2.76.76,5.94,2,9.09,3.15l-2.79,1.39c-2.75-1-5.58-2.1-8.89-3l-.87-1.77,1.42-.71c2.51-1.24,3.42-2.76,3-4.18l-5.49,2.73-.65-1.31,5.4-2.68c-.92-.86-2.45-.88-4.47.12l-1.77.88-.89-1.8L210,36l.65,1.31-3.93,1.95A3.73,3.73,0,0,1,209,40.86l2.76-1.37.65,1.31Z"/></g><g class="cls-4"><path class="cls-3" d="M196.73,61.61c.8,2.4-.51,4.76-3.43,6.38,2.75.76,5.93,2,9.08,3.16l-2.79,1.38c-2.75-1-5.57-2.09-8.88-3l-.88-1.76,1.43-.71c2.5-1.24,3.42-2.76,3-4.18l-5.49,2.72-.65-1.31,5.41-2.68c-.92-.86-2.46-.88-4.48.13l-1.76.87-.89-1.79,10.67-5.29.65,1.3-3.93,2a3.73,3.73,0,0,1,2.27,1.57l2.76-1.37.65,1.31Z"/></g><g class="cls-4"><path class="cls-3" d="M233.24,59.2c.8,2.4-.52,4.76-3.43,6.38,2.75.77,5.93,2,9.08,3.16l-2.79,1.38c-2.75-1-5.58-2.09-8.88-3l-.88-1.76,1.42-.71c2.51-1.24,3.42-2.76,3-4.18l-5.49,2.72-.65-1.31L230,59.16c-.92-.85-2.46-.87-4.48.13l-1.77.87-.88-1.79,10.67-5.29.65,1.31-3.93,1.94a3.79,3.79,0,0,1,2.27,1.58l2.76-1.37.65,1.31Z"/></g><g class="cls-4"><path class="cls-3" d="M229.8,42.15c.81,2.41-.51,4.76-3.43,6.39,2.76.76,5.94,2,9.09,3.15l-2.79,1.39c-2.76-1-5.58-2.1-8.89-3l-.87-1.77,1.42-.71c2.5-1.24,3.42-2.76,3-4.18l-5.5,2.73-.65-1.31,5.41-2.68c-.92-.86-2.45-.88-4.48.12l-1.76.88-.89-1.8L230.14,36l.65,1.31-3.93,1.95a3.73,3.73,0,0,1,2.27,1.57l2.76-1.37.65,1.31Z"/></g><g class="cls-4"><path class="cls-3" d="M251.58,41.05c.8,2.41-.51,4.76-3.43,6.39,2.75.76,5.93,2,9.08,3.15L254.44,52c-2.75-1-5.57-2.09-8.88-3l-.88-1.76,1.43-.71c2.5-1.24,3.42-2.76,3-4.18L243.61,45,243,43.69,248.37,41c-.92-.85-2.46-.87-4.48.13l-1.76.88-.89-1.8,10.67-5.29.65,1.31-3.93,1.95a3.73,3.73,0,0,1,2.27,1.57l2.76-1.37.65,1.31Z"/></g><g class="cls-4"><path class="cls-3" d="M267.58,41.05c.8,2.41-.52,4.76-3.43,6.39,2.75.76,5.93,2,9.08,3.15L270.44,52c-2.75-1-5.58-2.09-8.89-3l-.87-1.76,1.42-.71c2.51-1.24,3.42-2.76,3-4.18L259.61,45,259,43.69,264.37,41c-.93-.85-2.46-.87-4.48.13l-1.77.88-.89-1.8,10.68-5.29.65,1.31-3.93,1.95a3.73,3.73,0,0,1,2.27,1.57l2.76-1.37.65,1.31Z"/></g><g class="cls-4"><path class="cls-3" d="M254.6,60.51c.8,2.4-.51,4.76-3.43,6.38,2.75.76,5.93,2,9.08,3.16l-2.79,1.38c-2.75-1-5.57-2.09-8.88-3l-.88-1.77,1.43-.7c2.5-1.25,3.42-2.76,3-4.19l-5.49,2.73L246,63.15l5.41-2.68c-.92-.86-2.46-.88-4.48.12l-1.76.88-.89-1.79,10.67-5.3.65,1.31-3.93,2a3.68,3.68,0,0,1,2.27,1.57l2.76-1.37.65,1.31Z"/></g><g class="cls-4"><path class="cls-3" d="M198.23,100.32c.8,2.4-.51,4.75-3.43,6.38,2.75.76,5.93,2,9.08,3.15l-2.79,1.39c-2.75-1-5.58-2.09-8.88-3l-.88-1.77,1.43-.7c2.5-1.25,3.41-2.76,3-4.19l-5.49,2.73-.65-1.31,5.41-2.68c-.92-.86-2.46-.88-4.48.12l-1.76.88-.89-1.79,10.67-5.3.65,1.31-3.93,2A3.73,3.73,0,0,1,197.55,99l2.76-1.37L201,99Z"/></g><g class="cls-4"><path class="cls-3" d="M194.79,83.27c.81,2.4-.51,4.76-3.43,6.38,2.76.76,5.94,1.95,9.09,3.16l-2.79,1.38c-2.76-1-5.58-2.09-8.89-3l-.87-1.76,1.42-.71c2.51-1.24,3.42-2.76,3-4.18l-5.5,2.72-.65-1.31,5.41-2.68c-.92-.86-2.45-.88-4.47.13l-1.77.87-.89-1.79,10.68-5.3.65,1.31-3.93,2A3.73,3.73,0,0,1,194.12,82l2.76-1.37.65,1.31Z"/></g><g class="cls-4"><path class="cls-3" d="M210.79,82.06c.8,2.41-.51,4.76-3.43,6.39,2.75.76,5.93,2,9.08,3.15L213.65,93c-2.75-1-5.57-2.1-8.88-3l-.88-1.77,1.43-.7c2.5-1.25,3.42-2.76,3-4.19L202.82,86l-.65-1.31L207.58,82c-.92-.86-2.46-.88-4.48.12l-1.76.88-.89-1.79,10.67-5.3.65,1.31-3.93,2a3.73,3.73,0,0,1,2.27,1.57l2.76-1.37.65,1.31Z"/></g><g class="cls-4"><path class="cls-3" d="M226.79,82.06c.8,2.41-.52,4.76-3.44,6.39,2.76.76,5.94,2,9.09,3.15L229.65,93c-2.75-1-5.58-2.1-8.89-3l-.87-1.77,1.42-.7c2.51-1.25,3.42-2.76,3-4.19L218.82,86l-.65-1.31,5.4-2.68c-.92-.86-2.45-.88-4.47.12l-1.77.88-.89-1.79,10.68-5.3.65,1.31-3.93,2a3.73,3.73,0,0,1,2.27,1.57l2.76-1.37.65,1.31Z"/></g><g class="cls-4"><path class="cls-3" d="M213.81,101.52c.8,2.4-.51,4.76-3.43,6.38,2.75.77,5.93,1.95,9.08,3.16l-2.79,1.38c-2.75-1-5.57-2.09-8.88-3l-.88-1.76,1.43-.71c2.5-1.24,3.42-2.76,3-4.18l-5.49,2.72-.65-1.31,5.41-2.68c-.92-.86-2.46-.87-4.48.13l-1.76.87-.89-1.79,10.67-5.29.65,1.31-3.93,1.94a3.81,3.81,0,0,1,2.27,1.57l2.76-1.37.65,1.31Z"/></g><g class="cls-4"><path class="cls-3" d="M250.32,99.11c.8,2.41-.52,4.76-3.43,6.38,2.75.77,5.93,2,9.08,3.16L253.18,110c-2.75-1-5.58-2.09-8.88-3l-.88-1.76,1.42-.71c2.51-1.24,3.42-2.76,3-4.18l-5.49,2.72-.65-1.31,5.41-2.68c-.92-.85-2.46-.87-4.48.13l-1.77.88-.88-1.8L250.65,93l.65,1.31-3.93,2a3.73,3.73,0,0,1,2.27,1.57l2.76-1.37.65,1.31Z"/></g><g class="cls-4"><path class="cls-3" d="M246.88,82.06c.81,2.41-.51,4.76-3.43,6.39,2.76.76,5.94,2,9.09,3.15L249.75,93c-2.76-1-5.58-2.1-8.89-3L240,88.18l1.42-.7c2.5-1.25,3.42-2.76,3-4.19L238.91,86l-.65-1.31L243.67,82c-.92-.86-2.45-.88-4.48.12l-1.76.88-.89-1.79,10.68-5.3.64,1.31-3.92,2a3.68,3.68,0,0,1,2.26,1.57L249,79.4l.65,1.31Z"/></g><g class="cls-4"><path class="cls-3" d="M268.66,81c.8,2.41-.51,4.76-3.43,6.39,2.75.76,5.93,2,9.08,3.15l-2.79,1.39c-2.75-1-5.57-2.1-8.88-3l-.88-1.76,1.43-.71c2.5-1.24,3.42-2.76,3-4.18l-5.49,2.72-.65-1.3,5.41-2.69c-.92-.85-2.46-.87-4.48.13l-1.76.88-.89-1.8L269,74.84l.65,1.31-3.93,1.95A3.73,3.73,0,0,1,268,79.67l2.76-1.37.65,1.31Z"/></g><g class="cls-4"><path class="cls-3" d="M271.68,100.42c.8,2.4-.51,4.76-3.43,6.38,2.75.76,5.93,2,9.08,3.16l-2.79,1.38c-2.75-1-5.57-2.09-8.88-3l-.88-1.77,1.43-.7c2.5-1.24,3.42-2.76,3-4.18l-5.49,2.72-.65-1.31,5.41-2.68c-.92-.86-2.46-.88-4.48.13l-1.76.87-.89-1.79L272,94.29l.65,1.31-3.93,2A3.68,3.68,0,0,1,271,99.12l2.76-1.37.65,1.31Z"/></g><g class="cls-4"><path class="cls-3" d="M224.27,130c.81,2.4-.51,4.76-3.43,6.38,2.76.76,5.94,1.95,9.09,3.16l-2.79,1.38c-2.76-1-5.58-2.09-8.89-3l-.87-1.77,1.42-.7c2.5-1.24,3.42-2.76,3-4.18l-5.5,2.72-.65-1.31,5.41-2.68c-.92-.86-2.45-.88-4.47.13l-1.77.87-.89-1.79,10.68-5.3.65,1.31-3.93,2a3.73,3.73,0,0,1,2.27,1.57l2.76-1.37.65,1.31Z"/></g><g class="cls-4"><path class="cls-3" d="M220.84,112.9c.8,2.4-.51,4.76-3.43,6.38,2.75.77,5.93,2,9.08,3.16l-2.79,1.38c-2.75-1-5.58-2.09-8.88-3l-.88-1.76,1.42-.71c2.51-1.24,3.42-2.76,3-4.18l-5.49,2.72-.65-1.31,5.41-2.68c-.92-.85-2.46-.87-4.48.13l-1.76.87-.89-1.79,10.67-5.29.65,1.31L217.89,110a3.79,3.79,0,0,1,2.27,1.58l2.76-1.37.65,1.31Z"/></g><g class="cls-4"><path class="cls-3" d="M242.62,111.8c.8,2.4-.52,4.76-3.43,6.38,2.75.76,5.93,1.95,9.08,3.16l-2.79,1.38c-2.75-1-5.58-2.09-8.89-3l-.87-1.77,1.42-.7c2.51-1.24,3.42-2.76,3-4.18l-5.49,2.72-.65-1.31,5.41-2.68c-.93-.86-2.46-.88-4.48.13l-1.77.87-.89-1.79,10.68-5.3.65,1.31-3.93,2a3.73,3.73,0,0,1,2.27,1.57l2.76-1.37.65,1.31Z"/></g><g class="cls-4"><path class="cls-3" d="M245.64,131.25c.8,2.41-.52,4.76-3.43,6.39,2.75.76,5.93,2,9.08,3.15l-2.79,1.39c-2.75-1-5.58-2.1-8.89-3.05l-.87-1.76,1.42-.71c2.51-1.24,3.42-2.76,3-4.18l-5.49,2.73L237,133.9l5.41-2.69c-.93-.85-2.46-.87-4.48.13l-1.77.88-.89-1.8L246,125.13l.65,1.31-3.93,1.95A3.73,3.73,0,0,1,245,130l2.76-1.37.65,1.31Z"/></g><g class="cls-4"><path class="cls-3" d="M137.39,79.31c.8,2.4-.51,4.76-3.43,6.38,2.76.76,5.93,2,9.09,3.16l-2.79,1.38c-2.76-1-5.58-2.09-8.89-3l-.88-1.77,1.43-.7c2.5-1.24,3.42-2.76,3-4.18l-5.5,2.72L128.77,82l5.41-2.68c-.92-.86-2.45-.88-4.48.13l-1.76.87-.89-1.79,10.67-5.3.65,1.31-3.92,2A3.68,3.68,0,0,1,136.71,78l2.77-1.37.65,1.31Z"/></g><g class="cls-4"><path class="cls-3" d="M157.49,65.09c.8,2.4-.51,4.76-3.43,6.38,2.75.76,5.93,2,9.08,3.16L160.35,76c-2.75-1-5.58-2.09-8.88-3l-.88-1.77,1.42-.7c2.51-1.24,3.42-2.76,3-4.18L149.52,69l-.65-1.31,5.41-2.68c-.92-.86-2.46-.88-4.48.13l-1.76.87-.89-1.79L157.82,59l.65,1.31-3.93,1.95a3.73,3.73,0,0,1,2.27,1.57l2.76-1.37.65,1.31Z"/></g><g class="cls-4"><path class="cls-3" d="M141.62,99.76c.8,2.41-.51,4.76-3.43,6.39,2.76.76,5.93,1.95,9.09,3.15l-2.79,1.39c-2.76-1-5.58-2.1-8.89-3l-.88-1.77,1.43-.71c2.5-1.24,3.42-2.76,3-4.18l-5.5,2.73-.65-1.31,5.41-2.68c-.92-.86-2.45-.88-4.48.12l-1.76.88-.89-1.8L142,93.64,142.6,95l-3.92,2a3.68,3.68,0,0,1,2.26,1.57l2.77-1.37.65,1.31Z"/></g><g class="cls-4"><path class="cls-3" d="M157.62,99.76c.8,2.41-.51,4.76-3.43,6.39,2.75.76,5.93,1.95,9.08,3.15l-2.79,1.39c-2.75-1-5.58-2.1-8.88-3l-.88-1.77,1.42-.71c2.51-1.24,3.42-2.76,3-4.18l-5.49,2.73-.65-1.31,5.41-2.68c-.92-.86-2.46-.88-4.48.12l-1.77.88-.88-1.8L158,93.64,158.6,95l-3.93,2a3.73,3.73,0,0,1,2.27,1.57l2.76-1.37.65,1.31Z"/></g><g class="cls-4"><path class="cls-3" d="M144.64,119.22c.8,2.4-.51,4.76-3.43,6.38,2.76.76,5.94,2,9.09,3.16l-2.79,1.38c-2.76-1-5.58-2.09-8.89-3l-.88-1.76,1.43-.71c2.5-1.24,3.42-2.76,3-4.18l-5.5,2.72-.65-1.31,5.41-2.68c-.92-.86-2.45-.87-4.48.13l-1.76.87-.89-1.79L145,113.1l.64,1.3-3.92,1.95a3.68,3.68,0,0,1,2.26,1.57l2.77-1.37.65,1.31Z"/></g><g class="cls-4"><path class="cls-3" d="M141.62,136.27c.8,2.4-.51,4.75-3.43,6.38,2.76.76,5.93,1.95,9.09,3.16l-2.79,1.38c-2.76-1-5.58-2.09-8.89-3l-.88-1.77,1.43-.7c2.5-1.25,3.42-2.76,3-4.19l-5.5,2.73-.65-1.31,5.41-2.68c-.92-.86-2.45-.88-4.48.12l-1.76.88-.89-1.79,10.67-5.3.65,1.31-3.92,2a3.68,3.68,0,0,1,2.26,1.57l2.77-1.37.65,1.31Z"/></g><g class="cls-4"><path class="cls-3" d="M129.92,162.15c.8,2.4-.51,4.76-3.43,6.38,2.75.76,5.93,1.95,9.09,3.16l-2.79,1.38c-2.76-1-5.58-2.09-8.89-3l-.88-1.77,1.43-.7c2.5-1.24,3.42-2.76,3-4.18L122,166.1l-.65-1.31,5.41-2.68c-.92-.86-2.46-.88-4.48.13l-1.76.87-.89-1.79,10.67-5.3.65,1.31L127,159.28a3.68,3.68,0,0,1,2.26,1.57l2.77-1.37.64,1.31Z"/></g><g class="cls-4"><path class="cls-3" d="M117.82,175.77c.81,2.4-.51,4.75-3.43,6.38,2.76.76,5.94,1.95,9.09,3.16l-2.79,1.38c-2.76-1-5.58-2.09-8.89-3l-.87-1.77,1.42-.7c2.5-1.25,3.42-2.76,3-4.19l-5.5,2.73-.65-1.31,5.41-2.68c-.92-.86-2.45-.88-4.48.12l-1.76.88-.89-1.79,10.68-5.3.65,1.31-3.93,2a3.73,3.73,0,0,1,2.27,1.57l2.76-1.37.65,1.31Z"/></g><g class="cls-4"><path class="cls-3" d="M108.18,137.88c.8,2.4-.52,4.76-3.43,6.38,2.75.77,5.93,2,9.08,3.16L111,148.8c-2.75-1-5.58-2.09-8.89-3l-.87-1.76,1.42-.71c2.51-1.24,3.42-2.76,3-4.18l-5.49,2.72-.65-1.31,5.41-2.68c-.93-.85-2.46-.87-4.48.13l-1.77.87-.89-1.79,10.68-5.29.65,1.31L105.23,135a3.81,3.81,0,0,1,2.27,1.57l2.76-1.36.65,1.3Z"/></g><g class="cls-4"><path class="cls-3" d="M161.72,122.05c.8,2.4-.51,4.75-3.43,6.38,2.75.76,5.93,1.95,9.08,3.15L164.58,133c-2.75-1-5.58-2.09-8.88-3l-.88-1.77,1.42-.7c2.51-1.25,3.42-2.76,3-4.19L153.75,126l-.65-1.31,5.41-2.68c-.92-.86-2.46-.88-4.48.12l-1.76.88-.89-1.79,10.67-5.3.65,1.31-3.93,2a3.73,3.73,0,0,1,2.27,1.57l2.76-1.37.65,1.31Z"/></g><g class="cls-4"><path class="cls-3" d="M181.15,116.81c.8,2.4-.51,4.76-3.43,6.38,2.75.77,5.93,2,9.08,3.16L184,127.73c-2.75-1-5.57-2.09-8.88-3l-.88-1.76,1.43-.71c2.5-1.24,3.41-2.76,3-4.18l-5.49,2.72-.65-1.31,5.41-2.68c-.92-.85-2.46-.87-4.48.13l-1.76.87-.89-1.79,10.67-5.29.65,1.31-3.93,1.94a3.79,3.79,0,0,1,2.27,1.58l2.76-1.37.65,1.31Z"/></g><g class="cls-4"><path class="cls-3" d="M177.71,99.76c.81,2.41-.51,4.76-3.43,6.39,2.76.76,5.94,1.95,9.09,3.15l-2.79,1.39c-2.76-1-5.58-2.1-8.89-3l-.87-1.77,1.42-.71c2.51-1.24,3.42-2.76,3-4.18l-5.5,2.73-.65-1.31,5.41-2.68c-.92-.86-2.45-.88-4.47.12l-1.77.88-.89-1.8,10.68-5.29L178.7,95l-3.93,2A3.73,3.73,0,0,1,177,98.47l2.76-1.37.65,1.31Z"/></g></g><g id="text"><path class="cls-5" d="M47,92.38q8.27,0,11.28-.79a12.83,12.83,0,0,0,5.53-3.12h1v40.34a7,7,0,0,0,.28,2.55c.09.18.4.37.92.58a12.1,12.1,0,0,0,2.82.52c1.35.13,2.85.2,4.49.2v.62H47v-.62c2,0,3.67-.07,5.11-.2a12.47,12.47,0,0,0,2.95-.52,1.89,1.89,0,0,0,1-.76,6.72,6.72,0,0,0,.24-2.37V96.86a4.6,4.6,0,0,0-.38-2.38,2.59,2.59,0,0,0-1.2-.83,9.38,9.38,0,0,0-2.47-.41c-1.09-.07-2.86-.1-5.28-.1Z"/><path class="cls-5" d="M97.14,121.2v7.53a7,7,0,0,0,.28,2.55c.09.19.4.38.92.59a11.26,11.26,0,0,0,2.58.52,27.46,27.46,0,0,0,3.22.2v.69H80.88v-.69c1.69,0,3.23-.06,4.63-.2a12.11,12.11,0,0,0,2.88-.52,1.89,1.89,0,0,0,1-.76,6.76,6.76,0,0,0,.24-2.38V121.2h-14L96,89h1.16V118.8h7v2.4Zm-7.48-2.4V100.34L78.13,118.8Z"/><path class="cls-5" d="M150.66,133.28H124v-.69c2.06,0,3.82-.06,5.28-.2a13.17,13.17,0,0,0,3-.52,1.81,1.81,0,0,0,1-.58,6.65,6.65,0,0,0,.28-2.55V93.49a6.7,6.7,0,0,0-.28-2.48c-.09-.18-.38-.36-.89-.55q-2.19-.83-8.37-.82V89h26.76a20.28,20.28,0,0,1,14,5.69,21.48,21.48,0,0,1,7.21,16.68q0,10-6.39,16.13A20.72,20.72,0,0,1,150.66,133.28Zm0-.69q6.54,0,9.54-5.3t3-15.9q0-10-3-15.7-3.23-6-9.5-6c-2.2,0-3.89,0-5.06.1a9.57,9.57,0,0,0-2.48.38,1.63,1.63,0,0,0-1,.79,8,8,0,0,0-.24,2.58v35.25a8.83,8.83,0,0,0,.24,2.61,1.54,1.54,0,0,0,.93.9,10.32,10.32,0,0,0,3,.31C147.59,132.58,149.13,132.59,150.69,132.59Z"/><path class="cls-5" d="M191.43,113.35v-4c0-1.83-.3-3.08-.88-3.72s-1.84-1-3.77-1a8.9,8.9,0,0,0-4.14.91,4.4,4.4,0,0,0-2.33,2.45A2.63,2.63,0,0,1,181,108a2.6,2.6,0,0,1,2.13,1,3.61,3.61,0,0,1,.83,2.33,3.19,3.19,0,0,1-1,2.47,3.45,3.45,0,0,1-2.42,1,2.72,2.72,0,0,1-1.59-.48,3.83,3.83,0,0,1-2-3.29,6.94,6.94,0,0,1,.41-2.2c.64-1.78,2.24-3.09,4.8-3.91a18,18,0,0,1,5.56-.89q5.08,0,7.69,1.92a5.16,5.16,0,0,1,2.33,4.31v15.13a34.1,34.1,0,0,0,.21,5.06c.32,1.56,1.14,2.33,2.46,2.33a2.38,2.38,0,0,0,2.41-1.84,17.65,17.65,0,0,0,.62-5.32c0-.64,0-1.27,0-1.91s0-1.3,0-2v-.61h.82v3c0,1,0,1.88.07,2.75,0,2.65-.32,4.44-1,5.35-.83,1.14-2.5,1.72-5,1.72a7.74,7.74,0,0,1-4.42-1,6.26,6.26,0,0,1-2.28-4.15,7.93,7.93,0,0,1-4.32,4.49,12.83,12.83,0,0,1-4.6.68,9,9,0,0,1-5-1.38,6.2,6.2,0,0,1-2.95-5.63,8,8,0,0,1,2.87-6.25,11.93,11.93,0,0,1,7-2.82,16.64,16.64,0,0,0,5.54-1.1C191,116.22,191.43,115.09,191.43,113.35Zm-.21,12.41v-9.17a3.53,3.53,0,0,1-2.44,1.35l-3.12.45a5.15,5.15,0,0,0-3.16,2.2,10.46,10.46,0,0,0-1.37,5.79q0,4,.79,5.42a2.66,2.66,0,0,0,2.5,1.41,6.41,6.41,0,0,0,4.71-2.17A7.35,7.35,0,0,0,191.22,125.76Z"/><path class="cls-5" d="M218.94,139.85a23.11,23.11,0,0,1-2.67,5.85,4.46,4.46,0,0,1-3.71,1.92,11.51,11.51,0,0,1-4.25-.58,2.86,2.86,0,0,1-1.75-2,8.8,8.8,0,0,1-.38-2.23,3.31,3.31,0,0,1,1.94-3.09,3.36,3.36,0,0,1,1.59-.41,3.2,3.2,0,0,1,2.32,1,3.58,3.58,0,0,1,1,2.65q0,2.94-2.77,3.29a1.68,1.68,0,0,0,1,.61,7.37,7.37,0,0,0,1.07.08,3.72,3.72,0,0,0,3-1.42,17.92,17.92,0,0,0,2.47-5.21l2.2-6.21-9.92-26.89c-.41-1-.66-1.67-.76-1.86-.27-.46-1.07-.68-2.4-.68h-1.58V104h15.72v.69l-3.19,0c-1.08,0-1.61.31-1.61.86l.41,1.38,6.63,17.69,4.62-13.49a12.53,12.53,0,0,0,.82-3.72c0-1.84-1.53-2.75-4.59-2.75V104h11.46v.69a5.91,5.91,0,0,0-4.05,1.27q-1.44,1.26-3.23,6.35Z"/><path class="cls-5" d="M252.77,106.11c1.79-1.33,2.72-2,2.81-2.13v10.29l-.54-.14a14.42,14.42,0,0,0-3.43-6.72,8,8,0,0,0-5.91-2.81,7.73,7.73,0,0,0-4,1,4.68,4.68,0,0,0-2.12,4.32,4.24,4.24,0,0,0,2.32,3.84,27.87,27.87,0,0,0,6.57,2.13c3.28.78,5.58,1.69,6.9,2.75q2.81,2.19,2.8,7c0,3-1,5.17-3,6.59a10.14,10.14,0,0,1-6,1.72,16.17,16.17,0,0,1-4.33-.41,11,11,0,0,1-4.18-3q-2.75,3.24-2.88,3.37V121.75h.48a45.11,45.11,0,0,0,1.92,5.9,10.84,10.84,0,0,0,2.21,3.37,7.27,7.27,0,0,0,3,1.88,17.68,17.68,0,0,0,4.24.38,5.47,5.47,0,0,0,3.51-1.1,4.44,4.44,0,0,0,1.65-3.7,5.2,5.2,0,0,0-2.2-4.6,18.23,18.23,0,0,0-6.1-2.06,15.25,15.25,0,0,1-6.78-2.88,7.88,7.88,0,0,1-2.9-6.38,8.42,8.42,0,0,1,2.44-6.08,8,8,0,0,1,5.94-2.5,11.39,11.39,0,0,1,4.66.89A26.11,26.11,0,0,0,252.77,106.11Z"/></g><g id="Layer_3" data-name="Layer 3"><rect class="cls-6" x="160.08" y="214.99" width="119.86" height="35.23" rx="12.15"/><rect class="cls-6" x="160.08" y="270.73" width="119.86" height="35.23" rx="12.15"/><rect class="cls-6" x="160.84" y="326.47" width="119.86" height="35.23" rx="12.15"/><rect class="cls-6" x="160.52" y="374.72" width="119.86" height="35.23" rx="12.15"/></g></svg>