<svg xmlns="http://www.w3.org/2000/svg" viewBox="0 0 301.02 450.38"><defs><style>.cls-1{fill:#f9f6ed;stroke:#1d1d1b;stroke-miterlimit:10;}.cls-2{fill:#3caee4;}.cls-3{fill:#010101;}.cls-4{opacity:0.09;}.cls-5{fill:#fff;}.cls-6{fill:#adacac;}</style></defs><g id="Layer_1" data-name="Layer 1"><rect class="cls-1" x="3.86" y="6" width="290.4" height="438.42" rx="25.14"/></g><g id="Layer_2" data-name="Layer 2"><rect class="cls-2" x="14.03" y="33.68" width="266.67" height="156.5"/></g><g id="Layer_4" data-name="Layer 4"><path class="cls-3" d="M121.65,272.46c-4,28.65-29.38,46.06-67.45,47.87,24.29,21.76,50.76,50,76.87,78.33H95.54C72.33,374.72,49.12,349,20.11,322.51V300H38.24c31.91,0,49-10.87,51.86-27.56h-70V255.78H89c-5.08-13.41-20.67-21.39-46.42-21.39H20.11V211.54h136v16.69h-50c8,6.52,13.42,15.59,15.23,27.55h35.18v16.68Z"/><g class="cls-4"><path class="cls-3" d="M27.43,45.11c.81,2.41-.51,4.76-3.43,6.39,2.76.76,5.94,2,9.09,3.15L30.3,56c-2.76-1-5.58-2.1-8.89-3l-.87-1.76L22,50.52c2.5-1.24,3.42-2.76,3-4.18l-5.5,2.73-.65-1.31,5.41-2.69c-.92-.85-2.45-.87-4.47.13L18,46.08l-.89-1.8L27.77,39l.65,1.31-3.93,2a3.73,3.73,0,0,1,2.27,1.57l2.76-1.37.65,1.31Z"/></g><g class="cls-4"><path class="cls-3" d="M270.6,175.07c.8,2.41-.52,4.76-3.43,6.39,2.75.76,5.93,1.95,9.08,3.15L273.46,186c-2.75-1-5.58-2.1-8.89-3l-.87-1.77,1.42-.71c2.51-1.24,3.42-2.76,3-4.18L262.63,179l-.65-1.31,5.41-2.69c-.93-.85-2.46-.87-4.48.13l-1.77.88-.89-1.8L270.93,169l.65,1.31-3.93,2a3.73,3.73,0,0,1,2.27,1.57l2.76-1.37.65,1.31Z"/></g><g class="cls-4"><path class="cls-3" d="M252,175.07c.8,2.41-.52,4.76-3.43,6.39,2.75.76,5.93,1.95,9.08,3.15L254.83,186c-2.75-1-5.58-2.1-8.89-3l-.87-1.77,1.42-.71c2.51-1.24,3.42-2.76,3-4.18L244,179l-.65-1.31,5.41-2.69c-.93-.85-2.46-.87-4.48.13l-1.77.88-.89-1.8L252.3,169l.65,1.31-3.93,2a3.73,3.73,0,0,1,2.27,1.57l2.76-1.37.65,1.31Z"/></g><g class="cls-4"><path class="cls-3" d="M246.6,149.5c.81,2.41-.51,4.76-3.43,6.39,2.76.76,5.94,2,9.09,3.15l-2.79,1.39c-2.76-1-5.58-2.1-8.89-3.05l-.87-1.76,1.42-.71c2.5-1.24,3.42-2.76,3-4.18l-5.5,2.73-.65-1.31,5.41-2.69c-.92-.85-2.45-.87-4.47.13l-1.77.88-.89-1.8,10.68-5.29.65,1.31-3.93,1.95a3.73,3.73,0,0,1,2.27,1.57l2.76-1.37.65,1.31Z"/></g><g class="cls-4"><path class="cls-3" d="M267.58,152.93c.8,2.41-.52,4.76-3.43,6.39,2.75.76,5.93,2,9.08,3.15l-2.79,1.39c-2.75-1-5.58-2.1-8.89-3.05l-.87-1.76,1.42-.71c2.51-1.24,3.42-2.76,3-4.18l-5.49,2.73-.65-1.31,5.41-2.69c-.93-.85-2.46-.87-4.48.13l-1.77.88-.89-1.8,10.68-5.29.65,1.31-3.93,1.95a3.73,3.73,0,0,1,2.27,1.57l2.76-1.37.65,1.31Z"/></g><g class="cls-4"><path class="cls-3" d="M270.6,132.64c.8,2.4-.52,4.75-3.43,6.38,2.75.76,5.93,1.95,9.08,3.16l-2.79,1.38c-2.75-1-5.58-2.09-8.89-3l-.87-1.77,1.42-.7c2.51-1.25,3.42-2.76,3-4.19l-5.49,2.73-.65-1.31,5.41-2.68c-.93-.86-2.46-.88-4.48.12l-1.77.88-.89-1.79,10.68-5.3.65,1.31-3.93,2a3.73,3.73,0,0,1,2.27,1.57l2.76-1.37.65,1.31Z"/></g><g class="cls-4"><path class="cls-3" d="M229.8,161.46c.81,2.4-.51,4.75-3.43,6.38,2.76.76,5.94,1.95,9.09,3.16l-2.79,1.38c-2.76-1-5.58-2.09-8.89-3l-.87-1.77,1.42-.7c2.5-1.25,3.42-2.76,3-4.19l-5.5,2.73-.65-1.31,5.41-2.68c-.92-.86-2.45-.88-4.48.12l-1.76.88-.89-1.79,10.68-5.3.65,1.31-3.93,2a3.73,3.73,0,0,1,2.27,1.57l2.76-1.37.65,1.31Z"/></g><g class="cls-4"><path class="cls-3" d="M217.7,175.07c.81,2.41-.51,4.76-3.43,6.39,2.76.76,5.94,1.95,9.09,3.15L220.57,186c-2.76-1-5.58-2.1-8.89-3l-.87-1.77,1.42-.71c2.5-1.24,3.42-2.76,3-4.18l-5.5,2.73-.65-1.31,5.41-2.69c-.92-.85-2.45-.87-4.47.13l-1.77.88-.89-1.8L218,169l.65,1.31-3.93,2a3.73,3.73,0,0,1,2.27,1.57l2.76-1.37.65,1.31Z"/></g><g class="cls-4"><path class="cls-3" d="M204.16,174.15c.8,2.41-.51,4.76-3.43,6.38,2.75.77,5.93,2,9.08,3.16L207,185.07c-2.75-1-5.57-2.09-8.88-3l-.88-1.76,1.43-.71c2.5-1.24,3.42-2.76,3-4.18l-5.49,2.72-.65-1.31,5.41-2.68c-.92-.85-2.46-.87-4.48.13l-1.76.87-.89-1.79L204.49,168l.65,1.31-3.93,1.95a3.68,3.68,0,0,1,2.27,1.57l2.76-1.37.65,1.31Z"/></g><g class="cls-4"><path class="cls-3" d="M185.53,174.15c.8,2.41-.51,4.76-3.43,6.38,2.75.77,5.93,2,9.08,3.16l-2.79,1.38c-2.75-1-5.57-2.09-8.88-3l-.88-1.76,1.43-.71c2.5-1.24,3.42-2.76,3-4.18l-5.49,2.72-.65-1.31,5.41-2.68c-.92-.85-2.46-.87-4.48.13l-1.76.87-.89-1.79L185.86,168l.65,1.31-3.93,1.95a3.73,3.73,0,0,1,2.27,1.57l2.76-1.37.65,1.31Z"/></g><g class="cls-4"><path class="cls-3" d="M180.17,148.58c.8,2.41-.52,4.76-3.43,6.38,2.75.77,5.93,2,9.08,3.16L183,159.5c-2.75-1-5.58-2.09-8.88-3l-.88-1.76,1.42-.71c2.51-1.24,3.42-2.76,3-4.18l-5.49,2.72-.65-1.31,5.41-2.68c-.92-.85-2.46-.87-4.48.13l-1.77.87-.88-1.79,10.67-5.29.65,1.31-3.93,1.95a3.73,3.73,0,0,1,2.27,1.57l2.76-1.37.65,1.31Z"/></g><g class="cls-4"><path class="cls-3" d="M201.14,152c.8,2.4-.51,4.76-3.43,6.38,2.75.77,5.93,2,9.08,3.16L204,162.93c-2.75-1-5.57-2.09-8.88-3l-.88-1.76,1.43-.71c2.5-1.24,3.42-2.76,3-4.18L193.17,156l-.65-1.31,5.41-2.68c-.92-.85-2.46-.87-4.48.13l-1.76.87-.89-1.79,10.67-5.29.65,1.31-3.93,1.94a3.81,3.81,0,0,1,2.27,1.57l2.76-1.37.65,1.31Z"/></g><g class="cls-4"><path class="cls-3" d="M204.16,131.71c.8,2.41-.51,4.76-3.43,6.39,2.75.76,5.93,2,9.08,3.15L207,142.64c-2.75-1-5.57-2.1-8.88-3l-.88-1.76,1.43-.71c2.5-1.24,3.42-2.76,3-4.18l-5.49,2.73-.65-1.31,5.41-2.69c-.92-.85-2.46-.87-4.48.13l-1.76.88-.89-1.8,10.67-5.29.65,1.31-3.93,1.95a3.68,3.68,0,0,1,2.27,1.57l2.76-1.37.65,1.31Z"/></g><g class="cls-4"><path class="cls-3" d="M163.37,160.53c.8,2.41-.52,4.76-3.43,6.39,2.75.76,5.93,2,9.08,3.15l-2.79,1.39c-2.75-1-5.58-2.1-8.89-3.05l-.87-1.76,1.42-.71c2.51-1.24,3.42-2.76,3-4.18l-5.49,2.73-.65-1.31,5.41-2.69c-.93-.85-2.46-.87-4.48.13l-1.77.88-.89-1.8,10.68-5.29.65,1.31-3.93,1.95a3.73,3.73,0,0,1,2.27,1.57l2.76-1.37.65,1.31Z"/></g><g class="cls-4"><path class="cls-3" d="M151.27,174.15c.8,2.41-.51,4.76-3.43,6.38,2.75.77,5.93,2,9.08,3.16l-2.79,1.38c-2.75-1-5.58-2.09-8.88-3l-.88-1.76,1.42-.71c2.51-1.24,3.42-2.76,3-4.18l-5.49,2.72-.65-1.31,5.41-2.68c-.92-.85-2.46-.87-4.48.13l-1.76.87-.89-1.79L151.6,168l.65,1.31-3.93,1.95a3.73,3.73,0,0,1,2.27,1.57l2.76-1.37.65,1.31Z"/></g><g class="cls-4"><path class="cls-3" d="M43.43,45.11c.8,2.41-.51,4.76-3.43,6.39,2.75.76,5.93,2,9.08,3.15L46.29,56c-2.75-1-5.57-2.1-8.88-3l-.88-1.76L38,50.52c2.5-1.24,3.41-2.76,3-4.18l-5.49,2.73-.65-1.31,5.41-2.69c-.92-.85-2.46-.87-4.48.13L34,46.08l-.89-1.8L43.76,39l.65,1.31-3.93,2a3.73,3.73,0,0,1,2.27,1.57l2.76-1.37.65,1.31Z"/></g><g class="cls-4"><path class="cls-3" d="M30.45,64.57C31.26,67,29.94,69.33,27,71c2.76.76,5.94,2,9.09,3.16l-2.79,1.38c-2.76-1-5.58-2.09-8.89-3l-.87-1.77L25,70c2.5-1.24,3.42-2.76,3-4.18l-5.5,2.72-.65-1.31,5.41-2.68c-.92-.86-2.45-.88-4.47.13L21,65.53l-.89-1.79,10.68-5.3.65,1.31-3.93,2a3.73,3.73,0,0,1,2.27,1.57l2.76-1.37.65,1.31Z"/></g><g class="cls-4"><path class="cls-3" d="M27.43,81.61C28.24,84,26.92,86.37,24,88c2.76.76,5.94,2,9.09,3.15L30.3,92.54c-2.76-1-5.58-2.1-8.89-3l-.87-1.77L22,87c2.5-1.25,3.42-2.76,3-4.19l-5.5,2.73-.65-1.31,5.41-2.68c-.92-.86-2.45-.88-4.47.12L18,82.58l-.89-1.79,10.68-5.3.65,1.31-3.93,2a3.73,3.73,0,0,1,2.27,1.57L29.52,79l.65,1.31Z"/></g><g class="cls-4"><path class="cls-3" d="M47.53,67.39c.8,2.41-.51,4.76-3.43,6.39,2.75.76,5.93,2,9.08,3.15l-2.79,1.39c-2.75-1-5.57-2.1-8.88-3l-.88-1.77,1.43-.7c2.5-1.25,3.42-2.76,3-4.19l-5.49,2.73L38.91,70l5.41-2.68c-.92-.86-2.46-.88-4.48.12l-1.76.88-.89-1.79,10.67-5.3.65,1.31-3.93,2a3.73,3.73,0,0,1,2.27,1.57l2.76-1.37L50.26,66Z"/></g><g class="cls-4"><path class="cls-3" d="M67,62.16c.8,2.4-.51,4.76-3.43,6.38,2.75.77,5.93,2,9.08,3.16l-2.79,1.38c-2.75-1-5.57-2.09-8.88-3l-.88-1.76,1.43-.71c2.5-1.24,3.42-2.76,3-4.18L59,66.11l-.65-1.31,5.41-2.68c-.92-.85-2.46-.87-4.48.13l-1.76.87-.89-1.79L67.29,56l.65,1.31L64,59.29a3.76,3.76,0,0,1,2.27,1.57L69,59.5l.65,1.3Z"/></g><g class="cls-4"><path class="cls-3" d="M63.53,45.11c.8,2.41-.52,4.76-3.43,6.39,2.75.76,5.93,2,9.08,3.15L66.39,56c-2.75-1-5.58-2.1-8.89-3l-.87-1.76,1.42-.71c2.51-1.24,3.42-2.76,3-4.18l-5.49,2.73-.65-1.31,5.4-2.69c-.92-.85-2.45-.87-4.47.13l-1.77.88-.89-1.8L63.86,39l.65,1.31-3.93,2a3.73,3.73,0,0,1,2.27,1.57l2.76-1.37.65,1.31Z"/></g><g class="cls-4"><path class="cls-3" d="M79.52,43.91c.8,2.4-.51,4.76-3.43,6.38,2.76.76,5.93,2,9.09,3.16l-2.79,1.38c-2.76-1-5.58-2.09-8.89-3L72.62,50l1.43-.71c2.5-1.24,3.42-2.76,3-4.18l-5.5,2.72-.65-1.31,5.41-2.68c-.92-.86-2.45-.87-4.48.13l-1.76.87-.89-1.79,10.67-5.29.65,1.31L76.58,41a3.76,3.76,0,0,1,2.26,1.57l2.77-1.37.64,1.31Z"/></g><g class="cls-4"><path class="cls-3" d="M95.52,43.91c.8,2.4-.52,4.76-3.43,6.38,2.75.76,5.93,2,9.08,3.16l-2.79,1.38c-2.75-1-5.58-2.09-8.88-3L88.62,50,90,49.32c2.51-1.24,3.42-2.76,3-4.18l-5.49,2.72-.65-1.31,5.41-2.68c-.92-.86-2.46-.87-4.48.13l-1.77.87-.88-1.79,10.67-5.29.65,1.31L92.57,41a3.81,3.81,0,0,1,2.27,1.57l2.76-1.37.65,1.31Z"/></g><g class="cls-4"><path class="cls-3" d="M82.54,63.36c.8,2.41-.51,4.76-3.43,6.39,2.76.76,5.93,2,9.09,3.15l-2.79,1.39c-2.76-1-5.58-2.1-8.89-3l-.88-1.77,1.43-.71c2.5-1.24,3.42-2.76,3-4.18l-5.5,2.73L73.92,66l5.41-2.68c-.92-.86-2.45-.88-4.48.12l-1.76.88-.89-1.8,10.68-5.29.64,1.31-3.92,2a3.68,3.68,0,0,1,2.26,1.57l2.77-1.37L85.28,62Z"/></g><g class="cls-4"><path class="cls-3" d="M79.52,80.41c.8,2.4-.51,4.76-3.43,6.38,2.76.77,5.93,2,9.09,3.16l-2.79,1.38c-2.76-1-5.58-2.09-8.89-3l-.88-1.76,1.43-.71c2.5-1.24,3.42-2.76,3-4.18l-5.5,2.72-.65-1.31,5.41-2.68c-.92-.85-2.45-.87-4.48.13l-1.76.87-.89-1.79,10.67-5.29.65,1.31-3.92,1.94a3.74,3.74,0,0,1,2.26,1.58l2.77-1.37.64,1.31Z"/></g><g class="cls-4"><path class="cls-3" d="M99.62,66.19c.8,2.4-.51,4.76-3.43,6.38,2.75.77,5.93,2,9.08,3.16l-2.79,1.38c-2.75-1-5.58-2.09-8.88-3l-.88-1.76,1.42-.71c2.51-1.24,3.42-2.76,3-4.18l-5.49,2.72L91,68.83l5.41-2.68c-.92-.85-2.46-.87-4.48.13l-1.76.87-.89-1.79L100,60.07l.65,1.31-3.93,1.94a3.79,3.79,0,0,1,2.27,1.58l2.76-1.37.65,1.31Z"/></g><g class="cls-4"><path class="cls-3" d="M86.25,105.86c.8,2.41-.52,4.76-3.44,6.39,2.76.76,5.94,2,9.09,3.15l-2.79,1.38c-2.75-1-5.58-2.09-8.89-3L79.35,112l1.42-.71c2.51-1.24,3.42-2.76,3-4.18l-5.5,2.72-.64-1.31,5.4-2.68c-.92-.85-2.45-.87-4.47.13l-1.77.88L75.9,105l10.68-5.29.65,1.31-3.93,2a3.73,3.73,0,0,1,2.27,1.57l2.76-1.37.65,1.31Z"/></g><g class="cls-4"><path class="cls-3" d="M98.81,87.61c.8,2.4-.52,4.76-3.43,6.38,2.75.77,5.93,2,9.08,3.16l-2.79,1.38c-2.75-1-5.58-2.09-8.89-3l-.87-1.76L93.33,93c2.51-1.24,3.42-2.76,3-4.18l-5.49,2.72-.65-1.31,5.4-2.68c-.92-.85-2.45-.87-4.47.13l-1.77.87-.89-1.79,10.68-5.29.65,1.31-3.93,1.94a3.79,3.79,0,0,1,2.27,1.58L100.89,85l.65,1.31Z"/></g><g class="cls-4"><path class="cls-3" d="M114.8,87.61c.8,2.4-.51,4.76-3.43,6.38,2.76.77,5.93,2,9.09,3.16l-2.79,1.38c-2.76-1-5.58-2.09-8.89-3l-.88-1.76,1.43-.71c2.5-1.24,3.42-2.76,3-4.18l-5.5,2.72-.65-1.31,5.41-2.68c-.92-.85-2.45-.87-4.48.13l-1.76.87-.89-1.79,10.67-5.29.65,1.31-3.92,1.94a3.74,3.74,0,0,1,2.26,1.58L116.89,85l.65,1.31Z"/></g><g class="cls-4"><path class="cls-3" d="M101.83,107.07c.8,2.4-.52,4.75-3.43,6.38,2.75.76,5.93,2,9.08,3.16L104.69,118c-2.75-1-5.58-2.09-8.89-3l-.87-1.77,1.42-.7c2.51-1.25,3.42-2.76,3-4.19L93.86,111l-.65-1.31L98.62,107c-.93-.86-2.46-.88-4.48.12l-1.77.88-.89-1.79,10.68-5.3.65,1.31-3.93,2a3.73,3.73,0,0,1,2.27,1.57l2.76-1.37.65,1.31Z"/></g><g class="cls-4"><path class="cls-3" d="M98.81,124.11c.8,2.41-.52,4.76-3.43,6.39,2.75.76,5.93,1.95,9.08,3.15L101.67,135c-2.75-1-5.58-2.1-8.89-3l-.87-1.76,1.42-.71c2.51-1.24,3.42-2.76,3-4.18l-5.49,2.73-.65-1.31,5.4-2.69c-.92-.85-2.45-.87-4.47.13l-1.77.88-.89-1.8L99.14,118l.65,1.31-3.93,2a3.73,3.73,0,0,1,2.27,1.57l2.76-1.37.65,1.31Z"/></g><g class="cls-4"><path class="cls-3" d="M118.9,109.89c.81,2.41-.51,4.76-3.43,6.39,2.76.76,5.94,2,9.09,3.15l-2.79,1.39c-2.76-1-5.58-2.1-8.89-3L112,116l1.42-.71c2.5-1.24,3.42-2.76,3-4.18l-5.5,2.73-.65-1.31,5.41-2.69c-.92-.85-2.45-.87-4.48.13l-1.76.88-.89-1.8,10.68-5.29.65,1.31L116,107a3.73,3.73,0,0,1,2.27,1.57l2.76-1.37.65,1.31Z"/></g><g class="cls-4"><path class="cls-3" d="M58.22,156.82c.8,2.41-.52,4.76-3.44,6.39,2.76.76,5.94,1.95,9.09,3.15l-2.79,1.39c-2.75-1-5.58-2.1-8.89-3.05l-.87-1.76,1.42-.71c2.51-1.24,3.42-2.76,3-4.18l-5.49,2.73-.65-1.31,5.4-2.69c-.92-.85-2.45-.87-4.47.13l-1.77.88-.89-1.8,10.68-5.29L59.2,152l-3.93,2a3.73,3.73,0,0,1,2.27,1.57l2.76-1.37.65,1.31Z"/></g><g class="cls-4"><path class="cls-3" d="M70.78,138.57c.8,2.41-.52,4.76-3.43,6.39,2.75.76,5.93,1.95,9.08,3.15l-2.79,1.39c-2.75-1-5.58-2.1-8.89-3.05l-.87-1.76L65.3,144c2.51-1.24,3.42-2.76,3-4.18l-5.49,2.73-.65-1.31,5.41-2.69c-.93-.85-2.46-.87-4.48.13l-1.77.88-.89-1.8,10.68-5.29.65,1.31-3.93,2a3.73,3.73,0,0,1,2.27,1.57l2.76-1.37.65,1.31Z"/></g><g class="cls-4"><path class="cls-3" d="M86.77,138.57c.8,2.41-.51,4.76-3.43,6.39,2.76.76,5.93,1.95,9.09,3.15l-2.79,1.39c-2.76-1-5.58-2.1-8.89-3.05l-.88-1.76L81.3,144c2.5-1.24,3.42-2.76,3-4.18l-5.5,2.73-.65-1.31,5.41-2.69c-.92-.85-2.45-.87-4.48.13l-1.76.88-.89-1.8,10.68-5.29.64,1.31-3.92,2a3.68,3.68,0,0,1,2.26,1.57l2.77-1.37.65,1.31Z"/></g><g class="cls-4"><path class="cls-3" d="M73.8,158c.8,2.4-.52,4.76-3.43,6.38,2.75.76,5.93,2,9.08,3.16L76.66,169c-2.75-1-5.58-2.09-8.89-3l-.87-1.77,1.42-.7c2.51-1.24,3.42-2.76,3-4.18L65.83,162l-.65-1.31L70.59,158c-.93-.86-2.46-.88-4.48.13l-1.77.87-.89-1.79,10.68-5.3.65,1.31-3.93,1.95a3.73,3.73,0,0,1,2.27,1.57l2.76-1.37.65,1.31Z"/></g><g class="cls-4"><path class="cls-3" d="M70.78,175.07c.8,2.41-.52,4.76-3.43,6.39,2.75.76,5.93,1.95,9.08,3.15L73.64,186c-2.75-1-5.58-2.1-8.89-3l-.87-1.77,1.42-.71c2.51-1.24,3.42-2.76,3-4.18L62.81,179l-.65-1.31L67.57,175c-.93-.85-2.46-.87-4.48.13l-1.77.88-.89-1.8L71.11,169l.65,1.31-3.93,2a3.73,3.73,0,0,1,2.27,1.57l2.76-1.37.65,1.31Z"/></g><g class="cls-4"><path class="cls-3" d="M26.89,160.25c.81,2.41-.51,4.76-3.43,6.39,2.76.76,5.94,2,9.09,3.15l-2.79,1.38c-2.76-1-5.58-2.09-8.89-3L20,166.37l1.42-.71c2.5-1.24,3.42-2.76,3-4.18l-5.5,2.72-.65-1.31,5.41-2.68c-.92-.85-2.45-.87-4.47.13l-1.77.88-.89-1.8,10.68-5.29.65,1.31L24,157.39A3.73,3.73,0,0,1,26.22,159L29,157.59l.65,1.31Z"/></g><g class="cls-4"><path class="cls-3" d="M42.47,161.46c.81,2.4-.51,4.75-3.43,6.38,2.76.76,5.94,1.95,9.09,3.16l-2.79,1.38c-2.76-1-5.58-2.09-8.89-3l-.87-1.77,1.42-.7c2.51-1.25,3.42-2.76,3-4.19l-5.5,2.73-.65-1.31,5.41-2.68c-.92-.86-2.45-.88-4.47.12l-1.77.88-.89-1.79,10.68-5.3.65,1.31-3.93,2a3.73,3.73,0,0,1,2.27,1.57l2.76-1.37.65,1.31Z"/></g><g class="cls-4"><path class="cls-3" d="M39.45,178.5c.81,2.41-.51,4.76-3.43,6.39,2.76.76,5.94,2,9.09,3.15l-2.79,1.39c-2.76-1-5.58-2.1-8.89-3.05l-.87-1.76,1.42-.71c2.51-1.24,3.42-2.76,3-4.18l-5.5,2.73-.65-1.31,5.41-2.69c-.92-.85-2.45-.87-4.47.13l-1.77.88-.89-1.8,10.68-5.29.65,1.31-3.93,1.95a3.73,3.73,0,0,1,2.27,1.57l2.76-1.37.65,1.31Z"/></g><g class="cls-4"><path class="cls-3" d="M90.87,160.85c.81,2.41-.51,4.76-3.43,6.39,2.76.76,5.94,1.95,9.09,3.15l-2.79,1.39c-2.76-1-5.58-2.1-8.89-3.05L84,167l1.42-.71c2.5-1.24,3.42-2.76,3-4.18l-5.5,2.73-.65-1.31,5.41-2.69c-.92-.85-2.45-.87-4.47.13l-1.77.88-.89-1.8,10.68-5.29.65,1.31-3.93,2a3.73,3.73,0,0,1,2.27,1.57L93,158.19l.65,1.31Z"/></g><g class="cls-4"><path class="cls-3" d="M119.05,61c.8,2.4-.51,4.75-3.43,6.38,2.75.76,5.93,2,9.08,3.16l-2.79,1.38c-2.75-1-5.58-2.09-8.88-3l-.88-1.77,1.42-.7c2.51-1.25,3.42-2.76,3-4.19l-5.49,2.73-.65-1.31,5.41-2.68c-.92-.86-2.46-.88-4.48.12l-1.76.88-.89-1.79,10.67-5.3.65,1.31-3.93,2a3.73,3.73,0,0,1,2.27,1.57l2.76-1.37.65,1.31Z"/></g><g class="cls-4"><path class="cls-3" d="M115.61,43.91c.81,2.4-.51,4.76-3.43,6.38,2.76.76,5.94,2,9.09,3.16l-2.79,1.38c-2.76-1-5.58-2.09-8.89-3L108.72,50l1.42-.71c2.51-1.24,3.42-2.76,3-4.18l-5.5,2.72L107,46.55l5.41-2.68c-.92-.86-2.45-.87-4.47.13l-1.77.87-.89-1.79L116,37.79l.65,1.31L112.67,41a3.81,3.81,0,0,1,2.27,1.57l2.76-1.37.65,1.31Z"/></g><g class="cls-4"><path class="cls-3" d="M31.66,102.07c.81,2.4-.51,4.76-3.43,6.38,2.76.77,5.94,2,9.09,3.16L34.53,113c-2.76-1-5.58-2.09-8.89-3l-.87-1.76,1.42-.71c2.5-1.24,3.42-2.76,3-4.18L23.69,106,23,104.71,28.45,102c-.92-.85-2.45-.87-4.47.13l-1.77.87-.89-1.79L32,96l.65,1.31L28.72,99.2A3.79,3.79,0,0,1,31,100.78l2.76-1.37.65,1.31Z"/></g><g class="cls-4"><path class="cls-3" d="M47.66,102.07c.8,2.4-.51,4.76-3.43,6.38,2.75.77,5.93,2,9.08,3.16L50.52,113c-2.75-1-5.57-2.09-8.88-3l-.88-1.76,1.43-.71c2.5-1.24,3.41-2.76,3-4.18L39.69,106,39,104.71,44.45,102c-.92-.85-2.46-.87-4.48.13l-1.76.87-.89-1.79L48,96l.65,1.31L44.71,99.2A3.79,3.79,0,0,1,47,100.78l2.76-1.37.65,1.31Z"/></g><g class="cls-4"><path class="cls-3" d="M34.68,121.53c.81,2.4-.51,4.75-3.43,6.38,2.76.76,5.94,2,9.09,3.15l-2.79,1.39c-2.76-1-5.58-2.09-8.89-3l-.87-1.77,1.42-.7c2.5-1.25,3.42-2.76,3-4.19l-5.5,2.73-.65-1.31,5.41-2.68c-.92-.86-2.45-.88-4.47.12l-1.77.88-.89-1.79L35,115.4l.65,1.31-3.93,2A3.73,3.73,0,0,1,34,120.23l2.76-1.37.65,1.31Z"/></g><g class="cls-4"><path class="cls-3" d="M31.66,138.57c.81,2.41-.51,4.76-3.43,6.39,2.76.76,5.94,1.95,9.09,3.15l-2.79,1.39c-2.76-1-5.58-2.1-8.89-3.05l-.87-1.76,1.42-.71c2.5-1.24,3.42-2.76,3-4.18l-5.5,2.73L23,141.22l5.41-2.69c-.92-.85-2.45-.87-4.47.13l-1.77.88-.89-1.8L32,132.45l.65,1.31-3.93,2A3.73,3.73,0,0,1,31,137.28l2.76-1.37.65,1.31Z"/></g><g class="cls-4"><path class="cls-3" d="M51.76,124.35c.8,2.41-.51,4.76-3.43,6.39,2.75.76,5.93,1.95,9.08,3.15l-2.79,1.39c-2.75-1-5.57-2.1-8.88-3.05l-.88-1.76,1.43-.71c2.5-1.24,3.42-2.76,3-4.18l-5.49,2.72-.65-1.3,5.41-2.69c-.92-.85-2.46-.87-4.48.13l-1.76.88-.89-1.8,10.67-5.29.65,1.31-3.93,1.95a3.73,3.73,0,0,1,2.27,1.57l2.76-1.37.65,1.31Z"/></g><g class="cls-4"><path class="cls-3" d="M71.19,119.12c.8,2.4-.51,4.76-3.43,6.38,2.75.76,5.93,2,9.08,3.16L74.05,130c-2.75-1-5.57-2.09-8.88-3l-.88-1.77,1.43-.7c2.5-1.24,3.42-2.76,3-4.18l-5.49,2.72-.65-1.31L68,119.08c-.92-.86-2.46-.88-4.48.13l-1.76.87-.89-1.79L71.52,113l.65,1.31-3.93,2a3.68,3.68,0,0,1,2.27,1.57l2.76-1.37.65,1.31Z"/></g><g class="cls-4"><path class="cls-3" d="M67.76,102.07c.8,2.4-.52,4.76-3.44,6.38,2.76.77,5.94,2,9.09,3.16L70.62,113c-2.75-1-5.58-2.09-8.89-3l-.87-1.76,1.42-.71c2.51-1.24,3.42-2.76,3-4.18L59.79,106l-.65-1.31,5.4-2.68c-.92-.85-2.45-.87-4.47.13L58.3,103l-.89-1.79L68.09,96l.65,1.31L64.81,99.2a3.79,3.79,0,0,1,2.27,1.58l2.76-1.37.65,1.31Z"/></g><g class="cls-4"><path class="cls-3" d="M137.39,42.81c.8,2.4-.51,4.76-3.43,6.38,2.76.76,5.93,2,9.09,3.16l-2.79,1.38c-2.76-1-5.58-2.09-8.89-3l-.88-1.77,1.43-.7c2.5-1.25,3.42-2.76,3-4.19l-5.5,2.73-.65-1.31,5.41-2.68c-.92-.86-2.45-.88-4.48.13l-1.76.87L127.05,42l10.67-5.3.65,1.31-3.92,1.95a3.68,3.68,0,0,1,2.26,1.57l2.77-1.37.65,1.31Z"/></g><g class="cls-4"><path class="cls-3" d="M153.39,42.81c.8,2.4-.51,4.76-3.43,6.38,2.75.76,5.93,2,9.08,3.16l-2.79,1.38c-2.75-1-5.58-2.09-8.88-3l-.88-1.77,1.42-.7c2.51-1.25,3.42-2.76,3-4.19l-5.49,2.73-.65-1.31,5.41-2.68c-.92-.86-2.46-.88-4.48.13l-1.77.87L143.05,42l10.67-5.3.65,1.31-3.93,1.95a3.73,3.73,0,0,1,2.27,1.57l2.76-1.37.65,1.31Z"/></g><g class="cls-4"><path class="cls-3" d="M140.41,62.26c.8,2.41-.51,4.76-3.43,6.39,2.76.76,5.94,1.95,9.09,3.15l-2.79,1.38c-2.76-1-5.58-2.09-8.89-3l-.88-1.76,1.43-.71c2.5-1.24,3.42-2.76,3-4.18l-5.5,2.72-.65-1.31,5.41-2.68c-.92-.85-2.45-.87-4.48.13l-1.76.88-.89-1.8,10.68-5.29.64,1.31-3.92,1.95A3.68,3.68,0,0,1,139.73,61l2.77-1.37.65,1.31Z"/></g><g class="cls-4"><path class="cls-3" d="M181.15,60.4c.8,2.41-.51,4.76-3.43,6.39,2.75.76,5.93,1.95,9.08,3.15L184,71.33c-2.75-1-5.57-2.1-8.88-3l-.88-1.77,1.43-.7c2.5-1.25,3.41-2.76,3-4.19l-5.49,2.73-.65-1.31,5.41-2.68c-.92-.86-2.46-.88-4.48.12l-1.76.88-.89-1.79,10.67-5.3.65,1.31-3.93,1.95a3.73,3.73,0,0,1,2.27,1.57l2.76-1.37.65,1.31Z"/></g><g class="cls-4"><path class="cls-3" d="M177.71,43.36c.81,2.4-.51,4.76-3.43,6.38,2.76.76,5.94,1.95,9.09,3.16l-2.79,1.38c-2.76-1-5.58-2.09-8.89-3l-.87-1.77,1.42-.7c2.51-1.24,3.42-2.76,3-4.18l-5.5,2.72L169.09,46l5.41-2.68c-.92-.86-2.45-.88-4.47.13l-1.77.87-.89-1.79,10.68-5.3.65,1.31-3.93,2A3.73,3.73,0,0,1,177,42.06l2.76-1.37.65,1.31Z"/></g><g class="cls-4"><path class="cls-3" d="M193.71,42.15c.8,2.41-.51,4.76-3.43,6.39,2.75.76,5.93,2,9.08,3.15l-2.79,1.39c-2.75-1-5.57-2.1-8.88-3l-.88-1.77,1.43-.71c2.5-1.24,3.42-2.76,3-4.18l-5.49,2.73-.65-1.31,5.41-2.68c-.92-.86-2.46-.88-4.48.12l-1.76.88-.89-1.8L194,36l.65,1.31-3.93,1.95A3.73,3.73,0,0,1,193,40.86l2.76-1.37.65,1.31Z"/></g><g class="cls-4"><path class="cls-3" d="M209.71,42.15c.8,2.41-.52,4.76-3.44,6.39,2.76.76,5.94,2,9.09,3.15l-2.79,1.39c-2.75-1-5.58-2.1-8.89-3l-.87-1.77,1.42-.71c2.51-1.24,3.42-2.76,3-4.18l-5.49,2.73-.65-1.31,5.4-2.68c-.92-.86-2.45-.88-4.47.12l-1.77.88-.89-1.8L210,36l.65,1.31-3.93,1.95A3.73,3.73,0,0,1,209,40.86l2.76-1.37.65,1.31Z"/></g><g class="cls-4"><path class="cls-3" d="M196.73,61.61c.8,2.4-.51,4.76-3.43,6.38,2.75.76,5.93,2,9.08,3.16l-2.79,1.38c-2.75-1-5.57-2.09-8.88-3l-.88-1.76,1.43-.71c2.5-1.24,3.42-2.76,3-4.18l-5.49,2.72-.65-1.31,5.41-2.68c-.92-.86-2.46-.88-4.48.13l-1.76.87-.89-1.79,10.67-5.29.65,1.3-3.93,2a3.73,3.73,0,0,1,2.27,1.57l2.76-1.37.65,1.31Z"/></g><g class="cls-4"><path class="cls-3" d="M233.24,59.2c.8,2.4-.52,4.76-3.43,6.38,2.75.77,5.93,2,9.08,3.16l-2.79,1.38c-2.75-1-5.58-2.09-8.88-3l-.88-1.76,1.42-.71c2.51-1.24,3.42-2.76,3-4.18l-5.49,2.72-.65-1.31L230,59.16c-.92-.85-2.46-.87-4.48.13l-1.77.87-.88-1.79,10.67-5.29.65,1.31-3.93,1.94a3.79,3.79,0,0,1,2.27,1.58l2.76-1.37.65,1.31Z"/></g><g class="cls-4"><path class="cls-3" d="M229.8,42.15c.81,2.41-.51,4.76-3.43,6.39,2.76.76,5.94,2,9.09,3.15l-2.79,1.39c-2.76-1-5.58-2.1-8.89-3l-.87-1.77,1.42-.71c2.5-1.24,3.42-2.76,3-4.18l-5.5,2.73-.65-1.31,5.41-2.68c-.92-.86-2.45-.88-4.48.12l-1.76.88-.89-1.8L230.14,36l.65,1.31-3.93,1.95a3.73,3.73,0,0,1,2.27,1.57l2.76-1.37.65,1.31Z"/></g><g class="cls-4"><path class="cls-3" d="M251.58,41.05c.8,2.41-.51,4.76-3.43,6.39,2.75.76,5.93,2,9.08,3.15L254.44,52c-2.75-1-5.57-2.09-8.88-3l-.88-1.76,1.43-.71c2.5-1.24,3.42-2.76,3-4.18L243.61,45,243,43.69,248.37,41c-.92-.85-2.46-.87-4.48.13l-1.76.88-.89-1.8,10.67-5.29.65,1.31-3.93,1.95a3.73,3.73,0,0,1,2.27,1.57l2.76-1.37.65,1.31Z"/></g><g class="cls-4"><path class="cls-3" d="M267.58,41.05c.8,2.41-.52,4.76-3.43,6.39,2.75.76,5.93,2,9.08,3.15L270.44,52c-2.75-1-5.58-2.09-8.89-3l-.87-1.76,1.42-.71c2.51-1.24,3.42-2.76,3-4.18L259.61,45,259,43.69,264.37,41c-.93-.85-2.46-.87-4.48.13l-1.77.88-.89-1.8,10.68-5.29.65,1.31-3.93,1.95a3.73,3.73,0,0,1,2.27,1.57l2.76-1.37.65,1.31Z"/></g><g class="cls-4"><path class="cls-3" d="M254.6,60.51c.8,2.4-.51,4.76-3.43,6.38,2.75.76,5.93,2,9.08,3.16l-2.79,1.38c-2.75-1-5.57-2.09-8.88-3l-.88-1.77,1.43-.7c2.5-1.25,3.42-2.76,3-4.19l-5.49,2.73L246,63.15l5.41-2.68c-.92-.86-2.46-.88-4.48.12l-1.76.88-.89-1.79,10.67-5.3.65,1.31-3.93,2a3.68,3.68,0,0,1,2.27,1.57l2.76-1.37.65,1.31Z"/></g><g class="cls-4"><path class="cls-3" d="M198.23,100.32c.8,2.4-.51,4.75-3.43,6.38,2.75.76,5.93,2,9.08,3.15l-2.79,1.39c-2.75-1-5.58-2.09-8.88-3l-.88-1.77,1.43-.7c2.5-1.25,3.41-2.76,3-4.19l-5.49,2.73-.65-1.31,5.41-2.68c-.92-.86-2.46-.88-4.48.12l-1.76.88-.89-1.79,10.67-5.3.65,1.31-3.93,2A3.73,3.73,0,0,1,197.55,99l2.76-1.37L201,99Z"/></g><g class="cls-4"><path class="cls-3" d="M194.79,83.27c.81,2.4-.51,4.76-3.43,6.38,2.76.76,5.94,1.95,9.09,3.16l-2.79,1.38c-2.76-1-5.58-2.09-8.89-3l-.87-1.76,1.42-.71c2.51-1.24,3.42-2.76,3-4.18l-5.5,2.72-.65-1.31,5.41-2.68c-.92-.86-2.45-.88-4.47.13l-1.77.87-.89-1.79,10.68-5.3.65,1.31-3.93,2A3.73,3.73,0,0,1,194.12,82l2.76-1.37.65,1.31Z"/></g><g class="cls-4"><path class="cls-3" d="M210.79,82.06c.8,2.41-.51,4.76-3.43,6.39,2.75.76,5.93,2,9.08,3.15L213.65,93c-2.75-1-5.57-2.1-8.88-3l-.88-1.77,1.43-.7c2.5-1.25,3.42-2.76,3-4.19L202.82,86l-.65-1.31L207.58,82c-.92-.86-2.46-.88-4.48.12l-1.76.88-.89-1.79,10.67-5.3.65,1.31-3.93,2a3.73,3.73,0,0,1,2.27,1.57l2.76-1.37.65,1.31Z"/></g><g class="cls-4"><path class="cls-3" d="M226.79,82.06c.8,2.41-.52,4.76-3.44,6.39,2.76.76,5.94,2,9.09,3.15L229.65,93c-2.75-1-5.58-2.1-8.89-3l-.87-1.77,1.42-.7c2.51-1.25,3.42-2.76,3-4.19L218.82,86l-.65-1.31,5.4-2.68c-.92-.86-2.45-.88-4.47.12l-1.77.88-.89-1.79,10.68-5.3.65,1.31-3.93,2a3.73,3.73,0,0,1,2.27,1.57l2.76-1.37.65,1.31Z"/></g><g class="cls-4"><path class="cls-3" d="M213.81,101.52c.8,2.4-.51,4.76-3.43,6.38,2.75.77,5.93,1.95,9.08,3.16l-2.79,1.38c-2.75-1-5.57-2.09-8.88-3l-.88-1.76,1.43-.71c2.5-1.24,3.42-2.76,3-4.18l-5.49,2.72-.65-1.31,5.41-2.68c-.92-.86-2.46-.87-4.48.13l-1.76.87-.89-1.79,10.67-5.29.65,1.31-3.93,1.94a3.81,3.81,0,0,1,2.27,1.57l2.76-1.37.65,1.31Z"/></g><g class="cls-4"><path class="cls-3" d="M250.32,99.11c.8,2.41-.52,4.76-3.43,6.38,2.75.77,5.93,2,9.08,3.16L253.18,110c-2.75-1-5.58-2.09-8.88-3l-.88-1.76,1.42-.71c2.51-1.24,3.42-2.76,3-4.18l-5.49,2.72-.65-1.31,5.41-2.68c-.92-.85-2.46-.87-4.48.13l-1.77.88-.88-1.8L250.65,93l.65,1.31-3.93,2a3.73,3.73,0,0,1,2.27,1.57l2.76-1.37.65,1.31Z"/></g><g class="cls-4"><path class="cls-3" d="M246.88,82.06c.81,2.41-.51,4.76-3.43,6.39,2.76.76,5.94,2,9.09,3.15L249.75,93c-2.76-1-5.58-2.1-8.89-3L240,88.18l1.42-.7c2.5-1.25,3.42-2.76,3-4.19L238.91,86l-.65-1.31L243.67,82c-.92-.86-2.45-.88-4.48.12l-1.76.88-.89-1.79,10.68-5.3.64,1.31-3.92,2a3.68,3.68,0,0,1,2.26,1.57L249,79.4l.65,1.31Z"/></g><g class="cls-4"><path class="cls-3" d="M268.66,81c.8,2.41-.51,4.76-3.43,6.39,2.75.76,5.93,2,9.08,3.15l-2.79,1.39c-2.75-1-5.57-2.1-8.88-3l-.88-1.76,1.43-.71c2.5-1.24,3.42-2.76,3-4.18l-5.49,2.72-.65-1.3,5.41-2.69c-.92-.85-2.46-.87-4.48.13l-1.76.88-.89-1.8L269,74.84l.65,1.31-3.93,1.95A3.73,3.73,0,0,1,268,79.67l2.76-1.37.65,1.31Z"/></g><g class="cls-4"><path class="cls-3" d="M271.68,100.42c.8,2.4-.51,4.76-3.43,6.38,2.75.76,5.93,2,9.08,3.16l-2.79,1.38c-2.75-1-5.57-2.09-8.88-3l-.88-1.77,1.43-.7c2.5-1.24,3.42-2.76,3-4.18l-5.49,2.72-.65-1.31,5.41-2.68c-.92-.86-2.46-.88-4.48.13l-1.76.87-.89-1.79L272,94.29l.65,1.31-3.93,2A3.68,3.68,0,0,1,271,99.12l2.76-1.37.65,1.31Z"/></g><g class="cls-4"><path class="cls-3" d="M224.27,130c.81,2.4-.51,4.76-3.43,6.38,2.76.76,5.94,1.95,9.09,3.16l-2.79,1.38c-2.76-1-5.58-2.09-8.89-3l-.87-1.77,1.42-.7c2.5-1.24,3.42-2.76,3-4.18l-5.5,2.72-.65-1.31,5.41-2.68c-.92-.86-2.45-.88-4.47.13l-1.77.87-.89-1.79,10.68-5.3.65,1.31-3.93,2a3.73,3.73,0,0,1,2.27,1.57l2.76-1.37.65,1.31Z"/></g><g class="cls-4"><path class="cls-3" d="M220.84,112.9c.8,2.4-.51,4.76-3.43,6.38,2.75.77,5.93,2,9.08,3.16l-2.79,1.38c-2.75-1-5.58-2.09-8.88-3l-.88-1.76,1.42-.71c2.51-1.24,3.42-2.76,3-4.18l-5.49,2.72-.65-1.31,5.41-2.68c-.92-.85-2.46-.87-4.48.13l-1.76.87-.89-1.79,10.67-5.29.65,1.31L217.89,110a3.79,3.79,0,0,1,2.27,1.58l2.76-1.37.65,1.31Z"/></g><g class="cls-4"><path class="cls-3" d="M242.62,111.8c.8,2.4-.52,4.76-3.43,6.38,2.75.76,5.93,1.95,9.08,3.16l-2.79,1.38c-2.75-1-5.58-2.09-8.89-3l-.87-1.77,1.42-.7c2.51-1.24,3.42-2.76,3-4.18l-5.49,2.72-.65-1.31,5.41-2.68c-.93-.86-2.46-.88-4.48.13l-1.77.87-.89-1.79,10.68-5.3.65,1.31-3.93,2a3.73,3.73,0,0,1,2.27,1.57l2.76-1.37.65,1.31Z"/></g><g class="cls-4"><path class="cls-3" d="M245.64,131.25c.8,2.41-.52,4.76-3.43,6.39,2.75.76,5.93,2,9.08,3.15l-2.79,1.39c-2.75-1-5.58-2.1-8.89-3.05l-.87-1.76,1.42-.71c2.51-1.24,3.42-2.76,3-4.18l-5.49,2.73L237,133.9l5.41-2.69c-.93-.85-2.46-.87-4.48.13l-1.77.88-.89-1.8L246,125.13l.65,1.31-3.93,1.95A3.73,3.73,0,0,1,245,130l2.76-1.37.65,1.31Z"/></g><g class="cls-4"><path class="cls-3" d="M137.39,79.31c.8,2.4-.51,4.76-3.43,6.38,2.76.76,5.93,2,9.09,3.16l-2.79,1.38c-2.76-1-5.58-2.09-8.89-3l-.88-1.77,1.43-.7c2.5-1.24,3.42-2.76,3-4.18l-5.5,2.72L128.77,82l5.41-2.68c-.92-.86-2.45-.88-4.48.13l-1.76.87-.89-1.79,10.67-5.3.65,1.31-3.92,2A3.68,3.68,0,0,1,136.71,78l2.77-1.37.65,1.31Z"/></g><g class="cls-4"><path class="cls-3" d="M157.49,65.09c.8,2.4-.51,4.76-3.43,6.38,2.75.76,5.93,2,9.08,3.16L160.35,76c-2.75-1-5.58-2.09-8.88-3l-.88-1.77,1.42-.7c2.51-1.24,3.42-2.76,3-4.18L149.52,69l-.65-1.31,5.41-2.68c-.92-.86-2.46-.88-4.48.13l-1.76.87-.89-1.79L157.82,59l.65,1.31-3.93,1.95a3.73,3.73,0,0,1,2.27,1.57l2.76-1.37.65,1.31Z"/></g><g class="cls-4"><path class="cls-3" d="M141.62,99.76c.8,2.41-.51,4.76-3.43,6.39,2.76.76,5.93,1.95,9.09,3.15l-2.79,1.39c-2.76-1-5.58-2.1-8.89-3l-.88-1.77,1.43-.71c2.5-1.24,3.42-2.76,3-4.18l-5.5,2.73-.65-1.31,5.41-2.68c-.92-.86-2.45-.88-4.48.12l-1.76.88-.89-1.8L142,93.64,142.6,95l-3.92,2a3.68,3.68,0,0,1,2.26,1.57l2.77-1.37.65,1.31Z"/></g><g class="cls-4"><path class="cls-3" d="M157.62,99.76c.8,2.41-.51,4.76-3.43,6.39,2.75.76,5.93,1.95,9.08,3.15l-2.79,1.39c-2.75-1-5.58-2.1-8.88-3l-.88-1.77,1.42-.71c2.51-1.24,3.42-2.76,3-4.18l-5.49,2.73-.65-1.31,5.41-2.68c-.92-.86-2.46-.88-4.48.12l-1.77.88-.88-1.8L158,93.64,158.6,95l-3.93,2a3.73,3.73,0,0,1,2.27,1.57l2.76-1.37.65,1.31Z"/></g><g class="cls-4"><path class="cls-3" d="M144.64,119.22c.8,2.4-.51,4.76-3.43,6.38,2.76.76,5.94,2,9.09,3.16l-2.79,1.38c-2.76-1-5.58-2.09-8.89-3l-.88-1.76,1.43-.71c2.5-1.24,3.42-2.76,3-4.18l-5.5,2.72-.65-1.31,5.41-2.68c-.92-.86-2.45-.87-4.48.13l-1.76.87-.89-1.79L145,113.1l.64,1.3-3.92,1.95a3.68,3.68,0,0,1,2.26,1.57l2.77-1.37.65,1.31Z"/></g><g class="cls-4"><path class="cls-3" d="M141.62,136.27c.8,2.4-.51,4.75-3.43,6.38,2.76.76,5.93,1.95,9.09,3.16l-2.79,1.38c-2.76-1-5.58-2.09-8.89-3l-.88-1.77,1.43-.7c2.5-1.25,3.42-2.76,3-4.19l-5.5,2.73-.65-1.31,5.41-2.68c-.92-.86-2.45-.88-4.48.12l-1.76.88-.89-1.79,10.67-5.3.65,1.31-3.92,2a3.68,3.68,0,0,1,2.26,1.57l2.77-1.37.65,1.31Z"/></g><g class="cls-4"><path class="cls-3" d="M129.92,162.15c.8,2.4-.51,4.76-3.43,6.38,2.75.76,5.93,1.95,9.09,3.16l-2.79,1.38c-2.76-1-5.58-2.09-8.89-3l-.88-1.77,1.43-.7c2.5-1.24,3.42-2.76,3-4.18L122,166.1l-.65-1.31,5.41-2.68c-.92-.86-2.46-.88-4.48.13l-1.76.87-.89-1.79,10.67-5.3.65,1.31L127,159.28a3.68,3.68,0,0,1,2.26,1.57l2.77-1.37.64,1.31Z"/></g><g class="cls-4"><path class="cls-3" d="M117.82,175.77c.81,2.4-.51,4.75-3.43,6.38,2.76.76,5.94,1.95,9.09,3.16l-2.79,1.38c-2.76-1-5.58-2.09-8.89-3l-.87-1.77,1.42-.7c2.5-1.25,3.42-2.76,3-4.19l-5.5,2.73-.65-1.31,5.41-2.68c-.92-.86-2.45-.88-4.48.12l-1.76.88-.89-1.79,10.68-5.3.65,1.31-3.93,2a3.73,3.73,0,0,1,2.27,1.57l2.76-1.37.65,1.31Z"/></g><g class="cls-4"><path class="cls-3" d="M108.18,137.88c.8,2.4-.52,4.76-3.43,6.38,2.75.77,5.93,2,9.08,3.16L111,148.8c-2.75-1-5.58-2.09-8.89-3l-.87-1.76,1.42-.71c2.51-1.24,3.42-2.76,3-4.18l-5.49,2.72-.65-1.31,5.41-2.68c-.93-.85-2.46-.87-4.48.13l-1.77.87-.89-1.79,10.68-5.29.65,1.31L105.23,135a3.81,3.81,0,0,1,2.27,1.57l2.76-1.36.65,1.3Z"/></g><g class="cls-4"><path class="cls-3" d="M161.72,122.05c.8,2.4-.51,4.75-3.43,6.38,2.75.76,5.93,1.95,9.08,3.15L164.58,133c-2.75-1-5.58-2.09-8.88-3l-.88-1.77,1.42-.7c2.51-1.25,3.42-2.76,3-4.19L153.75,126l-.65-1.31,5.41-2.68c-.92-.86-2.46-.88-4.48.12l-1.76.88-.89-1.79,10.67-5.3.65,1.31-3.93,2a3.73,3.73,0,0,1,2.27,1.57l2.76-1.37.65,1.31Z"/></g><g class="cls-4"><path class="cls-3" d="M181.15,116.81c.8,2.4-.51,4.76-3.43,6.38,2.75.77,5.93,2,9.08,3.16L184,127.73c-2.75-1-5.57-2.09-8.88-3l-.88-1.76,1.43-.71c2.5-1.24,3.41-2.76,3-4.18l-5.49,2.72-.65-1.31,5.41-2.68c-.92-.85-2.46-.87-4.48.13l-1.76.87-.89-1.79,10.67-5.29.65,1.31-3.93,1.94a3.79,3.79,0,0,1,2.27,1.58l2.76-1.37.65,1.31Z"/></g><g class="cls-4"><path class="cls-3" d="M177.71,99.76c.81,2.41-.51,4.76-3.43,6.39,2.76.76,5.94,1.95,9.09,3.15l-2.79,1.39c-2.76-1-5.58-2.1-8.89-3l-.87-1.77,1.42-.71c2.51-1.24,3.42-2.76,3-4.18l-5.5,2.73-.65-1.31,5.41-2.68c-.92-.86-2.45-.88-4.47.12l-1.77.88-.89-1.8,10.68-5.29L178.7,95l-3.93,2A3.73,3.73,0,0,1,177,98.47l2.76-1.37.65,1.31Z"/></g></g><g id="text"><path class="cls-5" d="M55.37,108.06a6.38,6.38,0,0,0,1,.07,4.38,4.38,0,0,0,4.06-2.37,11.88,11.88,0,0,0,1.36-6c0-4.31-.61-7.33-1.81-9a5.13,5.13,0,0,0-4.46-2.16,8.78,8.78,0,0,0-5.12,1.51,6.8,6.8,0,0,0-2.82,4.43,2.11,2.11,0,0,1,1.24-.42A2.86,2.86,0,0,1,51,95.29,3.23,3.23,0,0,1,51.77,98a4,4,0,0,1-4,3.32A3,3,0,0,1,44.71,99a7.15,7.15,0,0,1-.21-1.74,8.27,8.27,0,0,1,3.15-6.29,12.46,12.46,0,0,1,8.52-3,14.82,14.82,0,0,1,10.41,3.78,10.25,10.25,0,0,1,3.7,7.68,7,7,0,0,1-3.56,6.15,21.45,21.45,0,0,1-8.31,2.73q6.29,0,9.64,2.72,3.63,3,3.63,8.87,0,7-6.5,11.11a18.37,18.37,0,0,1-9.92,3.21,12.83,12.83,0,0,1-9.08-3.52,10.77,10.77,0,0,1-3.77-8.07,5.17,5.17,0,0,1,1.42-4,4.81,4.81,0,0,1,3.43-1.33,3.79,3.79,0,0,1,2.08.49A3.3,3.3,0,0,1,51.07,121,4.37,4.37,0,0,1,50,124a3.77,3.77,0,0,1-3,1.26,5.27,5.27,0,0,1-.87-.07,4.16,4.16,0,0,1-.86-.21q-.34,2.61,2.16,5.43a9,9,0,0,0,6.9,3.17,7.77,7.77,0,0,0,5.5-2.53q3.42-3.28,3.42-9.39c0-4.62-.53-7.92-1.57-9.91s-2.47-3-4.27-3a6,6,0,0,0-2,.39c-.72.25-1.45.49-2.19.7a7.53,7.53,0,0,1-2,.31q-1.66,0-2-1.26a1.28,1.28,0,0,1,.66-1.08,3.37,3.37,0,0,1,1.57-.31,10.18,10.18,0,0,1,1.91.21C54,107.85,54.72,108,55.37,108.06Z"/><path class="cls-5" d="M88.87,134.18q-5.81,0-10.13-6.21-4.69-6.7-4.69-16.91t4.62-16.84q4.32-6.28,10.2-6.29t10.2,6.22q4.68,6.7,4.68,16.91t-4.51,16.66Q94.74,134.19,88.87,134.18Zm0-.62c1.86,0,3.26-1.89,4.19-5.65s1.39-9.4,1.39-16.89q0-10.8-.2-13.46-.7-9-5.38-9c-1.82,0-3.19,1.88-4.13,5.62s-1.39,9.36-1.39,16.84q0,10.89.21,13.54Q84.25,133.56,88.87,133.56Z"/><path class="cls-5" d="M150.48,133.56H123.31v-.7c2.09,0,3.89-.07,5.38-.21a13.61,13.61,0,0,0,3.07-.53,2,2,0,0,0,1-.59,7.13,7.13,0,0,0,.28-2.6V93.05a7.2,7.2,0,0,0-.28-2.53,1.77,1.77,0,0,0-.91-.56q-2.24-.84-8.52-.84v-.63h27.24a20.66,20.66,0,0,1,14.26,5.8,21.89,21.89,0,0,1,7.33,17q0,10.2-6.5,16.42A21.11,21.11,0,0,1,150.48,133.56Zm0-.7q6.66,0,9.71-5.4t3.05-16.19q0-10.23-3.09-16-3.28-6.17-9.67-6.17c-2.24,0-4,0-5.15.11a9.8,9.8,0,0,0-2.52.38,1.67,1.67,0,0,0-1,.81,8,8,0,0,0-.25,2.63v35.88a8.81,8.81,0,0,0,.25,2.67,1.59,1.59,0,0,0,.94.91,10.74,10.74,0,0,0,3,.31C147.36,132.85,148.92,132.86,150.51,132.86Z"/><path class="cls-5" d="M192,113.27V109.2c0-1.87-.3-3.14-.89-3.79s-1.87-1-3.84-1a9.14,9.14,0,0,0-4.22.93,4.59,4.59,0,0,0-2.37,2.5,2.8,2.8,0,0,1,.7-.07,2.67,2.67,0,0,1,2.17,1,3.72,3.72,0,0,1,.84,2.38,3.28,3.28,0,0,1-1.06,2.51,3.5,3.5,0,0,1-2.47,1,2.75,2.75,0,0,1-1.62-.49,3.89,3.89,0,0,1-2.05-3.35,7.21,7.21,0,0,1,.42-2.24q1-2.72,4.89-4a18.36,18.36,0,0,1,5.66-.91c3.45,0,6.05.65,7.82,2a5.23,5.23,0,0,1,2.38,4.39v15.4a35.47,35.47,0,0,0,.21,5.16c.33,1.58,1.16,2.37,2.51,2.37a2.43,2.43,0,0,0,2.45-1.88,17.88,17.88,0,0,0,.63-5.42c0-.64,0-1.29,0-1.94s0-1.32,0-2v-.63h.84v3.07c0,1,0,1.91.07,2.8q0,4-1,5.45-1.26,1.74-5.12,1.74a7.88,7.88,0,0,1-4.5-1,6.38,6.38,0,0,1-2.32-4.23,8.05,8.05,0,0,1-4.4,4.57,13,13,0,0,1-4.68.69,9.19,9.19,0,0,1-5.1-1.39,6.34,6.34,0,0,1-3-5.74,8.19,8.19,0,0,1,2.93-6.37,12.08,12.08,0,0,1,7.1-2.86,17,17,0,0,0,5.63-1.12C191.49,116.18,192,115,192,113.27Zm-.21,12.63v-9.33a3.62,3.62,0,0,1-2.48,1.37l-3.18.45a5.26,5.26,0,0,0-3.21,2.25,10.61,10.61,0,0,0-1.4,5.9q0,4.06.81,5.51a2.7,2.7,0,0,0,2.55,1.44,6.51,6.51,0,0,0,4.78-2.21A7.48,7.48,0,0,0,191.77,125.9Z"/><path class="cls-5" d="M220,140.25a23.32,23.32,0,0,1-2.73,5.95,4.53,4.53,0,0,1-3.77,2,11.63,11.63,0,0,1-4.33-.6,2.91,2.91,0,0,1-1.78-2,9.23,9.23,0,0,1-.39-2.27,3.7,3.7,0,0,1,3.6-3.57,3.25,3.25,0,0,1,2.36,1,3.58,3.58,0,0,1,1,2.69q0,3-2.82,3.35a1.71,1.71,0,0,0,1,.62,7.62,7.62,0,0,0,1.08.08,3.79,3.79,0,0,0,3.07-1.44,18.52,18.52,0,0,0,2.52-5.3l2.23-6.33L211,107c-.41-1.07-.67-1.7-.76-1.89-.28-.46-1.1-.7-2.45-.7h-1.61v-.7h16v.7c-1.07,0-2.15,0-3.25,0s-1.64.31-1.64.87l.42,1.41,6.76,18,4.7-13.74a12.67,12.67,0,0,0,.84-3.78q0-2.81-4.68-2.81v-.7H237v.7a6,6,0,0,0-4.12,1.3q-1.47,1.29-3.28,6.47Z"/><path class="cls-5" d="M254.44,105.89c1.82-1.35,2.77-2.07,2.86-2.17V114.2l-.56-.14a14.47,14.47,0,0,0-3.49-6.84,8.17,8.17,0,0,0-6-2.87,7.85,7.85,0,0,0-4.12,1,4.76,4.76,0,0,0-2.16,4.4,4.32,4.32,0,0,0,2.36,3.91,27.82,27.82,0,0,0,6.68,2.17q5,1.18,7,2.8,2.85,2.23,2.85,7.12c0,3-1,5.26-3.08,6.71a10.33,10.33,0,0,1-6.14,1.74,16.68,16.68,0,0,1-4.4-.41,11,11,0,0,1-4.27-3q-2.79,3.28-2.93,3.42V121.82h.49a45.12,45.12,0,0,0,2,6,10.76,10.76,0,0,0,2.25,3.42,7.23,7.23,0,0,0,3,1.92,17.72,17.72,0,0,0,4.31.39,5.59,5.59,0,0,0,3.58-1.12,4.54,4.54,0,0,0,1.69-3.77,5.3,5.3,0,0,0-2.25-4.69,18.45,18.45,0,0,0-6.21-2.09A15.53,15.53,0,0,1,241,119a8,8,0,0,1-2.95-6.49,8.57,8.57,0,0,1,2.48-6.19,8.11,8.11,0,0,1,6-2.55,11.68,11.68,0,0,1,4.76.91A25.8,25.8,0,0,0,254.44,105.89Z"/></g><g id="Layer_3" data-name="Layer 3"><rect class="cls-6" x="160.08" y="214.99" width="119.86" height="35.23" rx="12.15"/><rect class="cls-6" x="160.08" y="270.73" width="119.86" height="35.23" rx="12.15"/><rect class="cls-6" x="160.84" y="326.47" width="119.86" height="35.23" rx="12.15"/><rect class="cls-6" x="160.52" y="374.72" width="119.86" height="35.23" rx="12.15"/></g></svg>