<svg xmlns="http://www.w3.org/2000/svg" viewBox="0 0 301.02 450.38"><defs><style>.cls-1{fill:#f9f6ed;stroke:#1d1d1b;stroke-miterlimit:10;}.cls-2{fill:#3caee4;}.cls-3{fill:#010101;}.cls-4{opacity:0.09;}.cls-5{fill:#fff;}.cls-6{fill:#adacac;}</style></defs><g id="Layer_1" data-name="Layer 1"><rect class="cls-1" x="3.86" y="6" width="290.4" height="438.42" rx="25.14"/></g><g id="Layer_2" data-name="Layer 2"><rect class="cls-2" x="14.03" y="33.68" width="266.67" height="156.5"/></g><g id="Layer_4" data-name="Layer 4"><path class="cls-3" d="M121.65,272.46c-4,28.65-29.38,46.06-67.45,47.87,24.29,21.76,50.76,50,76.87,78.33H95.54C72.33,374.72,49.12,349,20.11,322.51V300H38.24c31.91,0,49-10.87,51.86-27.56h-70V255.78H89c-5.08-13.41-20.67-21.39-46.42-21.39H20.11V211.54h136v16.69h-50c8,6.52,13.42,15.59,15.23,27.55h35.18v16.68Z"/><g class="cls-4"><path class="cls-3" d="M27.43,45.11c.81,2.41-.51,4.76-3.43,6.39,2.76.76,5.94,2,9.09,3.15L30.3,56c-2.76-1-5.58-2.1-8.89-3l-.87-1.76L22,50.52c2.5-1.24,3.42-2.76,3-4.18l-5.5,2.73-.65-1.31,5.41-2.69c-.92-.85-2.45-.87-4.47.13L18,46.08l-.89-1.8L27.77,39l.65,1.31-3.93,2a3.73,3.73,0,0,1,2.27,1.57l2.76-1.37.65,1.31Z"/></g><g class="cls-4"><path class="cls-3" d="M270.6,175.07c.8,2.41-.52,4.76-3.43,6.39,2.75.76,5.93,1.95,9.08,3.15L273.46,186c-2.75-1-5.58-2.1-8.89-3l-.87-1.77,1.42-.71c2.51-1.24,3.42-2.76,3-4.18L262.63,179l-.65-1.31,5.41-2.69c-.93-.85-2.46-.87-4.48.13l-1.77.88-.89-1.8L270.93,169l.65,1.31-3.93,2a3.73,3.73,0,0,1,2.27,1.57l2.76-1.37.65,1.31Z"/></g><g class="cls-4"><path class="cls-3" d="M252,175.07c.8,2.41-.52,4.76-3.43,6.39,2.75.76,5.93,1.95,9.08,3.15L254.83,186c-2.75-1-5.58-2.1-8.89-3l-.87-1.77,1.42-.71c2.51-1.24,3.42-2.76,3-4.18L244,179l-.65-1.31,5.41-2.69c-.93-.85-2.46-.87-4.48.13l-1.77.88-.89-1.8L252.3,169l.65,1.31-3.93,2a3.73,3.73,0,0,1,2.27,1.57l2.76-1.37.65,1.31Z"/></g><g class="cls-4"><path class="cls-3" d="M246.6,149.5c.81,2.41-.51,4.76-3.43,6.39,2.76.76,5.94,2,9.09,3.15l-2.79,1.39c-2.76-1-5.58-2.1-8.89-3.05l-.87-1.76,1.42-.71c2.5-1.24,3.42-2.76,3-4.18l-5.5,2.73-.65-1.31,5.41-2.69c-.92-.85-2.45-.87-4.47.13l-1.77.88-.89-1.8,10.68-5.29.65,1.31-3.93,1.95a3.73,3.73,0,0,1,2.27,1.57l2.76-1.37.65,1.31Z"/></g><g class="cls-4"><path class="cls-3" d="M267.58,152.93c.8,2.41-.52,4.76-3.43,6.39,2.75.76,5.93,2,9.08,3.15l-2.79,1.39c-2.75-1-5.58-2.1-8.89-3.05l-.87-1.76,1.42-.71c2.51-1.24,3.42-2.76,3-4.18l-5.49,2.73-.65-1.31,5.41-2.69c-.93-.85-2.46-.87-4.48.13l-1.77.88-.89-1.8,10.68-5.29.65,1.31-3.93,1.95a3.73,3.73,0,0,1,2.27,1.57l2.76-1.37.65,1.31Z"/></g><g class="cls-4"><path class="cls-3" d="M270.6,132.64c.8,2.4-.52,4.75-3.43,6.38,2.75.76,5.93,1.95,9.08,3.16l-2.79,1.38c-2.75-1-5.58-2.09-8.89-3l-.87-1.77,1.42-.7c2.51-1.25,3.42-2.76,3-4.19l-5.49,2.73-.65-1.31,5.41-2.68c-.93-.86-2.46-.88-4.48.12l-1.77.88-.89-1.79,10.68-5.3.65,1.31-3.93,2a3.73,3.73,0,0,1,2.27,1.57l2.76-1.37.65,1.31Z"/></g><g class="cls-4"><path class="cls-3" d="M229.8,161.46c.81,2.4-.51,4.75-3.43,6.38,2.76.76,5.94,1.95,9.09,3.16l-2.79,1.38c-2.76-1-5.58-2.09-8.89-3l-.87-1.77,1.42-.7c2.5-1.25,3.42-2.76,3-4.19l-5.5,2.73-.65-1.31,5.41-2.68c-.92-.86-2.45-.88-4.48.12l-1.76.88-.89-1.79,10.68-5.3.65,1.31-3.93,2a3.73,3.73,0,0,1,2.27,1.57l2.76-1.37.65,1.31Z"/></g><g class="cls-4"><path class="cls-3" d="M217.7,175.07c.81,2.41-.51,4.76-3.43,6.39,2.76.76,5.94,1.95,9.09,3.15L220.57,186c-2.76-1-5.58-2.1-8.89-3l-.87-1.77,1.42-.71c2.5-1.24,3.42-2.76,3-4.18l-5.5,2.73-.65-1.31,5.41-2.69c-.92-.85-2.45-.87-4.47.13l-1.77.88-.89-1.8L218,169l.65,1.31-3.93,2a3.73,3.73,0,0,1,2.27,1.57l2.76-1.37.65,1.31Z"/></g><g class="cls-4"><path class="cls-3" d="M204.16,174.15c.8,2.41-.51,4.76-3.43,6.38,2.75.77,5.93,2,9.08,3.16L207,185.07c-2.75-1-5.57-2.09-8.88-3l-.88-1.76,1.43-.71c2.5-1.24,3.42-2.76,3-4.18l-5.49,2.72-.65-1.31,5.41-2.68c-.92-.85-2.46-.87-4.48.13l-1.76.87-.89-1.79L204.49,168l.65,1.31-3.93,1.95a3.68,3.68,0,0,1,2.27,1.57l2.76-1.37.65,1.31Z"/></g><g class="cls-4"><path class="cls-3" d="M185.53,174.15c.8,2.41-.51,4.76-3.43,6.38,2.75.77,5.93,2,9.08,3.16l-2.79,1.38c-2.75-1-5.57-2.09-8.88-3l-.88-1.76,1.43-.71c2.5-1.24,3.42-2.76,3-4.18l-5.49,2.72-.65-1.31,5.41-2.68c-.92-.85-2.46-.87-4.48.13l-1.76.87-.89-1.79L185.86,168l.65,1.31-3.93,1.95a3.73,3.73,0,0,1,2.27,1.57l2.76-1.37.65,1.31Z"/></g><g class="cls-4"><path class="cls-3" d="M180.17,148.58c.8,2.41-.52,4.76-3.43,6.38,2.75.77,5.93,2,9.08,3.16L183,159.5c-2.75-1-5.58-2.09-8.88-3l-.88-1.76,1.42-.71c2.51-1.24,3.42-2.76,3-4.18l-5.49,2.72-.65-1.31,5.41-2.68c-.92-.85-2.46-.87-4.48.13l-1.77.87-.88-1.79,10.67-5.29.65,1.31-3.93,1.95a3.73,3.73,0,0,1,2.27,1.57l2.76-1.37.65,1.31Z"/></g><g class="cls-4"><path class="cls-3" d="M201.14,152c.8,2.4-.51,4.76-3.43,6.38,2.75.77,5.93,2,9.08,3.16L204,162.93c-2.75-1-5.57-2.09-8.88-3l-.88-1.76,1.43-.71c2.5-1.24,3.42-2.76,3-4.18L193.17,156l-.65-1.31,5.41-2.68c-.92-.85-2.46-.87-4.48.13l-1.76.87-.89-1.79,10.67-5.29.65,1.31-3.93,1.94a3.81,3.81,0,0,1,2.27,1.57l2.76-1.37.65,1.31Z"/></g><g class="cls-4"><path class="cls-3" d="M204.16,131.71c.8,2.41-.51,4.76-3.43,6.39,2.75.76,5.93,2,9.08,3.15L207,142.64c-2.75-1-5.57-2.1-8.88-3l-.88-1.76,1.43-.71c2.5-1.24,3.42-2.76,3-4.18l-5.49,2.73-.65-1.31,5.41-2.69c-.92-.85-2.46-.87-4.48.13l-1.76.88-.89-1.8,10.67-5.29.65,1.31-3.93,1.95a3.68,3.68,0,0,1,2.27,1.57l2.76-1.37.65,1.31Z"/></g><g class="cls-4"><path class="cls-3" d="M163.37,160.53c.8,2.41-.52,4.76-3.43,6.39,2.75.76,5.93,2,9.08,3.15l-2.79,1.39c-2.75-1-5.58-2.1-8.89-3.05l-.87-1.76,1.42-.71c2.51-1.24,3.42-2.76,3-4.18l-5.49,2.73-.65-1.31,5.41-2.69c-.93-.85-2.46-.87-4.48.13l-1.77.88-.89-1.8,10.68-5.29.65,1.31-3.93,1.95a3.73,3.73,0,0,1,2.27,1.57l2.76-1.37.65,1.31Z"/></g><g class="cls-4"><path class="cls-3" d="M151.27,174.15c.8,2.41-.51,4.76-3.43,6.38,2.75.77,5.93,2,9.08,3.16l-2.79,1.38c-2.75-1-5.58-2.09-8.88-3l-.88-1.76,1.42-.71c2.51-1.24,3.42-2.76,3-4.18l-5.49,2.72-.65-1.31,5.41-2.68c-.92-.85-2.46-.87-4.48.13l-1.76.87-.89-1.79L151.6,168l.65,1.31-3.93,1.95a3.73,3.73,0,0,1,2.27,1.57l2.76-1.37.65,1.31Z"/></g><g class="cls-4"><path class="cls-3" d="M43.43,45.11c.8,2.41-.51,4.76-3.43,6.39,2.75.76,5.93,2,9.08,3.15L46.29,56c-2.75-1-5.57-2.1-8.88-3l-.88-1.76L38,50.52c2.5-1.24,3.41-2.76,3-4.18l-5.49,2.73-.65-1.31,5.41-2.69c-.92-.85-2.46-.87-4.48.13L34,46.08l-.89-1.8L43.76,39l.65,1.31-3.93,2a3.73,3.73,0,0,1,2.27,1.57l2.76-1.37.65,1.31Z"/></g><g class="cls-4"><path class="cls-3" d="M30.45,64.57C31.26,67,29.94,69.33,27,71c2.76.76,5.94,2,9.09,3.16l-2.79,1.38c-2.76-1-5.58-2.09-8.89-3l-.87-1.77L25,70c2.5-1.24,3.42-2.76,3-4.18l-5.5,2.72-.65-1.31,5.41-2.68c-.92-.86-2.45-.88-4.47.13L21,65.53l-.89-1.79,10.68-5.3.65,1.31-3.93,2a3.73,3.73,0,0,1,2.27,1.57l2.76-1.37.65,1.31Z"/></g><g class="cls-4"><path class="cls-3" d="M27.43,81.61C28.24,84,26.92,86.37,24,88c2.76.76,5.94,2,9.09,3.15L30.3,92.54c-2.76-1-5.58-2.1-8.89-3l-.87-1.77L22,87c2.5-1.25,3.42-2.76,3-4.19l-5.5,2.73-.65-1.31,5.41-2.68c-.92-.86-2.45-.88-4.47.12L18,82.58l-.89-1.79,10.68-5.3.65,1.31-3.93,2a3.73,3.73,0,0,1,2.27,1.57L29.52,79l.65,1.31Z"/></g><g class="cls-4"><path class="cls-3" d="M47.53,67.39c.8,2.41-.51,4.76-3.43,6.39,2.75.76,5.93,2,9.08,3.15l-2.79,1.39c-2.75-1-5.57-2.1-8.88-3l-.88-1.77,1.43-.7c2.5-1.25,3.42-2.76,3-4.19l-5.49,2.73L38.91,70l5.41-2.68c-.92-.86-2.46-.88-4.48.12l-1.76.88-.89-1.79,10.67-5.3.65,1.31-3.93,2a3.73,3.73,0,0,1,2.27,1.57l2.76-1.37L50.26,66Z"/></g><g class="cls-4"><path class="cls-3" d="M67,62.16c.8,2.4-.51,4.76-3.43,6.38,2.75.77,5.93,2,9.08,3.16l-2.79,1.38c-2.75-1-5.57-2.09-8.88-3l-.88-1.76,1.43-.71c2.5-1.24,3.42-2.76,3-4.18L59,66.11l-.65-1.31,5.41-2.68c-.92-.85-2.46-.87-4.48.13l-1.76.87-.89-1.79L67.29,56l.65,1.31L64,59.29a3.76,3.76,0,0,1,2.27,1.57L69,59.5l.65,1.3Z"/></g><g class="cls-4"><path class="cls-3" d="M63.53,45.11c.8,2.41-.52,4.76-3.43,6.39,2.75.76,5.93,2,9.08,3.15L66.39,56c-2.75-1-5.58-2.1-8.89-3l-.87-1.76,1.42-.71c2.51-1.24,3.42-2.76,3-4.18l-5.49,2.73-.65-1.31,5.4-2.69c-.92-.85-2.45-.87-4.47.13l-1.77.88-.89-1.8L63.86,39l.65,1.31-3.93,2a3.73,3.73,0,0,1,2.27,1.57l2.76-1.37.65,1.31Z"/></g><g class="cls-4"><path class="cls-3" d="M79.52,43.91c.8,2.4-.51,4.76-3.43,6.38,2.76.76,5.93,2,9.09,3.16l-2.79,1.38c-2.76-1-5.58-2.09-8.89-3L72.62,50l1.43-.71c2.5-1.24,3.42-2.76,3-4.18l-5.5,2.72-.65-1.31,5.41-2.68c-.92-.86-2.45-.87-4.48.13l-1.76.87-.89-1.79,10.67-5.29.65,1.31L76.58,41a3.76,3.76,0,0,1,2.26,1.57l2.77-1.37.64,1.31Z"/></g><g class="cls-4"><path class="cls-3" d="M95.52,43.91c.8,2.4-.52,4.76-3.43,6.38,2.75.76,5.93,2,9.08,3.16l-2.79,1.38c-2.75-1-5.58-2.09-8.88-3L88.62,50,90,49.32c2.51-1.24,3.42-2.76,3-4.18l-5.49,2.72-.65-1.31,5.41-2.68c-.92-.86-2.46-.87-4.48.13l-1.77.87-.88-1.79,10.67-5.29.65,1.31L92.57,41a3.81,3.81,0,0,1,2.27,1.57l2.76-1.37.65,1.31Z"/></g><g class="cls-4"><path class="cls-3" d="M82.54,63.36c.8,2.41-.51,4.76-3.43,6.39,2.76.76,5.93,2,9.09,3.15l-2.79,1.39c-2.76-1-5.58-2.1-8.89-3l-.88-1.77,1.43-.71c2.5-1.24,3.42-2.76,3-4.18l-5.5,2.73L73.92,66l5.41-2.68c-.92-.86-2.45-.88-4.48.12l-1.76.88-.89-1.8,10.68-5.29.64,1.31-3.92,2a3.68,3.68,0,0,1,2.26,1.57l2.77-1.37L85.28,62Z"/></g><g class="cls-4"><path class="cls-3" d="M79.52,80.41c.8,2.4-.51,4.76-3.43,6.38,2.76.77,5.93,2,9.09,3.16l-2.79,1.38c-2.76-1-5.58-2.09-8.89-3l-.88-1.76,1.43-.71c2.5-1.24,3.42-2.76,3-4.18l-5.5,2.72-.65-1.31,5.41-2.68c-.92-.85-2.45-.87-4.48.13l-1.76.87-.89-1.79,10.67-5.29.65,1.31-3.92,1.94a3.74,3.74,0,0,1,2.26,1.58l2.77-1.37.64,1.31Z"/></g><g class="cls-4"><path class="cls-3" d="M99.62,66.19c.8,2.4-.51,4.76-3.43,6.38,2.75.77,5.93,2,9.08,3.16l-2.79,1.38c-2.75-1-5.58-2.09-8.88-3l-.88-1.76,1.42-.71c2.51-1.24,3.42-2.76,3-4.18l-5.49,2.72L91,68.83l5.41-2.68c-.92-.85-2.46-.87-4.48.13l-1.76.87-.89-1.79L100,60.07l.65,1.31-3.93,1.94a3.79,3.79,0,0,1,2.27,1.58l2.76-1.37.65,1.31Z"/></g><g class="cls-4"><path class="cls-3" d="M86.25,105.86c.8,2.41-.52,4.76-3.44,6.39,2.76.76,5.94,2,9.09,3.15l-2.79,1.38c-2.75-1-5.58-2.09-8.89-3L79.35,112l1.42-.71c2.51-1.24,3.42-2.76,3-4.18l-5.5,2.72-.64-1.31,5.4-2.68c-.92-.85-2.45-.87-4.47.13l-1.77.88L75.9,105l10.68-5.29.65,1.31-3.93,2a3.73,3.73,0,0,1,2.27,1.57l2.76-1.37.65,1.31Z"/></g><g class="cls-4"><path class="cls-3" d="M98.81,87.61c.8,2.4-.52,4.76-3.43,6.38,2.75.77,5.93,2,9.08,3.16l-2.79,1.38c-2.75-1-5.58-2.09-8.89-3l-.87-1.76L93.33,93c2.51-1.24,3.42-2.76,3-4.18l-5.49,2.72-.65-1.31,5.4-2.68c-.92-.85-2.45-.87-4.47.13l-1.77.87-.89-1.79,10.68-5.29.65,1.31-3.93,1.94a3.79,3.79,0,0,1,2.27,1.58L100.89,85l.65,1.31Z"/></g><g class="cls-4"><path class="cls-3" d="M114.8,87.61c.8,2.4-.51,4.76-3.43,6.38,2.76.77,5.93,2,9.09,3.16l-2.79,1.38c-2.76-1-5.58-2.09-8.89-3l-.88-1.76,1.43-.71c2.5-1.24,3.42-2.76,3-4.18l-5.5,2.72-.65-1.31,5.41-2.68c-.92-.85-2.45-.87-4.48.13l-1.76.87-.89-1.79,10.67-5.29.65,1.31-3.92,1.94a3.74,3.74,0,0,1,2.26,1.58L116.89,85l.65,1.31Z"/></g><g class="cls-4"><path class="cls-3" d="M101.83,107.07c.8,2.4-.52,4.75-3.43,6.38,2.75.76,5.93,2,9.08,3.16L104.69,118c-2.75-1-5.58-2.09-8.89-3l-.87-1.77,1.42-.7c2.51-1.25,3.42-2.76,3-4.19L93.86,111l-.65-1.31L98.62,107c-.93-.86-2.46-.88-4.48.12l-1.77.88-.89-1.79,10.68-5.3.65,1.31-3.93,2a3.73,3.73,0,0,1,2.27,1.57l2.76-1.37.65,1.31Z"/></g><g class="cls-4"><path class="cls-3" d="M98.81,124.11c.8,2.41-.52,4.76-3.43,6.39,2.75.76,5.93,1.95,9.08,3.15L101.67,135c-2.75-1-5.58-2.1-8.89-3l-.87-1.76,1.42-.71c2.51-1.24,3.42-2.76,3-4.18l-5.49,2.73-.65-1.31,5.4-2.69c-.92-.85-2.45-.87-4.47.13l-1.77.88-.89-1.8L99.14,118l.65,1.31-3.93,2a3.73,3.73,0,0,1,2.27,1.57l2.76-1.37.65,1.31Z"/></g><g class="cls-4"><path class="cls-3" d="M118.9,109.89c.81,2.41-.51,4.76-3.43,6.39,2.76.76,5.94,2,9.09,3.15l-2.79,1.39c-2.76-1-5.58-2.1-8.89-3L112,116l1.42-.71c2.5-1.24,3.42-2.76,3-4.18l-5.5,2.73-.65-1.31,5.41-2.69c-.92-.85-2.45-.87-4.48.13l-1.76.88-.89-1.8,10.68-5.29.65,1.31L116,107a3.73,3.73,0,0,1,2.27,1.57l2.76-1.37.65,1.31Z"/></g><g class="cls-4"><path class="cls-3" d="M58.22,156.82c.8,2.41-.52,4.76-3.44,6.39,2.76.76,5.94,1.95,9.09,3.15l-2.79,1.39c-2.75-1-5.58-2.1-8.89-3.05l-.87-1.76,1.42-.71c2.51-1.24,3.42-2.76,3-4.18l-5.49,2.73-.65-1.31,5.4-2.69c-.92-.85-2.45-.87-4.47.13l-1.77.88-.89-1.8,10.68-5.29L59.2,152l-3.93,2a3.73,3.73,0,0,1,2.27,1.57l2.76-1.37.65,1.31Z"/></g><g class="cls-4"><path class="cls-3" d="M70.78,138.57c.8,2.41-.52,4.76-3.43,6.39,2.75.76,5.93,1.95,9.08,3.15l-2.79,1.39c-2.75-1-5.58-2.1-8.89-3.05l-.87-1.76L65.3,144c2.51-1.24,3.42-2.76,3-4.18l-5.49,2.73-.65-1.31,5.41-2.69c-.93-.85-2.46-.87-4.48.13l-1.77.88-.89-1.8,10.68-5.29.65,1.31-3.93,2a3.73,3.73,0,0,1,2.27,1.57l2.76-1.37.65,1.31Z"/></g><g class="cls-4"><path class="cls-3" d="M86.77,138.57c.8,2.41-.51,4.76-3.43,6.39,2.76.76,5.93,1.95,9.09,3.15l-2.79,1.39c-2.76-1-5.58-2.1-8.89-3.05l-.88-1.76L81.3,144c2.5-1.24,3.42-2.76,3-4.18l-5.5,2.73-.65-1.31,5.41-2.69c-.92-.85-2.45-.87-4.48.13l-1.76.88-.89-1.8,10.68-5.29.64,1.31-3.92,2a3.68,3.68,0,0,1,2.26,1.57l2.77-1.37.65,1.31Z"/></g><g class="cls-4"><path class="cls-3" d="M73.8,158c.8,2.4-.52,4.76-3.43,6.38,2.75.76,5.93,2,9.08,3.16L76.66,169c-2.75-1-5.58-2.09-8.89-3l-.87-1.77,1.42-.7c2.51-1.24,3.42-2.76,3-4.18L65.83,162l-.65-1.31L70.59,158c-.93-.86-2.46-.88-4.48.13l-1.77.87-.89-1.79,10.68-5.3.65,1.31-3.93,1.95a3.73,3.73,0,0,1,2.27,1.57l2.76-1.37.65,1.31Z"/></g><g class="cls-4"><path class="cls-3" d="M70.78,175.07c.8,2.41-.52,4.76-3.43,6.39,2.75.76,5.93,1.95,9.08,3.15L73.64,186c-2.75-1-5.58-2.1-8.89-3l-.87-1.77,1.42-.71c2.51-1.24,3.42-2.76,3-4.18L62.81,179l-.65-1.31L67.57,175c-.93-.85-2.46-.87-4.48.13l-1.77.88-.89-1.8L71.11,169l.65,1.31-3.93,2a3.73,3.73,0,0,1,2.27,1.57l2.76-1.37.65,1.31Z"/></g><g class="cls-4"><path class="cls-3" d="M26.89,160.25c.81,2.41-.51,4.76-3.43,6.39,2.76.76,5.94,2,9.09,3.15l-2.79,1.38c-2.76-1-5.58-2.09-8.89-3L20,166.37l1.42-.71c2.5-1.24,3.42-2.76,3-4.18l-5.5,2.72-.65-1.31,5.41-2.68c-.92-.85-2.45-.87-4.47.13l-1.77.88-.89-1.8,10.68-5.29.65,1.31L24,157.39A3.73,3.73,0,0,1,26.22,159L29,157.59l.65,1.31Z"/></g><g class="cls-4"><path class="cls-3" d="M42.47,161.46c.81,2.4-.51,4.75-3.43,6.38,2.76.76,5.94,1.95,9.09,3.16l-2.79,1.38c-2.76-1-5.58-2.09-8.89-3l-.87-1.77,1.42-.7c2.51-1.25,3.42-2.76,3-4.19l-5.5,2.73-.65-1.31,5.41-2.68c-.92-.86-2.45-.88-4.47.12l-1.77.88-.89-1.79,10.68-5.3.65,1.31-3.93,2a3.73,3.73,0,0,1,2.27,1.57l2.76-1.37.65,1.31Z"/></g><g class="cls-4"><path class="cls-3" d="M39.45,178.5c.81,2.41-.51,4.76-3.43,6.39,2.76.76,5.94,2,9.09,3.15l-2.79,1.39c-2.76-1-5.58-2.1-8.89-3.05l-.87-1.76,1.42-.71c2.51-1.24,3.42-2.76,3-4.18l-5.5,2.73-.65-1.31,5.41-2.69c-.92-.85-2.45-.87-4.47.13l-1.77.88-.89-1.8,10.68-5.29.65,1.31-3.93,1.95a3.73,3.73,0,0,1,2.27,1.57l2.76-1.37.65,1.31Z"/></g><g class="cls-4"><path class="cls-3" d="M90.87,160.85c.81,2.41-.51,4.76-3.43,6.39,2.76.76,5.94,1.95,9.09,3.15l-2.79,1.39c-2.76-1-5.58-2.1-8.89-3.05L84,167l1.42-.71c2.5-1.24,3.42-2.76,3-4.18l-5.5,2.73-.65-1.31,5.41-2.69c-.92-.85-2.45-.87-4.47.13l-1.77.88-.89-1.8,10.68-5.29.65,1.31-3.93,2a3.73,3.73,0,0,1,2.27,1.57L93,158.19l.65,1.31Z"/></g><g class="cls-4"><path class="cls-3" d="M119.05,61c.8,2.4-.51,4.75-3.43,6.38,2.75.76,5.93,2,9.08,3.16l-2.79,1.38c-2.75-1-5.58-2.09-8.88-3l-.88-1.77,1.42-.7c2.51-1.25,3.42-2.76,3-4.19l-5.49,2.73-.65-1.31,5.41-2.68c-.92-.86-2.46-.88-4.48.12l-1.76.88-.89-1.79,10.67-5.3.65,1.31-3.93,2a3.73,3.73,0,0,1,2.27,1.57l2.76-1.37.65,1.31Z"/></g><g class="cls-4"><path class="cls-3" d="M115.61,43.91c.81,2.4-.51,4.76-3.43,6.38,2.76.76,5.94,2,9.09,3.16l-2.79,1.38c-2.76-1-5.58-2.09-8.89-3L108.72,50l1.42-.71c2.51-1.24,3.42-2.76,3-4.18l-5.5,2.72L107,46.55l5.41-2.68c-.92-.86-2.45-.87-4.47.13l-1.77.87-.89-1.79L116,37.79l.65,1.31L112.67,41a3.81,3.81,0,0,1,2.27,1.57l2.76-1.37.65,1.31Z"/></g><g class="cls-4"><path class="cls-3" d="M31.66,102.07c.81,2.4-.51,4.76-3.43,6.38,2.76.77,5.94,2,9.09,3.16L34.53,113c-2.76-1-5.58-2.09-8.89-3l-.87-1.76,1.42-.71c2.5-1.24,3.42-2.76,3-4.18L23.69,106,23,104.71,28.45,102c-.92-.85-2.45-.87-4.47.13l-1.77.87-.89-1.79L32,96l.65,1.31L28.72,99.2A3.79,3.79,0,0,1,31,100.78l2.76-1.37.65,1.31Z"/></g><g class="cls-4"><path class="cls-3" d="M47.66,102.07c.8,2.4-.51,4.76-3.43,6.38,2.75.77,5.93,2,9.08,3.16L50.52,113c-2.75-1-5.57-2.09-8.88-3l-.88-1.76,1.43-.71c2.5-1.24,3.41-2.76,3-4.18L39.69,106,39,104.71,44.45,102c-.92-.85-2.46-.87-4.48.13l-1.76.87-.89-1.79L48,96l.65,1.31L44.71,99.2A3.79,3.79,0,0,1,47,100.78l2.76-1.37.65,1.31Z"/></g><g class="cls-4"><path class="cls-3" d="M34.68,121.53c.81,2.4-.51,4.75-3.43,6.38,2.76.76,5.94,2,9.09,3.15l-2.79,1.39c-2.76-1-5.58-2.09-8.89-3l-.87-1.77,1.42-.7c2.5-1.25,3.42-2.76,3-4.19l-5.5,2.73-.65-1.31,5.41-2.68c-.92-.86-2.45-.88-4.47.12l-1.77.88-.89-1.79L35,115.4l.65,1.31-3.93,2A3.73,3.73,0,0,1,34,120.23l2.76-1.37.65,1.31Z"/></g><g class="cls-4"><path class="cls-3" d="M31.66,138.57c.81,2.41-.51,4.76-3.43,6.39,2.76.76,5.94,1.95,9.09,3.15l-2.79,1.39c-2.76-1-5.58-2.1-8.89-3.05l-.87-1.76,1.42-.71c2.5-1.24,3.42-2.76,3-4.18l-5.5,2.73L23,141.22l5.41-2.69c-.92-.85-2.45-.87-4.47.13l-1.77.88-.89-1.8L32,132.45l.65,1.31-3.93,2A3.73,3.73,0,0,1,31,137.28l2.76-1.37.65,1.31Z"/></g><g class="cls-4"><path class="cls-3" d="M51.76,124.35c.8,2.41-.51,4.76-3.43,6.39,2.75.76,5.93,1.95,9.08,3.15l-2.79,1.39c-2.75-1-5.57-2.1-8.88-3.05l-.88-1.76,1.43-.71c2.5-1.24,3.42-2.76,3-4.18l-5.49,2.72-.65-1.3,5.41-2.69c-.92-.85-2.46-.87-4.48.13l-1.76.88-.89-1.8,10.67-5.29.65,1.31-3.93,1.95a3.73,3.73,0,0,1,2.27,1.57l2.76-1.37.65,1.31Z"/></g><g class="cls-4"><path class="cls-3" d="M71.19,119.12c.8,2.4-.51,4.76-3.43,6.38,2.75.76,5.93,2,9.08,3.16L74.05,130c-2.75-1-5.57-2.09-8.88-3l-.88-1.77,1.43-.7c2.5-1.24,3.42-2.76,3-4.18l-5.49,2.72-.65-1.31L68,119.08c-.92-.86-2.46-.88-4.48.13l-1.76.87-.89-1.79L71.52,113l.65,1.31-3.93,2a3.68,3.68,0,0,1,2.27,1.57l2.76-1.37.65,1.31Z"/></g><g class="cls-4"><path class="cls-3" d="M67.76,102.07c.8,2.4-.52,4.76-3.44,6.38,2.76.77,5.94,2,9.09,3.16L70.62,113c-2.75-1-5.58-2.09-8.89-3l-.87-1.76,1.42-.71c2.51-1.24,3.42-2.76,3-4.18L59.79,106l-.65-1.31,5.4-2.68c-.92-.85-2.45-.87-4.47.13L58.3,103l-.89-1.79L68.09,96l.65,1.31L64.81,99.2a3.79,3.79,0,0,1,2.27,1.58l2.76-1.37.65,1.31Z"/></g><g class="cls-4"><path class="cls-3" d="M137.39,42.81c.8,2.4-.51,4.76-3.43,6.38,2.76.76,5.93,2,9.09,3.16l-2.79,1.38c-2.76-1-5.58-2.09-8.89-3l-.88-1.77,1.43-.7c2.5-1.25,3.42-2.76,3-4.19l-5.5,2.73-.65-1.31,5.41-2.68c-.92-.86-2.45-.88-4.48.13l-1.76.87L127.05,42l10.67-5.3.65,1.31-3.92,1.95a3.68,3.68,0,0,1,2.26,1.57l2.77-1.37.65,1.31Z"/></g><g class="cls-4"><path class="cls-3" d="M153.39,42.81c.8,2.4-.51,4.76-3.43,6.38,2.75.76,5.93,2,9.08,3.16l-2.79,1.38c-2.75-1-5.58-2.09-8.88-3l-.88-1.77,1.42-.7c2.51-1.25,3.42-2.76,3-4.19l-5.49,2.73-.65-1.31,5.41-2.68c-.92-.86-2.46-.88-4.48.13l-1.77.87L143.05,42l10.67-5.3.65,1.31-3.93,1.95a3.73,3.73,0,0,1,2.27,1.57l2.76-1.37.65,1.31Z"/></g><g class="cls-4"><path class="cls-3" d="M140.41,62.26c.8,2.41-.51,4.76-3.43,6.39,2.76.76,5.94,1.95,9.09,3.15l-2.79,1.38c-2.76-1-5.58-2.09-8.89-3l-.88-1.76,1.43-.71c2.5-1.24,3.42-2.76,3-4.18l-5.5,2.72-.65-1.31,5.41-2.68c-.92-.85-2.45-.87-4.48.13l-1.76.88-.89-1.8,10.68-5.29.64,1.31-3.92,1.95A3.68,3.68,0,0,1,139.73,61l2.77-1.37.65,1.31Z"/></g><g class="cls-4"><path class="cls-3" d="M181.15,60.4c.8,2.41-.51,4.76-3.43,6.39,2.75.76,5.93,1.95,9.08,3.15L184,71.33c-2.75-1-5.57-2.1-8.88-3l-.88-1.77,1.43-.7c2.5-1.25,3.41-2.76,3-4.19l-5.49,2.73-.65-1.31,5.41-2.68c-.92-.86-2.46-.88-4.48.12l-1.76.88-.89-1.79,10.67-5.3.65,1.31-3.93,1.95a3.73,3.73,0,0,1,2.27,1.57l2.76-1.37.65,1.31Z"/></g><g class="cls-4"><path class="cls-3" d="M177.71,43.36c.81,2.4-.51,4.76-3.43,6.38,2.76.76,5.94,1.95,9.09,3.16l-2.79,1.38c-2.76-1-5.58-2.09-8.89-3l-.87-1.77,1.42-.7c2.51-1.24,3.42-2.76,3-4.18l-5.5,2.72L169.09,46l5.41-2.68c-.92-.86-2.45-.88-4.47.13l-1.77.87-.89-1.79,10.68-5.3.65,1.31-3.93,2A3.73,3.73,0,0,1,177,42.06l2.76-1.37.65,1.31Z"/></g><g class="cls-4"><path class="cls-3" d="M193.71,42.15c.8,2.41-.51,4.76-3.43,6.39,2.75.76,5.93,2,9.08,3.15l-2.79,1.39c-2.75-1-5.57-2.1-8.88-3l-.88-1.77,1.43-.71c2.5-1.24,3.42-2.76,3-4.18l-5.49,2.73-.65-1.31,5.41-2.68c-.92-.86-2.46-.88-4.48.12l-1.76.88-.89-1.8L194,36l.65,1.31-3.93,1.95A3.73,3.73,0,0,1,193,40.86l2.76-1.37.65,1.31Z"/></g><g class="cls-4"><path class="cls-3" d="M209.71,42.15c.8,2.41-.52,4.76-3.44,6.39,2.76.76,5.94,2,9.09,3.15l-2.79,1.39c-2.75-1-5.58-2.1-8.89-3l-.87-1.77,1.42-.71c2.51-1.24,3.42-2.76,3-4.18l-5.49,2.73-.65-1.31,5.4-2.68c-.92-.86-2.45-.88-4.47.12l-1.77.88-.89-1.8L210,36l.65,1.31-3.93,1.95A3.73,3.73,0,0,1,209,40.86l2.76-1.37.65,1.31Z"/></g><g class="cls-4"><path class="cls-3" d="M196.73,61.61c.8,2.4-.51,4.76-3.43,6.38,2.75.76,5.93,2,9.08,3.16l-2.79,1.38c-2.75-1-5.57-2.09-8.88-3l-.88-1.76,1.43-.71c2.5-1.24,3.42-2.76,3-4.18l-5.49,2.72-.65-1.31,5.41-2.68c-.92-.86-2.46-.88-4.48.13l-1.76.87-.89-1.79,10.67-5.29.65,1.3-3.93,2a3.73,3.73,0,0,1,2.27,1.57l2.76-1.37.65,1.31Z"/></g><g class="cls-4"><path class="cls-3" d="M233.24,59.2c.8,2.4-.52,4.76-3.43,6.38,2.75.77,5.93,2,9.08,3.16l-2.79,1.38c-2.75-1-5.58-2.09-8.88-3l-.88-1.76,1.42-.71c2.51-1.24,3.42-2.76,3-4.18l-5.49,2.72-.65-1.31L230,59.16c-.92-.85-2.46-.87-4.48.13l-1.77.87-.88-1.79,10.67-5.29.65,1.31-3.93,1.94a3.79,3.79,0,0,1,2.27,1.58l2.76-1.37.65,1.31Z"/></g><g class="cls-4"><path class="cls-3" d="M229.8,42.15c.81,2.41-.51,4.76-3.43,6.39,2.76.76,5.94,2,9.09,3.15l-2.79,1.39c-2.76-1-5.58-2.1-8.89-3l-.87-1.77,1.42-.71c2.5-1.24,3.42-2.76,3-4.18l-5.5,2.73-.65-1.31,5.41-2.68c-.92-.86-2.45-.88-4.48.12l-1.76.88-.89-1.8L230.14,36l.65,1.31-3.93,1.95a3.73,3.73,0,0,1,2.27,1.57l2.76-1.37.65,1.31Z"/></g><g class="cls-4"><path class="cls-3" d="M251.58,41.05c.8,2.41-.51,4.76-3.43,6.39,2.75.76,5.93,2,9.08,3.15L254.44,52c-2.75-1-5.57-2.09-8.88-3l-.88-1.76,1.43-.71c2.5-1.24,3.42-2.76,3-4.18L243.61,45,243,43.69,248.37,41c-.92-.85-2.46-.87-4.48.13l-1.76.88-.89-1.8,10.67-5.29.65,1.31-3.93,1.95a3.73,3.73,0,0,1,2.27,1.57l2.76-1.37.65,1.31Z"/></g><g class="cls-4"><path class="cls-3" d="M267.58,41.05c.8,2.41-.52,4.76-3.43,6.39,2.75.76,5.93,2,9.08,3.15L270.44,52c-2.75-1-5.58-2.09-8.89-3l-.87-1.76,1.42-.71c2.51-1.24,3.42-2.76,3-4.18L259.61,45,259,43.69,264.37,41c-.93-.85-2.46-.87-4.48.13l-1.77.88-.89-1.8,10.68-5.29.65,1.31-3.93,1.95a3.73,3.73,0,0,1,2.27,1.57l2.76-1.37.65,1.31Z"/></g><g class="cls-4"><path class="cls-3" d="M254.6,60.51c.8,2.4-.51,4.76-3.43,6.38,2.75.76,5.93,2,9.08,3.16l-2.79,1.38c-2.75-1-5.57-2.09-8.88-3l-.88-1.77,1.43-.7c2.5-1.25,3.42-2.76,3-4.19l-5.49,2.73L246,63.15l5.41-2.68c-.92-.86-2.46-.88-4.48.12l-1.76.88-.89-1.79,10.67-5.3.65,1.31-3.93,2a3.68,3.68,0,0,1,2.27,1.57l2.76-1.37.65,1.31Z"/></g><g class="cls-4"><path class="cls-3" d="M198.23,100.32c.8,2.4-.51,4.75-3.43,6.38,2.75.76,5.93,2,9.08,3.15l-2.79,1.39c-2.75-1-5.58-2.09-8.88-3l-.88-1.77,1.43-.7c2.5-1.25,3.41-2.76,3-4.19l-5.49,2.73-.65-1.31,5.41-2.68c-.92-.86-2.46-.88-4.48.12l-1.76.88-.89-1.79,10.67-5.3.65,1.31-3.93,2A3.73,3.73,0,0,1,197.55,99l2.76-1.37L201,99Z"/></g><g class="cls-4"><path class="cls-3" d="M194.79,83.27c.81,2.4-.51,4.76-3.43,6.38,2.76.76,5.94,1.95,9.09,3.16l-2.79,1.38c-2.76-1-5.58-2.09-8.89-3l-.87-1.76,1.42-.71c2.51-1.24,3.42-2.76,3-4.18l-5.5,2.72-.65-1.31,5.41-2.68c-.92-.86-2.45-.88-4.47.13l-1.77.87-.89-1.79,10.68-5.3.65,1.31-3.93,2A3.73,3.73,0,0,1,194.12,82l2.76-1.37.65,1.31Z"/></g><g class="cls-4"><path class="cls-3" d="M210.79,82.06c.8,2.41-.51,4.76-3.43,6.39,2.75.76,5.93,2,9.08,3.15L213.65,93c-2.75-1-5.57-2.1-8.88-3l-.88-1.77,1.43-.7c2.5-1.25,3.42-2.76,3-4.19L202.82,86l-.65-1.31L207.58,82c-.92-.86-2.46-.88-4.48.12l-1.76.88-.89-1.79,10.67-5.3.65,1.31-3.93,2a3.73,3.73,0,0,1,2.27,1.57l2.76-1.37.65,1.31Z"/></g><g class="cls-4"><path class="cls-3" d="M226.79,82.06c.8,2.41-.52,4.76-3.44,6.39,2.76.76,5.94,2,9.09,3.15L229.65,93c-2.75-1-5.58-2.1-8.89-3l-.87-1.77,1.42-.7c2.51-1.25,3.42-2.76,3-4.19L218.82,86l-.65-1.31,5.4-2.68c-.92-.86-2.45-.88-4.47.12l-1.77.88-.89-1.79,10.68-5.3.65,1.31-3.93,2a3.73,3.73,0,0,1,2.27,1.57l2.76-1.37.65,1.31Z"/></g><g class="cls-4"><path class="cls-3" d="M213.81,101.52c.8,2.4-.51,4.76-3.43,6.38,2.75.77,5.93,1.95,9.08,3.16l-2.79,1.38c-2.75-1-5.57-2.09-8.88-3l-.88-1.76,1.43-.71c2.5-1.24,3.42-2.76,3-4.18l-5.49,2.72-.65-1.31,5.41-2.68c-.92-.86-2.46-.87-4.48.13l-1.76.87-.89-1.79,10.67-5.29.65,1.31-3.93,1.94a3.81,3.81,0,0,1,2.27,1.57l2.76-1.37.65,1.31Z"/></g><g class="cls-4"><path class="cls-3" d="M250.32,99.11c.8,2.41-.52,4.76-3.43,6.38,2.75.77,5.93,2,9.08,3.16L253.18,110c-2.75-1-5.58-2.09-8.88-3l-.88-1.76,1.42-.71c2.51-1.24,3.42-2.76,3-4.18l-5.49,2.72-.65-1.31,5.41-2.68c-.92-.85-2.46-.87-4.48.13l-1.77.88-.88-1.8L250.65,93l.65,1.31-3.93,2a3.73,3.73,0,0,1,2.27,1.57l2.76-1.37.65,1.31Z"/></g><g class="cls-4"><path class="cls-3" d="M246.88,82.06c.81,2.41-.51,4.76-3.43,6.39,2.76.76,5.94,2,9.09,3.15L249.75,93c-2.76-1-5.58-2.1-8.89-3L240,88.18l1.42-.7c2.5-1.25,3.42-2.76,3-4.19L238.91,86l-.65-1.31L243.67,82c-.92-.86-2.45-.88-4.48.12l-1.76.88-.89-1.79,10.68-5.3.64,1.31-3.92,2a3.68,3.68,0,0,1,2.26,1.57L249,79.4l.65,1.31Z"/></g><g class="cls-4"><path class="cls-3" d="M268.66,81c.8,2.41-.51,4.76-3.43,6.39,2.75.76,5.93,2,9.08,3.15l-2.79,1.39c-2.75-1-5.57-2.1-8.88-3l-.88-1.76,1.43-.71c2.5-1.24,3.42-2.76,3-4.18l-5.49,2.72-.65-1.3,5.41-2.69c-.92-.85-2.46-.87-4.48.13l-1.76.88-.89-1.8L269,74.84l.65,1.31-3.93,1.95A3.73,3.73,0,0,1,268,79.67l2.76-1.37.65,1.31Z"/></g><g class="cls-4"><path class="cls-3" d="M271.68,100.42c.8,2.4-.51,4.76-3.43,6.38,2.75.76,5.93,2,9.08,3.16l-2.79,1.38c-2.75-1-5.57-2.09-8.88-3l-.88-1.77,1.43-.7c2.5-1.24,3.42-2.76,3-4.18l-5.49,2.72-.65-1.31,5.41-2.68c-.92-.86-2.46-.88-4.48.13l-1.76.87-.89-1.79L272,94.29l.65,1.31-3.93,2A3.68,3.68,0,0,1,271,99.12l2.76-1.37.65,1.31Z"/></g><g class="cls-4"><path class="cls-3" d="M224.27,130c.81,2.4-.51,4.76-3.43,6.38,2.76.76,5.94,1.95,9.09,3.16l-2.79,1.38c-2.76-1-5.58-2.09-8.89-3l-.87-1.77,1.42-.7c2.5-1.24,3.42-2.76,3-4.18l-5.5,2.72-.65-1.31,5.41-2.68c-.92-.86-2.45-.88-4.47.13l-1.77.87-.89-1.79,10.68-5.3.65,1.31-3.93,2a3.73,3.73,0,0,1,2.27,1.57l2.76-1.37.65,1.31Z"/></g><g class="cls-4"><path class="cls-3" d="M220.84,112.9c.8,2.4-.51,4.76-3.43,6.38,2.75.77,5.93,2,9.08,3.16l-2.79,1.38c-2.75-1-5.58-2.09-8.88-3l-.88-1.76,1.42-.71c2.51-1.24,3.42-2.76,3-4.18l-5.49,2.72-.65-1.31,5.41-2.68c-.92-.85-2.46-.87-4.48.13l-1.76.87-.89-1.79,10.67-5.29.65,1.31L217.89,110a3.79,3.79,0,0,1,2.27,1.58l2.76-1.37.65,1.31Z"/></g><g class="cls-4"><path class="cls-3" d="M242.62,111.8c.8,2.4-.52,4.76-3.43,6.38,2.75.76,5.93,1.95,9.08,3.16l-2.79,1.38c-2.75-1-5.58-2.09-8.89-3l-.87-1.77,1.42-.7c2.51-1.24,3.42-2.76,3-4.18l-5.49,2.72-.65-1.31,5.41-2.68c-.93-.86-2.46-.88-4.48.13l-1.77.87-.89-1.79,10.68-5.3.65,1.31-3.93,2a3.73,3.73,0,0,1,2.27,1.57l2.76-1.37.65,1.31Z"/></g><g class="cls-4"><path class="cls-3" d="M245.64,131.25c.8,2.41-.52,4.76-3.43,6.39,2.75.76,5.93,2,9.08,3.15l-2.79,1.39c-2.75-1-5.58-2.1-8.89-3.05l-.87-1.76,1.42-.71c2.51-1.24,3.42-2.76,3-4.18l-5.49,2.73L237,133.9l5.41-2.69c-.93-.85-2.46-.87-4.48.13l-1.77.88-.89-1.8L246,125.13l.65,1.31-3.93,1.95A3.73,3.73,0,0,1,245,130l2.76-1.37.65,1.31Z"/></g><g class="cls-4"><path class="cls-3" d="M137.39,79.31c.8,2.4-.51,4.76-3.43,6.38,2.76.76,5.93,2,9.09,3.16l-2.79,1.38c-2.76-1-5.58-2.09-8.89-3l-.88-1.77,1.43-.7c2.5-1.24,3.42-2.76,3-4.18l-5.5,2.72L128.77,82l5.41-2.68c-.92-.86-2.45-.88-4.48.13l-1.76.87-.89-1.79,10.67-5.3.65,1.31-3.92,2A3.68,3.68,0,0,1,136.71,78l2.77-1.37.65,1.31Z"/></g><g class="cls-4"><path class="cls-3" d="M157.49,65.09c.8,2.4-.51,4.76-3.43,6.38,2.75.76,5.93,2,9.08,3.16L160.35,76c-2.75-1-5.58-2.09-8.88-3l-.88-1.77,1.42-.7c2.51-1.24,3.42-2.76,3-4.18L149.52,69l-.65-1.31,5.41-2.68c-.92-.86-2.46-.88-4.48.13l-1.76.87-.89-1.79L157.82,59l.65,1.31-3.93,1.95a3.73,3.73,0,0,1,2.27,1.57l2.76-1.37.65,1.31Z"/></g><g class="cls-4"><path class="cls-3" d="M141.62,99.76c.8,2.41-.51,4.76-3.43,6.39,2.76.76,5.93,1.95,9.09,3.15l-2.79,1.39c-2.76-1-5.58-2.1-8.89-3l-.88-1.77,1.43-.71c2.5-1.24,3.42-2.76,3-4.18l-5.5,2.73-.65-1.31,5.41-2.68c-.92-.86-2.45-.88-4.48.12l-1.76.88-.89-1.8L142,93.64,142.6,95l-3.92,2a3.68,3.68,0,0,1,2.26,1.57l2.77-1.37.65,1.31Z"/></g><g class="cls-4"><path class="cls-3" d="M157.62,99.76c.8,2.41-.51,4.76-3.43,6.39,2.75.76,5.93,1.95,9.08,3.15l-2.79,1.39c-2.75-1-5.58-2.1-8.88-3l-.88-1.77,1.42-.71c2.51-1.24,3.42-2.76,3-4.18l-5.49,2.73-.65-1.31,5.41-2.68c-.92-.86-2.46-.88-4.48.12l-1.77.88-.88-1.8L158,93.64,158.6,95l-3.93,2a3.73,3.73,0,0,1,2.27,1.57l2.76-1.37.65,1.31Z"/></g><g class="cls-4"><path class="cls-3" d="M144.64,119.22c.8,2.4-.51,4.76-3.43,6.38,2.76.76,5.94,2,9.09,3.16l-2.79,1.38c-2.76-1-5.58-2.09-8.89-3l-.88-1.76,1.43-.71c2.5-1.24,3.42-2.76,3-4.18l-5.5,2.72-.65-1.31,5.41-2.68c-.92-.86-2.45-.87-4.48.13l-1.76.87-.89-1.79L145,113.1l.64,1.3-3.92,1.95a3.68,3.68,0,0,1,2.26,1.57l2.77-1.37.65,1.31Z"/></g><g class="cls-4"><path class="cls-3" d="M141.62,136.27c.8,2.4-.51,4.75-3.43,6.38,2.76.76,5.93,1.95,9.09,3.16l-2.79,1.38c-2.76-1-5.58-2.09-8.89-3l-.88-1.77,1.43-.7c2.5-1.25,3.42-2.76,3-4.19l-5.5,2.73-.65-1.31,5.41-2.68c-.92-.86-2.45-.88-4.48.12l-1.76.88-.89-1.79,10.67-5.3.65,1.31-3.92,2a3.68,3.68,0,0,1,2.26,1.57l2.77-1.37.65,1.31Z"/></g><g class="cls-4"><path class="cls-3" d="M129.92,162.15c.8,2.4-.51,4.76-3.43,6.38,2.75.76,5.93,1.95,9.09,3.16l-2.79,1.38c-2.76-1-5.58-2.09-8.89-3l-.88-1.77,1.43-.7c2.5-1.24,3.42-2.76,3-4.18L122,166.1l-.65-1.31,5.41-2.68c-.92-.86-2.46-.88-4.48.13l-1.76.87-.89-1.79,10.67-5.3.65,1.31L127,159.28a3.68,3.68,0,0,1,2.26,1.57l2.77-1.37.64,1.31Z"/></g><g class="cls-4"><path class="cls-3" d="M117.82,175.77c.81,2.4-.51,4.75-3.43,6.38,2.76.76,5.94,1.95,9.09,3.16l-2.79,1.38c-2.76-1-5.58-2.09-8.89-3l-.87-1.77,1.42-.7c2.5-1.25,3.42-2.76,3-4.19l-5.5,2.73-.65-1.31,5.41-2.68c-.92-.86-2.45-.88-4.48.12l-1.76.88-.89-1.79,10.68-5.3.65,1.31-3.93,2a3.73,3.73,0,0,1,2.27,1.57l2.76-1.37.65,1.31Z"/></g><g class="cls-4"><path class="cls-3" d="M108.18,137.88c.8,2.4-.52,4.76-3.43,6.38,2.75.77,5.93,2,9.08,3.16L111,148.8c-2.75-1-5.58-2.09-8.89-3l-.87-1.76,1.42-.71c2.51-1.24,3.42-2.76,3-4.18l-5.49,2.72-.65-1.31,5.41-2.68c-.93-.85-2.46-.87-4.48.13l-1.77.87-.89-1.79,10.68-5.29.65,1.31L105.23,135a3.81,3.81,0,0,1,2.27,1.57l2.76-1.36.65,1.3Z"/></g><g class="cls-4"><path class="cls-3" d="M161.72,122.05c.8,2.4-.51,4.75-3.43,6.38,2.75.76,5.93,1.95,9.08,3.15L164.58,133c-2.75-1-5.58-2.09-8.88-3l-.88-1.77,1.42-.7c2.51-1.25,3.42-2.76,3-4.19L153.75,126l-.65-1.31,5.41-2.68c-.92-.86-2.46-.88-4.48.12l-1.76.88-.89-1.79,10.67-5.3.65,1.31-3.93,2a3.73,3.73,0,0,1,2.27,1.57l2.76-1.37.65,1.31Z"/></g><g class="cls-4"><path class="cls-3" d="M181.15,116.81c.8,2.4-.51,4.76-3.43,6.38,2.75.77,5.93,2,9.08,3.16L184,127.73c-2.75-1-5.57-2.09-8.88-3l-.88-1.76,1.43-.71c2.5-1.24,3.41-2.76,3-4.18l-5.49,2.72-.65-1.31,5.41-2.68c-.92-.85-2.46-.87-4.48.13l-1.76.87-.89-1.79,10.67-5.29.65,1.31-3.93,1.94a3.79,3.79,0,0,1,2.27,1.58l2.76-1.37.65,1.31Z"/></g><g class="cls-4"><path class="cls-3" d="M177.71,99.76c.81,2.41-.51,4.76-3.43,6.39,2.76.76,5.94,1.95,9.09,3.15l-2.79,1.39c-2.76-1-5.58-2.1-8.89-3l-.87-1.77,1.42-.71c2.51-1.24,3.42-2.76,3-4.18l-5.5,2.73-.65-1.31,5.41-2.68c-.92-.86-2.45-.88-4.47.12l-1.77.88-.89-1.8,10.68-5.29L178.7,95l-3.93,2A3.73,3.73,0,0,1,177,98.47l2.76-1.37.65,1.31Z"/></g></g><g id="text"><path class="cls-5" d="M50,89.06c.88-2.06,1.76-3.34,2.64-3.86a8.48,8.48,0,0,1,4.11-.77Q60,84.43,64,89.3t6,4.88a4.35,4.35,0,0,0,4.07-2.61,15.75,15.75,0,0,0,1.36-7.14h.93a12.86,12.86,0,0,1,.08,1.64,19.4,19.4,0,0,1-1.29,6.7,29.57,29.57,0,0,1-2.84,5.93,81.35,81.35,0,0,0-4.53,7.41q-2.34,4.92-2.34,17.4,0,6.93-1.24,9.75a4.11,4.11,0,0,1-3.9,2.8A3.93,3.93,0,0,1,57,134.58c-.94-1.2-1.4-3.17-1.4-5.93a20,20,0,0,1,1.71-7.33,84.65,84.65,0,0,1,7.38-13.11q2.79-4.12,5.55-8.27A37.39,37.39,0,0,0,73.72,94a16.75,16.75,0,0,1-2.44.85,9.3,9.3,0,0,1-2.21.25,15.11,15.11,0,0,1-3-.31q-2.64-.78-4.26-1.17a20.29,20.29,0,0,0-5.2-.86,7.93,7.93,0,0,0-3,.55c-1.71.74-2.89,2.52-3.56,5.34a22.64,22.64,0,0,0-.62,5.5h-.94q0-2.34.16-6.55t.15-6.08v-.86a41.94,41.94,0,0,0-.47-6.24h.94Z"/><path class="cls-5" d="M130.58,135.36H100.24v-.78q3.51,0,6-.23a15.24,15.24,0,0,0,3.43-.59,2.09,2.09,0,0,0,1.09-.67,7.64,7.64,0,0,0,.31-2.89V90.14a7.8,7.8,0,0,0-.31-2.82,1.87,1.87,0,0,0-1-.63c-1.67-.62-4.84-.94-9.52-.94v-.7h30.42a23,23,0,0,1,15.91,6.48,24.4,24.4,0,0,1,8.19,19q0,11.38-7.25,18.33A23.58,23.58,0,0,1,130.58,135.36Zm0-.78q7.44,0,10.84-6t3.41-18.08q0-11.42-3.45-17.84-3.67-6.89-10.8-6.89c-2.5,0-4.42,0-5.75.12a10.64,10.64,0,0,0-2.82.43,1.87,1.87,0,0,0-1.09.9,9.31,9.31,0,0,0-.27,2.94V130.2a10.19,10.19,0,0,0,.27,3,1.76,1.76,0,0,0,1.06,1,11.38,11.38,0,0,0,3.36.35C127.09,134.57,128.84,134.58,130.61,134.58Z"/><path class="cls-5" d="M176.91,112.71v-4.54c0-2.09-.33-3.5-1-4.24s-2.1-1.09-4.29-1.09a10.21,10.21,0,0,0-4.71,1,5.07,5.07,0,0,0-2.64,2.79,3.34,3.34,0,0,1,.78-.08,3,3,0,0,1,2.41,1.17,4.09,4.09,0,0,1,.94,2.65,3.64,3.64,0,0,1-1.18,2.81,3.94,3.94,0,0,1-2.76,1.09,3.12,3.12,0,0,1-1.81-.54,4.37,4.37,0,0,1-2.28-3.75,7.73,7.73,0,0,1,.47-2.49q1.08-3,5.46-4.45a20.12,20.12,0,0,1,6.31-1c3.85,0,6.76.72,8.74,2.18a5.85,5.85,0,0,1,2.65,4.9v17.19a40.78,40.78,0,0,0,.23,5.76c.37,1.77,1.3,2.65,2.81,2.65a2.71,2.71,0,0,0,2.73-2.1,19.91,19.91,0,0,0,.7-6c0-.73,0-1.45,0-2.17s0-1.48,0-2.25v-.7h.93v3.43c0,1.09,0,2.13.08,3.12,0,3-.37,5-1.1,6.08q-1.41,1.95-5.72,1.95a8.72,8.72,0,0,1-5-1.16,7,7,0,0,1-2.59-4.71,9,9,0,0,1-4.91,5.1,14.4,14.4,0,0,1-5.23.77,10.26,10.26,0,0,1-5.69-1.56,7,7,0,0,1-3.36-6.4,9.13,9.13,0,0,1,3.27-7.11,13.52,13.52,0,0,1,7.92-3.2c3.11-.26,5.2-.68,6.29-1.25S176.91,114.69,176.91,112.71Zm-.23,14.11V116.39a4,4,0,0,1-2.77,1.53c-1.22.19-2.41.36-3.55.51a5.89,5.89,0,0,0-3.59,2.51,11.83,11.83,0,0,0-1.56,6.58q0,4.56.9,6.16a3,3,0,0,0,2.85,1.6,7.29,7.29,0,0,0,5.34-2.46A8.32,8.32,0,0,0,176.68,126.82Z"/><path class="cls-5" d="M208.19,142.84a26.38,26.38,0,0,1-3,6.64,5.06,5.06,0,0,1-4.21,2.18,13.2,13.2,0,0,1-4.84-.66,3.29,3.29,0,0,1-2-2.26,10.25,10.25,0,0,1-.43-2.54,4.1,4.1,0,0,1,4-4,3.61,3.61,0,0,1,2.64,1.13,4,4,0,0,1,1.14,3c0,2.24-1,3.48-3.15,3.74a1.92,1.92,0,0,0,1.13.7,9.46,9.46,0,0,0,1.21.08,4.24,4.24,0,0,0,3.43-1.6,20.78,20.78,0,0,0,2.81-5.92l2.49-7.06-11.27-30.57c-.47-1.2-.76-1.9-.86-2.11q-.47-.78-2.73-.78h-1.79v-.78h17.86v.78c-1.2,0-2.41,0-3.63,0s-1.83.35-1.83,1l.47,1.57,7.54,20.11,5.24-15.34a14,14,0,0,0,.94-4.22q0-3.14-5.22-3.13v-.78h13v.78a6.76,6.76,0,0,0-4.6,1.44c-1.09,1-2.31,3.37-3.66,7.23Z"/><path class="cls-5" d="M246.64,104.47c2-1.5,3.1-2.31,3.2-2.41v11.7l-.62-.16a16.2,16.2,0,0,0-3.9-7.64,9.11,9.11,0,0,0-6.71-3.2,8.7,8.7,0,0,0-4.6,1.09,5.32,5.32,0,0,0-2.42,4.91,4.84,4.84,0,0,0,2.64,4.37,31.32,31.32,0,0,0,7.46,2.42q5.59,1.32,7.85,3.12c2.13,1.66,3.19,4.32,3.19,8,0,3.38-1.15,5.87-3.43,7.48a11.53,11.53,0,0,1-6.87,1.95,18.24,18.24,0,0,1-4.91-.46,12.39,12.39,0,0,1-4.76-3.36q-3.12,3.67-3.28,3.82v-13.8H230a51.78,51.78,0,0,0,2.19,6.71,12.24,12.24,0,0,0,2.51,3.82,8.23,8.23,0,0,0,3.41,2.14,19.79,19.79,0,0,0,4.81.43,6.19,6.19,0,0,0,4-1.25,5,5,0,0,0,1.88-4.21,5.89,5.89,0,0,0-2.51-5.22q-1.95-1.34-6.93-2.34a17.53,17.53,0,0,1-7.71-3.28,9,9,0,0,1-3.29-7.25,9.53,9.53,0,0,1,2.77-6.91,9.09,9.09,0,0,1,6.75-2.84,12.79,12.79,0,0,1,5.3,1A28.62,28.62,0,0,0,246.64,104.47Z"/></g><g id="Layer_3" data-name="Layer 3"><rect class="cls-6" x="160.08" y="214.99" width="119.86" height="35.23" rx="12.15"/><rect class="cls-6" x="160.08" y="270.73" width="119.86" height="35.23" rx="12.15"/><rect class="cls-6" x="160.84" y="326.47" width="119.86" height="35.23" rx="12.15"/><rect class="cls-6" x="160.52" y="374.72" width="119.86" height="35.23" rx="12.15"/></g></svg>